<?xml version="1.0" standalone="no"?>
<!DOCTYPE svg PUBLIC "-//W3C//DTD SVG 1.1//EN" "http://www.w3.org/Graphics/SVG/1.1/DTD/svg11.dtd">
<svg xmlns="http://www.w3.org/2000/svg">
<metadata>Copyright (C) 2016 by original authors @ fontello.com</metadata>
<defs>
<<<<<<< HEAD
<font id="vidatio" horiz-adv-x="1000" >
<font-face font-family="vidatio" font-weight="400" font-stretch="normal" units-per-em="1000" ascent="850" descent="-150" />
<missing-glyph horiz-adv-x="1000" />
<glyph glyph-name="piechart" unicode="&#xe800;" d="M1002 383c-7 115-53 219-124 300l-301-300h425z m-169 342c-89 78-205 125-332 125s-243-47-332-125l332-332 332 332z m-337-404c-1 0-2 0-3 1-1 0-2 0-3 1-1 0-2 1-3 1-1 1-2 1-3 2-1 1-3 2-5 4l-353 353c-78-88-126-204-126-331 0-277 225-502 502-502 266 0 484 208 500 470h-500c-2 0-4 1-6 1z" horiz-adv-x="1002" />
<glyph glyph-name="upgradeaccount" unicode="&#xe801;" d="M439 20v62h-62c-67 0-122 55-122 122 0 68 55 123 122 123h62v44c-24 19-54 34-91 43 86 31 153 114 153 211 0 124-98 225-223 225-124 0-224-101-224-225 0-97 61-180 147-211-199-47-201-269-201-269v-295h536v50c-55 12-97 61-97 120z m307 230h-138v139c0 25-21 46-46 46-26 0-46-21-46-46v-124-15h-139c-25 0-46-20-46-46 0-25 21-46 46-46h139v-138c0-16 8-30 20-39v0c8-4 16-7 26-7 25 0 46 21 46 46v138h138c25 0 46 21 46 46 0 26-21 46-46 46z m-210-104c0 1 0 2 0 5 0-3 0-4 0-5z" horiz-adv-x="792" />
<glyph glyph-name="twitter" unicode="&#xe802;" d="M1197 832c-49-29-103-50-161-62-46 49-111 80-184 80-139 0-252-113-252-252 0-20 2-39 6-58-210 11-396 111-520 264-22-37-34-81-34-127 0-88 44-165 112-210-41 1-80 12-114 31 0-1 0-2 0-3 0-122 86-224 202-247-21-6-43-9-67-9-16 0-32 1-47 4 32-100 125-173 236-175-87-68-195-108-314-108-20 0-40 1-60 3 112-71 245-113 387-113 464 0 718 385 718 718 0 11 0 22 0 33 49 36 92 80 126 131-46-20-94-34-145-40 52 31 92 81 111 140z" horiz-adv-x="1231" />
<glyph glyph-name="trash" unicode="&#xe803;" d="M35-34c0-116 116-116 116-116s349 0 465 0 116 116 116 116v581h-697c0 0 0-465 0-581z m494 443c0 15 13 29 29 29s29-14 29-29v-407c0-16-13-29-29-29s-29 13-29 29v407z m-175 0c0 15 14 29 30 29s29-14 29-29v-407c0-16-14-29-29-29s-30 13-30 29v407z m-174 0c0 15 13 29 29 29s29-14 29-29v-407c0-16-13-29-29-29s-29 13-29 29v407z m329 298c0 0 13 143-125 143s-126-143-126-143c-137 0-205-64-205-64h-53v-64h767v64h-53c0 0-68 64-205 64z m-125 1h-77c0 107 77 102 77 102s76 6 76-102h-76z" horiz-adv-x="767" />
<glyph glyph-name="text" unicode="&#xe804;" d="M958 850h-916c-23 0-42-19-42-42v-202c0-23 13-28 30-12l83 84c17 16 49 29 72 29h202c23 0 42-19 42-41v-631c0-23-14-55-30-72l-84-84c-16-16-10-29 12-29h346c23 0 28 13 12 29l-84 84c-16 17-30 49-30 72v631c0 22 19 41 42 41h203c22 0 54-13 71-29l84-84c16-16 29-11 29 12v202c0 23-19 42-42 42z" horiz-adv-x="1000" />
<glyph glyph-name="searchfiles" unicode="&#xe805;" d="M829 638c-59 62-119 122-182 178-20 18-52 32-79 32-148 3-297 2-447 1-80 0-120-40-121-120 0-127 0-380 0-380 0-127 0-254 0-381 0-75 43-118 120-118 204 0 408 0 612 0 84 0 124 39 124 123 1 199 1 399-1 599 0 22-11 49-26 66z m-101-697c-200 1-401 1-601 0-28 0-33 12-33 36 0 249 0 497 0 745 0 24 5 37 33 37 135-1 271-1 414-1 0-50-1-94 0-138 1-55 28-82 82-83 45-1 89-1 133-1 8-2 6-11 6-15 1-182 0-364 1-546 0-26-10-34-35-34z m-164 323c25 35 39 78 39 124 0 117-95 212-212 212-117 0-213-95-213-212 0-118 96-213 213-213 46 0 88 15 123 39l135-135c7-7 16-10 25-10 9 0 18 3 25 10 14 14 14 36 0 50l-135 135z m-173-18c-78 0-142 63-142 142 0 78 64 141 142 141 78 0 142-63 142-141 0-79-64-142-142-142z" horiz-adv-x="857" />
<glyph glyph-name="search" unicode="&#xe806;" d="M726 218c47 66 74 146 74 232 0 221-179 400-400 400s-400-179-400-400 179-400 400-400c86 0 166 28 232 74l254-255c13-13 30-19 47-19s35 6 48 19c26 27 26 69 0 95l-255 254z m-326-35c-147 0-267 120-267 267s120 267 267 267c147 0 267-120 267-267s-120-267-267-267z" horiz-adv-x="1000" />
<glyph glyph-name="api" unicode="&#xe807;" d="M675 825c-25 30-70 34-101 8l-574-483 574-483c14-11 30-17 46-17 21 0 41 9 55 25 25 31 22 76-9 101l-444 374 444 374c31 25 34 70 9 101z m712 17c-36 18-79 4-96-31l-429-858c-17-35-3-78 32-96 10-5 21-7 32-7 26 0 51 14 64 39l429 858c17 35 3 78-32 95z" horiz-adv-x="1426" />
<glyph glyph-name="coin1" unicode="&#xe808;" d="M1489 211c-119-74-251-109-387-131-211-34-422-34-630 13-186 41-372 91-472 285 0-76 0-77 0-149 0-65 25-120 72-163 27-24 55-47 85-65 128-78 269-112 415-133 203-29 406-23 607 20 125 26 245 65 349 143 61 47 109 103 110 185 2 76 1 82 1 158-35-71-76-117-150-163z m104 393c-31 36-70 69-110 94-121 77-258 111-398 131-262 39-519 26-771-57-101-33-196-79-265-163-65-80-67-173 4-248 43-44 95-84 149-112 194-100 405-122 600-127 194 2 367 23 533 81 97 35 189 80 257 162 61 75 63 166 1 239z m-651-365c-115-3-279 30-297 170-42 0-62 0-98 0 16 37 25 55 42 92 21 0 32 0 55 0 1 9 2 14 3 23-36 0-54 0-86 0 16 37 25 56 41 93 26 0 39-1 65-1 34 92 102 159 245 159 45 0 101-8 141-21-8-38-12-58-20-96-37 14-77 24-115 25-60 0-97-19-115-67 89 0 135-1 218-1-8-37-13-55-22-92-80 0-125 0-210 1 0-10-1-14-1-23 83-1 126-1 204-1-10-37-16-56-27-92-65 0-100 0-168 0 16-57 60-78 137-78 56 0 104 21 145 37 4-44 7-66 11-109-27-10-69-17-148-19z" horiz-adv-x="1639" />
<glyph glyph-name="coin2" unicode="&#xe809;" d="M1036 264c-77-47-162-70-249-84-136-22-273-22-407 8-79 17-157 37-220 83 66-29 137-44 209-54 131-19 262-15 392 12 80 17 158 42 225 93 39 30 70 66 71 119 1 49 0 53 0 102-22-46-49-75-97-105-76-48-161-70-249-84-136-23-272-22-407 8-120 26-239 58-304 183 0-49 0-49 0-95 0-42 16-78 47-106 9-8 19-16 29-24 0-11 0-23 0-44-1-42 16-77 46-106 17-15 36-30 55-42 82-50 173-72 267-85 132-19 262-15 392 13 81 17 158 42 225 92 40 30 70 66 71 119 1 50 1 53 1 102-23-45-49-75-97-105z m0-181c-77-48-162-70-249-85-136-22-273-21-407 9-120 26-240 58-304 183 0-49 0-49 0-95-1-42 16-78 46-106 17-15 36-30 55-42 82-50 173-72 267-85 132-19 262-15 392 12 81 17 158 42 225 93 40 30 70 66 71 119 1 49 1 53 1 102-23-46-49-75-97-105z m-9 608c-20 24-44 45-71 61-78 50-166 71-256 85-169 24-335 16-498-37-64-22-126-51-170-106-42-51-43-111 2-159 28-29 61-54 97-73 124-64 261-78 386-81 126 1 237 14 344 52 63 22 122 51 166 104 39 49 41 107 0 154z m-442-240c-74-2-180 19-191 110-27 0-40 0-63 0 10 24 16 35 27 59 13 0 21 0 35 0 1 6 1 9 2 15-23 0-35 0-56 0 11 24 16 36 27 60 17 0 25 0 42-1 22 60 66 102 158 102 29 0 65-5 91-13-5-25-8-37-13-62-24 9-50 16-74 16-39 0-63-12-74-43 57 0 87 0 141 0-6-24-9-36-15-60-52 0-80 0-135 1-1-6-1-9-1-15 54 0 82-1 132-1-7-24-10-36-18-59-42 0-64 0-108 0 10-36 39-50 88-50 36 0 67 13 94 24 3-29 4-43 7-71-18-6-45-10-96-12z" horiz-adv-x="1133" />
<glyph glyph-name="coin3" unicode="&#xe80a;" d="M877 354c-65-40-137-59-211-71-115-19-231-19-344 7-67 14-133 31-186 70 56-24 115-37 176-46 111-16 222-13 332 11 68 14 134 35 190 78 34 25 60 56 61 101 1 41 0 44 0 86-19-39-41-64-82-89-65-40-137-59-211-71-115-19-231-19-344 7-102 22-203 49-258 155 0-41 0-42 0-81 0-36 14-65 40-89 7-7 16-14 24-21 0-9 0-19 0-37 0-36 13-65 39-89 15-13 30-26 47-36 69-42 147-61 226-72 111-16 222-13 332 10 68 15 134 36 190 79 34 25 60 56 61 101 1 41 0 44 0 86-19-39-41-64-82-89z m0-153c-65-41-137-60-211-72-115-19-231-18-344 7-102 23-203 50-258 156 0-42 0-42 0-81 0-36 13-66 39-90 15-13 30-25 47-35 69-43 147-61 226-73 111-16 222-12 332 11 47 10 92 23 134 44-8-7-18-14-29-21-65-40-137-59-211-71-115-19-231-19-344 7-102 22-203 49-258 155 0-41 0-42 0-81 0-35 14-66 40-89 14-13 29-26 46-36 69-42 147-61 226-72 111-16 222-13 332 10 68 15 134 36 190 79 34 25 60 56 61 101 0 25 0 36 0 50 1 1 2 2 3 2 34 26 60 56 61 101 1 42 0 45 0 87-19-39-41-64-82-89z m-7 515c-17 20-38 37-60 51-67 42-141 60-218 72-142 21-283 14-421-32-54-18-106-43-144-89-36-43-37-94 2-135 23-24 52-46 81-61 106-55 222-67 328-69 106 1 200 12 291 44 53 19 103 43 140 88 34 41 35 91 1 131z m-366-200c-63-1-152 16-162 93-23 0-34 0-54 0 9 20 14 30 23 50 12 0 18 0 30 0 1 5 1 8 2 13-20 0-29 0-47 0 9 20 13 30 22 50 14 0 21 0 36 0 18 51 55 87 133 87 25 0 56-5 78-12-5-21-7-31-11-52-21 8-43 13-63 13-33 0-53-10-63-36 49 0 74 0 119 0-4-21-7-31-12-51-44 0-68 0-115 1 0-5 0-8 0-13 45 0 69 0 111 0-5-21-8-31-15-51-35 0-54 0-91 1 8-31 33-43 74-43 31 0 57 11 80 20 2-24 3-36 6-60-15-5-38-9-81-10z" horiz-adv-x="959" />
<glyph glyph-name="open" unicode="&#xe80b;" d="M600 425h-51c3 199 4 309-60 373-46 47-112 52-159 52-208 0-213-200-215-276-1-29 22-53 51-54 29-1 53 22 54 51 3 132 30 174 110 174 57 0 75-12 84-21 33-33 32-145 30-299 0 0 0 0 0 0h-383c-33 0-61-28-61-62v-452c0-33 28-61 61-61h539c34 0 62 28 62 61v452c0 34-28 62-62 62z m-223-315v-67c0-35-20-63-45-63-24 0-45 28-45 63v67c-31 16-52 49-52 86 0 54 43 98 97 98s98-44 98-98c0-37-21-70-53-86z" horiz-adv-x="662" />
<glyph glyph-name="opendata" unicode="&#xe80c;" d="M99 556c94-49 198-59 293-62 95 1 179 11 260 40 48 17 93 39 126 79 30 37 31 81 0 117-15 18-34 33-53 46-60 37-127 54-195 64-128 19-254 13-377-28-49-16-95-39-129-80-32-39-33-84 2-121 21-22 46-41 73-55z m-2-419c-40 21-77 47-96 92 0-38-1-77 0-116 1-27 13-52 34-68 28-21 57-42 89-56 86-38 179-49 273-50 1 0 2 0 3 0v136c-40 0-81 3-122 9-63 9-124 23-181 53z m52 163c-62 22-119 50-149 115 0-35 0-70 0-105 0-32 12-59 35-80 13-12 27-23 42-32 59-37 126-53 195-64 42-6 85-10 128-10v34c0 42 19 80 50 104-7 0-14 0-20-1-96-3-191 7-281 39z m579 221c-16-10-31-18-47-25 19 0 71 0 116-32 2 8 3 16 4 24 0 37 0 75 0 112-17-34-37-57-73-79z m-693-106c13-12 27-23 42-32 62-38 131-55 202-65 72-10 143-11 214-4 2 28 7 55 18 81 8 19 24 45 52 66-8-2-16-3-24-4-103-17-207-17-308 6-91 20-182 44-231 139 0-37 0-72 0-107 0-32 12-59 35-80z m805-221h-37c1 109 2 168-34 204-25 26-62 29-88 29-34 0-82-5-106-47-15-28-15-62-15-103v-5c0-17 14-31 32-31s31 14 31 31v5c0 32 0 59 7 73 2 4 8 15 51 15 34 0 41-8 44-11 17-17 17-77 16-160h-224c-20 0-37-16-37-36v-271c0-20 17-37 37-37h323c20 0 37 17 37 37v271c0 20-17 36-37 36z m-131-190v-44c0-23-13-41-30-41-16 0-29 18-29 41v44c-21 11-35 32-35 57 0 36 29 65 64 65 36 0 65-29 65-65 0-25-14-46-35-57z" horiz-adv-x="877" />
<glyph glyph-name="options" unicode="&#xe80d;" d="M579 301c15 14 17 37 4 49-13 13-17 36-9 51 8 16 37 60 54 60 18 0 33 17 33 37v43c0 20-15 37-33 37-17 0-37 14-42 31-5 16-16 67-3 80 13 12 11 35-4 49l-30 30c-14 15-37 16-49 4-13-13-36-17-51-9-16 8-60 36-60 54s-17 33-37 33h-43c-20 0-37-15-37-33s-14-37-31-42c-16-5-67-16-79-3s-36 11-50-4l-30-30c-15-14-16-37-4-49s17-36 9-51c-8-16-36-60-54-60s-33-17-33-37v-43c0-20 15-37 33-37 18 0 37-14 42-31s16-67 3-80c-12-12-11-35 4-49l30-30c14-15 37-16 50-4s35 17 50 9 60-37 60-54 17-33 37-33h43c21 0 37 15 37 33s14 37 31 42 67 16 80 3c12-12 35-11 49 4l30 30z m-248 158c-34 0-61 27-61 60 0 34 27 61 61 61 33 0 60-27 60-61 0-33-27-60-60-60z m826-220c-18 0-37 14-42 31-6 17-17 67-4 80s11 35-3 49l-30 30c-15 15-37 17-50 4-13-13-36-17-51-9-15 8-59 37-59 55 0 18-17 32-38 32h-42c-21 0-38-14-38-32 0-18-14-37-30-43s-67-16-80-3-35 11-50-4l-30-30c-14-14-16-37-3-49 12-13 16-36 8-51-8-16-36-60-54-60-18 0-33-16-33-37v-43c0-20 15-37 33-37 18 0 37-14 42-31 6-16 16-67 4-79-13-13-11-36 3-50l30-30c15-15 37-16 50-4 13 13 36 17 51 9 15-8 59-36 59-54s17-33 38-33h42c21 0 38 15 38 33s13 37 30 42 67 16 80 3c13-12 35-11 50 4l30 30c14 14 16 37 3 50s-16 35-8 51c8 15 36 59 54 59s32 17 32 37v43c0 21-14 37-32 37z m-298-119c-33 0-60 27-60 61 0 33 27 60 60 60 33 0 60-27 60-60 0-34-27-61-60-61z" horiz-adv-x="1189" />
<glyph glyph-name="phone" unicode="&#xe80e;" d="M1000 850c-333 0-333 0-667 0s-333-200-333-200 0-200 167-200 166 200 166 200h667c0 0 0-200 167-200s166 200 166 200 0 200-333 200z m167-483c-103 0-182 53-223 151-7 17-12 33-16 49h-523c-3-16-9-32-16-49-40-98-119-151-222-151-13 0-25 1-36 2-70-112-131-234-131-319 0-200 167-200 167-200h1000c0 0 166 0 166 200 0 85-60 207-130 319-12-1-24-2-36-2z m-500-317c-184 0-334 90-334 200s150 200 334 200 333-89 333-200-149-200-333-200z" horiz-adv-x="1333" />
<glyph glyph-name="profile" unicode="&#xe80f;" d="M366 407c85 34 145 117 145 214 0 126-102 229-229 229-127 0-229-103-229-229 0-97 60-180 145-214-198-34-198-188-198-188 0-48 0-126 0-174v-108c0-48 39-87 87-87h390c48 0 87 39 87 87v108c0 48 0 126 0 174 0 0 0 154-198 188z" horiz-adv-x="564" />
<glyph glyph-name="colors" unicode="&#xe810;" d="M140 508l-21 94c0 0 31 23 29 96-2 73-69 152-69 152s-66-79-69-152c-2-73 30-96 30-96l-21-94c0 0-19 7-19-14 0-21 33-21 33-21s0-400 0-512 46-111 46-111 46-2 46 111 0 512 0 512 33 0 33 21c0 21-18 14-18 14z m554 214c0 0-500 0-500-167 0-376 172-86 268-258 57-102-112-75-112-242 0-166 344-166 344-166s500 0 500 333c0 500-500 500-500 500z m-29-619c-50 0-90 32-90 72 0 40 40 72 90 72 51 0 91-32 91-72 0-40-40-72-91-72z m91 410c-38 0-68 31-68 69 0 38 30 69 68 69 38 0 69-31 69-69 0-38-31-69-69-69z m113 6c0 38 31 69 69 69 38 0 68-31 68-69 0-37-30-68-68-68-38 0-69 31-69 68z m162-451c-38 0-68 31-68 68 0 38 30 69 68 69 38 0 69-31 69-69 0-37-31-68-69-68z m84 276c0-38-31-69-69-69-38 0-68 31-68 69 0 38 30 69 68 69 38 0 69-31 69-69z" horiz-adv-x="1194" />
<glyph glyph-name="emptytable" unicode="&#xe811;" d="M829 638c-59 62-119 122-182 178-20 18-52 32-79 32-149 3-298 2-447 1-80 0-120-40-121-120 0-127 0-380 0-380 0-127 0-254 0-381 0-75 43-118 120-118 204 0 408 0 612 0 84 0 124 39 124 123 1 199 1 399-1 599 0 22-11 49-26 66z m-101-697c-200 1-401 1-601 0-28 0-33 12-33 36 0 249 0 497 0 745 0 24 5 37 33 37 135-1 271-1 414-1 0-50-1-94 0-138 1-55 28-82 82-83 45-1 89-1 133-1 8-2 6-11 6-15 1-182 0-364 1-546 0-26-10-34-35-34z m-582 90c189 0 376 0 565 0 0 142 0 281 0 423-189 0-376 0-565 0 0-142 0-281 0-423z m174 33c-48 0-93 0-141 0 0 23 0 45 0 69 46 0 91 0 141 0 0-23 0-45 0-69z m-141 108c0 23 0 44 0 70 48 0 92 0 140 0 0-23 0-45 0-70-47 0-92 0-140 0z m500-107c-47 0-93 0-141 0 0 21 0 43 0 68 45 0 91 0 141 0 0-25 0-45 0-68z m-142 284c46 0 91 0 142 0 0-24 0-45 0-69-47 0-93 0-142 0 0 23 0 44 0 69z m0-107c47 0 92 0 140 0 0-23 0-44 0-69-45 0-90 0-140 0 0 23 0 45 0 69z m-179 106c46 0 91 0 141 0 0-23 0-43 0-67-45 0-92 0-141 0 0 21 0 43 0 67z m0-106c48 0 92 0 140 0 0-23 0-45 0-70-47 0-92 0-140 0 0 23 0 44 0 70z m0-108c47 0 92 0 140 0 0-22 0-44 0-69-46 0-92 0-140 0 0 23 0 45 0 69z m-179 215c46 0 91 0 142 0 0-24 0-45 0-69-47 0-93 0-142 0 0 23 0 44 0 69z m307 284c-114 0-226 0-340 0 0-23 0-42 0-65 114 0 226 0 340 0 0 22 0 42 0 65z" horiz-adv-x="857" />
<glyph glyph-name="draganddrop" unicode="&#xe812;" d="M428 581c-189 0-215-163-219-208-5-5-5-14 0-19l207-212h-91c-15 0-27-12-27-27v-91c0-14 12-27 27-27h207c15 0 27 13 27 27v91c0 15-12 27-27 27h-91l207 212c5 5 5 14 0 19-4 45-30 208-220 208z m189-220l-189-193-188 193h377z m212 277c-59 62-119 122-182 178-20 18-52 32-79 32-149 3-297 2-446 1-81 0-121-40-122-121 0-126 0-253 0-379 0 0 0 0 0 0 0-127 0-254 0-381 0-75 43-118 120-118 204 0 408 0 612 0 84 0 124 39 125 123 0 199 0 399-2 599 0 22-11 49-26 66z m-101-697c-200 1-401 1-601 0-28 0-33 12-33 36 0 249 0 497 0 745 0 24 5 37 33 37 135-1 271-1 414-1 0-49-1-94 0-138 1-55 28-82 82-83 45-1 89-1 133-1 3-7 6-11 6-15 1-182 0-364 1-546 0-26-10-34-35-34z" horiz-adv-x="857" />
<glyph glyph-name="edit" unicode="&#xe813;" d="M875 850l-71-71c46-12 107-44 127-123l69 69c0 125-125 125-125 125z m-750-750l-125-250 250 125c0 125-125 125-125 125z m625 625l-571-571c46-12 107-44 127-123l569 569c0 125-125 125-125 125z" horiz-adv-x="1000" />
<glyph glyph-name="facebookfilled" unicode="&#xe814;" d="M938 850h-875c-35 0-63-28-63-62v-876c0-34 28-62 63-62h562v438h-125v125h125v125c0 187 188 187 188 187h62v-125h-62c0 0-63 0-63-62s0-125 0-125h125v-125h-125v-438h188c34 0 62 28 62 62v876c0 34-28 62-62 62z" horiz-adv-x="1000" />
<glyph glyph-name="colorbucket" unicode="&#xe815;" d="M929 538c-70 17-138 18-141 18-3 0-6-1-9-1l-281 281-115-116c-16 14-33 29-52 44-91 74-148 98-192 80-13-5-45-24-45-79 0-36 15-96 128-205l-177-177c-4-5-26-28-38-63-17-52-3-104 38-146l280-279c37-37 75-45 101-45 60 0 102 41 107 45l342 343c29-280 145-296 171-296 27 0 49 22 49 48v388c0 103-104 145-166 160z m-731 203c30-18 72-51 116-90l-23-23c-57 55-82 91-93 113z m267-777c-6-5-22-17-39-17-4 0-16 0-33 17l-279 279c-19 19-19 33-15 44 4 16 15 27 15 27l0 0 181 181c3-3 6-6 10-9 50-41 99-78 136-105 0-1 0-2 0-3 0-49 39-89 89-89 49 0 89 40 89 89s-40 89-89 89c-12 0-23-2-34-6-35 25-82 61-129 100-1 1-2 2-4 3l135 135 351-351-384-384z" horiz-adv-x="1095" />
<glyph glyph-name="googleplus" unicode="&#xe816;" d="M584 215c-36 15-75 27-118 34-42 8-81 16-117 24-36 8-66 16-90 26-24 10-35 24-35 43 0 12 3 24 10 34 7 11 12 21 17 30 15-4 29-6 41-6 13-1 29-1 47-1 101 0 177 21 231 62 53 41 80 96 80 164 0 32-6 60-17 83-11 23-23 41-36 54h103l59 88h-420c-102 0-179-20-231-61-53-40-79-94-79-161 0-52 16-97 48-135 31-38 77-65 135-80-10-6-20-13-31-22-11-8-21-18-31-29-9-10-16-21-22-33-5-11-8-22-8-33 0-24 7-42 22-54 15-12 34-23 58-33-63-19-113-42-148-69-35-28-52-67-52-119 0-53 29-95 86-126 57-30 143-45 257-45 54 0 103 4 148 12 45 9 84 21 117 38 32 17 58 39 76 65 17 26 26 57 26 92 0 40-12 73-35 98-24 25-54 45-91 60z m-375 295c-12 14-21 32-27 52-5 20-8 42-8 66 0 53 12 93 36 119 24 25 67 38 129 38 26 0 51-1 75-5 24-3 46-9 67-18 3-8 6-17 9-24 2-8 5-17 7-27 3-10 4-22 6-35 1-13 2-29 2-48 0-50-13-89-39-119-26-30-68-45-127-45-32 0-59 4-80 12s-38 20-50 34z m348-528c-6-12-17-24-32-34-15-10-35-18-60-24s-56-9-94-9c-74 0-130 13-168 38-39 26-58 58-58 97 0 27 6 52 18 75 13 24 38 47 77 70 33-10 69-19 106-26 38-8 73-17 106-29 32-11 60-26 81-44 22-18 33-42 33-72 0-15-3-29-9-42z m454 424h-98v98c0 18-14 32-33 32s-32-14-32-32v-98h-98c-18 0-32-15-32-33s14-32 32-32h98v-98c0-18 14-33 32-33s33 15 33 33v98h98c18 0 32 14 32 32s-14 33-32 33z" horiz-adv-x="1043" />
<glyph glyph-name="hamburger" unicode="&#xe817;" d="M1218 850h-1172c-25 0-46-20-46-46v-66c0-25 21-46 46-46h1172c25 0 45 21 45 46v66c0 26-20 46-45 46z m45-467c0 25-20 46-45 46h-1172c-25 0-46-21-46-46v-66c0-25 21-46 46-46h1172c25 0 45 21 45 46h0v66z m0-421c0 25-20 46-45 46h-1172c-25 0-46-21-46-46v-66c0-26 21-46 46-46h1172c25 0 45 20 45 46h0v66z" horiz-adv-x="1263" />
<glyph glyph-name="link" unicode="&#xe818;" d="M881 830l-123-123c-45 27-96 42-150 42-78 0-151-31-206-86l-215-215c-97-96-111-244-44-356l-123-124c-27-27-27-71 0-98 14-13 32-20 49-20s36 7 50 20l123 123c45-27 96-42 150-42 78 0 151 30 206 86l215 215c97 96 111 245 44 356l123 124c27 27 27 71 0 98-28 27-71 27-99 0z m-166-480l-215-215c-30-30-69-45-108-45-15 0-31 3-46 8l95 95c28 27 28 71 0 98-27 28-71 28-98 0l-95-95c-17 52-5 112 37 154l215 215c30 30 69 45 108 45 15 0 31-3 46-7l-95-96c-28-27-28-71 0-98 13-14 31-21 49-21s35 7 49 21l95 95c17-52 5-112-37-154z" horiz-adv-x="1000" />
<glyph glyph-name="mail" unicode="&#xe819;" d="M1250 850h-1167c-45 0-83-28-83-63s12-64 17-66c4-2 38-27 75-54l508-382c37-27 97-27 133 0l509 382c36 27 70 52 75 54s16 32 16 66-37 63-83 63z m17-269l-534-400c-36-27-96-27-133 0l-533 400c-37 28-67 13-67-33v-615c0-46 38-83 83-83h1167c46 0 83 37 83 83v615c0 46-30 61-66 33z" horiz-adv-x="1333" />
<glyph glyph-name="mydata" unicode="&#xe81a;" d="M99 557c94-49 197-60 292-62 95 1 179 11 260 39 48 17 93 39 126 79 30 37 31 81 0 117-15 18-34 34-53 46-59 37-126 54-195 64-127 19-253 12-376-28-49-16-95-39-129-80-32-39-33-84 2-121 21-21 46-40 73-54z m570-428c43 17 74 59 74 108 0 64-52 115-115 115-64 0-116-51-116-115 0-49 31-91 75-108-101-20-101-116-101-116 0-12 0-31 0-43v-98c0-12 10-22 22-22h240c12 0 21 10 21 22v98c0 12 0 31 0 43 0 0 0 96-100 116z m-572 9c-40 21-77 46-96 92 0-38-1-77 0-116 1-27 13-52 34-68 28-21 57-42 88-56 87-38 179-49 273-50 2 0 3 0 5 0v77c0 20 2 40 7 59-43 0-86 3-130 9-63 9-124 23-181 53z m679 240c9-9 16-20 23-31-1 24-1 47-1 71-5-15-13-28-22-40z m-346-116c0 0-1 0-1 0-96-3-190 7-280 39-62 22-119 50-149 115 0-35 0-71 0-106 0-31 12-58 35-79 13-12 27-23 42-32 59-37 126-53 194-64 52-8 104-11 156-9 7 12 14 23 23 34-13 26-20 56-20 87 0 5 0 10 0 15z m297 259c-58-36-123-53-189-64-103-16-206-16-308 6-91 21-181 45-230 139 0-37 0-72 0-107 0-32 12-58 35-80 13-11 27-22 42-32 62-38 131-54 202-64 54-8 108-11 161-8 27 78 101 134 188 134 46 0 89-16 123-43 27 22 48 49 49 86 0 38 0 75 0 113-17-35-37-57-73-80z" horiz-adv-x="800" />
<glyph glyph-name="myvisualisazions" unicode="&#xe81b;" d="M423 850c-147 0-277-75-352-190l352-204 352 204c-76 115-205 190-352 190z m-423-425c0-225 175-410 396-423v408l-352 204c-28-57-44-121-44-189z m801 189l-352-204v-271c9 14 20 29 33 42-14 28-22 60-22 95 0 111 90 201 199 201 81 0 150-49 181-118 4 22 6 44 6 66 0 68-16 132-45 189z m-3-574c0 0 4 71-57 106 0 0 0 0 0 0-11 7-26 13-43 17 46 17 81 61 81 113 0 68-53 122-120 122-66 0-120-54-120-122 0-52 25-96 71-113-106-22-113-123-113-123 0-9 0-21 0-33h0c0-4 0-9 0-13v-104c0-12-1-40 12-40h278c13 0 11 28 11 40v104c0 13 0 33 0 46z" horiz-adv-x="846" />
<glyph glyph-name="check" unicode="&#xe81c;" d="M0 350l122 134 262-280 506 555 122-135-628-689-384 415z" horiz-adv-x="1012" />
<glyph glyph-name="3clicks" unicode="&#xe81d;" d="M953 826h-850c-33 0-60-27-60-60v-611c0-32 26-59 60-59h850c33 0 60 27 60 59v611c0 34-27 60-60 60z m-14-628h-821v545h821c0 0 0-545 0-545z m-520-129l-111-114h442l-111 114h-220z m-176 239c21 0 39 18 39 39 0 4 0 8-2 11 50 41 139 113 180 144 6-4 13-8 22-8 7 0 14 3 19 5 26-22 70-60 102-86 0-3-2-4-2-7 0-22 18-40 39-40 22 0 40 18 40 40 0 3-1 7-2 11l102 91c5-2 11-4 18-4 21 0 39 18 39 39 0 22-18 40-39 40-22 0-40-18-40-40 0-5 1-9 3-14-29-26-73-66-100-90-4 4-12 6-19 6-9 0-17-3-24-9-26 23-68 58-98 84 2 5 3 9 3 14 0 21-18 39-40 39s-40-18-40-39c0-5 1-9 3-14l-182-141c-6 4-13 7-21 7-22 0-40-18-40-40 0-20 18-38 40-38z" horiz-adv-x="1095" />
<glyph glyph-name="plus" unicode="&#xe81e;" d="M786 439v-107q0-22-16-38t-38-15h-232v-233q0-22-16-37t-38-16h-107q-22 0-38 16t-15 37v233h-232q-23 0-38 15t-16 38v107q0 23 16 38t38 16h232v232q0 22 15 38t38 16h107q23 0 38-16t16-38v-232h232q22 0 38-16t16-38z" horiz-adv-x="785.7" />
<glyph glyph-name="export" unicode="&#xe81f;" d="M786 298v-144q0-67-47-114t-114-47h-464q-67 0-114 47t-47 114v464q0 66 47 113t114 48h142q7 0 13-6t5-12q0-15-15-18-43-15-74-34-5-2-9-2h-62q-37 0-63-26t-27-63v-464q0-37 27-63t63-27h464q37 0 63 27t26 63v119q0 11 10 16 16 7 30 21 9 9 20 4 12-5 12-16z m132 277l-214-214q-10-11-25-11-7 0-14 3-22 9-22 33v107h-89q-181 0-245-73-66-77-41-264 2-13-11-19-5-1-7-1-9 0-14 7-6 8-12 17t-22 39-28 55-21 64-10 68q0 27 2 51t8 50 15 49 27 45 38 42 52 34 70 27 89 17 110 6h89v107q0 24 22 33 7 3 14 3 14 0 25-11l214-214q11-10 11-25t-11-25z" horiz-adv-x="928.6" />
<glyph glyph-name="editbox" unicode="&#xe820;" d="M496 189l64 65-85 85-64-65v-31h53v-54h32z m245 402q-9 9-18 0l-196-196q-9-9 0-18t18 0l196 196q9 9 0 18z m45-331v-106q0-67-47-114t-114-47h-464q-67 0-114 47t-47 114v464q0 66 47 113t114 48h464q35 0 65-14 9-4 10-13 2-10-5-16l-27-28q-8-8-18-4-13 3-25 3h-464q-37 0-63-26t-27-63v-464q0-37 27-63t63-27h464q37 0 63 27t26 63v70q0 7 5 12l36 36q8 8 20 4t11-16z m-54 411l161-160-375-375h-161v160z m248-73l-51-52-161 161 51 51q16 16 38 16t38-16l85-84q16-16 16-38t-16-38z" horiz-adv-x="1000" />
<glyph glyph-name="dwonloaddataset" unicode="&#xe821;" d="M819 638q16-16 27-42t11-50v-642q0-23-15-38t-38-16h-750q-23 0-38 16t-16 38v892q0 23 16 38t38 16h500q22 0 49-11t42-27z m-248 136v-210h210q-5 16-12 23l-175 175q-6 7-23 12z m215-853v572h-232q-23 0-38 15t-16 38v233h-429v-858h715z m-572 483q0 7 5 12t13 5h393q8 0 13-5t5-12v-36q0-8-5-13t-13-5h-393q-8 0-13 5t-5 13v36z m411-125q8 0 13-5t5-13v-36q0-8-5-13t-13-5h-393q-8 0-13 5t-5 13v36q0 8 5 13t13 5h393z m0-143q8 0 13-5t5-13v-36q0-8-5-13t-13-5h-393q-8 0-13 5t-5 13v36q0 8 5 13t13 5h393z" horiz-adv-x="857.1" />
<glyph glyph-name="downloadvisualization" unicode="&#xe822;" d="M819 638q16-16 27-42t11-50v-642q0-23-15-38t-38-16h-750q-23 0-38 16t-16 38v892q0 23 16 38t38 16h500q22 0 49-11t42-27z m-248 136v-210h210q-5 16-12 23l-175 175q-6 7-23 12z m215-853v572h-232q-23 0-38 15t-16 38v233h-429v-858h715z m-72 250v-178h-571v107l107 107 71-71 215 214z m-464 108q-45 0-76 31t-31 76 31 76 76 31 76-31 31-76-31-76-76-31z" horiz-adv-x="857.1" />
<glyph glyph-name="bracketleft" unicode="&#xe823;" d="M653 682l-296-296 296-297q11-10 11-25t-11-25l-92-93q-11-10-25-10t-25 10l-414 415q-11 10-11 25t11 25l414 414q10 10 25 10t25-10l92-93q11-10 11-25t-11-25z" horiz-adv-x="714.3" />
<glyph glyph-name="bracketright" unicode="&#xe824;" d="M618 361l-414-415q-11-10-25-10t-26 10l-92 93q-11 11-11 25t11 25l296 297-296 296q-11 11-11 25t11 25l92 93q11 10 26 10t25-10l414-414q10-11 10-25t-10-25z" horiz-adv-x="714.3" />
<glyph glyph-name="copyclipboard" unicode="&#xe825;" d="M429-79h500v358h-233q-22 0-38 15t-15 38v232h-214v-643z m142 804v36q0 7-5 12t-12 6h-393q-7 0-13-6t-5-12v-36q0-7 5-13t13-5h393q7 0 12 5t5 13z m143-375h167l-167 167v-167z m286-71v-375q0-23-16-38t-38-16h-535q-23 0-38 16t-16 38v89h-303q-23 0-38 16t-16 37v750q0 23 16 38t38 16h607q22 0 38-16t15-38v-183q12-7 20-15l228-228q16-16 27-42t11-49z" horiz-adv-x="1000" />
<glyph glyph-name="download" unicode="&#xe826;" d="M968 198q18-10 27-32t3-40l-28-154q-4-20-22-33t-40-13l-816 0q-22 0-40 13t-22 33l-28 154q-10 48 32 72l158 108 98 0-170-130 178 0q8 0 12-8l40-110 300 0 40 110q8 8 12 8l178 0-170 130 98 0z m-208 322l-260-244-260 244 166 0 0 256 190 0 0-256 164 0z" horiz-adv-x="1000" />
<glyph glyph-name="upload" unicode="&#xe827;" d="M500 776l260-244-164 0 0-256-190 0 0 256-166 0z m468-578q18-10 27-32t3-40l-28-154q-4-20-22-33t-40-13l-816 0q-22 0-40 13t-22 33l-28 154q-10 48 32 72l158 108 98 0-170-130 178 0q8 0 12-8l40-110 300 0 40 110q8 8 12 8l178 0-170 130 98 0z" horiz-adv-x="1000" />
<glyph glyph-name="return" unicode="&#xe828;" d="M900 10q-86 152-208 197t-330 45l0-218-362 334 362 322 0-192q90 0 168-27t131-70 96-95 69-104 44-95 24-69z" horiz-adv-x="900" />
<glyph glyph-name="forward" unicode="&#xe829;" d="M540 252q-210 0-332-45t-208-197q4 20 13 53t50 117 96 148 156 117 225 53l0 192 360-322-360-334 0 218z" horiz-adv-x="900" />
<glyph glyph-name="logi" unicode="&#xe82a;" d="M800 800q42 0 71-29t29-71l0-700q0-40-29-70t-71-30l-450 0q-40 0-69 30t-29 70l0 100 98 0 0-100 450 0 0 700-450 0 0-150-98 0 0 150q0 42 29 71t69 29l450 0z m-350-670l0 120-450 0 0 150 450 0 0 120 200-194z" horiz-adv-x="900" />
<glyph glyph-name="logout" unicode="&#xe82b;" d="M502 0l0 100 98 0 0-100q0-40-29-70t-71-30l-400 0q-40 0-70 30t-30 70l0 700q0 42 30 71t70 29l400 0q42 0 71-29t29-71l0-150-98 0 0 150-402 0 0-700 402 0z m398 326l-198-196 0 120-450 0 0 150 450 0 0 120z" horiz-adv-x="900" />
<glyph glyph-name="createvidatio" unicode="&#xe82c;" d="M0-150l0 818 188 182 519 0 0-348-86 0 0 260-369 0 0-156-166 0 0-668 418 0 0-88-504 0z m373 207l0 162 209 0 0 207 160 0 0-207 207 0 0-162-207 0 0-207-160 0 0 207-209 0z" horiz-adv-x="949" />
<glyph glyph-name="barchart" unicode="&#xe82d;" d="M969-150h-938c-18 0-31 12-31 31v938c0 19 13 31 31 31s32-12 32-31v-907h906c19 0 31-12 31-31s-12-31-31-31z m-844 125h156v188h-156v-188z m219 0h156v344h-156v-344z m219 0h156v625h-156v-625z m218 0h157v813h-157v-813z" horiz-adv-x="1000" />
<glyph glyph-name="linechart" unicode="&#xe82e;" d="M969-150h-938c-18 0-31 12-31 31v938c0 19 13 31 31 31s32-12 32-31v-907h906c19 0 31-12 31-31s-12-31-31-31z m-31 859c0-43-35-78-79-78-12 0-25 3-34 10l-109-94c3-9 3-16 3-25 0-44-35-78-78-78-7 0-13 0-19 3l-128-166c6-12 9-25 9-37 0-44-34-78-78-78-16 0-28 3-41 12l-103-78c0-3 0-9 0-16 0-43-34-78-78-78s-78 35-78 78 34 79 78 79c16 0 28-4 41-13l100 75c0 6-3 13-3 16 0 43 34 78 78 78 6 0 12 0 19-3l128 165c-7 13-10 25-10 38 7 47 41 81 85 81 12 0 25-3 34-9l109 93c-3 10-3 16-3 25 0 44 35 79 78 79s79-35 79-79z m-682-625c0 29-25 54-53 54s-53-25-53-54 25-53 53-53 53 25 53 53z m219 157c0 28-25 53-53 53s-53-25-53-53 25-53 53-53 53 25 53 53z m219 281c0 28-25 53-53 53s-53-25-53-53 25-53 53-53 53 25 53 53z m219 187c0 29-25 54-54 54s-53-25-53-54 25-53 53-53 54 25 54 53z" horiz-adv-x="1000" />
<glyph glyph-name="magicwand" unicode="&#xe82f;" d="M66 675l828-825 109 109-825 829-112-113z m312-144l-56-56-191 194 53 56 194-194z m188-3c0 0-38 81-60 103-22 22-103 60-103 60s81 37 103 59c22 19 60 100 60 100s37-81 59-103c22-22 103-59 103-59s-81-38-103-57-59-103-59-103z m-441-256c0 0-31 62-47 81-15 16-78 44-78 44s63 31 81 47c16 15 47 81 47 81s31-62 47-81c16-16 81-47 81-47s-62-31-81-47c-19-16-50-78-50-78z m172-119c0 0-22 47-34 56-13 13-57 35-57 35s47 22 57 34c12 13 34 56 34 56s22-46 34-56c13-12 57-34 57-34s-47-22-57-35-34-56-34-56z m-172-134c0 0-25 53-37 65-13 13-66 38-66 38s53 25 66 37c15 16 40 66 40 66s25-53 38-66c12-12 65-37 65-37s-53-25-65-38c-16-15-41-65-41-65z" horiz-adv-x="1000" />
<glyph glyph-name="map" unicode="&#xe830;" d="M834 669c-6-19-15-35-28-50l135-60v-615l-250 115v447l-25-25-35 35v-450l-262-122v615l153 66c-13 16-22 31-28 50l-156-66-338 150v-734l338-156 325 144 337-157v741l-166 72z m-525-725l-250 115v613l250-113v-615z m482 781c0 69-57 125-125 125s-125-56-125-125c0-31 12-62 34-84l0 0 91-91 78 78c28 22 47 56 47 97z m-125 69c37 0 68-31 68-69 0-37-31-69-68-69s-69 32-69 69c0 38 31 69 69 69z" horiz-adv-x="1000" />
<glyph glyph-name="parallelcoordinateschart" unicode="&#xe831;" d="M969 850c-16 0-31-12-31-31v-447h-254v447c0 15-12 31-31 31s-31-12-31-31v-397l-241 291v106c0 15-12 31-31 31s-31-12-31-31v-100l-256-172v272c0 15-13 31-32 31s-31-12-31-31v-938c0-15 13-31 31-31s32 12 32 31v128l259 335v-463c0-15 12-31 31-31s31 12 31 31v460l241-328v-132c0-15 13-31 31-31s32 12 32 31v122l253 166v-288c0-15 12-31 31-31s31 12 31 31v938c-3 19-15 31-34 31z m-906-762v403l259 172v-244l-259-331z m318 331v219l241-291v-259l-241 331z m303-363v269h254v-103l-254-166z" horiz-adv-x="1000" />
<glyph glyph-name="scatterplotchart" unicode="&#xe832;" d="M969-150h-938c-18 0-31 12-31 31v938c0 19 13 31 31 31s32-12 32-31v-907h906c19 0 31-12 31-31s-12-31-31-31z m-766 156c44 0 78 35 78 78s-34 79-78 79-78-35-78-79 34-78 78-78z m219 157c44 0 78 34 78 78s-34 78-78 78-78-35-78-78 34-78 78-78z m219 281c43 0 78 34 78 78s-35 78-78 78-78-34-78-78 34-78 78-78z m218 187c44 0 79 35 79 78s-35 79-79 79-78-35-78-79 35-78 78-78z" horiz-adv-x="1000" />
<glyph glyph-name="facebook" unicode="&#xe833;" d="M535 843v-147h-87q-48 0-65-20t-17-60v-106h164l-22-165h-142v-424h-171v424h-142v165h142v122q0 104 58 161t155 57q82 0 127-7z" horiz-adv-x="571.4" />
=======
<font id="icons" horiz-adv-x="1000" >
<font-face font-family="icons" font-weight="400" font-stretch="normal" units-per-em="1000" ascent="850" descent="-150" />
<missing-glyph horiz-adv-x="1000" />
<glyph glyph-name="visualizations" unicode="&#xe800;" d="M1002 383c-7 115-53 219-124 300l-301-300h425z m-169 342c-89 78-205 125-332 125s-243-47-332-125l332-332 332 332z m-337-404c-1 0-2 0-3 1-1 0-2 0-3 1-1 0-2 1-3 1-1 1-2 1-3 2-1 1-3 2-5 4l-353 353c-78-88-126-204-126-331 0-277 225-502 502-502 266 0 484 208 500 470h-500c-2 0-4 1-6 1z" horiz-adv-x="1002" />
<glyph glyph-name="upload" unicode="&#xe801;" d="M1250 850h-1167c-45 0-83-37-83-83v-834c0-46 38-83 83-83h278c38 0 94 0 139 0v333h-167l334 334 333-334h-167v-333c45 0 102 0 139 0h278c46 0 83 37 83 83v834c0 46-37 83-83 83z" horiz-adv-x="1333" />
<glyph glyph-name="upgradeaccount" unicode="&#xe802;" d="M439 20v62h-62c-67 0-122 55-122 122 0 68 55 123 122 123h62v44c-24 19-54 34-91 43 86 31 153 114 153 211 0 124-98 225-223 225-124 0-224-101-224-225 0-97 61-180 147-211-199-47-201-269-201-269v-295h536v50c-55 12-97 61-97 120z m307 230h-138v139c0 25-21 46-46 46-26 0-46-21-46-46v-124-15h-139c-25 0-46-20-46-46 0-25 21-46 46-46h139v-138c0-16 8-30 20-39v0c8-4 16-7 26-7 25 0 46 21 46 46v138h138c25 0 46 21 46 46 0 26-21 46-46 46z m-210-104c0 1 0 2 0 5 0-3 0-4 0-5z" horiz-adv-x="792" />
<glyph glyph-name="twitter" unicode="&#xe803;" d="M1197 832c-49-29-103-50-161-62-46 49-111 80-184 80-139 0-252-113-252-252 0-20 2-39 6-58-210 11-396 111-520 264-22-37-34-81-34-127 0-88 44-165 112-210-41 1-80 12-114 31 0-1 0-2 0-3 0-122 86-224 202-247-21-6-43-9-67-9-16 0-32 1-47 4 32-100 125-173 236-175-87-68-195-108-314-108-20 0-40 1-60 3 112-71 245-113 387-113 464 0 718 385 718 718 0 11 0 22 0 33 49 36 92 80 126 131-46-20-94-34-145-40 52 31 92 81 111 140z" horiz-adv-x="1231" />
<glyph glyph-name="trash" unicode="&#xe804;" d="M35-34c0-116 116-116 116-116s349 0 465 0 116 116 116 116v581h-697c0 0 0-465 0-581z m494 443c0 15 13 29 29 29s29-14 29-29v-407c0-16-13-29-29-29s-29 13-29 29v407z m-175 0c0 15 14 29 30 29s29-14 29-29v-407c0-16-14-29-29-29s-30 13-30 29v407z m-174 0c0 15 13 29 29 29s29-14 29-29v-407c0-16-13-29-29-29s-29 13-29 29v407z m329 298c0 0 13 143-125 143s-126-143-126-143c-137 0-205-64-205-64h-53v-64h767v64h-53c0 0-68 64-205 64z m-125 1h-77c0 107 77 102 77 102s76 6 76-102h-76z" horiz-adv-x="767" />
<glyph glyph-name="text" unicode="&#xe805;" d="M958 850h-916c-23 0-42-19-42-42v-202c0-23 13-28 30-12l83 84c17 16 49 29 72 29h202c23 0 42-19 42-41v-631c0-23-14-55-30-72l-84-84c-16-16-10-29 12-29h346c23 0 28 13 12 29l-84 84c-16 17-30 49-30 72v631c0 22 19 41 42 41h203c22 0 54-13 71-29l84-84c16-16 29-11 29 12v202c0 23-19 42-42 42z" horiz-adv-x="1000" />
<glyph glyph-name="share" unicode="&#xe806;" d="M1180 299c69 26 119 94 119 173 0 102-83 185-185 185s-185-83-185-185c0-79 49-147 119-173-50-10-84-30-108-54-19 59-67 137-188 161 86 33 148 117 148 215 0 126-103 229-229 229-127 0-230-103-230-229 0-98 62-182 148-215-121-24-169-102-188-161-24 24-58 44-107 54 69 26 118 94 118 173 0 102-82 185-185 185s-185-83-185-185c0-79 50-147 119-173-161-32-161-176-161-176 0-25 0-66 0-91v-137c0-25 20-45 45-45h365c4 0 8 1 12 2 4-1 8-2 12-2h473c4 0 9 1 12 2 4-1 8-2 13-2h364c25 0 45 20 45 45v137c0 25 0 66 0 91 0 0 0 144-161 176z" horiz-adv-x="1341" />
<glyph glyph-name="searchfiles" unicode="&#xe807;" d="M829 638c-59 62-119 122-182 178-20 18-52 32-79 32-148 3-297 2-447 1-80 0-120-40-121-120 0-127 0-380 0-380 0-127 0-254 0-381 0-75 43-118 120-118 204 0 408 0 612 0 84 0 124 39 124 123 1 199 1 399-1 599 0 22-11 49-26 66z m-101-697c-200 1-401 1-601 0-28 0-33 12-33 36 0 249 0 497 0 745 0 24 5 37 33 37 135-1 271-1 414-1 0-50-1-94 0-138 1-55 28-82 82-83 45-1 89-1 133-1 8-2 6-11 6-15 1-182 0-364 1-546 0-26-10-34-35-34z m-164 323c25 35 39 78 39 124 0 117-95 212-212 212-117 0-213-95-213-212 0-118 96-213 213-213 46 0 88 15 123 39l135-135c7-7 16-10 25-10 9 0 18 3 25 10 14 14 14 36 0 50l-135 135z m-173-18c-78 0-142 63-142 142 0 78 64 141 142 141 78 0 142-63 142-141 0-79-64-142-142-142z" horiz-adv-x="857" />
<glyph glyph-name="search" unicode="&#xe808;" d="M726 218c47 66 74 146 74 232 0 221-179 400-400 400s-400-179-400-400 179-400 400-400c86 0 166 28 232 74l254-255c13-13 30-19 47-19s35 6 48 19c26 27 26 69 0 95l-255 254z m-326-35c-147 0-267 120-267 267s120 267 267 267c147 0 267-120 267-267s-120-267-267-267z" horiz-adv-x="1000" />
<glyph glyph-name="api" unicode="&#xe809;" d="M675 825c-25 30-70 34-101 8l-574-483 574-483c14-11 30-17 46-17 21 0 41 9 55 25 25 31 22 76-9 101l-444 374 444 374c31 25 34 70 9 101z m712 17c-36 18-79 4-96-31l-429-858c-17-35-3-78 32-96 10-5 21-7 32-7 26 0 51 14 64 39l429 858c17 35 3 78-32 95z" horiz-adv-x="1426" />
<glyph glyph-name="back" unicode="&#xe80a;" d="M953 844l-929-465c-32-16-32-42 0-58l929-465c32-16 59 0 59 36v916c0 36-27 52-59 36z" horiz-adv-x="1012" />
<glyph glyph-name="coin1" unicode="&#xe80b;" d="M1489 211c-119-74-251-109-387-131-211-34-422-34-630 13-186 41-372 91-472 285 0-76 0-77 0-149 0-65 25-120 72-163 27-24 55-47 85-65 128-78 269-112 415-133 203-29 406-23 607 20 125 26 245 65 349 143 61 47 109 103 110 185 2 76 1 82 1 158-35-71-76-117-150-163z m104 393c-31 36-70 69-110 94-121 77-258 111-398 131-262 39-519 26-771-57-101-33-196-79-265-163-65-80-67-173 4-248 43-44 95-84 149-112 194-100 405-122 600-127 194 2 367 23 533 81 97 35 189 80 257 162 61 75 63 166 1 239z m-651-365c-115-3-279 30-297 170-42 0-62 0-98 0 16 37 25 55 42 92 21 0 32 0 55 0 1 9 2 14 3 23-36 0-54 0-86 0 16 37 25 56 41 93 26 0 39-1 65-1 34 92 102 159 245 159 45 0 101-8 141-21-8-38-12-58-20-96-37 14-77 24-115 25-60 0-97-19-115-67 89 0 135-1 218-1-8-37-13-55-22-92-80 0-125 0-210 1 0-10-1-14-1-23 83-1 126-1 204-1-10-37-16-56-27-92-65 0-100 0-168 0 16-57 60-78 137-78 56 0 104 21 145 37 4-44 7-66 11-109-27-10-69-17-148-19z" horiz-adv-x="1639" />
<glyph glyph-name="coin2" unicode="&#xe80c;" d="M1036 264c-77-47-162-70-249-84-136-22-273-22-407 8-79 17-157 37-220 83 66-29 137-44 209-54 131-19 262-15 392 12 80 17 158 42 225 93 39 30 70 66 71 119 1 49 0 53 0 102-22-46-49-75-97-105-76-48-161-70-249-84-136-23-272-22-407 8-120 26-239 58-304 183 0-49 0-49 0-95 0-42 16-78 47-106 9-8 19-16 29-24 0-11 0-23 0-44-1-42 16-77 46-106 17-15 36-30 55-42 82-50 173-72 267-85 132-19 262-15 392 13 81 17 158 42 225 92 40 30 70 66 71 119 1 50 1 53 1 102-23-45-49-75-97-105z m0-181c-77-48-162-70-249-85-136-22-273-21-407 9-120 26-240 58-304 183 0-49 0-49 0-95-1-42 16-78 46-106 17-15 36-30 55-42 82-50 173-72 267-85 132-19 262-15 392 12 81 17 158 42 225 93 40 30 70 66 71 119 1 49 1 53 1 102-23-46-49-75-97-105z m-9 608c-20 24-44 45-71 61-78 50-166 71-256 85-169 24-335 16-498-37-64-22-126-51-170-106-42-51-43-111 2-159 28-29 61-54 97-73 124-64 261-78 386-81 126 1 237 14 344 52 63 22 122 51 166 104 39 49 41 107 0 154z m-442-240c-74-2-180 19-191 110-27 0-40 0-63 0 10 24 16 35 27 59 13 0 21 0 35 0 1 6 1 9 2 15-23 0-35 0-56 0 11 24 16 36 27 60 17 0 25 0 42-1 22 60 66 102 158 102 29 0 65-5 91-13-5-25-8-37-13-62-24 9-50 16-74 16-39 0-63-12-74-43 57 0 87 0 141 0-6-24-9-36-15-60-52 0-80 0-135 1-1-6-1-9-1-15 54 0 82-1 132-1-7-24-10-36-18-59-42 0-64 0-108 0 10-36 39-50 88-50 36 0 67 13 94 24 3-29 4-43 7-71-18-6-45-10-96-12z" horiz-adv-x="1133" />
<glyph glyph-name="coin3" unicode="&#xe80d;" d="M877 354c-65-40-137-59-211-71-115-19-231-19-344 7-67 14-133 31-186 70 56-24 115-37 176-46 111-16 222-13 332 11 68 14 134 35 190 78 34 25 60 56 61 101 1 41 0 44 0 86-19-39-41-64-82-89-65-40-137-59-211-71-115-19-231-19-344 7-102 22-203 49-258 155 0-41 0-42 0-81 0-36 14-65 40-89 7-7 16-14 24-21 0-9 0-19 0-37 0-36 13-65 39-89 15-13 30-26 47-36 69-42 147-61 226-72 111-16 222-13 332 10 68 15 134 36 190 79 34 25 60 56 61 101 1 41 0 44 0 86-19-39-41-64-82-89z m0-153c-65-41-137-60-211-72-115-19-231-18-344 7-102 23-203 50-258 156 0-42 0-42 0-81 0-36 13-66 39-90 15-13 30-25 47-35 69-43 147-61 226-73 111-16 222-12 332 11 47 10 92 23 134 44-8-7-18-14-29-21-65-40-137-59-211-71-115-19-231-19-344 7-102 22-203 49-258 155 0-41 0-42 0-81 0-35 14-66 40-89 14-13 29-26 46-36 69-42 147-61 226-72 111-16 222-13 332 10 68 15 134 36 190 79 34 25 60 56 61 101 0 25 0 36 0 50 1 1 2 2 3 2 34 26 60 56 61 101 1 42 0 45 0 87-19-39-41-64-82-89z m-7 515c-17 20-38 37-60 51-67 42-141 60-218 72-142 21-283 14-421-32-54-18-106-43-144-89-36-43-37-94 2-135 23-24 52-46 81-61 106-55 222-67 328-69 106 1 200 12 291 44 53 19 103 43 140 88 34 41 35 91 1 131z m-366-200c-63-1-152 16-162 93-23 0-34 0-54 0 9 20 14 30 23 50 12 0 18 0 30 0 1 5 1 8 2 13-20 0-29 0-47 0 9 20 13 30 22 50 14 0 21 0 36 0 18 51 55 87 133 87 25 0 56-5 78-12-5-21-7-31-11-52-21 8-43 13-63 13-33 0-53-10-63-36 49 0 74 0 119 0-4-21-7-31-12-51-44 0-68 0-115 1 0-5 0-8 0-13 45 0 69 0 111 0-5-21-8-31-15-51-35 0-54 0-91 1 8-31 33-43 74-43 31 0 57 11 80 20 2-24 3-36 6-60-15-5-38-9-81-10z" horiz-adv-x="959" />
<glyph glyph-name="open" unicode="&#xe80e;" d="M600 425h-51c3 199 4 309-60 373-46 47-112 52-159 52-208 0-213-200-215-276-1-29 22-53 51-54 29-1 53 22 54 51 3 132 30 174 110 174 57 0 75-12 84-21 33-33 32-145 30-299 0 0 0 0 0 0h-383c-33 0-61-28-61-62v-452c0-33 28-61 61-61h539c34 0 62 28 62 61v452c0 34-28 62-62 62z m-223-315v-67c0-35-20-63-45-63-24 0-45 28-45 63v67c-31 16-52 49-52 86 0 54 43 98 97 98s98-44 98-98c0-37-21-70-53-86z" horiz-adv-x="662" />
<glyph glyph-name="opendata" unicode="&#xe80f;" d="M99 556c94-49 198-59 293-62 95 1 179 11 260 40 48 17 93 39 126 79 30 37 31 81 0 117-15 18-34 33-53 46-60 37-127 54-195 64-128 19-254 13-377-28-49-16-95-39-129-80-32-39-33-84 2-121 21-22 46-41 73-55z m-2-419c-40 21-77 47-96 92 0-38-1-77 0-116 1-27 13-52 34-68 28-21 57-42 89-56 86-38 179-49 273-50 1 0 2 0 3 0v136c-40 0-81 3-122 9-63 9-124 23-181 53z m52 163c-62 22-119 50-149 115 0-35 0-70 0-105 0-32 12-59 35-80 13-12 27-23 42-32 59-37 126-53 195-64 42-6 85-10 128-10v34c0 42 19 80 50 104-7 0-14 0-20-1-96-3-191 7-281 39z m579 221c-16-10-31-18-47-25 19 0 71 0 116-32 2 8 3 16 4 24 0 37 0 75 0 112-17-34-37-57-73-79z m-693-106c13-12 27-23 42-32 62-38 131-55 202-65 72-10 143-11 214-4 2 28 7 55 18 81 8 19 24 45 52 66-8-2-16-3-24-4-103-17-207-17-308 6-91 20-182 44-231 139 0-37 0-72 0-107 0-32 12-59 35-80z m805-221h-37c1 109 2 168-34 204-25 26-62 29-88 29-34 0-82-5-106-47-15-28-15-62-15-103v-5c0-17 14-31 32-31s31 14 31 31v5c0 32 0 59 7 73 2 4 8 15 51 15 34 0 41-8 44-11 17-17 17-77 16-160h-224c-20 0-37-16-37-36v-271c0-20 17-37 37-37h323c20 0 37 17 37 37v271c0 20-17 36-37 36z m-131-190v-44c0-23-13-41-30-41-16 0-29 18-29 41v44c-21 11-35 32-35 57 0 36 29 65 64 65 36 0 65-29 65-65 0-25-14-46-35-57z" horiz-adv-x="877" />
<glyph glyph-name="options" unicode="&#xe810;" d="M579 301c15 14 17 37 4 49-13 13-17 36-9 51 8 16 37 60 54 60 18 0 33 17 33 37v43c0 20-15 37-33 37-17 0-37 14-42 31-5 16-16 67-3 80 13 12 11 35-4 49l-30 30c-14 15-37 16-49 4-13-13-36-17-51-9-16 8-60 36-60 54s-17 33-37 33h-43c-20 0-37-15-37-33s-14-37-31-42c-16-5-67-16-79-3s-36 11-50-4l-30-30c-15-14-16-37-4-49s17-36 9-51c-8-16-36-60-54-60s-33-17-33-37v-43c0-20 15-37 33-37 18 0 37-14 42-31s16-67 3-80c-12-12-11-35 4-49l30-30c14-15 37-16 50-4s35 17 50 9 60-37 60-54 17-33 37-33h43c21 0 37 15 37 33s14 37 31 42 67 16 80 3c12-12 35-11 49 4l30 30z m-248 158c-34 0-61 27-61 60 0 34 27 61 61 61 33 0 60-27 60-61 0-33-27-60-60-60z m826-220c-18 0-37 14-42 31-6 17-17 67-4 80s11 35-3 49l-30 30c-15 15-37 17-50 4-13-13-36-17-51-9-15 8-59 37-59 55 0 18-17 32-38 32h-42c-21 0-38-14-38-32 0-18-14-37-30-43s-67-16-80-3-35 11-50-4l-30-30c-14-14-16-37-3-49 12-13 16-36 8-51-8-16-36-60-54-60-18 0-33-16-33-37v-43c0-20 15-37 33-37 18 0 37-14 42-31 6-16 16-67 4-79-13-13-11-36 3-50l30-30c15-15 37-16 50-4 13 13 36 17 51 9 15-8 59-36 59-54s17-33 38-33h42c21 0 38 15 38 33s13 37 30 42 67 16 80 3c13-12 35-11 50 4l30 30c14 14 16 37 3 50s-16 35-8 51c8 15 36 59 54 59s32 17 32 37v43c0 21-14 37-32 37z m-298-119c-33 0-60 27-60 61 0 33 27 60 60 60 33 0 60-27 60-60 0-34-27-61-60-61z" horiz-adv-x="1189" />
<glyph glyph-name="phone" unicode="&#xe811;" d="M1000 850c-333 0-333 0-667 0s-333-200-333-200 0-200 167-200 166 200 166 200h667c0 0 0-200 167-200s166 200 166 200 0 200-333 200z m167-483c-103 0-182 53-223 151-7 17-12 33-16 49h-523c-3-16-9-32-16-49-40-98-119-151-222-151-13 0-25 1-36 2-70-112-131-234-131-319 0-200 167-200 167-200h1000c0 0 166 0 166 200 0 85-60 207-130 319-12-1-24-2-36-2z m-500-317c-184 0-334 90-334 200s150 200 334 200 333-89 333-200-149-200-333-200z" horiz-adv-x="1333" />
<glyph glyph-name="profile" unicode="&#xe812;" d="M366 407c85 34 145 117 145 214 0 126-102 229-229 229-127 0-229-103-229-229 0-97 60-180 145-214-198-34-198-188-198-188 0-48 0-126 0-174v-108c0-48 39-87 87-87h390c48 0 87 39 87 87v108c0 48 0 126 0 174 0 0 0 154-198 188z" horiz-adv-x="564" />
<glyph glyph-name="colors" unicode="&#xe813;" d="M140 508l-21 94c0 0 31 23 29 96-2 73-69 152-69 152s-66-79-69-152c-2-73 30-96 30-96l-21-94c0 0-19 7-19-14 0-21 33-21 33-21s0-400 0-512 46-111 46-111 46-2 46 111 0 512 0 512 33 0 33 21c0 21-18 14-18 14z m554 214c0 0-500 0-500-167 0-376 172-86 268-258 57-102-112-75-112-242 0-166 344-166 344-166s500 0 500 333c0 500-500 500-500 500z m-29-619c-50 0-90 32-90 72 0 40 40 72 90 72 51 0 91-32 91-72 0-40-40-72-91-72z m91 410c-38 0-68 31-68 69 0 38 30 69 68 69 38 0 69-31 69-69 0-38-31-69-69-69z m113 6c0 38 31 69 69 69 38 0 68-31 68-69 0-37-30-68-68-68-38 0-69 31-69 68z m162-451c-38 0-68 31-68 68 0 38 30 69 68 69 38 0 69-31 69-69 0-37-31-68-69-68z m84 276c0-38-31-69-69-69-38 0-68 31-68 69 0 38 30 69 68 69 38 0 69-31 69-69z" horiz-adv-x="1194" />
<glyph glyph-name="database1" unicode="&#xe814;" d="M829 638c-59 62-119 122-182 178-20 18-52 32-79 32-149 3-298 2-447 1-80 0-120-40-121-120 0-127 0-380 0-380 0-127 0-254 0-381 0-75 43-118 120-118 204 0 408 0 612 0 84 0 124 39 124 123 1 199 1 399-1 599 0 22-11 49-26 66z m-101-697c-200 1-401 1-601 0-28 0-33 12-33 36 0 249 0 497 0 745 0 24 5 37 33 37 135-1 271-1 414-1 0-50-1-94 0-138 1-55 28-82 82-83 45-1 89-1 133-1 8-2 6-11 6-15 1-182 0-364 1-546 0-26-10-34-35-34z m-582 90c189 0 376 0 565 0 0 142 0 281 0 423-189 0-376 0-565 0 0-142 0-281 0-423z m174 33c-48 0-93 0-141 0 0 23 0 45 0 69 46 0 91 0 141 0 0-23 0-45 0-69z m-141 108c0 23 0 44 0 70 48 0 92 0 140 0 0-23 0-45 0-70-47 0-92 0-140 0z m500-107c-47 0-93 0-141 0 0 21 0 43 0 68 45 0 91 0 141 0 0-25 0-45 0-68z m-142 284c46 0 91 0 142 0 0-24 0-45 0-69-47 0-93 0-142 0 0 23 0 44 0 69z m0-107c47 0 92 0 140 0 0-23 0-44 0-69-45 0-90 0-140 0 0 23 0 45 0 69z m-179 106c46 0 91 0 141 0 0-23 0-43 0-67-45 0-92 0-141 0 0 21 0 43 0 67z m0-106c48 0 92 0 140 0 0-23 0-45 0-70-47 0-92 0-140 0 0 23 0 44 0 70z m0-108c47 0 92 0 140 0 0-22 0-44 0-69-46 0-92 0-140 0 0 23 0 45 0 69z m-179 215c46 0 91 0 142 0 0-24 0-45 0-69-47 0-93 0-142 0 0 23 0 44 0 69z m307 284c-114 0-226 0-340 0 0-23 0-42 0-65 114 0 226 0 340 0 0 22 0 42 0 65z" horiz-adv-x="857" />
<glyph glyph-name="database2" unicode="&#xe815;" d="M0-150c315 0 625 0 940 0 0 236 0 467 0 702-315 0-625 0-940 0 0-235 0-466 0-702z m290 55c-79 0-154 0-234 0 0 38 0 73 0 115 76 0 151 0 234 0 0-40 0-76 0-115z m-234 179c0 38 0 73 0 117 79 0 152 0 232 0 0-38 0-75 0-117-78 0-153 0-232 0z m830-178c-78 0-153 0-234 0 0 35 0 70 0 113 75 0 152 0 234 0 0-41 0-75 0-113z m-235 472c77 0 152 0 235 0 0-40 0-74 0-114-77 0-154 0-235 0 0 38 0 73 0 114z m-1-178c79 0 154 0 234 0 0-38 0-74 0-115-75 0-150 0-234 0 0 39 0 75 0 115z m-296 177c75 0 150 0 234 0 0-38 0-72 0-112-76 0-153 0-234 0 0 36 0 71 0 112z m-1-176c79 0 153 0 232 0 0-38 0-75 0-117-77 0-152 0-232 0 0 38 0 73 0 117z m0-181c78 0 154 0 234 0 0-37 0-72 0-114-77 0-154 0-234 0 0 39 0 74 0 114z m-298 357c77 0 152 0 236 0 0-39 0-73 0-113-77 0-154 0-236 0 0 37 0 73 0 113z m511 473c-190 0-376 0-566 0 0-37 0-70 0-107 190 0 376 0 566 0 0 37 0 70 0 107z" horiz-adv-x="940" />
<glyph glyph-name="draganddrop" unicode="&#xe816;" d="M428 581c-189 0-215-163-219-208-5-5-5-14 0-19l207-212h-91c-15 0-27-12-27-27v-91c0-14 12-27 27-27h207c15 0 27 13 27 27v91c0 15-12 27-27 27h-91l207 212c5 5 5 14 0 19-4 45-30 208-220 208z m189-220l-189-193-188 193h377z m212 277c-59 62-119 122-182 178-20 18-52 32-79 32-149 3-297 2-446 1-81 0-121-40-122-121 0-126 0-253 0-379 0 0 0 0 0 0 0-127 0-254 0-381 0-75 43-118 120-118 204 0 408 0 612 0 84 0 124 39 125 123 0 199 0 399-2 599 0 22-11 49-26 66z m-101-697c-200 1-401 1-601 0-28 0-33 12-33 36 0 249 0 497 0 745 0 24 5 37 33 37 135-1 271-1 414-1 0-49-1-94 0-138 1-55 28-82 82-83 45-1 89-1 133-1 3-7 6-11 6-15 1-182 0-364 1-546 0-26-10-34-35-34z" horiz-adv-x="857" />
<glyph glyph-name="edit" unicode="&#xe817;" d="M875 850l-71-71c46-12 107-44 127-123l69 69c0 125-125 125-125 125z m-750-750l-125-250 250 125c0 125-125 125-125 125z m625 625l-571-571c46-12 107-44 127-123l569 569c0 125-125 125-125 125z" horiz-adv-x="1000" />
<glyph glyph-name="facebook" unicode="&#xe818;" d="M938 850h-875c-35 0-63-28-63-62v-876c0-34 28-62 63-62h562v438h-125v125h125v125c0 187 188 187 188 187h62v-125h-62c0 0-63 0-63-62s0-125 0-125h125v-125h-125v-438h188c34 0 62 28 62 62v876c0 34-28 62-62 62z" horiz-adv-x="1000" />
<glyph glyph-name="fill" unicode="&#xe819;" d="M929 538c-70 17-138 18-141 18-3 0-6-1-9-1l-281 281-115-116c-16 14-33 29-52 44-91 74-148 98-192 80-13-5-45-24-45-79 0-36 15-96 128-205l-177-177c-4-5-26-28-38-63-17-52-3-104 38-146l280-279c37-37 75-45 101-45 60 0 102 41 107 45l342 343c29-280 145-296 171-296 27 0 49 22 49 48v388c0 103-104 145-166 160z m-731 203c30-18 72-51 116-90l-23-23c-57 55-82 91-93 113z m267-777c-6-5-22-17-39-17-4 0-16 0-33 17l-279 279c-19 19-19 33-15 44 4 16 15 27 15 27l0 0 181 181c3-3 6-6 10-9 50-41 99-78 136-105 0-1 0-2 0-3 0-49 39-89 89-89 49 0 89 40 89 89s-40 89-89 89c-12 0-23-2-34-6-35 25-82 61-129 100-1 1-2 2-4 3l135 135 351-351-384-384z" horiz-adv-x="1095" />
<glyph glyph-name="googleplus" unicode="&#xe81a;" d="M584 215c-36 15-75 27-118 34-42 8-81 16-117 24-36 8-66 16-90 26-24 10-35 24-35 43 0 12 3 24 10 34 7 11 12 21 17 30 15-4 29-6 41-6 13-1 29-1 47-1 101 0 177 21 231 62 53 41 80 96 80 164 0 32-6 60-17 83-11 23-23 41-36 54h103l59 88h-420c-102 0-179-20-231-61-53-40-79-94-79-161 0-52 16-97 48-135 31-38 77-65 135-80-10-6-20-13-31-22-11-8-21-18-31-29-9-10-16-21-22-33-5-11-8-22-8-33 0-24 7-42 22-54 15-12 34-23 58-33-63-19-113-42-148-69-35-28-52-67-52-119 0-53 29-95 86-126 57-30 143-45 257-45 54 0 103 4 148 12 45 9 84 21 117 38 32 17 58 39 76 65 17 26 26 57 26 92 0 40-12 73-35 98-24 25-54 45-91 60z m-375 295c-12 14-21 32-27 52-5 20-8 42-8 66 0 53 12 93 36 119 24 25 67 38 129 38 26 0 51-1 75-5 24-3 46-9 67-18 3-8 6-17 9-24 2-8 5-17 7-27 3-10 4-22 6-35 1-13 2-29 2-48 0-50-13-89-39-119-26-30-68-45-127-45-32 0-59 4-80 12s-38 20-50 34z m348-528c-6-12-17-24-32-34-15-10-35-18-60-24s-56-9-94-9c-74 0-130 13-168 38-39 26-58 58-58 97 0 27 6 52 18 75 13 24 38 47 77 70 33-10 69-19 106-26 38-8 73-17 106-29 32-11 60-26 81-44 22-18 33-42 33-72 0-15-3-29-9-42z m454 424h-98v98c0 18-14 32-33 32s-32-14-32-32v-98h-98c-18 0-32-15-32-33s14-32 32-32h98v-98c0-18 14-33 32-33s33 15 33 33v98h98c18 0 32 14 32 32s-14 33-32 33z" horiz-adv-x="1043" />
<glyph glyph-name="hamburger" unicode="&#xe81b;" d="M1218 850h-1172c-25 0-46-20-46-46v-66c0-25 21-46 46-46h1172c25 0 45 21 45 46v66c0 26-20 46-45 46z m45-467c0 25-20 46-45 46h-1172c-25 0-46-21-46-46v-66c0-25 21-46 46-46h1172c25 0 45 21 45 46h0v66z m0-421c0 25-20 46-45 46h-1172c-25 0-46-21-46-46v-66c0-26 21-46 46-46h1172c25 0 45 20 45 46h0v66z" horiz-adv-x="1263" />
<glyph glyph-name="icon-17" unicode="&#xe81c;" d="M338 850c-287 0-327-247-332-315-8-8-8-21 0-29l272-279c-5 0-10 0-16 0l-27 0c-39-1-62-23-62-62 0-29 0-58 0-88l0-19 0-56c0-31 0-61 0-92 0-36 24-60 61-60l75 0c44 0 87 0 130 0 40 0 63 23 63 62l0 6c0 64 0 130-1 195 0 13-6 27-14 36-22 23-42 43-62 61-8 7-19 13-30 15l274 281c8 8 8 21 0 29-5 69-45 315-331 315z m83-770l8 0 0-46c0-38 0-75 0-112-61 0-122 0-183 0 0 77 0 155 0 233 18 0 37 0 56 0l53 0c0-9 0-18 0-26 0-30 18-48 48-49 6 0 12 0 18 0z m-185 96l0-21c0 0 0 0 0 0l0 21 0 0z m387 341l-283-290c-2 0-3 0-5 0l-282 290h570z" horiz-adv-x="675" />
<glyph glyph-name="link" unicode="&#xe81d;" d="M881 830l-123-123c-45 27-96 42-150 42-78 0-151-31-206-86l-215-215c-97-96-111-244-44-356l-123-124c-27-27-27-71 0-98 14-13 32-20 49-20s36 7 50 20l123 123c45-27 96-42 150-42 78 0 151 30 206 86l215 215c97 96 111 245 44 356l123 124c27 27 27 71 0 98-28 27-71 27-99 0z m-166-480l-215-215c-30-30-69-45-108-45-15 0-31 3-46 8l95 95c28 27 28 71 0 98-27 28-71 28-98 0l-95-95c-17 52-5 112 37 154l215 215c30 30 69 45 108 45 15 0 31-3 46-7l-95-96c-28-27-28-71 0-98 13-14 31-21 49-21s35 7 49 21l95 95c17-52 5-112-37-154z" horiz-adv-x="1000" />
<glyph glyph-name="livedata" unicode="&#xe81e;" d="M956 620h-294c-2 24-14 46-34 63l104 77c8-9 20-14 33-14 26 0 48 23 48 52 0 29-22 52-48 52s-49-23-49-52c0-2 0-5 1-7l-118-87c-27 14-60 23-96 23-40 0-76-11-105-29l-123 88c1 4 2 8 2 12 0 29-22 52-49 52-27 0-48-23-48-52 0-29 21-52 48-52 11 0 21 4 30 11l113-81c-15-16-25-35-27-56h-293c-28 0-51-23-51-51v-668c0-28 23-51 51-51h905c28 0 51 23 51 51v668c0 28-23 51-51 51z m-185-626c0-28-22-51-50-51h-587c-28 0-50 23-50 51v482c0 28 22 51 50 51h587c28 0 50-23 50-51v-482z m118 6c-38 0-70 34-70 75 0 41 32 74 70 74 39 0 70-33 70-74 0-41-31-75-70-75z m0 324c-38 0-70 33-70 74 0 41 32 75 70 75 39 0 70-33 70-75 0-41-31-74-70-74z" horiz-adv-x="1007" />
<glyph glyph-name="mail" unicode="&#xe81f;" d="M1250 850h-1167c-45 0-83-28-83-63s12-64 17-66c4-2 38-27 75-54l508-382c37-27 97-27 133 0l509 382c36 27 70 52 75 54s16 32 16 66-37 63-83 63z m17-269l-534-400c-36-27-96-27-133 0l-533 400c-37 28-67 13-67-33v-615c0-46 38-83 83-83h1167c46 0 83 37 83 83v615c0 46-30 61-66 33z" horiz-adv-x="1333" />
<glyph glyph-name="mydata" unicode="&#xe820;" d="M99 557c94-49 197-60 292-62 95 1 179 11 260 39 48 17 93 39 126 79 30 37 31 81 0 117-15 18-34 34-53 46-59 37-126 54-195 64-127 19-253 12-376-28-49-16-95-39-129-80-32-39-33-84 2-121 21-21 46-40 73-54z m570-428c43 17 74 59 74 108 0 64-52 115-115 115-64 0-116-51-116-115 0-49 31-91 75-108-101-20-101-116-101-116 0-12 0-31 0-43v-98c0-12 10-22 22-22h240c12 0 21 10 21 22v98c0 12 0 31 0 43 0 0 0 96-100 116z m-572 9c-40 21-77 46-96 92 0-38-1-77 0-116 1-27 13-52 34-68 28-21 57-42 88-56 87-38 179-49 273-50 2 0 3 0 5 0v77c0 20 2 40 7 59-43 0-86 3-130 9-63 9-124 23-181 53z m679 240c9-9 16-20 23-31-1 24-1 47-1 71-5-15-13-28-22-40z m-346-116c0 0-1 0-1 0-96-3-190 7-280 39-62 22-119 50-149 115 0-35 0-71 0-106 0-31 12-58 35-79 13-12 27-23 42-32 59-37 126-53 194-64 52-8 104-11 156-9 7 12 14 23 23 34-13 26-20 56-20 87 0 5 0 10 0 15z m297 259c-58-36-123-53-189-64-103-16-206-16-308 6-91 21-181 45-230 139 0-37 0-72 0-107 0-32 12-58 35-80 13-11 27-22 42-32 62-38 131-54 202-64 54-8 108-11 161-8 27 78 101 134 188 134 46 0 89-16 123-43 27 22 48 49 49 86 0 38 0 75 0 113-17-35-37-57-73-80z" horiz-adv-x="800" />
<glyph glyph-name="myvisualisazions" unicode="&#xe821;" d="M423 850c-147 0-277-75-352-190l352-204 352 204c-76 115-205 190-352 190z m-423-425c0-225 175-410 396-423v408l-352 204c-28-57-44-121-44-189z m801 189l-352-204v-271c9 14 20 29 33 42-14 28-22 60-22 95 0 111 90 201 199 201 81 0 150-49 181-118 4 22 6 44 6 66 0 68-16 132-45 189z m-3-574c0 0 4 71-57 106 0 0 0 0 0 0-11 7-26 13-43 17 46 17 81 61 81 113 0 68-53 122-120 122-66 0-120-54-120-122 0-52 25-96 71-113-106-22-113-123-113-123 0-9 0-21 0-33h0c0-4 0-9 0-13v-104c0-12-1-40 12-40h278c13 0 11 28 11 40v104c0 13 0 33 0 46z" horiz-adv-x="846" />
<glyph glyph-name="check" unicode="&#xe822;" d="M0 350l122 134 262-280 506 555 122-135-628-689-384 415z" horiz-adv-x="1012" />
<glyph glyph-name="import" unicode="&#xe823;" d="M695 399l-335-390-323 390h207v451l244 0 0-451 207 0z m-695-427v-122h732v122h-732z" horiz-adv-x="732" />
<glyph glyph-name="three_klicks_icon_neu" unicode="&#xe824;" d="M953 826h-850c-33 0-60-27-60-60v-611c0-32 26-59 60-59h850c33 0 60 27 60 59v611c0 34-27 60-60 60z m-14-628h-821v545h821c0 0 0-545 0-545z m-520-129l-111-114h442l-111 114h-220z m-176 239c21 0 39 18 39 39 0 4 0 8-2 11 50 41 139 113 180 144 6-4 13-8 22-8 7 0 14 3 19 5 26-22 70-60 102-86 0-3-2-4-2-7 0-22 18-40 39-40 22 0 40 18 40 40 0 3-1 7-2 11l102 91c5-2 11-4 18-4 21 0 39 18 39 39 0 22-18 40-39 40-22 0-40-18-40-40 0-5 1-9 3-14-29-26-73-66-100-90-4 4-12 6-19 6-9 0-17-3-24-9-26 23-68 58-98 84 2 5 3 9 3 14 0 21-18 39-40 39s-40-18-40-39c0-5 1-9 3-14l-182-141c-6 4-13 7-21 7-22 0-40-18-40-40 0-20 18-38 40-38z" horiz-adv-x="1095" />
<glyph glyph-name="plus" unicode="&#xe825;" d="M786 439v-107q0-22-16-38t-38-15h-232v-233q0-22-16-37t-38-16h-107q-22 0-38 16t-15 37v233h-232q-23 0-38 15t-16 38v107q0 23 16 38t38 16h232v232q0 22 15 38t38 16h107q23 0 38-16t16-38v-232h232q22 0 38-16t16-38z" horiz-adv-x="785.7" />
<glyph glyph-name="link-1" unicode="&#xe826;" d="M812 171q0 23-15 38l-116 116q-16 16-38 16-24 0-40-18 1-1 10-10t12-12 9-11 7-14 2-15q0-23-16-38t-38-16q-8 0-15 2t-14 7-11 9-12 12-10 10q-19-17-19-40 0-23 16-38l115-116q15-15 38-15 22 0 38 15l82 81q15 16 15 37z m-392 394q0 22-15 38l-115 115q-16 16-38 16-22 0-38-15l-82-82q-16-15-16-37 0-22 16-38l116-116q15-15 38-15 23 0 40 17-2 2-11 11t-12 12-8 10-7 14-2 16q0 22 15 38t38 15q9 0 16-2t14-7 10-8 12-12 11-11q18 17 18 41z m500-394q0-67-48-113l-82-81q-46-47-113-47-68 0-114 48l-115 115q-46 47-46 114 0 68 49 116l-49 49q-48-49-116-49-67 0-114 47l-116 116q-47 47-47 114t47 113l82 82q47 46 114 46 67 0 114-47l114-116q47-46 47-113 0-69-49-117l49-49q48 49 116 49 67 0 114-47l116-116q47-47 47-114z" horiz-adv-x="928.6" />
<glyph glyph-name="download" unicode="&#xe827;" d="M714 100q0 15-10 25t-25 11-26-11-10-25 10-25 26-11 25 11 10 25z m143 0q0 15-10 25t-26 11-25-11-10-25 10-25 25-11 26 11 10 25z m72 125v-179q0-22-16-37t-38-16h-821q-23 0-38 16t-16 37v179q0 22 16 38t38 16h259l75-76q33-32 76-32t76 32l76 76h259q22 0 38-16t16-38z m-182 318q10-23-8-40l-250-250q-10-10-25-10t-25 10l-250 250q-17 17-8 40 10 21 33 21h143v250q0 15 11 25t25 11h143q14 0 25-11t10-25v-250h143q24 0 33-21z" horiz-adv-x="928.6" />
<glyph glyph-name="upload-1" unicode="&#xe828;" d="M714 29q0 14-10 25t-25 10-26-10-10-25 10-26 26-10 25 10 10 26z m143 0q0 14-10 25t-26 10-25-10-10-25 10-26 25-10 26 10 10 26z m72 125v-179q0-22-16-38t-38-16h-821q-23 0-38 16t-16 38v179q0 22 16 38t38 15h238q12-31 39-51t62-20h143q34 0 61 20t40 51h238q22 0 38-15t16-38z m-182 361q-9-22-33-22h-143v-250q0-15-10-25t-25-11h-143q-15 0-25 11t-11 25v250h-143q-23 0-33 22-9 22 8 39l250 250q10 10 25 10t25-10l250-250q18-17 8-39z" horiz-adv-x="928.6" />
<glyph glyph-name="reply" unicode="&#xe829;" d="M1000 225q0-93-71-252-2-4-6-13t-7-17-8-12q-6-10-15-10-9 0-13 6t-5 14q0 5 1 15t2 13q3 38 3 69 0 56-10 101t-27 77-45 56-59 39-74 24-86 12-98 3h-125v-143q0-14-10-25t-26-11-25 11l-285 286q-11 10-11 25t11 25l285 286q11 10 25 10t26-10 10-25v-143h125q398 0 488-225 30-75 30-186z" horiz-adv-x="1000" />
<glyph glyph-name="export" unicode="&#xe82a;" d="M786 298v-144q0-67-47-114t-114-47h-464q-67 0-114 47t-47 114v464q0 66 47 113t114 48h142q7 0 13-6t5-12q0-15-15-18-43-15-74-34-5-2-9-2h-62q-37 0-63-26t-27-63v-464q0-37 27-63t63-27h464q37 0 63 27t26 63v119q0 11 10 16 16 7 30 21 9 9 20 4 12-5 12-16z m132 277l-214-214q-10-11-25-11-7 0-14 3-22 9-22 33v107h-89q-181 0-245-73-66-77-41-264 2-13-11-19-5-1-7-1-9 0-14 7-6 8-12 17t-22 39-28 55-21 64-10 68q0 27 2 51t8 50 15 49 27 45 38 42 52 34 70 27 89 17 110 6h89v107q0 24 22 33 7 3 14 3 14 0 25-11l214-214q11-10 11-25t-11-25z" horiz-adv-x="928.6" />
<glyph glyph-name="edit-1" unicode="&#xe82b;" d="M496 189l64 65-85 85-64-65v-31h53v-54h32z m245 402q-9 9-18 0l-196-196q-9-9 0-18t18 0l196 196q9 9 0 18z m45-331v-106q0-67-47-114t-114-47h-464q-67 0-114 47t-47 114v464q0 66 47 113t114 48h464q35 0 65-14 9-4 10-13 2-10-5-16l-27-28q-8-8-18-4-13 3-25 3h-464q-37 0-63-26t-27-63v-464q0-37 27-63t63-27h464q37 0 63 27t26 63v70q0 7 5 12l36 36q8 8 20 4t11-16z m-54 411l161-160-375-375h-161v160z m248-73l-51-52-161 161 51 51q16 16 38 16t38-16l85-84q16-16 16-38t-16-38z" horiz-adv-x="1000" />
<glyph glyph-name="doc-text" unicode="&#xe82c;" d="M819 638q16-16 27-42t11-50v-642q0-23-15-38t-38-16h-750q-23 0-38 16t-16 38v892q0 23 16 38t38 16h500q22 0 49-11t42-27z m-248 136v-210h210q-5 16-12 23l-175 175q-6 7-23 12z m215-853v572h-232q-23 0-38 15t-16 38v233h-429v-858h715z m-572 483q0 7 5 12t13 5h393q8 0 13-5t5-12v-36q0-8-5-13t-13-5h-393q-8 0-13 5t-5 13v36z m411-125q8 0 13-5t5-13v-36q0-8-5-13t-13-5h-393q-8 0-13 5t-5 13v36q0 8 5 13t13 5h393z m0-143q8 0 13-5t5-13v-36q0-8-5-13t-13-5h-393q-8 0-13 5t-5 13v36q0 8 5 13t13 5h393z" horiz-adv-x="857.1" />
<glyph glyph-name="file-image" unicode="&#xe82d;" d="M819 638q16-16 27-42t11-50v-642q0-23-15-38t-38-16h-750q-23 0-38 16t-16 38v892q0 23 16 38t38 16h500q22 0 49-11t42-27z m-248 136v-210h210q-5 16-12 23l-175 175q-6 7-23 12z m215-853v572h-232q-23 0-38 15t-16 38v233h-429v-858h715z m-72 250v-178h-571v107l107 107 71-71 215 214z m-464 108q-45 0-76 31t-31 76 31 76 76 31 76-31 31-76-31-76-76-31z" horiz-adv-x="857.1" />
<glyph glyph-name="login" unicode="&#xe82e;" d="M661 350q0-14-11-25l-303-304q-11-10-26-10t-25 10-10 25v161h-250q-15 0-25 11t-11 25v214q0 15 11 25t25 11h250v161q0 14 10 25t25 10 26-10l303-304q11-10 11-25z m196 196v-392q0-67-47-114t-114-47h-178q-7 0-13 5t-5 13q0 2-1 11t0 15 2 13 5 11 12 3h178q37 0 63 27t27 63v392q0 37-27 63t-63 27h-174t-6 0-6 2-5 3-4 5-1 8q0 2-1 11t0 15 2 13 5 11 12 3h178q67 0 114-47t47-114z" horiz-adv-x="857.1" />
<glyph glyph-name="logout" unicode="&#xe82f;" d="M357 46q0-2 1-11t0-14-2-14-5-11-12-3h-178q-67 0-114 47t-47 114v392q0 67 47 114t114 47h178q8 0 13-5t5-13q0-2 1-11t0-15-2-13-5-11-12-3h-178q-37 0-63-27t-27-63v-392q0-37 27-63t63-27h174t6 0 7-2 4-3 4-5 1-8z m518 304q0-14-11-25l-303-304q-11-10-25-10t-25 10-11 25v161h-250q-14 0-25 11t-11 25v214q0 15 11 25t25 11h250v161q0 14 11 25t25 10 25-10l303-304q11-10 11-25z" horiz-adv-x="928.6" />
<glyph glyph-name="left-open" unicode="&#xe830;" d="M653 682l-296-296 296-297q11-10 11-25t-11-25l-92-93q-11-10-25-10t-25 10l-414 415q-11 10-11 25t11 25l414 414q10 10 25 10t25-10l92-93q11-10 11-25t-11-25z" horiz-adv-x="714.3" />
<glyph glyph-name="right-open" unicode="&#xe831;" d="M618 361l-414-415q-11-10-25-10t-26 10l-92 93q-11 11-11 25t11 25l296 297-296 296q-11 11-11 25t11 25l92 93q11 10 26 10t25-10l414-414q10-11 10-25t-10-25z" horiz-adv-x="714.3" />
<glyph glyph-name="left-big" unicode="&#xe832;" d="M857 350v-71q0-30-18-51t-47-21h-393l164-164q21-20 21-50t-21-50l-42-43q-21-20-51-20-29 0-50 20l-364 364q-20 21-20 50 0 29 20 51l364 363q21 21 50 21 29 0 51-21l42-42q21-21 21-50t-21-51l-164-164h393q29 0 47-20t18-51z" horiz-adv-x="857.1" />
<glyph glyph-name="right-big" unicode="&#xe833;" d="M821 314q0-30-20-50l-363-364q-22-20-51-20-29 0-50 20l-42 42q-22 21-22 51t22 51l163 163h-393q-29 0-47 21t-18 51v71q0 30 18 51t47 20h393l-163 164q-22 21-22 51t22 50l42 42q21 21 50 21 29 0 51-21l363-363q20-20 20-51z" horiz-adv-x="857.1" />
<glyph glyph-name="paste" unicode="&#xe834;" d="M429-79h500v358h-233q-22 0-38 15t-15 38v232h-214v-643z m142 804v36q0 7-5 12t-12 6h-393q-7 0-13-6t-5-12v-36q0-7 5-13t13-5h393q7 0 12 5t5 13z m143-375h167l-167 167v-167z m286-71v-375q0-23-16-38t-38-16h-535q-23 0-38 16t-16 38v89h-303q-23 0-38 16t-16 37v750q0 23 16 38t38 16h607q22 0 38-16t15-38v-183q12-7 20-15l228-228q16-16 27-42t11-49z" horiz-adv-x="1000" />
<glyph glyph-name="chart-bar" unicode="&#xe835;" d="M357 350v-286h-143v286h143z m214 286v-572h-142v572h142z m572-643v-72h-1143v858h71v-786h1072z m-357 500v-429h-143v429h143z m214 214v-643h-143v643h143z" horiz-adv-x="1142.9" />
<glyph glyph-name="chart-area" unicode="&#xe836;" d="M1143-7v-72h-1143v858h71v-786h1072z m-214 571l142-500h-928v322l250 321 321-321z" horiz-adv-x="1142.9" />
<glyph glyph-name="chart-pie" unicode="&#xe837;" d="M429 353l304-304q-59-61-138-94t-166-34q-117 0-216 58t-155 156-58 215 58 215 155 156 216 58v-426z m104-3h431q0-88-33-167t-94-138z m396 71h-429v429q117 0 215-57t156-156 58-216z" horiz-adv-x="1000" />
<glyph glyph-name="chart-line" unicode="&#xe838;" d="M1143-7v-72h-1143v858h71v-786h1072z m-72 696v-242q0-12-10-17t-20 4l-68 68-353-353q-6-6-13-6t-13 6l-130 130-232-233-107 108 326 326q6 6 13 6t13-6l130-130 259 259-67 67q-9 9-5 20t17 11h243q7 0 12-5t5-13z" horiz-adv-x="1142.9" />
<glyph glyph-name="download-1" unicode="&#xe839;" d="M968 198q18-10 27-32t3-40l-28-154q-4-20-22-33t-40-13l-816 0q-22 0-40 13t-22 33l-28 154q-10 48 32 72l158 108 98 0-170-130 178 0q8 0 12-8l40-110 300 0 40 110q8 8 12 8l178 0-170 130 98 0z m-208 322l-260-244-260 244 166 0 0 256 190 0 0-256 164 0z" horiz-adv-x="1000" />
<glyph glyph-name="upload-2" unicode="&#xe83a;" d="M500 776l260-244-164 0 0-256-190 0 0 256-166 0z m468-578q18-10 27-32t3-40l-28-154q-4-20-22-33t-40-13l-816 0q-22 0-40 13t-22 33l-28 154q-10 48 32 72l158 108 98 0-170-130 178 0q8 0 12-8l40-110 300 0 40 110q8 8 12 8l178 0-170 130 98 0z" horiz-adv-x="1000" />
<glyph glyph-name="reply-1" unicode="&#xe83b;" d="M900 10q-86 152-208 197t-330 45l0-218-362 334 362 322 0-192q90 0 168-27t131-70 96-95 69-104 44-95 24-69z" horiz-adv-x="900" />
<glyph glyph-name="forward" unicode="&#xe83c;" d="M540 252q-210 0-332-45t-208-197q4 20 13 53t50 117 96 148 156 117 225 53l0 192 360-322-360-334 0 218z" horiz-adv-x="900" />
<glyph glyph-name="login-1" unicode="&#xe83d;" d="M800 800q42 0 71-29t29-71l0-700q0-40-29-70t-71-30l-450 0q-40 0-69 30t-29 70l0 100 98 0 0-100 450 0 0 700-450 0 0-150-98 0 0 150q0 42 29 71t69 29l450 0z m-350-670l0 120-450 0 0 150 450 0 0 120 200-194z" horiz-adv-x="900" />
<glyph glyph-name="logout-1" unicode="&#xe83e;" d="M502 0l0 100 98 0 0-100q0-40-29-70t-71-30l-400 0q-40 0-70 30t-30 70l0 700q0 42 30 71t70 29l400 0q42 0 71-29t29-71l0-150-98 0 0 150-402 0 0-700 402 0z m398 326l-198-196 0 120-450 0 0 150 450 0 0 120z" horiz-adv-x="900" />
<glyph glyph-name="doc-new" unicode="&#xe83f;" d="M0-150l0 818 188 182 519 0 0-348-86 0 0 260-369 0 0-156-166 0 0-668 418 0 0-88-504 0z m373 207l0 162 209 0 0 207 160 0 0-207 207 0 0-162-207 0 0-207-160 0 0 207-209 0z" horiz-adv-x="949" />
>>>>>>> develop
</font>
</defs>
</svg>
