<?xml version="1.0" encoding="utf-8"?>
<!-- Generator: Adobe Illustrator 16.0.0, SVG Export Plug-In . SVG Version: 6.00 Build 0)  -->
<!DOCTYPE svg PUBLIC "-//W3C//DTD SVG 1.1//EN" "http://www.w3.org/Graphics/SVG/1.1/DTD/svg11.dtd">
<svg version="1.1" id="Layer_1" xmlns="http://www.w3.org/2000/svg" xmlns:xlink="http://www.w3.org/1999/xlink" x="0px" y="0px"
	 width="36.677px" height="39.836px" viewBox="0 0 36.677 39.836" enable-background="new 0 0 36.677 39.836" xml:space="preserve">
<path fill-rule="evenodd" clip-rule="evenodd" fill="#4D4D4D" d="M30.393,34.842c0.008,1.058-0.396,1.365-1.41,1.361
	c-7.979-0.025-15.96-0.025-23.94,0.01c-1.1,0.006-1.328-0.482-1.328-1.453c0.023-9.884,0.02-19.768,0.004-29.65
	C3.716,4.151,3.944,3.634,5.046,3.639c5.396,0.034,10.793,0.016,16.492,0.016c0,1.986-0.023,3.753,0.004,5.52
	c0.037,2.201,1.096,3.271,3.279,3.312c1.77,0.032,3.538,0.008,5.291,0.008c0.113,0.294,0.232,0.456,0.236,0.618
	c0.007,3.271,0.01,6.542,0.014,9.812c1.131,0,2.471,0,3.753,0c-0.003-3.944-0.016-7.888-0.058-11.832
	c-0.008-0.895-0.449-1.985-1.059-2.635c-2.318-2.463-4.721-4.855-7.24-7.105c-0.801-0.714-2.062-1.252-3.127-1.273
	C16.698-0.043,10.761,0.01,4.827,0.023c-3.191,0.008-4.811,1.625-4.821,4.82C-0.01,9.887,0,14.934,0,19.979c-0.002,0-0.004,0-0.01,0
	c0,5.045-0.008,10.092,0.006,15.136c0.006,3.021,1.716,4.715,4.765,4.72c8.131,0.004,16.264,0.002,24.396-0.009
	c3.34-0.003,4.945-1.563,4.951-4.873c0.003-1.343,0.002-2.686,0.004-4.028c-1.327,0-2.275,0-3.73,0
	C30.386,32.229,30.386,33.536,30.393,34.842z"/>
<polygon fill="#4D4D4D" points="18.774,26.923 27.677,32.964 27.677,29.688 36.677,29.688 36.677,24.688 27.677,24.688 
	27.677,20.884 "/>
</svg>
