<?xml version="1.0" encoding="utf-8"?>
<!-- Generator: Adobe Illustrator 16.0.0, SVG Export Plug-In . SVG Version: 6.00 Build 0)  -->
<!DOCTYPE svg PUBLIC "-//W3C//DTD SVG 1.1//EN" "http://www.w3.org/Graphics/SVG/1.1/DTD/svg11.dtd">
<svg version="1.1" id="Layer_1" xmlns="http://www.w3.org/2000/svg" xmlns:xlink="http://www.w3.org/1999/xlink" x="0px" y="0px"
	 width="880px" height="300px" viewBox="0 0 880 300" enable-background="new 0 0 880 300" xml:space="preserve">
<circle fill="#12DDC8" cx="97.67822" cy="188.41113" r="94.53223"/>
<circle fill="#333333" cx="267.4751" cy="111.12012" r="48.3291"/>
<circle fill="#FF5346" cx="384.19189" cy="90.40332" r="32.0459"/>
<circle fill="#FF5346" cx="375.47534" cy="213.12012" r="68.32935"/>
<circle fill="#12DDC8" cx="554.08887" cy="111.12012" r="105.3291"/>
<circle fill="#FF5346" cx="711.35449" cy="227.00098" r="67.20801"/>
<circle fill="#333333" cx="719.86719" cy="75.5127" r="30.7207"/>
<circle fill="#12DDC8" cx="824" cy="128.64551" r="52.85352"/>
<g>
	<path d="M68.45312,195.03711c-4.07129,0-6.0293-1.87109-6.0293-5.67773v-8.97656h2.77246v8.75781
		c0,3.18945,1.47363,3.76172,3.25684,3.76172c1.7373,0,2.96973-0.94531,2.96973-3.76172v-8.75781h2.77246v9.02148
		C74.19531,193.1875,72.12695,195.03711,68.45312,195.03711z"/>
	<path d="M90.14551,194.61914v-6.38086c0-1.49609-0.41797-2.06836-1.42969-2.06836c-1.18848,0-1.98047,0.99023-2.35449,2.00195
		v6.44727H83.875v-6.38086c0-1.67188-0.46191-2.06836-1.54004-2.06836c-1.03418,0-1.84863,1.25391-2.13477,1.86914v6.58008h-2.48633
		v-7.74609c0-0.83594-0.19824-1.5625-0.26367-2.31055h2.28809l0.39648,1.34375c0.35156-0.50781,1.45215-1.65039,2.66211-1.65039
		c1.73828,0,2.35449,0.43945,3.21191,1.62695c0.57227-0.92383,1.62891-1.62695,3.08105-1.62695
		c2.37598,0,3.54199,1.25391,3.54199,3.9375v6.42578H90.14551z"/>
	<path d="M107.63477,194.61914h-2.5957l-2.06836-6.16211l-2.28906,6.16211h-2.61816l-3.32227-10.05664h2.64062l2.22168,7.01953
		l2.22266-6.13867h2.44238l2.1123,6.13867l2.02441-7.01953h2.55176L107.63477,194.61914z"/>
	<path d="M114.91602,190.54883c0.19824,1.60547,1.03418,2.50781,2.41992,2.50781c0.94629,0,2.09082-0.33008,3.14648-0.85742
		l0.81445,1.91406c-1.20996,0.54883-2.75,0.79102-4.13672,0.79102c-3.25586,0-4.8623-2.41992-4.8623-5.21484
		c0-2.33203,1.05566-5.41211,4.77441-5.41211c3.49902,0,4.75293,2.06836,4.75293,6.27148H114.91602z M117.05078,186.19141
		c-0.81445,0-2.04688,0.48438-2.13477,2.57422h4.51074C119.31641,186.85156,118.34863,186.19141,117.05078,186.19141z"/>
	<path d="M124.26562,194.61914v-14.45703h2.48633v14.45703H124.26562z"/>
	<path d="M134.71582,196.75391c-2.44238-0.61719-4.55469-2.20117-4.55469-4.77539v-5.50195h-1.67188v-1.93555h1.67188v-2.68359
		h2.48633v2.68359h2.35449v1.93555h-2.35449v5.69922c0,1.43164,1.05664,2.04688,2.72852,2.44336L134.71582,196.75391z"/>
</g>
<g>
	<path d="M516.18164,106.23438l-4.72852-6.45703h-0.67188v6.45703h-3.02441v-15.5293h5.80859
		c2.47266,0,5.25684,0.81641,5.25684,4.48828c0,2.08789-0.93652,4.03223-3.84082,4.48828l4.89648,6.55273H516.18164z
		 M513.68555,93.0332h-2.9043v4.41602h2.92871c1.3916,0,2.04004-0.95996,2.04004-2.25586S515.10156,93.0332,513.68555,93.0332z"/>
	<path d="M527.36621,106.57031c-3.96094,0-5.4248-2.71191-5.4248-5.88086c0-3.04785,1.48828-5.75977,5.4248-5.75977
		c3.9834,0,5.40039,2.56836,5.40039,5.75977C532.7666,103.83398,531.30176,106.57031,527.36621,106.57031z M527.36621,97.01758
		c-1.72852,0-2.64062,0.98438-2.64062,3.67188c0,2.47266,0.81641,3.79297,2.64062,3.79297
		c1.67969,0,2.61621-1.12793,2.61621-3.79297C529.98242,98.00195,529.18945,97.01758,527.36621,97.01758z"/>
	<path d="M542.19727,106.23438v-7.03223c0-1.08008-0.0957-2.18457-1.7041-2.18457c-1.12793,0-1.87207,1.03223-2.40039,2.06445
		v7.15234h-2.71191V90.46484h2.71191v6.24023c0.36035-0.47949,1.32031-1.77539,2.85645-1.77539
		c3.2168,0,3.96094,1.87207,3.96094,4.39258v6.91211H542.19727z"/>
	<path d="M551.60449,106.57031c-1.27246,0-3-0.33594-4.2002-0.76758l0.93652-2.23242
		c1.22363,0.45605,2.04004,0.91211,3.31152,0.91211c1.68066,0,1.89648-0.57617,1.89648-1.22461
		c0-0.69531-0.98438-0.9834-2.13574-1.31934c-1.70508-0.50488-3.79297-1.17676-3.79297-3.74512
		c0-2.63965,2.40039-3.26367,4.65625-3.26367c1.00879,0,2.25684,0.21582,3.76855,0.69531l-0.93555,2.23242
		c-1.10449-0.50391-1.72852-0.83984-2.80859-0.83984c-1.22461,0-1.89648,0.3125-1.89648,1.10449
		c0,0.71973,0.91211,1.00781,2.04004,1.34375c1.7041,0.52832,3.88867,1.2002,3.88867,3.76855
		S553.93262,106.57031,551.60449,106.57031z"/>
	<path d="M564.4209,108.5625c-2.66406-0.67188-4.96875-2.40039-4.96875-5.20801v-6.00098h-1.82324v-2.1123h1.82324v-2.92773h2.71289
		v2.92773h2.56836v2.1123h-2.56836v6.2168c0,1.55957,1.15234,2.23242,2.97559,2.66406L564.4209,108.5625z"/>
	<path d="M571.8125,106.57031c-3.96094,0-5.4248-2.71191-5.4248-5.88086c0-3.04785,1.48828-5.75977,5.4248-5.75977
		c3.9834,0,5.40039,2.56836,5.40039,5.75977C577.21289,103.83398,575.74805,106.57031,571.8125,106.57031z M571.8125,97.01758
		c-1.72852,0-2.64062,0.98438-2.64062,3.67188c0,2.47266,0.81641,3.79297,2.64062,3.79297
		c1.67969,0,2.61621-1.12793,2.61621-3.79297C574.42871,98.00195,573.63574,97.01758,571.8125,97.01758z"/>
	<path d="M582.87695,94.7373v0.52832h2.49609v2.08789h-2.49609v8.88086h-2.71289v-8.88086h-1.65625v-2.08789h1.65625v-0.3125
		c0-3.36035,3.16895-4.72852,5.4248-4.91992l0.67188,2.23242C584.10059,92.48145,582.87695,93.12891,582.87695,94.7373z"/>
	<path d="M590.89258,94.7373v0.52832h2.49609v2.08789h-2.49609v8.88086h-2.71289v-8.88086h-1.65625v-2.08789h1.65625v-0.3125
		c0-3.36035,3.16895-4.72852,5.4248-4.91992l0.67188,2.23242C592.11621,92.48145,590.89258,93.12891,590.89258,94.7373z"/>
	<path d="M594.92383,101.96191v-2.25586h7.10449v2.25586H594.92383z"/>
	<path d="M509.13672,130.23438h-2.66406l-4.24805-10.96875h2.9043l2.75977,7.77637l2.66406-7.77637h2.83301L509.13672,130.23438z"/>
	<path d="M517.84863,125.79395c0.21582,1.75195,1.12793,2.73633,2.63965,2.73633c1.03223,0,2.28027-0.36035,3.43262-0.93652
		l0.8877,2.08887c-1.31934,0.59961-3,0.86426-4.51172,0.86426c-3.55273,0-5.30469-2.64062-5.30469-5.68945
		c0-2.54395,1.15234-5.9043,5.20801-5.9043c3.81641,0,5.18457,2.25684,5.18457,6.84082H517.84863z M520.17676,121.04199
		c-0.88867,0-2.23242,0.52734-2.32812,2.80762h4.91992C522.64844,121.76172,521.59277,121.04199,520.17676,121.04199z"/>
	<path d="M534.57617,121.68945c-0.40723-0.31152-0.9834-0.67188-1.58398-0.67188c-1.27148,0-1.96777,2.0166-2.23242,2.66406v6.55273
		h-2.71191v-8.52051c0-1.08008-0.21582-1.89648-0.28809-2.44824h2.49609l0.43262,1.87207
		c0.38379-0.69629,1.55957-2.20801,2.73633-2.20801c0.91211,0,1.43945,0.19141,2.08789,0.52734L534.57617,121.68945z"/>
	<path d="M542.61719,130.54688c-1.36816,0-2.23242-0.86426-2.56836-1.41699l-0.43262,1.10449h-2.49609
		c0.16797-1.2959,0.28809-1.96777,0.28809-3.36035v-12.40918h2.71191v6.24023c0.625-0.86328,1.53613-1.75195,2.88086-1.75195
		c3.28809,0,4.53613,2.68848,4.53613,5.73633C547.53711,127.83398,545.90527,130.54688,542.61719,130.54688z M542.49707,121.04199
		c-1.17676,0-1.84863,1.08008-2.4248,2.11133v3.76855c0.48047,1.03223,1.17676,1.53613,2.1123,1.53613
		c1.36816,0,2.56836-0.81543,2.56836-3.71973C544.75293,121.76172,543.7207,121.04199,542.49707,121.04199z"/>
	<path d="M556.68066,121.68945c-0.40723-0.31152-0.9834-0.67188-1.58398-0.67188c-1.27148,0-1.96777,2.0166-2.23242,2.66406v6.55273
		h-2.71191v-8.52051c0-1.08008-0.21582-1.89648-0.28809-2.44824h2.49609l0.43262,1.87207
		c0.38379-0.69629,1.55957-2.20801,2.73633-2.20801c0.91211,0,1.43945,0.19141,2.08789,0.52734L556.68066,121.68945z"/>
	<path d="M566.49609,130.23438l-0.40723-1.10449c-0.60059,0.57617-1.65625,1.41699-2.85645,1.41699
		c-2.78418,0-4.27246-1.10449-4.27246-3.19238c0-2.23242,1.34375-4.00879,6.02441-4.00879h0.91211v-0.52832
		c0-0.83984-0.16797-1.77539-1.56055-1.77539c-1.51172,0-2.95215,0.45605-4.00781,0.95996l-0.93652-2.23242
		c1.46484-0.52832,3.36035-0.81641,5.08887-0.81641c2.42383,0,4.15234,1.10449,4.15234,3.50488v4.41602
		c0,0.86426,0.28809,2.13672,0.43164,3.36035H566.49609z M565.9209,125.16992h-0.60059c-2.5918,0-3.52832,0.74414-3.52832,2.06445
		c0,0.93555,0.93652,1.22363,1.94434,1.22363s1.75195-0.52832,2.18457-1.12793V125.16992z"/>
	<path d="M579.19141,130.23438l-0.43164-1.44043c-0.45605,0.48047-1.2959,1.77637-2.83203,1.77637
		c-3.04883,0-3.88867-1.87207-3.88867-4.39258v-6.91211h2.71191v7.03223c0,1.05664,0.12012,2.18457,1.63281,2.18457
		c1.12793,0,1.7998-1.03223,2.30371-2.06445v-7.15234h2.71289v8.64062c0,0.91211,0.19141,1.56055,0.28809,2.32812H579.19141z"/>
	<path d="M589.44043,130.54688c-3.60059,0-5.4248-2.35254-5.4248-5.71289c0-3.55273,1.77637-5.88086,5.49609-5.88086
		c0.98438,0,2.9043,0.45605,3.69629,0.76855l-0.93555,2.23242c-0.81641-0.4082-1.96875-0.91211-2.78418-0.91211
		c-1.82422,0-2.68848,0.9834-2.68848,3.79199c0,2.56836,1.03223,3.62402,2.66406,3.62402c0.74414,0,1.96777-0.43164,2.9043-0.91211
		l0.93652,2.23242C592.46387,130.18652,590.28027,130.54688,589.44043,130.54688z"/>
	<path d="M602.51953,130.23438v-7.03223c0-1.08008-0.0957-2.18457-1.7041-2.18457c-1.12793,0-1.87207,1.03223-2.40039,2.06445
		v7.15234h-2.71191v-15.76953h2.71191v6.24023c0.36035-0.47949,1.32031-1.77539,2.85645-1.77539
		c3.2168,0,3.96094,1.87207,3.96094,4.39258v6.91211H602.51953z"/>
</g>
<g>
	<path d="M664.52344,233.72656v-13.58398h8.0625v2.03516h-5.41699v3.50781h4.97559v2.03516h-4.97559v3.96875h5.60645v2.03711
		H664.52344z"/>
	<path d="M676.09473,222.19922v-2.05664h2.49902v2.05664H676.09473z M676.1582,233.72656v-9.5957h2.37207v9.5957H676.1582z"/>
	<path d="M687.28613,233.72656v-6.15234c0-0.94531-0.08398-1.91016-1.49121-1.91016c-0.98633,0-1.6582,0.90234-2.09961,1.80469
		v6.25781h-2.37207v-7.55859c0-0.79883-0.16797-1.36523-0.25195-2.03711h2.18359l0.37793,1.25977
		c0.39844-0.41992,1.21777-1.55273,2.56152-1.55273c2.81348,0,3.46387,1.63672,3.46387,3.8418v6.04688H687.28613z"/>
	<path d="M703.97949,233.72656h-2.47754l-1.97363-5.87891l-2.18359,5.87891h-2.49902l-3.16992-9.5957h2.51953l2.12109,6.69727
		l2.12012-5.85742h2.33105l2.01562,5.85742l1.93164-6.69727h2.43555L703.97949,233.72656z"/>
	<path d="M713.17969,234.01953c-3.46484,0-4.74609-2.37109-4.74609-5.14258c0-2.66797,1.30273-5.03906,4.74609-5.03906
		c3.48438,0,4.72363,2.24609,4.72363,5.03906C717.90332,231.62695,716.62305,234.01953,713.17969,234.01953z M713.17969,225.66406
		c-1.51172,0-2.31055,0.86133-2.31055,3.21289c0,2.16211,0.71484,3.31641,2.31055,3.31641
		c1.46875,0,2.28809-0.98633,2.28809-3.31641C715.46777,226.52539,714.77539,225.66406,713.17969,225.66406z"/>
	<path d="M726.15723,233.72656v-6.15234c0-0.94531-0.08398-1.91016-1.49121-1.91016c-0.98633,0-1.63672,0.90234-2.09961,1.80469
		v6.25781h-2.37207v-13.79492h2.37207v5.45898c0.31543-0.41992,1.15527-1.55273,2.49902-1.55273
		c2.81348,0,3.46387,1.63672,3.46387,3.8418v6.04688H726.15723z"/>
	<path d="M737.26562,233.72656v-6.15234c0-0.94531-0.08398-1.91016-1.49023-1.91016c-0.9873,0-1.65918,0.90234-2.09961,1.80469
		v6.25781h-2.37305v-7.55859c0-0.79883-0.16797-1.36523-0.25195-2.03711h2.18359l0.37793,1.25977
		c0.39941-0.41992,1.21777-1.55273,2.56152-1.55273c2.81348,0,3.46484,1.63672,3.46484,3.8418v6.04688H737.26562z"/>
	<path d="M744.42676,229.8418c0.18848,1.5332,0.9873,2.39453,2.30957,2.39453c0.90234,0,1.99414-0.31641,3.00195-0.82031
		l0.77734,1.82812c-1.1543,0.52344-2.625,0.75586-3.94727,0.75586c-3.10742,0-4.64062-2.31055-4.64062-4.97656
		c0-2.22656,1.00781-5.16602,4.55664-5.16602c3.33789,0,4.53516,1.97461,4.53516,5.98438H744.42676z M746.46289,225.68555
		c-0.77637,0-1.95215,0.46094-2.03613,2.45508h4.30371C748.62598,226.31445,747.70215,225.68555,746.46289,225.68555z"/>
	<path d="M759.06348,226.25195c-0.35645-0.27344-0.86035-0.58789-1.38574-0.58789c-1.11328,0-1.72168,1.76367-1.95312,2.33008
		v5.73242h-2.37207v-7.45312c0-0.94531-0.18848-1.66016-0.25195-2.14258h2.18359l0.37793,1.63867
		c0.33594-0.60938,1.36523-1.93164,2.39355-1.93164c0.79785,0,1.25977,0.16797,1.82715,0.46094L759.06348,226.25195z"/>
</g>
<g>
	<path d="M334.09375,214.13867h-2.35156v5.3125h-2.64551v-13.58398h4.7666c2.77148,0,4.80762,0.96484,4.80762,4.07227
		C338.6709,213.02637,336.82324,214.13867,334.09375,214.13867z M333.82031,207.90332h-2.07812v4.19922h2.18359
		c1.13379,0,2.05762-0.4834,2.05762-2.16309C335.9834,208.07129,334.8916,207.90332,333.82031,207.90332z"/>
	<path d="M345.37109,219.74512c-3.46484,0-4.74609-2.37207-4.74609-5.14355c0-2.66699,1.30273-5.03906,4.74609-5.03906
		c3.48438,0,4.72363,2.24609,4.72363,5.03906C350.09473,217.35156,348.81445,219.74512,345.37109,219.74512z M345.37109,211.38867
		c-1.51172,0-2.31055,0.86133-2.31055,3.21289c0,2.16211,0.71484,3.31641,2.31055,3.31641
		c1.46875,0,2.28809-0.98633,2.28809-3.31641C347.65918,212.25,346.9668,211.38867,345.37109,211.38867z"/>
	<path d="M357.27734,219.74512c-0.90234,0-1.97266-0.4834-2.51953-1.23926v4.72461h-2.37207v-10.43555
		c0-1.2168-0.10449-1.80469-0.25195-2.93945h2.18359l0.41992,1.25977c0.41992-0.58789,1.19629-1.55273,2.39355-1.55273
		c3.00195,0,4.11523,2.39258,4.11523,5.14355C361.24609,217.37305,360.02832,219.74512,357.27734,219.74512z M356.56445,211.38867
		c-0.81934,0-1.42773,0.88184-1.84766,1.78516v3.35938c0.50391,0.90234,1.19629,1.38477,2.12012,1.38477
		c1.07129,0,1.97363-0.65039,1.97363-3.25391C358.81055,212.12305,358.0127,211.38867,356.56445,211.38867z"/>
	<path d="M369.79297,219.45117l-0.37793-1.25977c-0.39941,0.41992-1.13379,1.55371-2.47754,1.55371
		c-2.66602,0-3.40137-1.6377-3.40137-3.84277v-6.04688h2.37207v6.15234c0,0.92383,0.10547,1.91016,1.42773,1.91016
		c0.9873,0,1.5752-0.90234,2.01562-1.80469v-6.25781h2.37305v7.55859c0,0.79883,0.16797,1.36523,0.25195,2.03711H369.79297z"/>
	<path d="M374.49805,219.45117v-13.79492h2.37305v13.79492H374.49805z"/>
	<path d="M385.75195,219.45117l-0.35645-0.96582c-0.52441,0.50391-1.44824,1.23926-2.49902,1.23926
		c-2.43555,0-3.73633-0.9668-3.73633-2.79297c0-1.95312,1.17578-3.50586,5.26953-3.50586h0.79785v-0.46289
		c0-0.73438-0.14746-1.55273-1.36426-1.55273c-1.32324,0-2.58301,0.39844-3.50684,0.83984l-0.81934-1.95312
		c1.28125-0.46191,2.93945-0.71387,4.45117-0.71387c2.12109,0,3.63281,0.96582,3.63281,3.06543v3.86328
		c0,0.75586,0.25195,1.86914,0.37793,2.93945H385.75195z M385.24805,215.02148h-0.52441c-2.26758,0-3.08691,0.65039-3.08691,1.80469
		c0,0.81934,0.81934,1.07129,1.70117,1.07129s1.5332-0.46191,1.91016-0.9873V215.02148z"/>
	<path d="M395.43359,221.48828c-2.33008-0.58789-4.3457-2.09961-4.3457-4.55664v-5.24902h-1.5957v-1.84766h1.5957v-2.56152h2.37207
		v2.56152h2.24707v1.84766h-2.24707v5.43848c0,1.36426,1.00781,1.95215,2.60352,2.33008L395.43359,221.48828z"/>
	<path d="M397.59766,207.92383v-2.05664h2.49805v2.05664H397.59766z M397.66016,219.45117v-9.5957h2.37305v9.5957H397.66016z"/>
	<path d="M407.08789,219.74512c-3.46387,0-4.74414-2.37207-4.74414-5.14355c0-2.66699,1.30078-5.03906,4.74414-5.03906
		c3.48633,0,4.72461,2.24609,4.72461,5.03906C411.8125,217.35156,410.53125,219.74512,407.08789,219.74512z M407.08789,211.38867
		c-1.51172,0-2.30859,0.86133-2.30859,3.21289c0,2.16211,0.71289,3.31641,2.30859,3.31641c1.4707,0,2.28906-0.98633,2.28906-3.31641
		C409.37695,212.25,408.68359,211.38867,407.08789,211.38867z"/>
	<path d="M420.06543,219.45117v-6.15234c0-0.94434-0.08398-1.91016-1.49121-1.91016c-0.98633,0-1.6582,0.90234-2.09961,1.80566
		v6.25684h-2.37207v-7.55859c0-0.79785-0.16797-1.36523-0.25195-2.03711h2.18359l0.37793,1.25977
		c0.39844-0.41992,1.21777-1.55273,2.56152-1.55273c2.81348,0,3.46387,1.63672,3.46387,3.8418v6.04688H420.06543z"/>
</g>
<g>
	<path fill="#FFFFFF" d="M253.24414,117.12305v-12.29102h2.39355v10.3916h5.11035v1.89941H253.24414z"/>
	<path fill="#FFFFFF" d="M267.77832,117.12305l-0.3418-1.13965c-0.36133,0.37988-1.02637,1.40527-2.24219,1.40527
		c-2.41211,0-3.07715-1.48145-3.07715-3.47656v-5.4707h2.14648v5.56641c0,0.83594,0.09473,1.72852,1.29199,1.72852
		c0.89258,0,1.4248-0.81738,1.82324-1.63379v-5.66113h2.14746v6.83887c0,0.72168,0.15137,1.23535,0.22754,1.84277H267.77832z"/>
	<path fill="#FFFFFF" d="M274.44629,108.02344v0.41797h1.97656v1.65234h-1.97656v7.0293h-2.14648v-7.0293h-1.31055v-1.65234h1.31055
		v-0.24707c0-2.65918,2.50781-3.74219,4.29395-3.89453l0.53125,1.7666C275.41602,106.2373,274.44629,106.75098,274.44629,108.02344z
		"/>
	<path fill="#FFFFFF" d="M282.75,118.96582c-2.1084-0.53223-3.93262-1.89941-3.93262-4.12207v-4.75h-1.44336v-1.67188h1.44336
		v-2.31738h2.14746v2.31738h2.03223v1.67188h-2.03223v4.9209c0,1.23438,0.91113,1.7666,2.35547,2.1084L282.75,118.96582z"/>
</g>
<g>
	<path d="M374.3125,95.12305V84.125h6.52734v1.64941h-4.38574v2.83789h4.0293v1.64941h-4.0293v3.21289h4.53906v1.64844H374.3125z"/>
	<path d="M383.67969,85.79102V84.125h2.02246v1.66602H383.67969z M383.73047,95.12305v-7.76855h1.9209v7.76855H383.73047z"/>
	<path d="M390.41211,95.36133c-0.90137,0-2.125-0.23828-2.97559-0.54395l0.66309-1.58105
		c0.86719,0.32324,1.44531,0.64551,2.3457,0.64551c1.19043,0,1.34277-0.40723,1.34277-0.86621
		c0-0.49316-0.69629-0.69727-1.5127-0.93555c-1.20703-0.35645-2.68555-0.83301-2.68555-2.65137
		c0-1.87012,1.7002-2.31152,3.29785-2.31152c0.71387,0,1.59766,0.15234,2.66895,0.49219l-0.66309,1.58105
		c-0.78223-0.35645-1.22363-0.59473-1.98926-0.59473c-0.86621,0-1.34277,0.2207-1.34277,0.78223
		c0,0.50977,0.64648,0.71387,1.44531,0.95117c1.20703,0.37402,2.75391,0.85059,2.75391,2.66895
		C393.76074,94.81738,392.06055,95.36133,390.41211,95.36133z"/>
</g>
<g>
	<path fill="#FFFFFF" d="M714.60938,81.12305h-2.65234l-2.1416-7.68359l-2.51562,7.68359h-2.65137L702.14941,70.125h2.26074
		l1.83594,8.39746l2.41309-7.93848h2.65234l2.00586,7.93848l2.02246-8.39746h2.09082L714.60938,81.12305z"/>
	<path fill="#FFFFFF" d="M718.69043,71.79102V70.125h2.02246v1.66602H718.69043z M718.74121,81.12305v-7.76855h1.9209v7.76855
		H718.74121z"/>
	<path fill="#FFFFFF" d="M724.55566,77.97852c0.15234,1.24023,0.79883,1.9375,1.87012,1.9375
		c0.73047,0,1.61426-0.25488,2.43066-0.66309l0.62891,1.47949c-0.93555,0.4248-2.125,0.61133-3.19629,0.61133
		c-2.51562,0-3.75684-1.86914-3.75684-4.02832c0-1.80176,0.81641-4.18164,3.68945-4.18164c2.70215,0,3.6709,1.59766,3.6709,4.84473
		H724.55566z M726.2041,74.6123c-0.62891,0-1.58105,0.37402-1.64844,1.98926h3.48438
		C727.95508,75.12305,727.20703,74.6123,726.2041,74.6123z"/>
	<path fill="#FFFFFF" d="M736.60742,81.12305v-4.98047c0-0.76465-0.06738-1.54688-1.20703-1.54688
		c-0.79883,0-1.34277,0.73047-1.69922,1.46191v5.06543h-1.9209v-6.11914c0-0.64648-0.13574-1.10547-0.2041-1.64941h1.76758
		l0.30664,1.02051c0.32227-0.33984,0.98535-1.25781,2.07324-1.25781c2.27832,0,2.80469,1.3252,2.80469,3.11035v4.89551H736.60742z"
		/>
</g>
<g>
	<path d="M814.14648,135.646l-1.10156-3.28613h-4.38867l-1.1582,3.28613h-2.5459l4.99609-12.29102h2.2041l4.63477,12.29102
		H814.14648z M810.93652,126.01416l-1.61523,4.54102h3.11621L810.93652,126.01416z"/>
	<path d="M824.02734,135.646l-0.3418-1.13965c-0.36133,0.37988-1.02637,1.40527-2.24219,1.40527
		c-2.41211,0-3.07715-1.48145-3.07715-3.47656v-5.4707h2.14648v5.56641c0,0.83594,0.09473,1.72852,1.29199,1.72852
		c0.89258,0,1.4248-0.81738,1.82324-1.63379v-5.66113h2.14746v6.83887c0,0.72168,0.15137,1.23535,0.22754,1.84277H824.02734z"/>
	<path d="M832.65332,137.48877c-2.1084-0.53223-3.93262-1.89941-3.93262-4.12207v-4.75h-1.44336v-1.67188h1.44336v-2.31738h2.14746
		v2.31738h2.03223v1.67188h-2.03223v4.9209c0,1.23438,0.91113,1.7666,2.35547,2.1084L832.65332,137.48877z"/>
	<path d="M838.50586,135.91162c-3.13477,0-4.29395-2.14648-4.29395-4.6543c0-2.41211,1.17871-4.55859,4.29395-4.55859
		c3.15332,0,4.27441,2.03223,4.27441,4.55859C842.78027,133.74658,841.62109,135.91162,838.50586,135.91162z M838.50586,128.35107
		c-1.36816,0-2.08984,0.7793-2.08984,2.90625c0,1.95703,0.64551,3.00195,2.08984,3.00195c1.33008,0,2.07031-0.89258,2.07031-3.00195
		C840.57617,129.13037,839.94922,128.35107,838.50586,128.35107z"/>
</g>
</svg>
