<?xml version="1.0" encoding="utf-8"?>
<!-- Generator: Adobe Illustrator 16.0.0, SVG Export Plug-In . SVG Version: 6.00 Build 0)  -->
<!DOCTYPE svg PUBLIC "-//W3C//DTD SVG 1.1//EN" "http://www.w3.org/Graphics/SVG/1.1/DTD/svg11.dtd">
<svg version="1.1" id="Layer_1" xmlns="http://www.w3.org/2000/svg" xmlns:xlink="http://www.w3.org/1999/xlink" x="0px" y="0px"
	 width="880px" height="300px" viewBox="0 0 880 300" enable-background="new 0 0 880 300" xml:space="preserve">
<circle fill="#12DDC8" cx="97.678" cy="188.411" r="94.532"/>
<circle fill="#333333" cx="267.475" cy="111.12" r="48.329"/>
<circle fill="#FF5346" cx="384.192" cy="90.403" r="32.046"/>
<circle fill="#FF5346" cx="375.475" cy="213.12" r="68.329"/>
<circle fill="#12DDC8" cx="554.089" cy="111.12" r="105.329"/>
<circle fill="#FF5346" cx="711.354" cy="227.001" r="67.208"/>
<circle fill="#333333" cx="719.867" cy="75.513" r="30.721"/>
<circle fill="#12DDC8" cx="824" cy="128.646" r="52.854"/>
<text transform="matrix(1 0 0 1 53.356 194.6191)" font-family="'Colaborate-Medium'" font-size="26">Umwelt</text>
<text transform="matrix(1 0 0 1 493.3535 107.2339)"><tspan x="0" y="0" font-family="'Colaborate-Medium'" font-size="30">Rohstoff-</tspan><tspan x="-5.354" y="24" font-family="'Colaborate-Medium'" font-size="30">verbrauch</tspan></text>
<text transform="matrix(1 0 0 1 654.4355 233.7266)" font-family="'Colaborate-Medium'" font-size="24">Einwohner</text>
<text transform="matrix(1 0 0 1 319.2163 220.4512)" font-family="'Colaborate-Medium'" font-size="24">Population</text>
<text transform="matrix(1 0 0 1 250.6157 117.1235)" fill="#FFFFFF" font-family="'Colaborate-Medium'" font-size="20">Luft</text>
<text transform="matrix(1 0 0 1 372.0757 97.1235)" font-family="'Colaborate-Medium'" font-size="18">Eis</text>
<text transform="matrix(1 0 0 1 700.2344 82.1235)" fill="#FFFFFF" font-family="'Colaborate-Medium'" font-size="18">Wien</text>
<text transform="matrix(1 0 0 1 803.25 134.646)" font-family="'Colaborate-Medium'" font-size="20">Auto</text>
</svg>
