<?xml version="1.0" encoding="utf-8"?>
<!-- Generator: Adobe Illustrator 19.2.1, SVG Export Plug-In . SVG Version: 6.00 Build 0)  -->
<svg version="1.1" id="Ebene_1" xmlns="http://www.w3.org/2000/svg" xmlns:xlink="http://www.w3.org/1999/xlink" x="0px" y="0px"
	 viewBox="0 0 97.4 125.4" style="enable-background:new 0 0 97.4 125.4;" xml:space="preserve">
<style type="text/css">
	.st0{fill:#9E9E9E;}
	.st1{fill:#858585;}
</style>
<g>
	<path class="st0" d="M69.6,8.6C64,3.1,56.6,0,48.7,0S33.4,3.1,27.8,8.6c-11.5,11.5-11.5,30.2,0,41.7c10.5,10.5,17.4,17.4,20.9,20.9
		l20.9-20.9C81.1,38.9,81.1,20.2,69.6,8.6z"/>
	<g>
		<path class="st1" d="M83.5,42.7c-1.8,4.8-4.6,9.3-8.5,13.2L48.7,82.1L46,79.4c0,0-7.6-7.6-23.6-23.6c-3.9-3.9-6.7-8.4-8.5-13.2
			C5.3,51.4,0,63.5,0,76.7c0,26.9,21.8,48.7,48.7,48.7s48.7-21.8,48.7-48.7C97.4,63.5,92.1,51.4,83.5,42.7z"/>
	</g>
</g>
</svg>
