<?xml version="1.0" encoding="utf-8"?>
<!-- Generator: Adobe Illustrator 16.0.0, SVG Export Plug-In . SVG Version: 6.00 Build 0)  -->
<!DOCTYPE svg PUBLIC "-//W3C//DTD SVG 1.1//EN" "http://www.w3.org/Graphics/SVG/1.1/DTD/svg11.dtd">
<svg version="1.1" id="Ebene_1" xmlns="http://www.w3.org/2000/svg" xmlns:xlink="http://www.w3.org/1999/xlink" x="0px" y="0px"
	 width="360px" height="133px" viewBox="-5.5 28.5 360 133" enable-background="new -5.5 28.5 360 133" xml:space="preserve">
<g>
	<path fill="#12DDC8" d="M320.562,40.947c-5.574-5.577-12.987-8.646-20.872-8.646s-15.298,3.072-20.875,8.646
		c-11.511,11.511-11.511,30.238,0,41.749c10.488,10.488,17.377,17.383,20.87,20.878l20.877-20.878
		C332.073,71.186,332.073,52.455,320.562,40.947z"/>
	<g>
		<path fill="#FFFFFF" d="M47.406,75.608c-2.893,0-5.329,2.436-5.329,5.328s2.437,5.329,5.407,5.329
			c2.893,0,5.329-2.437,5.329-5.329C52.811,78.044,50.375,75.608,47.406,75.608z"/>
		<path fill="#FFFFFF" d="M26.998,92.51l-6.93,21.317l-2.666,10.354l-2.815-10.354L7.735,92.51h-8.603l14.01,41.114h8.526
			l11.893-34.903l9.961,0.032v34.871h6.93c0.609,0,1.141-0.608,1.141-1.217V92.51H26.998z"/>
		<path fill="#FFFFFF" d="M82.74,85.812c0,0,0,4.567,0.307,8.603c-2.59-1.144-6.017-2.513-9.594-2.513
			c-8.908,0-14.768,6.851-14.768,15.379v11.648c0,8.375,5.863,15.303,14.768,15.303c3.73,0,7.31-1.676,10.201-3.045l0.383,2.437
			h6.777V76.675h-8.07v9.138H82.74z M82.74,124.869c-2.054,0.99-5.786,1.904-8.602,1.904c-4.873,0-7.386-3.504-7.386-8.756v-9.669
			c0-5.329,2.283-8.984,7.386-8.984c3.045,0,6.395,0.99,8.602,1.751V124.869z"/>
		<path fill="#FFFFFF" d="M112.521,91.902c-4.721,0-8.68,0.914-12.943,2.284l1.904,7.004c2.892-0.914,7.614-1.825,11.039-1.825
			c4.72,0,6.471,2.513,6.471,8.146v2.131h-7.309c-7.463,0-14.543,3.122-14.543,11.8c0,8.071,5.863,12.791,13.477,12.791
			c3.35,0,6.851-1.599,9.287-3.121l0.382,2.513h6.774v-27.18C127.062,97.766,121.961,91.902,112.521,91.902z M118.992,125.933
			c-2.207,0.838-4.72,1.599-8.146,1.599c-3.503,0-5.634-2.892-5.634-6.318c0-2.893,2.284-5.481,7.003-5.481h6.777V125.933z"/>
		<path fill="#FFFFFF" d="M165.2,75.608c-2.892,0-5.329,2.436-5.329,5.328s2.438,5.329,5.406,5.329c2.892,0,5.328-2.437,5.328-5.329
			S168.169,75.608,165.2,75.608z"/>
		<path fill="#FFFFFF" d="M144.05,92.51V80.787h-6.396l-1.219,11.724h-6.014v6.243h5.558v23.603c0,5.787,3.806,11.877,12.411,11.877
			c1.369,0,4.188-0.455,6.242-1.066l-0.914-7.156c-1.904,0.379-4.34,0.761-5.328,0.761c-3.197,0-4.341-1.828-4.341-5.252V98.753
			h17.269v34.871h6.927c0.608,0,1.144-0.608,1.144-1.217V92.51H144.05z"/>
		<path fill="#FFFFFF" d="M193.327,91.902c-10.125,0-16.444,7.462-16.444,16.673v9.058c0,9.214,6.396,16.598,16.598,16.598
			c10.201,0,16.52-7.387,16.52-16.598v-9.058C210,99.364,203.604,91.902,193.327,91.902z M201.93,117.027
			c0,5.405-2.514,9.746-8.449,9.746c-6.017,0-8.527-4.341-8.527-9.746v-7.765c0-5.481,2.514-9.898,8.377-9.898
			c6.092,0,8.602,4.414,8.602,9.898v7.765H201.93z"/>
	</g>
	<g>
		<path fill="#FF5346" d="M334.482,74.964c-1.807,4.802-4.627,9.306-8.485,13.164l-26.317,26.318l-2.718-2.723
			c0,0-7.626-7.642-23.581-23.595c-3.857-3.858-6.68-8.362-8.485-13.164C256.304,83.744,251,95.754,251,109.012
			c0,26.891,21.8,48.69,48.69,48.69s48.69-21.8,48.69-48.69C348.378,95.754,343.074,83.744,334.482,74.964z"/>
	</g>
</g>
</svg>
