<?xml version="1.0" encoding="utf-8"?>
<!-- Generator: Adobe Illustrator 15.1.0, SVG Export Plug-In . SVG Version: 6.00 Build 0)  -->
<!DOCTYPE svg PUBLIC "-//W3C//DTD SVG 1.1//EN" "http://www.w3.org/Graphics/SVG/1.1/DTD/svg11.dtd">
<svg version="1.1" id="Ebene_1" xmlns="http://www.w3.org/2000/svg" xmlns:xlink="http://www.w3.org/1999/xlink" x="0px" y="0px"
	 width="32px" height="32px" viewBox="0 0 32 32" enable-background="new 0 0 32 32" xml:space="preserve">
<path d="M2.1,5.6L28.6,32l3.5-3.5L5.7,2L2.1,5.6z M12.1,10.2L10.3,12L4.2,5.8L5.9,4L12.1,10.2z M18.1,10.3c0,0-1.2-2.6-1.9-3.3
	c-0.7-0.7-3.3-1.9-3.3-1.9s2.6-1.2,3.3-1.9C16.9,2.6,18.1,0,18.1,0s1.2,2.6,1.9,3.3c0.7,0.7,3.3,1.9,3.3,1.9S20.7,6.4,20,7
	S18.1,10.3,18.1,10.3z M4,18.5c0,0-1-2-1.5-2.6C2,15.4,0,14.5,0,14.5s2-1,2.6-1.5c0.5-0.5,1.5-2.6,1.5-2.6s1,2,1.5,2.6
	c0.5,0.5,2.6,1.5,2.6,1.5s-2,1-2.6,1.5C5,16.5,4,18.5,4,18.5z M9.5,22.3c0,0-0.7-1.5-1.1-1.8c-0.4-0.4-1.8-1.1-1.8-1.1
	s1.5-0.7,1.8-1.1c0.4-0.4,1.1-1.8,1.1-1.8s0.7,1.5,1.1,1.8c0.4,0.4,1.8,1.1,1.8,1.1s-1.5,0.7-1.8,1.1S9.5,22.3,9.5,22.3z M4,26.6
	c0,0-0.8-1.7-1.2-2.1c-0.4-0.4-2.1-1.2-2.1-1.2s1.7-0.8,2.1-1.2C3.3,21.6,4.1,20,4.1,20s0.8,1.7,1.2,2.1c0.4,0.4,2.1,1.2,2.1,1.2
	s-1.7,0.8-2.1,1.2C4.8,25,4,26.6,4,26.6z"/>
</svg>
