<?xml version="1.0" encoding="utf-8"?>
<!-- Generator: Adobe Illustrator 16.0.0, SVG Export Plug-In . SVG Version: 6.00 Build 0)  -->
<!DOCTYPE svg PUBLIC "-//W3C//DTD SVG 1.1//EN" "http://www.w3.org/Graphics/SVG/1.1/DTD/svg11.dtd">
<svg version="1.1" id="Layer_1" xmlns="http://www.w3.org/2000/svg" xmlns:xlink="http://www.w3.org/1999/xlink" x="0px" y="0px"
	 width="312px" height="212px" viewBox="0 0 312 212" enable-background="new 0 0 312 212" xml:space="preserve">
<rect fill="#FFFFFF" width="312" height="212"/>
<rect x="19.577" y="181.168" fill="none" width="263.423" height="19.832"/>
<text transform="matrix(1 0 0 1 19.5771 188.3945)"><tspan x="0" y="0" font-family="'Colaborate-Regular'" font-size="11">Die aktuellen Arbeitslosenzahlen sind in absoluten Zahlen </tspan><tspan x="0" y="10" font-family="'Colaborate-Regular'" font-size="11">aufgeführt.</tspan></text>
<rect x="213" y="80.424" fill="none" width="88.5" height="51.152"/>
<text transform="matrix(1 0 0 1 213 87.6509)"><tspan x="0" y="0" font-family="'Colaborate-Regular'" font-size="11">Eine Übersicht der </tspan><tspan x="0" y="10" font-family="'Colaborate-Regular'" font-size="11">Arbeitslosenzahlen </tspan><tspan x="0" y="20" font-family="'Colaborate-Regular'" font-size="11">für das Land </tspan><tspan x="0" y="30" font-family="'Colaborate-Regular'" font-size="11">Salzburg, nach </tspan><tspan x="0" y="40" font-family="'Colaborate-Regular'" font-size="11">Bezirken geordnet.</tspan></text>
<rect x="20.509" y="13.887" fill="none" width="155.134" height="27.113"/>
<text transform="matrix(1 0 0 1 20.5088 24.3984)"><tspan x="0" y="0" font-family="'Colaborate-Medium'" font-size="16">ARBEITSLOSIGKEIT</tspan><tspan x="0" y="14" font-family="'Colaborate-Thin'" font-size="14">im Salzburger Land</tspan></text>
<line fill="none" stroke="#000000" stroke-miterlimit="10" x1="22.594" y1="173.625" x2="22.594" y2="60.625"/>
<g>
	<rect x="34.205" y="95" fill="none" width="20.236" height="6.566"/>
	<text transform="matrix(1 0 0 1 35.0088 100.9131)" font-family="'Colaborate-Thin'" font-size="9">2 127</text>
	<rect x="60.405" y="111.73" fill="none" width="20.83" height="6.697"/>
	<text transform="matrix(1.0648 0 0 1 60.9014 117.6436)" font-family="'Colaborate-Thin'" font-size="9">1 630</text>
	<rect x="87.099" y="74.348" fill="none" width="20.329" height="7.07"/>
	<text transform="matrix(1 0 0 1 87.9482 80.2607)" font-family="'Colaborate-Thin'" font-size="9">2 628</text>
	<rect x="113.027" y="57.5" fill="none" width="21.017" height="6.449"/>
	<text transform="matrix(1 0 0 1 114.2207 63.4131)" font-family="'Colaborate-Thin'" font-size="9">3 589</text>
	<rect x="139.324" y="67.25" fill="none" width="21.163" height="6.582"/>
	<text transform="matrix(1 0 0 1 140.5908 73.1631)" font-family="'Colaborate-Thin'" font-size="9">3 286</text>
	<rect x="166.021" y="95" fill="none" width="20.83" height="6.566"/>
	<text transform="matrix(1 0 0 1 167.1211 100.9131)" font-family="'Colaborate-Thin'" font-size="9">2 089</text>
	<rect x="33.963" y="103.941" fill="#FF9691" width="20.61" height="70.16"/>
	<rect x="60.398" y="120.824" fill="#FF756B" width="20.61" height="53.301"/>
	<rect x="86.826" y="83.449" fill="#FF5346" width="20.61" height="90.652"/>
	<rect x="113.258" y="66.232" fill="#E74A32" width="20.609" height="107.869"/>
	<rect x="139.689" y="75.693" fill="#CF401F" width="20.609" height="98.408"/>
	<rect x="166.121" y="103.941" fill="#B7370B" width="20.609" height="70.16"/>
	<line fill="none" stroke="#000000" stroke-miterlimit="10" x1="22.094" y1="174.125" x2="209.094" y2="174.125"/>
	<rect x="119.769" y="91.238" fill="none" width="10.723" height="78.153"/>
	<text transform="matrix(0 -0.9079 1 0 128.3096 169.3916)" font-family="'Colaborate-Regular'" font-size="13">Stadt Salzburg</text>
	<rect x="93.77" y="111.73" fill="none" width="10.723" height="57.66"/>
	<text transform="matrix(0 -0.9079 1 0 102.3105 169.3906)" font-family="'Colaborate-Regular'" font-size="13">Tennengau</text>
	<rect x="67.339" y="122.056" fill="none" width="10.723" height="47.335"/>
	<text transform="matrix(0 -0.9079 1 0 75.8804 169.3896)" font-family="'Colaborate-Regular'" font-size="13">Flachgau</text>
	<rect x="40.906" y="122.056" fill="none" width="10.723" height="47.335"/>
	<text transform="matrix(0 -0.9079 1 0 49.4478 169.3896)" font-family="'Colaborate-Regular'" font-size="13">Pongau</text>
	<rect x="146.503" y="122.056" fill="none" width="10.723" height="47.335"/>
	<text transform="matrix(0 -0.9079 1 0 155.0444 169.3896)" font-family="'Colaborate-Regular'" font-size="13">Lungau</text>
	<rect x="172.839" y="122.056" fill="none" width="10.723" height="47.335"/>
	<text transform="matrix(0 -0.9079 1 0 181.3809 169.3896)" font-family="'Colaborate-Regular'" font-size="13">Pinzgau</text>
</g>
</svg>
