<?xml version="1.0" encoding="utf-8"?>
<!-- Generator: Adobe Illustrator 16.0.0, SVG Export Plug-In . SVG Version: 6.00 Build 0)  -->
<!DOCTYPE svg PUBLIC "-//W3C//DTD SVG 1.1//EN" "http://www.w3.org/Graphics/SVG/1.1/DTD/svg11.dtd">
<svg version="1.1" id="Layer_1" xmlns="http://www.w3.org/2000/svg" xmlns:xlink="http://www.w3.org/1999/xlink" x="0px" y="0px"
	 width="521px" height="312px" viewBox="0 0 521 312" enable-background="new 0 0 521 312" xml:space="preserve">
<rect fill="#FFFFFF" width="521" height="312"/>
<g>
	<path fill="#12DDC8" d="M152.431,37.063c-0.052,0-0.104,0.002-0.156,0.002v11c0.053,0,0.104-0.002,0.156-0.002
		c59.517,0,107.938,48.42,107.938,107.938c0,59.516-48.421,107.936-107.938,107.936c-59.516,0-107.937-48.42-107.937-107.936
		c0-37.941,19.681-71.369,49.365-90.621l-5.97-9.236c-32.71,21.215-54.396,58.049-54.396,99.857
		c0,65.582,53.354,118.936,118.937,118.936s118.938-53.354,118.938-118.936S218.013,37.063,152.431,37.063z"/>
	<path fill="#4DBBA8" d="M152.431,54.923c-0.052,0-0.104,0.002-0.156,0.002v11c0.053,0,0.104-0.002,0.156-0.002
		c49.67,0,90.078,40.408,90.078,90.078c0,49.668-40.408,90.076-90.078,90.076c-49.668,0-90.077-40.408-90.077-90.076
		c0-16.766,4.608-32.473,12.618-45.93l-9.467-5.594c-8.982,15.098-14.151,32.717-14.151,51.523
		c0,55.734,45.343,101.076,101.077,101.076c55.735,0,101.078-45.342,101.078-101.076S208.166,54.923,152.431,54.923z"/>
	<path fill="#FF5346" d="M152.431,108.499c-0.053,0-0.104,0.004-0.156,0.004v11c0.053,0,0.104-0.004,0.156-0.004
		c20.127,0,36.501,16.375,36.501,36.502c0,20.125-16.374,36.5-36.501,36.5c-3.427,0-6.74-0.484-9.888-1.373l-2.917,10.605
		c4.077,1.143,8.368,1.768,12.805,1.768c26.192,0,47.501-21.309,47.501-47.5C199.932,129.808,178.623,108.499,152.431,108.499z"/>
	<path fill="#899887" d="M152.431,72.782c-0.053,0-0.104,0.004-0.156,0.004v11c0.053,0,0.104-0.004,0.156-0.004
		c39.822,0,72.219,32.396,72.219,72.219c0,39.82-32.396,72.219-72.219,72.219c-39.82,0-72.218-32.398-72.218-72.219
		c0-0.879,0.035-1.75,0.066-2.621l-10.991-0.363c-0.035,0.992-0.075,1.982-0.075,2.984c0,45.887,37.331,83.219,83.218,83.219
		c45.888,0,83.219-37.332,83.219-83.219C235.649,110.112,198.318,72.782,152.431,72.782z"/>
	<path fill="#C47667" d="M152.431,90.642c-0.053,0-0.104,0.004-0.156,0.004v11c0.053,0,0.104-0.004,0.156-0.004
		c29.975,0,54.36,24.385,54.36,54.359c0,29.973-24.386,54.359-54.36,54.359c-16.407,0-31.129-7.318-41.104-18.85l-8.279,7.23
		c11.993,13.838,29.677,22.619,49.384,22.619c36.04,0,65.36-29.32,65.36-65.359S188.471,90.642,152.431,90.642z"/>
</g>
<g>
	<path d="M99.516,60.486c-2.069,1.15-3.443-0.333-4.378-2.016c-1.011-1.819-1.305-4.303,0.752-5.447
		c0.42-0.234,1.124-0.521,1.66-0.654l0.172,1.139c-0.458,0.032-0.869,0.096-1.301,0.336c-1.308,0.727-1.211,2.265-0.428,3.675
		c-0.042-0.825,0.462-1.551,0.974-1.835c1.5-0.834,2.74-0.317,3.58,1.194C101.286,58.208,100.824,59.759,99.516,60.486z
		 M97.372,56.574c-0.841,0.467-0.865,1.254-0.797,1.752c0.91,1.637,1.649,1.762,2.479,1.301c0.66-0.366,0.893-1.151,0.356-2.117
		C99.012,56.793,98.407,55.999,97.372,56.574z"/>
	<path d="M103.922,59.43l-0.802,0.4l-0.439-2.365l1.151-0.574L103.922,59.43z"/>
	<path d="M107.917,56.284c-0.725,0.321-1.536,0.609-2.284,0.685l-0.068-1.15c0.629-0.023,1.399-0.179,1.97-0.432
		c1.165-0.516,1.264-1.384,0.853-2.312c-0.447-1.01-1.155-1.195-1.868-0.879c-0.678,0.3-0.978,0.746-1.264,1.128l-0.95,0.037
		l-1.605-3.625l4.386-1.942l0.395,0.892l-3.221,1.427l0.837,1.89c0.286-0.254,0.554-0.515,1.089-0.752
		c1.438-0.637,2.693-0.212,3.377,1.333C110.273,54.188,109.486,55.589,107.917,56.284z"/>
	<path d="M122.566,50.699l-2.113-6.711l-0.38,7.497l-1.179,0.371l-4.619-5.922l2.113,6.711l-1.166,0.367l-2.527-8.026l1.973-0.621
		l4.328,5.605l0.374-7.085l1.873-0.59l2.527,8.026L122.566,50.699z"/>
	<path d="M123.968,42.852l-0.273-1.111l1.211-0.297l0.273,1.111L123.968,42.852z M125.737,49.896l-1.416-5.767l1.136-0.279
		l1.416,5.767L125.737,49.896z"/>
	<path d="M130.965,48.895c-2.028,0.405-3.015-0.883-3.352-2.567c-0.321-1.607,0.105-3.191,2.121-3.594
		c2.028-0.405,2.99,0.822,3.326,2.506C133.396,46.923,132.98,48.492,130.965,48.895z M129.913,43.626
		c-1.072,0.214-1.411,1.038-1.125,2.467c0.27,1.352,0.852,2.138,2,1.909c1.11-0.222,1.383-1.112,1.1-2.528
		C131.601,44.045,131.048,43.399,129.913,43.626z"/>
	<path d="M135.151,47.973l-0.189-1.233l1.272-0.195l0.189,1.233L135.151,47.973z"/>
</g>
<g>
	<path d="M77.378,103.342c-0.458,0.647-1.007,1.31-1.61,1.757l-0.647-0.952c0.528-0.342,1.109-0.87,1.47-1.379
		c0.736-1.039,0.376-1.835-0.451-2.42c-0.901-0.638-1.603-0.435-2.054,0.202c-0.428,0.604-0.457,1.141-0.506,1.615l-0.797,0.519
		l-3.234-2.29l2.77-3.913l0.795,0.563l-2.035,2.874l1.687,1.194c0.115-0.364,0.211-0.726,0.549-1.203
		c0.909-1.283,2.203-1.561,3.582-0.584C78.327,100.336,78.369,101.942,77.378,103.342z"/>
	<path d="M81.127,100.191l-0.557,0.703l-1.403-1.957l0.799-1.009L81.127,100.191z"/>
	<path d="M83.27,95.819c-0.584,0.663-1.062,1.108-1.756,1.501l-0.552-1.005c0.366-0.18,1.035-0.526,1.602-1.169
		c0.61-0.692,0.694-1.536,0.032-2.12c-0.995-0.876-1.83-0.244-2.792,0.849l-0.702-0.619c0.928-1.053,1.395-1.819,0.527-2.584
		c-0.673-0.593-1.238-0.363-1.745,0.212c-0.413,0.468-0.644,1.182-0.815,1.81l-1.067-0.42c0.164-0.618,0.739-1.566,1.168-2.054
		c1.083-1.229,2.217-1.494,3.299-0.54c0.858,0.756,0.708,1.732,0.186,2.502c0.708-0.588,1.786-1.024,2.81-0.123
		C84.83,93.262,84.206,94.756,83.27,95.819z"/>
	<path d="M94.497,84.606l-4.623-5.3l2.654,7.018l-0.93,0.812l-6.602-3.574l4.623,5.3l-0.921,0.803l-5.529-6.338l1.558-1.359
		l6.208,3.399l-2.496-6.638l1.479-1.291l5.528,6.338L94.497,84.606z"/>
	<path d="M92.687,76.858l-0.685-0.917l1-0.747l0.685,0.917L92.687,76.858z M97.068,82.66l-3.557-4.763l0.938-0.7l3.557,4.763
		L97.068,82.66z"/>
	<path d="M101.508,79.709c-1.718,1.15-3.122,0.338-4.077-1.088c-0.911-1.361-1.124-2.987,0.583-4.13
		c1.717-1.15,3.075-0.385,4.029,1.042C102.999,76.959,103.215,78.567,101.508,79.709z M98.521,75.248
		c-0.907,0.607-0.906,1.498-0.096,2.708c0.767,1.145,1.604,1.648,2.577,0.997c0.94-0.629,0.852-1.556,0.049-2.755
		C100.24,74.988,99.482,74.604,98.521,75.248z"/>
	<path d="M105.006,77.284l-0.637-1.072l1.106-0.657l0.637,1.072L105.006,77.284z"/>
</g>
<g>
	<path d="M79.466,146.611c-0.119,0.876-0.271,1.511-0.631,2.223l-1.016-0.532c0.206-0.353,0.571-1.011,0.687-1.861
		c0.125-0.915-0.272-1.664-1.147-1.783c-1.314-0.179-1.659,0.811-1.855,2.253l-0.927-0.126c0.189-1.391,0.154-2.288-0.992-2.444
		c-0.889-0.121-1.233,0.383-1.336,1.143c-0.084,0.618,0.119,1.341,0.323,1.959l-1.122,0.241c-0.206-0.605-0.252-1.713-0.164-2.357
		c0.221-1.623,1.019-2.472,2.448-2.277c1.133,0.155,1.549,1.051,1.541,1.981c0.264-0.882,0.92-1.842,2.272-1.658
		C79.35,143.617,79.658,145.207,79.466,146.611z"/>
	<path d="M81.381,141.878l-0.179,0.879l-2.135-1.112l0.257-1.261L81.381,141.878z"/>
	<path d="M81.468,136.575c-0.381,1.392-1.184,2.602-2.852,2.145c-1.117-0.306-1.611-1.209-1.603-2.42
		c-0.25,0.322-0.984,1.429-2.176,1.103c-1.304-0.357-1.788-1.447-1.342-3.077c0.467-1.706,1.295-2.369,2.713-1.981
		c1.167,0.319,1.354,1.651,1.315,2.14c0.665-1.099,1.471-1.58,2.599-1.271C81.816,133.677,81.855,135.157,81.468,136.575z
		 M74.423,134.579c-0.254,0.928,0.007,1.404,0.772,1.613c0.74,0.203,1.344-0.428,1.647-0.897c-0.005-0.622-0.199-1.538-0.927-1.737
		C75.176,133.356,74.688,133.613,74.423,134.579z M77.715,135.507c0.032,0.818,0.183,1.695,1.211,1.977
		c0.74,0.203,1.342-0.172,1.613-1.163c0.271-0.991,0.003-1.685-0.775-1.897C78.786,134.155,78.156,134.832,77.715,135.507z"/>
	<path d="M86.741,122.245l-6.389-2.939l5.297,5.313l-0.516,1.122l-7.487-0.553l6.39,2.938l-0.511,1.11l-7.641-3.515l0.864-1.878
		l7.056,0.556l-4.998-5.032l0.82-1.783l7.641,3.515L86.741,122.245z"/>
	<path d="M82.015,115.867l-0.989-0.575l0.627-1.08l0.989,0.575L82.015,115.867z M88.321,119.484l-5.139-2.985l0.587-1.012
		l5.14,2.984L88.321,119.484z"/>
	<path d="M91.25,115.082c-1.15,1.718-2.758,1.502-4.184,0.547c-1.361-0.912-2.177-2.333-1.034-4.041
		c1.15-1.718,2.696-1.527,4.123-0.573C91.58,111.971,92.392,113.375,91.25,115.082z M86.788,112.095
		c-0.607,0.907-0.267,1.73,0.943,2.54c1.146,0.767,2.111,0.913,2.762-0.06c0.629-0.94,0.195-1.763-1.004-2.565
		C88.279,111.2,87.432,111.133,86.788,112.095z"/>
	<path d="M93.567,111.535l-0.989-0.762l0.786-1.02l0.988,0.762L93.567,111.535z"/>
</g>
<rect x="313.274" y="113.498" fill="#12DDC8" width="176.726" height="13"/>
<rect x="313.274" y="130.748" fill="#4DBBA8" width="158.726" height="13"/>
<rect x="313.274" y="147.998" fill="#899887" width="114.059" height="13"/>
<rect x="313.274" y="165.248" fill="#C47667" width="68.06" height="13"/>
<rect x="313.274" y="182.498" fill="#FF5346" width="44.06" height="13"/>
<g>
	<path d="M320.645,124.37h-2.219v-7.76h2.219c2.591,0,3.706,1.031,3.706,3.85C324.351,123.291,323.235,124.37,320.645,124.37z
		 M320.645,117.534h-1.02v5.913h1.128c1.511,0,2.362-0.72,2.362-2.975C323.115,118.038,322.239,117.534,320.645,117.534z"/>
	<path d="M325.878,117.666v-1.056h1.151v1.056H325.878z M325.913,124.37v-5.481h1.08v5.481H325.913z"/>
	<path d="M329.501,122.043c0.072,1.02,0.504,1.667,1.451,1.667c0.552,0,1.092-0.18,1.668-0.468l0.348,0.84
		c-0.648,0.3-1.392,0.432-2.111,0.432c-1.715,0-2.494-1.308-2.494-2.831c0-1.271,0.516-2.938,2.435-2.938
		c1.942,0,2.471,1.224,2.471,3.298H329.501z M330.809,119.573c-0.647,0-1.259,0.468-1.319,1.667h2.734
		C332.188,120.064,331.685,119.573,330.809,119.573z"/>
	<path d="M336.316,124.526c-0.636,0-1.439-0.144-2.003-0.372l0.372-0.888c0.636,0.252,1.008,0.42,1.655,0.42
		c0.815,0,1.043-0.312,1.043-0.792c0-0.492-0.575-0.66-1.235-0.875c-0.827-0.264-1.763-0.588-1.763-1.691
		c0-1.235,1.127-1.595,2.194-1.595c0.528,0,1.067,0.108,1.823,0.36l-0.384,0.899c-0.552-0.252-0.888-0.42-1.463-0.42
		c-0.647,0-1.067,0.192-1.067,0.72c0,0.408,0.468,0.563,1.031,0.744c0.876,0.276,1.967,0.563,1.967,1.847
		C338.487,124.083,337.42,124.526,336.316,124.526z"/>
	<path d="M340.709,122.043c0.072,1.02,0.504,1.667,1.451,1.667c0.552,0,1.092-0.18,1.667-0.468l0.349,0.84
		c-0.648,0.3-1.392,0.432-2.111,0.432c-1.715,0-2.494-1.308-2.494-2.831c0-1.271,0.516-2.938,2.435-2.938
		c1.942,0,2.471,1.224,2.471,3.298H340.709z M342.017,119.573c-0.647,0-1.26,0.468-1.319,1.667h2.734
		C343.396,120.064,342.893,119.573,342.017,119.573z"/>
	<path d="M345.857,124.37v-7.88h1.067v7.88H345.857z"/>
</g>
<g>
	<path d="M321.256,141.632h-2.83v-7.76h2.435c1.487,0,2.614,0.42,2.614,2.087c0,0.815-0.527,1.379-1.235,1.607
		c0.96,0.168,1.596,0.756,1.596,1.835C323.835,141.176,322.647,141.632,321.256,141.632z M320.86,134.795h-1.235v2.387h1.403
		c0.684,0,1.224-0.372,1.224-1.211C322.252,135.179,321.868,134.795,320.86,134.795z M321.053,138.094h-1.428v2.615h1.56
		c0.804,0,1.415-0.24,1.415-1.308C322.6,138.357,321.904,138.094,321.053,138.094z"/>
	<path d="M326.189,139.305c0.072,1.02,0.504,1.667,1.451,1.667c0.552,0,1.092-0.18,1.667-0.468l0.349,0.839
		c-0.648,0.3-1.392,0.432-2.111,0.432c-1.715,0-2.494-1.308-2.494-2.831c0-1.271,0.516-2.938,2.435-2.938
		c1.942,0,2.471,1.224,2.471,3.298H326.189z M327.497,136.834c-0.647,0-1.26,0.468-1.319,1.667h2.734
		C328.876,137.326,328.373,136.834,327.497,136.834z"/>
	<path d="M334.744,141.632v-3.466c0-0.695-0.096-1.331-1.031-1.331c-0.636,0-1.079,0.588-1.308,1.091v3.706h-1.067v-4.317
		c0-0.456-0.096-0.756-0.132-1.164h0.972l0.191,0.768c0.216-0.252,0.684-0.923,1.499-0.923c1.535,0,1.943,0.923,1.943,2.183v3.454
		H334.744z"/>
	<path d="M338.225,140.804h2.986v0.828h-3.838l-0.371-0.888l3.166-3.766h-2.83v-0.828h3.657l0.384,0.888L338.225,140.804z"/>
	<path d="M342.546,134.928v-1.056h1.151v1.056H342.546z M342.581,141.632v-5.481h1.08v5.481H342.581z"/>
	<path d="M348.712,141.632v-3.466c0-0.695-0.096-1.331-1.031-1.331c-0.636,0-1.08,0.588-1.308,1.091v3.706h-1.067v-4.317
		c0-0.456-0.096-0.756-0.132-1.164h0.972l0.191,0.768c0.216-0.252,0.684-0.923,1.499-0.923c1.535,0,1.943,0.923,1.943,2.183v3.454
		H348.712z"/>
</g>
<g>
	<path d="M318.426,158.86v-7.76h4.449v0.923h-3.25v2.363h2.998v0.924h-2.998v2.627h3.358v0.923H318.426z"/>
	<path d="M327.761,154.399c-0.204-0.132-0.456-0.336-0.828-0.336c-0.672,0-0.923,0.983-1.067,1.319v3.478h-1.067v-4.258
		c0-0.54-0.096-0.947-0.132-1.223h0.972l0.191,0.959c0.192-0.372,0.672-1.115,1.296-1.115c0.432,0,0.72,0.096,1.02,0.276
		L327.761,154.399z"/>
	<path d="M332.775,158.86l-0.192-0.6c-0.252,0.384-0.743,0.743-1.354,0.743c-1.739,0-2.387-1.343-2.387-2.914
		c0-1.535,0.731-2.854,2.255-2.854c0.707,0,1.163,0.492,1.451,0.912v-3.167h1.067v6.201c0,0.695,0.048,1.02,0.132,1.679H332.775z
		 M332.571,155.178c-0.228-0.456-0.611-1.115-1.343-1.115c-0.708,0-1.283,0.504-1.283,2.051c0,1.451,0.455,2.063,1.427,2.063
		c0.516,0,0.899-0.323,1.199-0.804V155.178z"/>
	<path d="M340.011,153.979h-0.72c0.252,0.216,0.6,0.731,0.6,1.307c0,0.972-0.54,2.087-2.362,2.087c-0.252,0-0.924-0.096-1.176-0.228
		c-0.144,0.132-0.275,0.251-0.275,0.468c0,0.287,0.264,0.432,1.643,0.539c2.087,0.168,2.555,0.684,2.555,1.535
		c0,1.152-1.319,1.571-2.675,1.571c-2.051,0-2.71-0.611-2.71-1.535c0-0.647,0.671-0.959,1.02-1.079
		c-0.444-0.191-0.744-0.539-0.744-0.983c0-0.396,0.3-0.684,0.588-0.924c-0.156-0.192-0.588-0.647-0.588-1.451
		c0-0.635,0.336-2.051,2.339-2.051c0.408,0,0.659,0.048,0.924,0.12c0.443-0.036,1.307-0.108,1.883-0.132L340.011,153.979z
		 M336.641,158.956c-0.408,0.132-0.636,0.456-0.636,0.731c0,0.48,0.636,0.792,1.595,0.792c1.151,0,1.56-0.276,1.56-0.792
		C339.159,159.328,338.619,159.04,336.641,158.956z M337.528,154.051c-0.756,0-1.248,0.432-1.248,1.26
		c0,0.815,0.456,1.259,1.26,1.259c0.936,0,1.235-0.66,1.235-1.308C338.775,154.495,338.38,154.051,337.528,154.051z"/>
	<path d="M344.967,158.86c0-0.048-0.18-0.54-0.191-0.6c-0.288,0.336-0.84,0.743-1.487,0.743c-1.247,0-2.062-0.516-2.062-1.583
		c0-1.115,0.636-1.943,2.974-1.943h0.492v-0.348c0-0.576-0.168-1.067-0.936-1.067c-0.756,0-1.403,0.228-1.931,0.48l-0.372-0.888
		c0.684-0.252,1.487-0.42,2.339-0.42c1.163,0,1.979,0.552,1.979,1.751v2.195c0,0.432,0.12,1.043,0.192,1.679H344.967z
		 M344.703,156.222h-0.336c-1.511,0-2.015,0.372-2.015,1.151c0,0.54,0.456,0.804,1.104,0.804c0.563,0,1.02-0.276,1.247-0.647
		V156.222z"/>
	<path d="M349.18,159.016c-0.636,0-1.439-0.143-2.003-0.371l0.372-0.888c0.636,0.252,1.008,0.42,1.655,0.42
		c0.815,0,1.043-0.312,1.043-0.792c0-0.491-0.575-0.659-1.235-0.875c-0.827-0.264-1.763-0.588-1.763-1.691
		c0-1.235,1.127-1.595,2.194-1.595c0.528,0,1.067,0.108,1.823,0.359l-0.384,0.9c-0.552-0.252-0.888-0.42-1.463-0.42
		c-0.647,0-1.067,0.192-1.067,0.72c0,0.408,0.468,0.563,1.031,0.744c0.876,0.276,1.967,0.563,1.967,1.847
		C351.351,158.572,350.283,159.016,349.18,159.016z"/>
</g>
<g>
	<path d="M325.897,176.36h-1.451l-1.619-5.793l-1.823,5.793h-1.451l-1.858-7.76h1.259l1.476,6.261l1.763-5.938h1.439l1.571,5.949
		l1.571-6.272h1.151L325.897,176.36z"/>
	<path d="M332.344,176.36c0-0.048-0.18-0.54-0.191-0.6c-0.288,0.336-0.84,0.743-1.487,0.743c-1.247,0-2.062-0.516-2.062-1.583
		c0-1.115,0.636-1.942,2.974-1.942h0.492v-0.348c0-0.576-0.168-1.068-0.936-1.068c-0.756,0-1.403,0.229-1.931,0.48l-0.372-0.888
		c0.684-0.252,1.487-0.42,2.339-0.42c1.163,0,1.979,0.552,1.979,1.751v2.195c0,0.432,0.12,1.043,0.192,1.679H332.344z
		 M332.08,173.722h-0.336c-1.511,0-2.015,0.372-2.015,1.151c0,0.54,0.456,0.804,1.104,0.804c0.563,0,1.02-0.276,1.247-0.647V173.722
		z"/>
	<path d="M336.557,176.516c-0.636,0-1.439-0.143-2.003-0.371l0.372-0.888c0.636,0.252,1.008,0.42,1.655,0.42
		c0.815,0,1.043-0.312,1.043-0.792c0-0.491-0.575-0.659-1.235-0.875c-0.827-0.264-1.763-0.588-1.763-1.691
		c0-1.235,1.127-1.595,2.194-1.595c0.528,0,1.067,0.108,1.823,0.359l-0.384,0.899c-0.552-0.252-0.888-0.42-1.463-0.42
		c-0.647,0-1.067,0.192-1.067,0.721c0,0.407,0.468,0.562,1.031,0.743c0.876,0.276,1.967,0.563,1.967,1.847
		C338.728,176.072,337.66,176.516,336.557,176.516z"/>
	<path d="M341.753,176.516c-0.636,0-1.439-0.143-2.003-0.371l0.372-0.888c0.636,0.252,1.008,0.42,1.655,0.42
		c0.815,0,1.043-0.312,1.043-0.792c0-0.491-0.575-0.659-1.235-0.875c-0.827-0.264-1.763-0.588-1.763-1.691
		c0-1.235,1.127-1.595,2.194-1.595c0.528,0,1.067,0.108,1.823,0.359l-0.384,0.899c-0.552-0.252-0.888-0.42-1.463-0.42
		c-0.647,0-1.067,0.192-1.067,0.721c0,0.407,0.468,0.562,1.031,0.743c0.876,0.276,1.967,0.563,1.967,1.847
		C343.924,176.072,342.856,176.516,341.753,176.516z"/>
	<path d="M346.146,174.033c0.072,1.02,0.504,1.668,1.451,1.668c0.552,0,1.092-0.18,1.668-0.469l0.348,0.84
		c-0.648,0.301-1.392,0.432-2.111,0.432c-1.715,0-2.494-1.307-2.494-2.83c0-1.271,0.516-2.938,2.435-2.938
		c1.942,0,2.471,1.224,2.471,3.298H346.146z M347.453,171.562c-0.647,0-1.259,0.469-1.319,1.668h2.734
		C348.832,172.055,348.329,171.562,347.453,171.562z"/>
	<path d="M354.257,171.898c-0.204-0.131-0.456-0.336-0.828-0.336c-0.672,0-0.923,0.984-1.067,1.32v3.478h-1.067v-4.258
		c0-0.54-0.096-0.947-0.132-1.224h0.972l0.191,0.96c0.192-0.372,0.672-1.115,1.296-1.115c0.432,0,0.72,0.096,1.02,0.276
		L354.257,171.898z"/>
	<path d="M357.281,176.516c-0.636,0-1.439-0.143-2.003-0.371l0.372-0.888c0.636,0.252,1.008,0.42,1.655,0.42
		c0.815,0,1.043-0.312,1.043-0.792c0-0.491-0.575-0.659-1.235-0.875c-0.827-0.264-1.763-0.588-1.763-1.691
		c0-1.235,1.127-1.595,2.194-1.595c0.528,0,1.067,0.108,1.823,0.359l-0.384,0.899c-0.552-0.252-0.888-0.42-1.463-0.42
		c-0.647,0-1.067,0.192-1.067,0.721c0,0.407,0.468,0.562,1.031,0.743c0.876,0.276,1.967,0.563,1.967,1.847
		C359.452,176.072,358.385,176.516,357.281,176.516z"/>
	<path d="M363.222,177.332c-1.26-0.312-2.184-1.104-2.184-2.327v-3.298h-0.887v-0.84h0.887v-1.428h1.08v1.428h1.271v0.84h-1.271
		v3.322c0,0.743,0.575,1.151,1.475,1.331L363.222,177.332z"/>
	<path d="M366.846,176.516c-1.907,0-2.566-1.343-2.566-2.926c0-1.512,0.671-2.866,2.566-2.866c1.907,0,2.555,1.283,2.555,2.866
		S368.74,176.516,366.846,176.516z M366.846,171.562c-1.008,0-1.463,0.684-1.463,2.027c0,1.271,0.384,2.087,1.463,2.087
		c1.043,0,1.451-0.756,1.451-2.087C368.297,172.246,367.913,171.562,366.846,171.562z"/>
	<path d="M371.994,170.424v0.455h1.247v0.828h-1.247v4.653h-1.067v-4.653H370.1v-0.828h0.827v-0.371
		c0-1.547,1.487-2.171,2.446-2.243l0.276,0.899C372.534,169.284,371.994,169.691,371.994,170.424z"/>
	<path d="M375.702,170.424v0.455h1.247v0.828h-1.247v4.653h-1.067v-4.653h-0.827v-0.828h0.827v-0.371
		c0-1.547,1.487-2.171,2.446-2.243l0.276,0.899C376.242,169.284,375.702,169.691,375.702,170.424z"/>
</g>
<g>
	<path d="M320.272,193.576c-0.671,0-1.547-0.18-2.206-0.359l0.384-1.02c0.575,0.216,1.199,0.455,1.835,0.455
		c0.947,0,1.835-0.252,1.835-1.283c0-0.875-0.864-1.175-1.8-1.523c-1.079-0.395-2.254-0.852-2.254-2.303
		c0-1.498,1.367-2.086,2.794-2.086c0.527,0,1.367,0.107,2.003,0.323l-0.384,1.02c-0.443-0.192-0.888-0.419-1.631-0.419
		c-1.115,0-1.56,0.479-1.56,1.162s0.696,0.948,1.499,1.236c1.151,0.407,2.555,0.852,2.555,2.566
		C323.343,193.145,321.88,193.576,320.272,193.576z"/>
	<path d="M327.365,194.332c-1.26-0.312-2.184-1.104-2.184-2.327v-3.298h-0.887v-0.84h0.887v-1.428h1.08v1.428h1.271v0.84h-1.271
		v3.322c0,0.743,0.575,1.151,1.475,1.331L327.365,194.332z"/>
	<path d="M331.661,188.898c-0.204-0.131-0.456-0.336-0.828-0.336c-0.672,0-0.923,0.984-1.067,1.32v3.478h-1.067v-4.258
		c0-0.54-0.096-0.947-0.132-1.224h0.972l0.191,0.96c0.192-0.372,0.672-1.115,1.296-1.115c0.432,0,0.72,0.096,1.02,0.276
		L331.661,188.898z"/>
	<path d="M335.309,193.516c-1.907,0-2.566-1.343-2.566-2.926c0-1.512,0.671-2.866,2.566-2.866c1.907,0,2.555,1.283,2.555,2.866
		S337.203,193.516,335.309,193.516z M335.309,188.562c-1.008,0-1.463,0.684-1.463,2.027c0,1.271,0.384,2.087,1.463,2.087
		c1.043,0,1.451-0.756,1.451-2.087C336.76,189.246,336.376,188.562,335.309,188.562z"/>
	<path d="M345.998,193.36v-3.478c0-0.816-0.216-1.32-0.995-1.32c-0.672,0-1.151,0.6-1.355,1.152v3.646h-1.067v-3.478
		c0-0.96-0.324-1.32-1.02-1.32c-0.611,0-1.104,0.672-1.271,1.08v3.718h-1.067v-4.222c0-0.455-0.096-0.852-0.132-1.26h0.972
		l0.204,0.78c0.216-0.312,0.779-0.936,1.475-0.936c0.96,0,1.355,0.359,1.728,0.995c0.312-0.504,0.887-0.995,1.679-0.995
		c1.271,0,1.919,0.671,1.919,2.135v3.502H345.998z"/>
</g>
<g>
	<path fill="#333333" d="M327.949,48.89h-3.439l-2.106-7.58l-2.593,7.58h-3.439l-2.503-11.649h2.899l1.675,8.391l2.467-7.905h3.457
		l1.89,7.887l1.927-8.373h2.701L327.949,48.89z"/>
	<path fill="#333333" d="M334.353,45.829c0.217,1.099,0.937,1.495,1.783,1.495c0.72,0,1.674-0.27,2.539-0.702l0.81,1.873
		c-1.008,0.45-2.305,0.648-3.493,0.648c-2.755,0-4.213-1.999-4.213-4.285c0-1.909,0.882-4.447,4.087-4.447
		c3.133,0,4.142,1.656,4.142,5.419H334.353z M335.884,42.3c-0.36,0-1.459,0.09-1.513,1.71h3.169
		C337.414,42.642,336.693,42.3,335.884,42.3z"/>
	<path fill="#333333" d="M341.93,48.89V37.06h2.467v11.83H341.93z"/>
	<path fill="#333333" d="M350.57,49.142c-2.791,0-4.285-1.782-4.285-4.303c0-2.665,1.458-4.429,4.339-4.429
		c0.738,0,2.251,0.36,2.846,0.594l-0.847,2.017c-0.612-0.306-1.404-0.72-2.017-0.72c-1.135,0-1.801,0.432-1.801,2.539
		c0,1.927,0.847,2.413,1.783,2.413c0.558,0,1.422-0.36,2.124-0.72l0.847,2.017C352.929,48.854,351.2,49.142,350.57,49.142z"/>
	<path fill="#333333" d="M360.398,48.89v-5.474c0-0.504-0.036-1.152-1.008-1.152c-0.702,0-1.171,0.81-1.639,1.639v4.987h-2.467
		V37.06h2.467v4.609c0.234-0.234,0.918-1.278,2.07-1.278c2.521,0,3.043,1.386,3.043,3.367v5.131H360.398z"/>
	<path fill="#333333" d="M367.255,45.829c0.217,1.099,0.937,1.495,1.783,1.495c0.72,0,1.674-0.27,2.539-0.702l0.81,1.873
		c-1.008,0.45-2.305,0.648-3.493,0.648c-2.755,0-4.213-1.999-4.213-4.285c0-1.909,0.882-4.447,4.087-4.447
		c3.133,0,4.142,1.656,4.142,5.419H367.255z M368.786,42.3c-0.36,0-1.459,0.09-1.513,1.71h3.169
		C370.316,42.642,369.596,42.3,368.786,42.3z"/>
	<path fill="#333333" d="M379.819,42.606c-0.306-0.271-0.612-0.342-1.026-0.342c-0.9,0-1.314,1.278-1.494,1.747v4.879h-2.467v-6.392
		c0-0.81-0.18-1.422-0.234-1.836h2.287l0.36,1.134c0.288-0.486,0.972-1.404,1.8-1.404c0.721,0,1.243,0.108,1.603,0.216
		L379.819,42.606z"/>
	<path fill="#333333" d="M392.204,39.365v9.525h-2.755v-9.525h-3.079V37.24h8.912v2.125H392.204z"/>
	<path fill="#333333" d="M400.231,42.606c-0.306-0.271-0.612-0.342-1.026-0.342c-0.9,0-1.314,1.278-1.494,1.747v4.879h-2.467v-6.392
		c0-0.81-0.18-1.422-0.234-1.836h2.287l0.36,1.134c0.288-0.486,0.972-1.404,1.8-1.404c0.721,0,1.243,0.108,1.603,0.216
		L400.231,42.606z"/>
	<path fill="#333333" d="M404.642,45.829c0.216,1.099,0.936,1.495,1.782,1.495c0.72,0,1.675-0.27,2.538-0.702l0.811,1.873
		c-1.008,0.45-2.305,0.648-3.493,0.648c-2.755,0-4.213-1.999-4.213-4.285c0-1.909,0.882-4.447,4.087-4.447
		c3.133,0,4.142,1.656,4.142,5.419H404.642z M406.172,42.3c-0.36,0-1.459,0.09-1.513,1.71h3.169
		C407.702,42.642,406.981,42.3,406.172,42.3z"/>
	<path fill="#333333" d="M412.182,39.185V37.24h2.557v1.944H412.182z M412.235,48.89v-8.229h2.449v8.229H412.235z"/>
	<path fill="#333333" d="M421.237,49.142c-1.045,0-1.639-0.666-1.818-1.008l-0.36,0.756h-2.287c0.126-0.954,0.234-1.477,0.234-2.521
		V37.06h2.467v4.609c0.504-0.666,1.134-1.26,2.106-1.26c2.484,0,3.457,2.035,3.457,4.321
		C425.036,47.089,423.722,49.142,421.237,49.142z M421.039,42.3c-0.648,0-1.08,0.774-1.603,1.674v1.999
		c0.307,0.738,0.738,1.278,1.368,1.278c0.738,0,1.711-0.306,1.711-2.484C422.516,42.66,421.795,42.3,421.039,42.3z"/>
	<path fill="#333333" d="M429.715,49.16c-0.954,0-2.341-0.288-3.295-0.594l0.846-2.017c0.883,0.306,1.549,0.738,2.485,0.738
		c1.188,0,1.242-0.342,1.242-0.594v-0.054c0-0.9-4.357-0.271-4.357-3.745c0-2.107,1.891-2.503,3.673-2.503
		c0.721,0,1.818,0.162,2.953,0.504l-0.828,1.999c-0.828-0.378-1.351-0.63-2.106-0.63c-0.864,0-1.171,0.18-1.171,0.576
		c0,1.188,4.357,0.558,4.357,3.781C433.514,48.673,431.551,49.16,429.715,49.16z"/>
	<path fill="#333333" d="M438.895,50.87c-1.711-0.648-3.241-1.674-3.241-4.051v-4.267h-1.242v-1.909h1.242v-2.25h2.449v2.25h1.584
		v1.909h-1.584v4.52c0,1.062,0.468,1.44,1.71,1.8L438.895,50.87z"/>
	<path fill="#333333" d="M444.96,49.16c-3.079,0-4.285-2.053-4.285-4.429c0-2.287,1.225-4.339,4.285-4.339
		c3.115,0,4.268,1.944,4.268,4.339C449.228,47.089,448.021,49.16,444.96,49.16z M444.96,42.264c-1.08,0-1.765,0.45-1.765,2.467
		c0,1.8,0.648,2.557,1.765,2.557c0.954,0,1.746-0.558,1.746-2.557C446.706,42.714,446.095,42.264,444.96,42.264z"/>
	<path fill="#333333" d="M453.833,40.553v0.108h1.513v1.891h-1.513v6.338h-2.467v-6.338h-1.242v-1.891h1.242v-0.198
		c0-2.287,1.549-3.079,3.961-3.547l0.864,1.999C454.68,39.095,453.833,39.455,453.833,40.553z"/>
	<path fill="#333333" d="M459.845,40.553v0.108h1.513v1.891h-1.513v6.338h-2.467v-6.338h-1.242v-1.891h1.242v-0.198
		c0-2.287,1.549-3.079,3.961-3.547l0.864,1.999C460.691,39.095,459.845,39.455,459.845,40.553z"/>
	<path fill="#333333" d="M325.248,66.89h-2.61l-1.639-4.664l-1.854,4.664h-2.611l-2.791-8.229h2.611l1.71,5.24l1.765-4.556h2.449
		l1.692,4.574l1.404-5.258h2.557L325.248,66.89z"/>
	<path fill="#333333" d="M329.511,57.185V55.24h2.557v1.944H329.511z M329.564,66.89v-8.229h2.449v8.229H329.564z"/>
	<path fill="#333333" d="M339.322,60.606c-0.306-0.271-0.612-0.342-1.026-0.342c-0.9,0-1.314,1.278-1.494,1.747v4.879h-2.467v-6.392
		c0-0.81-0.18-1.422-0.234-1.836h2.287l0.36,1.134c0.288-0.486,0.972-1.404,1.8-1.404c0.721,0,1.243,0.108,1.603,0.216
		L339.322,60.606z"/>
	<path fill="#333333" d="M347.135,66.89l-0.36-0.756c-0.18,0.342-0.773,1.008-1.818,1.008c-2.845,0-3.799-2.052-3.799-4.411
		c0-2.269,1.026-4.321,3.421-4.321c0.954,0,1.639,0.594,2.143,1.26V55.06h2.467v9.309c0,1.044,0.108,1.567,0.234,2.521H347.135z
		 M346.757,61.974c-0.522-0.864-0.954-1.674-1.62-1.674c-0.774,0-1.459,0.324-1.459,2.467c0,2.178,0.685,2.484,1.711,2.484
		c0.63,0,1.062-0.54,1.368-1.278V61.974z"/>
	<path fill="#333333" d="M361.858,66.89c-0.018,0-0.324-0.792-0.324-0.756c-0.468,0.36-1.224,1.008-2.053,1.008
		c-2.305,0-3.312-0.882-3.312-2.413c0-1.674,1.062-3.097,4.573-3.097h0.63v-0.271c0-0.396,0-1.062-0.936-1.062
		c-1.135,0-2.323,0.342-3.115,0.72l-0.847-2.017c1.225-0.414,2.81-0.594,4.124-0.594c1.891,0,3.259,0.828,3.259,2.629v3.331
		c0,0.648,0.252,1.639,0.36,2.521H361.858z M361.391,63.396h-0.396c-1.62,0-2.269,0.414-2.269,1.225c0,0.594,0.721,0.63,1.261,0.63
		c0.521,0,1.098-0.558,1.404-0.9V63.396z"/>
	<path fill="#333333" d="M371.399,66.89l-2.575-4.033v4.033h-2.467V55.06h2.467v6.77l2.305-3.169h2.646l-2.629,3.565l3.062,4.664
		H371.399z"/>
	<path fill="#333333" d="M379.066,68.87c-1.711-0.648-3.241-1.674-3.241-4.051v-4.267h-1.242v-1.909h1.242v-2.25h2.449v2.25h1.584
		v1.909h-1.584v4.52c0,1.062,0.468,1.44,1.71,1.8L379.066,68.87z"/>
	<path fill="#333333" d="M386.662,66.89l-0.36-1.008c-0.359,0.342-0.99,1.278-2.07,1.278c-2.377,0-2.971-1.422-2.971-3.313v-5.186
		h2.467v5.348c0,0.558,0.036,1.278,0.954,1.278c0.738,0,1.152-0.846,1.566-1.638v-4.988h2.467v6.482
		c0,0.684,0.145,1.207,0.234,1.747H386.662z"/>
	<path fill="#333333" d="M393.177,63.829c0.217,1.099,0.937,1.495,1.783,1.495c0.72,0,1.674-0.27,2.539-0.702l0.81,1.873
		c-1.008,0.45-2.305,0.648-3.493,0.648c-2.755,0-4.213-1.999-4.213-4.285c0-1.909,0.882-4.447,4.087-4.447
		c3.133,0,4.142,1.656,4.142,5.419H393.177z M394.708,60.3c-0.36,0-1.459,0.09-1.513,1.71h3.169
		C396.238,60.642,395.518,60.3,394.708,60.3z"/>
	<path fill="#333333" d="M400.754,66.89V55.06h2.467v11.83H400.754z"/>
	<path fill="#333333" d="M405.523,66.89V55.06h2.467v11.83H405.523z"/>
	<path fill="#333333" d="M415.351,57.185V55.24h2.557v1.944H415.351z M415.404,66.89v-8.229h2.449v8.229H415.404z"/>
	<path fill="#333333" d="M425.288,66.89v-5.348c0-0.576,0-1.278-1.008-1.278c-0.738,0-1.225,0.846-1.639,1.639v4.987h-2.467v-6.482
		c0-0.684-0.145-1.207-0.234-1.747h2.287l0.36,1.008c0.359-0.342,1.062-1.278,2.143-1.278c2.521,0,3.024,1.422,3.024,3.313v5.186
		H425.288z"/>
	<path fill="#333333" d="M440.75,67.25c-4.357,0-5.726-2.628-5.726-6.14c0-3.403,1.494-6.122,5.744-6.122
		c4.141,0,5.653,2.502,5.653,6.122C446.422,64.567,444.981,67.25,440.75,67.25z M440.75,57.095c-1.837,0-2.898,0.972-2.898,4.015
		c0,3.259,1.044,4.033,2.898,4.033c1.944,0,2.845-1.17,2.845-4.033C443.595,58.013,442.532,57.095,440.75,57.095z M438.211,54.844
		V52.99h2.161v1.854H438.211z M441.146,54.844V52.99h2.16v1.854H441.146z"/>
	<path fill="#333333" d="M451.388,67.16c-0.954,0-2.341-0.288-3.295-0.594l0.846-2.017c0.883,0.306,1.549,0.738,2.485,0.738
		c1.188,0,1.242-0.342,1.242-0.594v-0.054c0-0.9-4.357-0.271-4.357-3.745c0-2.107,1.891-2.503,3.673-2.503
		c0.721,0,1.818,0.162,2.953,0.504l-0.828,1.999c-0.828-0.378-1.351-0.63-2.106-0.63c-0.864,0-1.171,0.18-1.171,0.576
		c0,1.188,4.357,0.558,4.357,3.781C455.187,66.673,453.224,67.16,451.388,67.16z"/>
	<path fill="#333333" d="M456.354,64.009v-2.017h5.582v2.017H456.354z"/>
	<path fill="#333333" d="M317.956,86.87c-1.711-0.648-3.241-1.674-3.241-4.051v-4.267h-1.242v-1.909h1.242v-2.25h2.448v2.25h1.585
		v1.909h-1.585v4.52c0,1.062,0.469,1.44,1.711,1.8L317.956,86.87z"/>
	<path fill="#333333" d="M322.312,81.829c0.216,1.099,0.936,1.495,1.782,1.495c0.72,0,1.675-0.27,2.538-0.702l0.811,1.873
		c-1.008,0.45-2.305,0.648-3.493,0.648c-2.755,0-4.213-1.999-4.213-4.285c0-1.909,0.882-4.447,4.087-4.447
		c3.133,0,4.142,1.656,4.142,5.419H322.312z M323.842,78.3c-0.36,0-1.459,0.09-1.513,1.71h3.169
		C325.372,78.642,324.651,78.3,323.842,78.3z"/>
	<path fill="#333333" d="M334.875,78.606c-0.306-0.271-0.612-0.342-1.026-0.342c-0.9,0-1.314,1.278-1.494,1.747v4.879h-2.467v-6.392
		c0-0.81-0.18-1.422-0.234-1.836h2.287l0.36,1.134c0.288-0.486,0.972-1.404,1.8-1.404c0.721,0,1.243,0.108,1.603,0.216
		L334.875,78.606z"/>
	<path fill="#333333" d="M342.111,78.606c-0.306-0.271-0.612-0.342-1.026-0.342c-0.9,0-1.314,1.278-1.494,1.747v4.879h-2.467v-6.392
		c0-0.81-0.18-1.422-0.234-1.836h2.287l0.36,1.134c0.288-0.486,0.972-1.404,1.8-1.404c0.721,0,1.243,0.108,1.603,0.216
		L342.111,78.606z"/>
	<path fill="#333333" d="M346.521,81.829c0.217,1.099,0.937,1.495,1.783,1.495c0.72,0,1.674-0.27,2.539-0.702l0.81,1.873
		c-1.008,0.45-2.305,0.648-3.493,0.648c-2.755,0-4.213-1.999-4.213-4.285c0-1.909,0.882-4.447,4.087-4.447
		c3.133,0,4.142,1.656,4.142,5.419H346.521z M348.052,78.3c-0.36,0-1.459,0.09-1.513,1.71h3.169
		C349.582,78.642,348.861,78.3,348.052,78.3z"/>
	<path fill="#333333" d="M354.062,75.185V73.24h2.557v1.944H354.062z M354.115,84.89v-8.229h2.449v8.229H354.115z"/>
	<path fill="#333333" d="M362.757,85.142c-2.791,0-4.285-1.782-4.285-4.303c0-2.665,1.458-4.429,4.339-4.429
		c0.738,0,2.251,0.36,2.845,0.594l-0.846,2.017c-0.612-0.306-1.404-0.72-2.017-0.72c-1.135,0-1.801,0.432-1.801,2.539
		c0,1.927,0.847,2.413,1.782,2.413c0.559,0,1.423-0.36,2.125-0.72l0.847,2.017C365.115,84.854,363.387,85.142,362.757,85.142z"/>
	<path fill="#333333" d="M372.585,84.89v-5.474c0-0.504-0.036-1.152-1.008-1.152c-0.702,0-1.171,0.81-1.639,1.639v4.987h-2.467
		V73.06h2.467v4.609c0.234-0.234,0.918-1.278,2.07-1.278c2.521,0,3.043,1.386,3.043,3.367v5.131H372.585z"/>
	<path fill="#333333" d="M390.424,77.921h-0.937c0.27,0.324,0.756,0.99,0.756,1.675c0,1.35-0.738,3.169-3.943,3.169
		c-0.233,0-1.35-0.072-1.836-0.27c-0.181,0.018-0.324,0.198-0.324,0.486c0,0.432,0.414,0.54,2.448,0.685
		c3.493,0.252,4.231,0.936,4.231,2.466c0,1.873-2.305,2.431-4.411,2.431c-3.475,0-4.501-0.991-4.501-2.377
		c0-0.972,0.756-1.314,1.134-1.495c-0.774-0.36-0.972-0.936-0.972-1.602c0-0.594,0.485-1.135,1.025-1.495
		c-0.197-0.252-0.773-1.008-0.773-2.035c0-0.954,0.468-3.151,3.943-3.151c0.611,0,0.882,0.072,1.386,0.144
		c0.666-0.054,2.503-0.198,3.367-0.234L390.424,77.921z M384.644,85.466c-0.144,0.162-0.234,0.396-0.234,0.63
		c0,0.468,1.207,0.72,1.999,0.72c1.513,0,1.908-0.126,1.908-0.685C388.316,85.844,387.614,85.484,384.644,85.466z M386.3,78.246
		c-0.521,0-1.512,0.036-1.512,1.351c0,1.116,0.828,1.314,1.53,1.314c1.116,0,1.458-0.811,1.458-1.387
		C387.776,78.768,387.398,78.246,386.3,78.246z"/>
	<path fill="#333333" d="M394.778,81.829c0.216,1.099,0.936,1.495,1.782,1.495c0.72,0,1.675-0.27,2.538-0.702l0.811,1.873
		c-1.008,0.45-2.305,0.648-3.493,0.648c-2.755,0-4.213-1.999-4.213-4.285c0-1.909,0.882-4.447,4.087-4.447
		c3.133,0,4.142,1.656,4.142,5.419H394.778z M396.309,78.3c-0.36,0-1.459,0.09-1.513,1.71h3.169
		C397.839,78.642,397.118,78.3,396.309,78.3z"/>
	<path fill="#333333" d="M405.884,86.87c-1.711-0.648-3.241-1.674-3.241-4.051v-4.267H401.4v-1.909h1.242v-2.25h2.448v2.25h1.585
		v1.909h-1.585v4.52c0,1.062,0.469,1.44,1.711,1.8L405.884,86.87z"/>
	<path fill="#333333" d="M413.354,84.89c-0.018,0-0.324-0.792-0.324-0.756c-0.468,0.36-1.224,1.008-2.053,1.008
		c-2.305,0-3.312-0.882-3.312-2.413c0-1.674,1.062-3.097,4.573-3.097h0.63v-0.271c0-0.396,0-1.062-0.936-1.062
		c-1.135,0-2.323,0.342-3.115,0.72l-0.847-2.017c1.225-0.414,2.81-0.594,4.124-0.594c1.89,0,3.259,0.828,3.259,2.629v3.331
		c0,0.648,0.252,1.639,0.359,2.521H413.354z M412.886,81.396h-0.396c-1.62,0-2.269,0.414-2.269,1.225c0,0.594,0.721,0.63,1.261,0.63
		c0.521,0,1.098-0.558,1.404-0.9V81.396z"/>
	<path fill="#333333" d="M422.966,84.89v-5.348c0-0.576,0-1.278-1.008-1.278c-0.738,0-1.225,0.846-1.639,1.639v4.987h-2.467v-6.482
		c0-0.684-0.145-1.207-0.234-1.747h2.287l0.36,1.008c0.359-0.342,1.062-1.278,2.143-1.278c2.521,0,3.024,1.422,3.024,3.313v5.186
		H422.966z"/>
	<path fill="#333333" d="M432.776,84.89l-2.575-4.033v4.033h-2.467V73.06h2.467v6.77l2.305-3.169h2.646l-2.629,3.565l3.062,4.664
		H432.776z"/>
	<path fill="#333333" d="M440.443,86.87c-1.711-0.648-3.241-1.674-3.241-4.051v-4.267h-1.242v-1.909h1.242v-2.25h2.449v2.25h1.584
		v1.909h-1.584v4.52c0,1.062,0.468,1.44,1.71,1.8L440.443,86.87z"/>
	<path fill="#333333" d="M446.653,80.28v1.333h-2.413V80.19c0-2.449,2.791-2.611,2.791-3.998c0-0.666-0.198-1.026-1.225-1.026
		c-0.666,0-2.431,0.306-3.079,0.63l-0.324-2.197c0.774-0.27,2.539-0.54,3.403-0.54c1.404,0,3.854,0.162,3.854,3.133
		C449.66,78.335,446.653,78.75,446.653,80.28z M444.187,84.89v-2.215h2.521v2.215H444.187z"/>
</g>
<g>
	<path d="M105.131,186.347l-5.638,2.937l1.609,0.516l-0.683,0.721l-2.055-0.695l-0.463-0.89l6.748-3.514L105.131,186.347z"/>
	<path d="M104.721,182.631l0.301,0.655l-2.248,0.446l-0.431-0.938L104.721,182.631z"/>
	<path d="M102.062,179.221c0.429,1.076,0.432,2.266-1.113,2.885c-1.034,0.413-1.894,0.115-2.521-0.646
		c-0.027,0.337-0.025,1.425-1.128,1.867c-1.208,0.482-2.157,0.063-2.66-1.198c-0.526-1.318-0.224-2.182,1.09-2.707
		c1.081-0.431,1.924,0.301,2.149,0.627c-0.054-1.048,0.326-1.784,1.373-2.202C100.82,177.221,101.625,178.124,102.062,179.221z
		 M95.499,181.785c0.286,0.718,0.739,0.875,1.448,0.592c0.686-0.274,0.829-0.995,0.822-1.453c-0.329-0.387-0.96-0.854-1.634-0.584
		C95.45,180.613,95.202,181.039,95.499,181.785z M98.563,180.584c0.453,0.494,1.03,0.961,1.983,0.58
		c0.686-0.273,0.961-0.834,0.656-1.601c-0.306-0.766-0.879-1.054-1.599-0.767C98.697,179.16,98.557,179.924,98.563,180.584z"/>
	<path d="M98.234,167.557l-6.567,1.666l7.083,0.367l0.243,0.96l-6.05,3.709l6.567-1.665l0.242,0.95l-7.854,1.992l-0.408-1.608
		l5.722-3.475l-6.693-0.359l-0.387-1.526l7.854-1.992L98.234,167.557z"/>
	<path d="M90.891,166.232l-1.085,0.185l-0.169-0.987l1.085-0.185L90.891,166.232z M97.779,165.022l-5.636,0.964l-0.159-0.927
		l5.637-0.962L97.779,165.022z"/>
	<path d="M97.326,160.794c0.189,1.648-1.137,2.381-2.778,2.57c-1.566,0.182-3.039-0.237-3.227-1.876
		c-0.19-1.648,1.076-2.363,2.717-2.553C95.679,158.745,97.137,159.155,97.326,160.794z M92.191,161.388
		c0.1,0.871,0.854,1.183,2.247,1.021c1.318-0.151,2.126-0.581,2.019-1.514c-0.104-0.903-0.928-1.165-2.308-1.006
		C92.755,160.051,92.085,160.465,92.191,161.388z"/>
	<path d="M96.856,157.404l-1.2,0.068l-0.057-1.032l1.2-0.068L96.856,157.404z"/>
</g>
<g>
	<path d="M135.726,191.615l-2.361,4.495l1.382-0.347l-0.094,0.797l-1.785,0.417l-0.786-0.412l2.825-5.379L135.726,191.615z"/>
	<path d="M133.135,190.135l-0.515,0.812l-0.772-0.489l0.514-0.811L133.135,190.135z"/>
	<path d="M130.19,187.954c0.454,0.336,0.915,0.739,1.217,1.186l-0.725,0.497c-0.228-0.392-0.589-0.82-0.946-1.085
		c-0.728-0.538-1.326-0.259-1.79,0.368c-0.506,0.684-0.389,1.207,0.058,1.537c0.424,0.313,0.815,0.328,1.16,0.36l0.345,0.591
		l-1.816,2.452l-2.743-2.028l0.446-0.604l2.015,1.49l0.947-1.278c-0.263-0.082-0.522-0.15-0.857-0.397
		c-0.898-0.666-1.045-1.633-0.27-2.678C128.033,187.279,129.211,187.229,130.19,187.954z"/>
	<path d="M122.001,180.614l-3.953,3.688l5.22-2.33l0.6,0.642l-2.678,5.051l3.951-3.688l0.594,0.636l-4.727,4.409l-1.003-1.073
		l2.547-4.753l-4.938,2.193l-0.951-1.02l4.726-4.41L122.001,180.614z"/>
	<path d="M116.171,182.178l-0.706,0.525l-0.531-0.711l0.705-0.525L116.171,182.178z M120.634,178.814l-3.663,2.731l-0.498-0.667
		l3.663-2.731L120.634,178.814z"/>
	<path d="M118.599,175.667c0.791,1.24,0.118,2.271-0.997,2.98c-1.062,0.677-2.294,0.849-3.079-0.384
		c-0.79-1.24-0.154-2.236,0.96-2.945C116.597,174.608,117.815,174.436,118.599,175.667z M115.113,177.888
		c0.418,0.655,1.088,0.645,2.032,0.042c0.895-0.569,1.31-1.185,0.863-1.887c-0.432-0.678-1.134-0.604-2.069-0.008
		C114.994,176.637,114.672,177.193,115.113,177.888z"/>
	<path d="M116.966,173.163l-0.847,0.45l-0.429-0.808l0.847-0.45L116.966,173.163z"/>
</g>
<g>
	<path fill="#333333" d="M107.573,294.575v-10.356h2.017v8.756h4.306v1.601H107.573z"/>
	<path fill="#333333" d="M115.013,285.787v-1.568h1.904v1.568H115.013z M115.061,294.575v-7.315h1.809v7.315H115.061z"/>
	<path fill="#333333" d="M122.679,296.128c-1.777-0.448-3.313-1.601-3.313-3.474v-4.002h-1.217v-1.408h1.217v-1.953h1.809v1.953
		h1.713v1.408h-1.713v4.146c0,1.04,0.769,1.488,1.984,1.776L122.679,296.128z"/>
	<path fill="#333333" d="M125.894,291.613c0.145,1.17,0.753,1.826,1.761,1.826c0.688,0,1.521-0.24,2.289-0.625l0.593,1.393
		c-0.881,0.4-2.001,0.576-3.01,0.576c-2.369,0-3.537-1.761-3.537-3.793c0-1.697,0.769-3.938,3.474-3.938
		c2.545,0,3.457,1.504,3.457,4.561H125.894z M127.446,288.445c-0.592,0-1.488,0.352-1.553,1.872h3.281
		C129.095,288.925,128.391,288.445,127.446,288.445z"/>
	<path fill="#333333" d="M137.047,288.877c-0.272-0.208-0.656-0.448-1.057-0.448c-0.848,0-1.312,1.345-1.488,1.776v4.37h-1.809
		v-5.683c0-0.721-0.145-1.264-0.192-1.633h1.665l0.288,1.249c0.256-0.464,1.04-1.473,1.824-1.473c0.608,0,0.961,0.128,1.393,0.353
		L137.047,288.877z"/>
	<path fill="#333333" d="M146.983,294.799c-0.688,0-1.505-0.367-1.921-0.943v3.602h-1.809v-7.956c0-0.929-0.08-1.376-0.192-2.241
		h1.665l0.32,0.961c0.319-0.448,0.912-1.185,1.824-1.185c2.289,0,3.138,1.825,3.138,3.921
		C150.009,292.99,149.08,294.799,146.983,294.799z M146.439,288.429c-0.625,0-1.089,0.673-1.409,1.36v2.561
		c0.385,0.689,0.912,1.057,1.617,1.057c0.816,0,1.504-0.496,1.504-2.48C148.151,288.988,147.543,288.429,146.439,288.429z"/>
	<path fill="#333333" d="M156.104,288.877c-0.272-0.208-0.656-0.448-1.057-0.448c-0.848,0-1.312,1.345-1.488,1.776v4.37h-1.809
		v-5.683c0-0.721-0.145-1.264-0.192-1.633h1.665l0.288,1.249c0.256-0.464,1.04-1.473,1.824-1.473c0.608,0,0.961,0.128,1.393,0.353
		L156.104,288.877z"/>
	<path fill="#333333" d="M161.239,294.799c-2.641,0-3.617-1.809-3.617-3.921c0-2.033,0.992-3.842,3.617-3.842
		c2.657,0,3.602,1.713,3.602,3.842C164.841,292.975,163.864,294.799,161.239,294.799z M161.239,288.429
		c-1.152,0-1.761,0.656-1.761,2.449c0,1.648,0.544,2.528,1.761,2.528c1.12,0,1.745-0.752,1.745-2.528
		C162.984,289.085,162.456,288.429,161.239,288.429z"/>
	<path fill="#333333" d="M175.063,285.787v8.788h-2.017v-8.788h-2.849v-1.568h7.715v1.568H175.063z"/>
	<path fill="#333333" d="M182.6,294.575l-0.271-0.736c-0.4,0.384-1.104,0.944-1.905,0.944c-1.856,0-2.849-0.736-2.849-2.129
		c0-1.488,0.896-2.673,4.018-2.673h0.608v-0.353c0-0.561-0.112-1.184-1.041-1.184c-1.008,0-1.969,0.304-2.673,0.64l-0.624-1.489
		c0.977-0.352,2.241-0.543,3.394-0.543c1.616,0,2.769,0.736,2.769,2.336v2.945c0,0.576,0.192,1.425,0.288,2.241H182.6z
		 M182.216,291.197h-0.4c-1.729,0-2.353,0.496-2.353,1.377c0,0.625,0.624,0.816,1.297,0.816c0.672,0,1.168-0.352,1.456-0.752
		V291.197z"/>
	<path fill="#333333" d="M193.049,288.221h-0.896c0.288,0.288,0.736,0.928,0.736,1.617c0,1.248-0.753,2.801-3.33,2.801
		c-0.271,0-1.216-0.096-1.601-0.272c-0.176,0.097-0.336,0.257-0.336,0.528c0,0.385,0.368,0.512,2.193,0.656
		c2.913,0.225,3.585,0.928,3.585,2.129c0,1.601-1.904,2.113-3.745,2.113c-2.913,0-3.81-0.833-3.81-2.065
		c0-0.864,0.784-1.232,1.185-1.393c-0.641-0.288-0.929-0.769-0.929-1.36c0-0.528,0.416-0.961,0.849-1.281
		c-0.192-0.239-0.736-0.88-0.736-1.872c0-0.849,0.432-2.769,3.313-2.769c0.544,0,0.832,0.063,1.232,0.144
		c0.592-0.048,1.984-0.16,2.753-0.192L193.049,288.221z M188.23,294.943c-0.336,0.16-0.528,0.432-0.528,0.721
		c0,0.527,0.961,0.8,1.953,0.8c1.44,0,1.889-0.192,1.889-0.784C191.544,295.375,190.871,295.008,188.23,294.943z M189.559,288.412
		c-0.736,0-1.488,0.305-1.488,1.441c0,1.04,0.656,1.424,1.505,1.424c1.12,0,1.456-0.8,1.456-1.488
		C191.031,288.941,190.552,288.412,189.559,288.412z"/>
</g>
</svg>
