<?xml version="1.0" encoding="utf-8"?>
<!-- Generator: Adobe Illustrator 16.0.0, SVG Export Plug-In . SVG Version: 6.00 Build 0)  -->
<!DOCTYPE svg PUBLIC "-//W3C//DTD SVG 1.1//EN" "http://www.w3.org/Graphics/SVG/1.1/DTD/svg11.dtd">
<svg version="1.1" id="Layer_1" xmlns="http://www.w3.org/2000/svg" xmlns:xlink="http://www.w3.org/1999/xlink" x="0px" y="0px"
	 width="521px" height="312px" viewBox="0 0 521 312" enable-background="new 0 0 521 312" xml:space="preserve">
<rect fill="#FFFFFF" width="521" height="312"/>
<g>
	<path fill="#12DDC8" d="M152.431,37.063c-0.052,0-0.104,0.002-0.156,0.002v11c0.053,0,0.104-0.002,0.156-0.002
		c59.517,0,107.938,48.42,107.938,107.938c0,59.516-48.421,107.936-107.938,107.936c-59.516,0-107.937-48.42-107.937-107.936
		c0-37.941,19.681-71.369,49.365-90.621l-5.97-9.236c-32.71,21.215-54.396,58.049-54.396,99.857
		c0,65.582,53.354,118.936,118.937,118.936s118.938-53.354,118.938-118.936S218.013,37.063,152.431,37.063z"/>
	<path fill="#4DBBA8" d="M152.431,54.923c-0.052,0-0.104,0.002-0.156,0.002v11c0.053,0,0.104-0.002,0.156-0.002
		c49.67,0,90.078,40.408,90.078,90.078c0,49.668-40.408,90.076-90.078,90.076c-49.668,0-90.077-40.408-90.077-90.076
		c0-16.766,4.608-32.473,12.618-45.93l-9.467-5.594c-8.982,15.098-14.151,32.717-14.151,51.523
		c0,55.734,45.343,101.076,101.077,101.076c55.735,0,101.078-45.342,101.078-101.076S208.166,54.923,152.431,54.923z"/>
	<path fill="#FF5346" d="M152.431,108.499c-0.053,0-0.104,0.004-0.156,0.004v11c0.053,0,0.104-0.004,0.156-0.004
		c20.127,0,36.501,16.375,36.501,36.502c0,20.125-16.374,36.5-36.501,36.5c-3.427,0-6.74-0.484-9.888-1.373l-2.917,10.605
		c4.077,1.143,8.368,1.768,12.805,1.768c26.192,0,47.501-21.309,47.501-47.5C199.932,129.808,178.623,108.499,152.431,108.499z"/>
	<path fill="#899887" d="M152.431,72.782c-0.053,0-0.104,0.004-0.156,0.004v11c0.053,0,0.104-0.004,0.156-0.004
		c39.822,0,72.219,32.396,72.219,72.219c0,39.82-32.396,72.219-72.219,72.219c-39.82,0-72.218-32.398-72.218-72.219
		c0-0.879,0.035-1.75,0.066-2.621l-10.991-0.363c-0.035,0.992-0.075,1.982-0.075,2.984c0,45.887,37.331,83.219,83.218,83.219
		c45.888,0,83.219-37.332,83.219-83.219C235.649,110.112,198.318,72.782,152.431,72.782z"/>
	<path fill="#C47667" d="M152.431,90.642c-0.053,0-0.104,0.004-0.156,0.004v11c0.053,0,0.104-0.004,0.156-0.004
		c29.975,0,54.36,24.385,54.36,54.359c0,29.973-24.386,54.359-54.36,54.359c-16.407,0-31.129-7.318-41.104-18.85l-8.279,7.23
		c11.993,13.838,29.677,22.619,49.384,22.619c36.04,0,65.36-29.32,65.36-65.359S188.471,90.642,152.431,90.642z"/>
</g>
<path fill="none" d="M44.231,139.853c7.807-52.754,53.275-93.236,108.199-93.236c60.411,0,109.384,48.973,109.384,109.385
	c0,60.41-48.973,109.383-109.384,109.383c-60.41,0-109.383-48.973-109.383-109.383C43.048,150.513,43.452,145.122,44.231,139.853"/>
<text transform="matrix(0.8739 -0.4861 0.4861 0.8739 96.4141 61.9717)"><tspan x="0" y="0" font-family="'Colaborate-Regular'" font-size="13">6</tspan><tspan x="6.598" y="0.035" font-family="'Colaborate-Regular'" font-size="13" rotate="2.588">,</tspan><tspan x="9.832" y="0.141" font-family="'Colaborate-Regular'" font-size="13" rotate="5.17">5</tspan><tspan x="16.395" y="0.771" font-family="'Colaborate-Regular'" font-size="13" rotate="7.764"> </tspan><tspan x="19.569" y="1.062" font-family="'Colaborate-Regular'" font-size="13" rotate="11.582">M</tspan><tspan x="30.63" y="3.466" font-family="'Colaborate-Regular'" font-size="13" rotate="15.317">i</tspan><tspan x="33.394" y="4.178" font-family="'Colaborate-Regular'" font-size="13" rotate="17.81">o</tspan><tspan x="39.695" y="6.24" font-family="'Colaborate-Regular'" font-size="13" rotate="20.407">.</tspan></text>
<path fill="none" d="M61.542,142.435c6.557-44.312,44.752-78.318,90.889-78.318c50.746,0,91.884,41.139,91.884,91.885
	c0,50.744-41.138,91.883-91.884,91.883c-50.745,0-91.883-41.139-91.883-91.883C60.548,151.392,60.888,146.862,61.542,142.435"/>
<text transform="matrix(0.578 -0.8161 0.8161 0.578 75.4663 105.6821)"><tspan x="0" y="0" font-family="'Colaborate-Regular'" font-size="13">5</tspan><tspan x="6.565" y="0.041" font-family="'Colaborate-Regular'" font-size="13" rotate="3.04">,</tspan><tspan x="9.816" y="0.166" font-family="'Colaborate-Regular'" font-size="13" rotate="6.093">3</tspan><tspan x="16.331" y="0.903" font-family="'Colaborate-Regular'" font-size="13" rotate="9.121"> </tspan><tspan x="19.506" y="1.247" font-family="'Colaborate-Regular'" font-size="13" rotate="13.606">M</tspan><tspan x="30.419" y="4.046" font-family="'Colaborate-Regular'" font-size="13" rotate="17.963">i</tspan><tspan x="33.161" y="4.881" font-family="'Colaborate-Regular'" font-size="13" rotate="20.913">o</tspan><tspan x="39.31" y="7.276" font-family="'Colaborate-Regular'" font-size="13" rotate="23.972">.</tspan></text>
<path fill="none" d="M79.466,145.11c5.264-35.576,35.926-62.875,72.965-62.875c40.739,0,73.765,33.025,73.765,73.766
	c0,40.738-33.025,73.764-73.765,73.764c-40.738,0-73.764-33.025-73.764-73.764C78.667,152.3,78.939,148.663,79.466,145.11"/>
<text transform="matrix(0.1348 -0.9909 0.9909 0.1348 78.8848 149.3389)"><tspan x="0" y="0" font-family="'Colaborate-Regular'" font-size="13">3</tspan><tspan x="6.558" y="0.049" font-family="'Colaborate-Regular'" font-size="13" rotate="3.758">,</tspan><tspan x="9.749" y="0.198" font-family="'Colaborate-Regular'" font-size="13" rotate="7.558">8</tspan><tspan x="16.202" y="1.105" font-family="'Colaborate-Regular'" font-size="13" rotate="11.353"> </tspan><tspan x="19.35" y="1.525" font-family="'Colaborate-Regular'" font-size="13" rotate="16.99">M</tspan><tspan x="30.024" y="4.985" font-family="'Colaborate-Regular'" font-size="13" rotate="22.428">i</tspan><tspan x="32.66" y="6.004" font-family="'Colaborate-Regular'" font-size="13" rotate="26.076">o</tspan><tspan x="38.547" y="8.942" font-family="'Colaborate-Regular'" font-size="13" rotate="29.863">.</tspan></text>
<rect x="313.274" y="113.498" fill="#12DDC8" width="176.726" height="13"/>
<rect x="313.274" y="130.748" fill="#4DBBA8" width="158.726" height="13"/>
<rect x="313.274" y="147.998" fill="#899887" width="114.059" height="13"/>
<rect x="313.274" y="165.248" fill="#C47667" width="68.06" height="13"/>
<rect x="313.274" y="182.498" fill="#FF5346" width="44.06" height="13"/>
<rect x="317.274" y="116.486" fill="none" width="96.175" height="13.025"/>
<text transform="matrix(1 0 0 1 317.2744 124.3701)" font-family="'Colaborate-Regular'" font-size="12">Diesel</text>
<rect x="317.274" y="133.748" fill="none" width="96.175" height="13.027"/>
<text transform="matrix(1 0 0 1 317.2744 141.6318)" font-family="'Colaborate-Regular'" font-size="12">Benzin</text>
<rect x="317.274" y="150.977" fill="none" width="96.175" height="13.025"/>
<text transform="matrix(1 0 0 1 317.2744 158.8604)" font-family="'Colaborate-Regular'" font-size="12">Erdgas</text>
<rect x="317.274" y="168.477" fill="none" width="96.175" height="13.025"/>
<text transform="matrix(1 0 0 1 317.2744 176.3604)" font-family="'Colaborate-Regular'" font-size="12">Wasserstoff</text>
<rect x="317.274" y="185.477" fill="none" width="96.175" height="13.025"/>
<text transform="matrix(1 0 0 1 317.2744 193.3604)" font-family="'Colaborate-Regular'" font-size="12">Strom</text>
<rect x="313.274" y="37.063" fill="none" width="158.726" height="71.436"/>
<text transform="matrix(1 0 0 1 313.2744 48.8896)"><tspan x="0" y="0" fill="#333333" font-family="'Colaborate-Bold'" font-size="18">Welcher Treibstoff </tspan><tspan x="0" y="18" fill="#333333" font-family="'Colaborate-Bold'" font-size="18">wird aktuell in Ös</tspan><tspan x="142.611" y="18" fill="#333333" font-family="'Colaborate-Bold'" font-size="18">-</tspan><tspan x="0" y="36" fill="#333333" font-family="'Colaborate-Bold'" font-size="18">terreich getankt?</tspan></text>
<path fill="none" d="M104.659,185.451c-14.295-28.235-9-60.829,13.633-76.028c24.895-16.717,61.329-6.059,81.385,23.806
	c20.054,29.861,16.128,67.621-8.764,84.336c-24.894,16.716-61.329,6.06-81.383-23.804
	C107.708,191.049,106.086,188.271,104.659,185.451"/>
<text transform="matrix(-0.3847 -0.7395 0.8872 -0.4615 106.3711 188.7539)" font-family="'Colaborate-Regular'" font-size="12.5175">1</text>
<text transform="matrix(-0.3485 -0.7572 0.9084 -0.4181 103.9736 184.0938)" font-family="'Colaborate-Regular'" font-size="12.5175">,</text>
<text transform="matrix(-0.309 -0.7742 0.9288 -0.3707 102.8599 181.7617)" font-family="'Colaborate-Regular'" font-size="12.5175">8</text>
<text transform="matrix(-0.268 -0.7893 0.9469 -0.3215 100.9395 176.8633)" font-family="'Colaborate-Regular'" font-size="12.5175"> </text>
<text transform="matrix(-0.205 -0.808 0.9693 -0.2459 100.0005 174.5186)" font-family="'Colaborate-Regular'" font-size="12.5175">M</text>
<text transform="matrix(-0.1406 -0.8216 0.9857 -0.1687 97.9028 165.7363)" font-family="'Colaborate-Regular'" font-size="12.5175">i</text>
<text transform="matrix(-0.0956 -0.8281 0.9934 -0.1147 97.4756 163.5029)" font-family="'Colaborate-Regular'" font-size="12.5175">o</text>
<text transform="matrix(-0.0471 -0.8323 0.9984 -0.0565 96.9038 158.2305)" font-family="'Colaborate-Regular'" font-size="12.5175">.</text>
<path fill="none" d="M135.594,191.565c-19.137-10.383-28.554-32.306-21.219-51.725c8.068-21.359,33.341-31.596,56.453-22.867
	c23.11,8.729,35.304,33.119,27.237,54.479c-8.066,21.355-33.342,31.594-56.451,22.865
	C139.514,193.525,137.507,192.603,135.594,191.565"/>
<text transform="matrix(-0.8183 -0.4294 0.4647 -0.8855 137.8389 192.7373)" font-family="'Colaborate-Regular'" font-size="10">1</text>
<text transform="matrix(-0.7807 -0.4945 0.5351 -0.8448 133.75 190.5254)" font-family="'Colaborate-Regular'" font-size="10">.</text>
<text transform="matrix(-0.7428 -0.5499 0.595 -0.8037 131.8203 189.3584)" font-family="'Colaborate-Regular'" font-size="10">5</text>
<text transform="matrix(-0.7002 -0.6031 0.6526 -0.7577 128.1084 186.5615)" font-family="'Colaborate-Regular'" font-size="10"> </text>
<text transform="matrix(-0.6303 -0.6759 0.7313 -0.682 126.3389 185.2598)" font-family="'Colaborate-Regular'" font-size="10">M</text>
<text transform="matrix(-0.5532 -0.7403 0.8011 -0.5986 121.0166 179.3262)" font-family="'Colaborate-Regular'" font-size="10">i</text>
<text transform="matrix(-0.4967 -0.7793 0.8433 -0.5374 119.7764 177.7568)" font-family="'Colaborate-Regular'" font-size="10">o</text>
<text transform="matrix(-0.4342 -0.8158 0.8828 -0.4698 117.3096 173.8086)" font-family="'Colaborate-Regular'" font-size="10">.</text>
<rect x="106.068" y="284.063" fill="none" width="90.726" height="20.269"/>
<text transform="matrix(1 0 0 1 106.0684 294.5762)" fill="#333333" font-family="'Colaborate-Medium'" font-size="16">Liter pro Tag</text>
</svg>
