<?xml version="1.0" encoding="utf-8"?>
<!-- Generator: Adobe Illustrator 16.0.0, SVG Export Plug-In . SVG Version: 6.00 Build 0)  -->
<!DOCTYPE svg PUBLIC "-//W3C//DTD SVG 1.1//EN" "http://www.w3.org/Graphics/SVG/1.1/DTD/svg11.dtd">
<svg version="1.1" id="Layer_1" xmlns="http://www.w3.org/2000/svg" xmlns:xlink="http://www.w3.org/1999/xlink" x="0px" y="0px"
	 width="312px" height="212px" viewBox="0 0 312 212" enable-background="new 0 0 312 212" xml:space="preserve">
<rect fill="#FFFFFF" width="312" height="212"/>
<g>
	<path d="M19.773,164.195h-0.909l-2.438-7.117h1.1l1.818,5.721l1.729-5.721h1.049L19.773,164.195z"/>
	<path d="M23.287,162.062c0.06,0.935,0.42,1.529,1.209,1.529c0.46,0,0.91-0.165,1.39-0.429l0.29,0.77
		c-0.54,0.275-1.16,0.396-1.76,0.396c-1.429,0-2.078-1.199-2.078-2.597c0-1.166,0.43-2.695,2.028-2.695
		c1.619,0,2.059,1.122,2.059,3.025H23.287z M24.376,159.795c-0.539,0-1.049,0.43-1.099,1.529h2.278
		C25.525,160.246,25.105,159.795,24.376,159.795z"/>
	<path d="M30.039,160.104c-0.17-0.121-0.38-0.309-0.689-0.309c-0.56,0-0.77,0.902-0.89,1.211v3.189h-0.89v-3.905
		c0-0.495-0.08-0.869-0.11-1.122h0.81l0.16,0.881c0.16-0.342,0.56-1.023,1.079-1.023c0.36,0,0.6,0.088,0.85,0.253L30.039,160.104z"
		/>
	<path d="M31.885,162.062c0.06,0.935,0.42,1.529,1.209,1.529c0.46,0,0.91-0.165,1.39-0.429l0.29,0.77
		c-0.54,0.275-1.16,0.396-1.76,0.396c-1.429,0-2.078-1.199-2.078-2.597c0-1.166,0.43-2.695,2.028-2.695
		c1.619,0,2.059,1.122,2.059,3.025H31.885z M32.974,159.795c-0.539,0-1.049,0.43-1.099,1.529h2.278
		C34.123,160.246,33.703,159.795,32.974,159.795z"/>
	<path d="M36.147,158.046v-0.968h0.96v0.968H36.147z M36.178,164.195v-5.027h0.899v5.027H36.178z"/>
	<path d="M41.283,164.195v-3.18c0-0.637-0.079-1.221-0.859-1.221c-0.529,0-0.899,0.539-1.089,1.002v3.398h-0.89v-3.96
		c0-0.418-0.08-0.693-0.11-1.067h0.81l0.16,0.704c0.18-0.231,0.569-0.847,1.249-0.847c1.279,0,1.619,0.847,1.619,2.002v3.168H41.283
		z"/>
	<path d="M44.558,158.75v0.418h1.039v0.76h-1.039v4.268h-0.89v-4.268h-0.689v-0.76h0.689v-0.341c0-1.419,1.239-1.991,2.039-2.058
		l0.229,0.825C45.008,157.705,44.558,158.079,44.558,158.75z"/>
	<path d="M49.503,164.195c0-0.043-0.15-0.494-0.16-0.55c-0.24,0.308-0.699,0.683-1.239,0.683c-1.04,0-1.719-0.473-1.719-1.453
		c0-1.022,0.529-1.781,2.479-1.781h0.409v-0.319c0-0.528-0.14-0.979-0.779-0.979c-0.63,0-1.169,0.209-1.609,0.44l-0.31-0.814
		c0.569-0.231,1.239-0.385,1.949-0.385c0.969,0,1.648,0.506,1.648,1.606v2.014c0,0.396,0.101,0.957,0.16,1.539H49.503z
		 M49.283,161.775h-0.28c-1.26,0-1.679,0.342-1.679,1.057c0,0.494,0.379,0.736,0.919,0.736c0.47,0,0.85-0.253,1.04-0.594V161.775z"
		/>
	<path d="M53.526,164.328c-1.449,0-2.139-1.067-2.139-2.607c0-1.629,0.669-2.685,2.168-2.685c0.41,0,1.17,0.198,1.5,0.341
		l-0.311,0.814c-0.34-0.188-0.859-0.396-1.199-0.396c-0.89,0-1.239,0.639-1.239,1.926c0,1.177,0.39,1.848,1.229,1.848
		c0.31,0,0.85-0.176,1.239-0.396l0.31,0.813C54.735,164.174,53.876,164.328,53.526,164.328z"/>
	<path d="M58.959,164.195v-3.156c0-0.683-0.1-1.244-0.859-1.244c-0.55,0-0.909,0.562-1.089,1.002v3.398h-0.89v-7.228h0.89v2.904
		c0.17-0.297,0.59-0.847,1.229-0.847c1.279,0,1.608,0.88,1.608,1.969v3.201H58.959z"/>
	<path d="M63.213,165.087c-1.05-0.286-1.819-1.013-1.819-2.134v-3.025h-0.739v-0.771h0.739v-1.31h0.899v1.31h1.06v0.771h-1.06v3.047
		c0,0.682,0.48,1.057,1.229,1.221L63.213,165.087z"/>
	<path d="M65.04,162.062c0.06,0.935,0.42,1.529,1.209,1.529c0.46,0,0.909-0.165,1.39-0.429l0.29,0.77
		c-0.54,0.275-1.16,0.396-1.76,0.396c-1.429,0-2.078-1.199-2.078-2.597c0-1.166,0.43-2.695,2.028-2.695
		c1.619,0,2.059,1.122,2.059,3.025H65.04z M66.129,159.795c-0.539,0-1.049,0.43-1.099,1.529h2.278
		C67.278,160.246,66.858,159.795,66.129,159.795z"/>
	<path d="M73.709,164.395c-0.561,0-1.29-0.166-1.84-0.33l0.32-0.936c0.479,0.197,0.999,0.418,1.529,0.418
		c0.789,0,1.529-0.231,1.529-1.178c0-0.803-0.72-1.078-1.499-1.396c-0.9-0.363-1.88-0.781-1.88-2.113
		c0-1.375,1.14-1.914,2.329-1.914c0.439,0,1.14,0.1,1.669,0.297l-0.319,0.936c-0.37-0.176-0.74-0.385-1.359-0.385
		c-0.93,0-1.3,0.439-1.3,1.066c0,0.628,0.58,0.869,1.25,1.134c0.959,0.374,2.129,0.781,2.129,2.354
		C76.268,163.998,75.048,164.395,73.709,164.395z"/>
	<path d="M79.611,165.087c-1.05-0.286-1.819-1.013-1.819-2.134v-3.025h-0.739v-0.771h0.739v-1.31h0.899v1.31h1.06v0.771h-1.06v3.047
		c0,0.682,0.48,1.057,1.229,1.221L79.611,165.087z"/>
	<path d="M83.607,164.195c0-0.043-0.15-0.494-0.16-0.55c-0.24,0.308-0.699,0.683-1.239,0.683c-1.04,0-1.719-0.473-1.719-1.453
		c0-1.022,0.529-1.781,2.479-1.781h0.409v-0.319c0-0.528-0.14-0.979-0.779-0.979c-0.63,0-1.169,0.209-1.609,0.44l-0.31-0.814
		c0.569-0.231,1.239-0.385,1.949-0.385c0.969,0,1.648,0.506,1.648,1.606v2.014c0,0.396,0.101,0.957,0.16,1.539H83.607z
		 M83.388,161.775h-0.28c-1.26,0-1.679,0.342-1.679,1.057c0,0.494,0.379,0.736,0.919,0.736c0.47,0,0.85-0.253,1.04-0.594V161.775z"
		/>
	<path d="M87.73,165.087c-1.05-0.286-1.819-1.013-1.819-2.134v-3.025h-0.739v-0.771h0.739v-1.31h0.899v1.31h1.06v0.771h-1.06v3.047
		c0,0.682,0.48,1.057,1.229,1.221L87.73,165.087z"/>
	<path d="M88.817,158.046v-0.968h0.96v0.968H88.817z M88.848,164.195v-5.027h0.899v5.027H88.848z"/>
	<path d="M92.505,164.339c-0.53,0-1.2-0.132-1.67-0.341l0.311-0.814c0.529,0.23,0.839,0.385,1.379,0.385
		c0.68,0,0.869-0.285,0.869-0.726c0-0.451-0.479-0.605-1.029-0.804c-0.689-0.242-1.469-0.539-1.469-1.551
		c0-1.133,0.939-1.463,1.829-1.463c0.439,0,0.89,0.099,1.519,0.33l-0.319,0.824c-0.46-0.23-0.74-0.385-1.22-0.385
		c-0.539,0-0.89,0.176-0.89,0.66c0,0.374,0.39,0.518,0.859,0.682c0.73,0.254,1.64,0.518,1.64,1.695
		C94.313,163.932,93.424,164.339,92.505,164.339z"/>
	<path d="M97.448,165.087c-1.05-0.286-1.819-1.013-1.819-2.134v-3.025H94.89v-0.771h0.739v-1.31h0.899v1.31h1.06v0.771h-1.06v3.047
		c0,0.682,0.48,1.057,1.229,1.221L97.448,165.087z"/>
	<path d="M98.535,158.046v-0.968h0.96v0.968H98.535z M98.565,164.195v-5.027h0.899v5.027H98.565z"/>
	<path d="M103.611,164.195l-1.889-2.574v2.574h-0.89v-7.228h0.89v4.225l1.719-2.024h0.97l-1.859,2.178l2.099,2.85H103.611z"/>
	<path d="M111.081,164.195l-0.159-0.55c-0.21,0.353-0.62,0.683-1.13,0.683c-1.449,0-1.988-1.232-1.988-2.674
		c0-1.408,0.609-2.618,1.879-2.618c0.589,0,0.969,0.451,1.209,0.836v-2.904h0.89v5.688c0,0.637,0.04,0.935,0.109,1.539H111.081z
		 M110.911,160.818c-0.189-0.418-0.51-1.023-1.119-1.023c-0.59,0-1.069,0.463-1.069,1.881c0,1.332,0.38,1.893,1.189,1.893
		c0.43,0,0.75-0.297,0.999-0.736V160.818z"/>
	<path d="M116.025,164.195c0-0.043-0.15-0.494-0.16-0.55c-0.24,0.308-0.699,0.683-1.239,0.683c-1.04,0-1.719-0.473-1.719-1.453
		c0-1.022,0.529-1.781,2.479-1.781h0.409v-0.319c0-0.528-0.14-0.979-0.779-0.979c-0.63,0-1.169,0.209-1.609,0.44l-0.31-0.814
		c0.569-0.231,1.239-0.385,1.949-0.385c0.969,0,1.648,0.506,1.648,1.606v2.014c0,0.396,0.101,0.957,0.16,1.539H116.025z
		 M115.806,161.775h-0.28c-1.26,0-1.679,0.342-1.679,1.057c0,0.494,0.379,0.736,0.919,0.736c0.47,0,0.85-0.253,1.04-0.594V161.775z"
		/>
	<path d="M118.789,163.437h2.489v0.759h-3.198l-0.311-0.813l2.639-3.454h-2.358v-0.76h3.048l0.32,0.814L118.789,163.437z"/>
	<path d="M125.362,164.195l-0.159-0.703c-0.181,0.23-0.53,0.847-1.21,0.847c-1.219,0-1.589-0.847-1.589-2.003v-3.168h0.89v3.18
		c0,0.627,0.08,1.221,0.829,1.221c0.53,0,0.859-0.539,1.05-1.001v-3.399h0.89v3.961c0,0.418,0.08,0.693,0.109,1.066H125.362z"/>
	<path d="M127.708,165.329h-0.689l0.51-1.958h0.989L127.708,165.329z"/>
	<path d="M21.803,174.195h-0.909l-0.97-3.311l-1.05,3.311h-0.93l-1.469-5.027h0.949l1.069,3.818l1.04-3.355h0.859l0.979,3.344
		l1.06-3.807h0.899L21.803,174.195z"/>
	<path d="M24.325,168.046v-0.968h0.96v0.968H24.325z M24.355,174.195v-5.027h0.899v5.027H24.355z"/>
	<path d="M27.343,172.062c0.06,0.935,0.42,1.529,1.209,1.529c0.46,0,0.909-0.165,1.39-0.429l0.29,0.77
		c-0.54,0.275-1.16,0.396-1.76,0.396c-1.429,0-2.078-1.199-2.078-2.597c0-1.166,0.43-2.695,2.028-2.695
		c1.619,0,2.059,1.122,2.059,3.025H27.343z M28.432,169.795c-0.539,0-1.049,0.43-1.099,1.529h2.278
		C29.581,170.246,29.161,169.795,28.432,169.795z"/>
	<path d="M36.591,167.936v6.26h-0.989v-6.26h-1.849v-0.857h4.688v0.857H36.591z"/>
	<path d="M40.406,174.339c-1.59,0-2.139-1.232-2.139-2.685c0-1.387,0.56-2.629,2.139-2.629c1.589,0,2.129,1.177,2.129,2.629
		S41.985,174.339,40.406,174.339z M40.406,169.795c-0.84,0-1.22,0.627-1.22,1.859c0,1.166,0.32,1.914,1.22,1.914
		c0.869,0,1.209-0.693,1.209-1.914C41.615,170.422,41.296,169.795,40.406,169.795z"/>
	<path d="M46.618,174.195l-0.159-0.703c-0.181,0.23-0.53,0.847-1.21,0.847c-1.219,0-1.589-0.847-1.589-2.003v-3.168h0.89v3.18
		c0,0.627,0.08,1.221,0.829,1.221c0.53,0,0.859-0.539,1.05-1.001v-3.399h0.89v3.961c0,0.418,0.08,0.693,0.109,1.066H46.618z"/>
	<path d="M51.143,170.104c-0.17-0.121-0.38-0.309-0.689-0.309c-0.56,0-0.77,0.902-0.89,1.211v3.189h-0.89v-3.905
		c0-0.495-0.08-0.869-0.11-1.122h0.81l0.16,0.881c0.16-0.342,0.56-1.023,1.079-1.023c0.36,0,0.6,0.088,0.85,0.253L51.143,170.104z"
		/>
	<path d="M52.248,168.046v-0.968h0.96v0.968H52.248z M52.278,174.195v-5.027h0.899v5.027H52.278z"/>
	<path d="M55.936,174.339c-0.53,0-1.2-0.132-1.67-0.341l0.311-0.814c0.529,0.23,0.839,0.385,1.379,0.385
		c0.68,0,0.869-0.285,0.869-0.726c0-0.451-0.479-0.605-1.029-0.804c-0.689-0.242-1.469-0.539-1.469-1.551
		c0-1.133,0.939-1.463,1.829-1.463c0.439,0,0.89,0.099,1.519,0.33l-0.319,0.824c-0.46-0.23-0.74-0.385-1.22-0.385
		c-0.539,0-0.89,0.176-0.89,0.66c0,0.374,0.39,0.518,0.86,0.682c0.729,0.254,1.639,0.518,1.639,1.695
		C57.744,173.932,56.854,174.339,55.936,174.339z"/>
	<path d="M60.879,175.087c-1.05-0.286-1.819-1.013-1.819-2.134v-3.025H58.32v-0.771h0.739v-1.31h0.899v1.31h1.06v0.771h-1.06v3.047
		c0,0.682,0.48,1.057,1.229,1.221L60.879,175.087z"/>
	<path d="M62.706,172.062c0.06,0.935,0.42,1.529,1.209,1.529c0.46,0,0.909-0.165,1.39-0.429l0.29,0.77
		c-0.54,0.275-1.16,0.396-1.76,0.396c-1.429,0-2.078-1.199-2.078-2.597c0-1.166,0.43-2.695,2.028-2.695
		c1.619,0,2.059,1.122,2.059,3.025H62.706z M63.795,169.795c-0.539,0-1.049,0.43-1.099,1.529h2.278
		C64.944,170.246,64.524,169.795,63.795,169.795z"/>
	<path d="M69.828,174.195v-3.18c0-0.637-0.08-1.221-0.86-1.221c-0.529,0-0.899,0.539-1.089,1.002v3.398h-0.89v-3.96
		c0-0.418-0.08-0.693-0.11-1.067h0.81l0.16,0.704c0.18-0.231,0.569-0.847,1.249-0.847c1.279,0,1.619,0.847,1.619,2.002v3.168H69.828
		z"/>
	<path d="M74.618,168.046v-0.968h0.96v0.968H74.618z M74.648,174.195v-5.027h0.899v5.027H74.648z"/>
	<path d="M79.754,174.195v-3.156c0-0.683-0.1-1.244-0.859-1.244c-0.55,0-0.909,0.562-1.089,1.002v3.398h-0.89v-7.228h0.89v2.904
		c0.17-0.297,0.59-0.847,1.229-0.847c1.279,0,1.608,0.88,1.608,1.969v3.201H79.754z"/>
	<path d="M84.468,170.104c-0.17-0.121-0.38-0.309-0.689-0.309c-0.56,0-0.77,0.902-0.89,1.211v3.189h-0.89v-3.905
		c0-0.495-0.08-0.869-0.11-1.122h0.81l0.16,0.881c0.16-0.342,0.56-1.023,1.079-1.023c0.36,0,0.6,0.088,0.85,0.253L84.468,170.104z"
		/>
	<path d="M86.313,172.062c0.06,0.935,0.42,1.529,1.209,1.529c0.46,0,0.909-0.165,1.39-0.429l0.29,0.77
		c-0.54,0.275-1.16,0.396-1.76,0.396c-1.429,0-2.078-1.199-2.078-2.597c0-1.166,0.43-2.695,2.028-2.695
		c1.619,0,2.059,1.122,2.059,3.025H86.313z M87.402,169.795c-0.539,0-1.049,0.43-1.099,1.529h2.278
		C88.552,170.246,88.132,169.795,87.402,169.795z"/>
	<path d="M93.436,174.195v-3.18c0-0.637-0.08-1.221-0.86-1.221c-0.529,0-0.899,0.539-1.089,1.002v3.398h-0.89v-3.96
		c0-0.418-0.08-0.693-0.11-1.067h0.81l0.16,0.704c0.18-0.231,0.569-0.847,1.249-0.847c1.279,0,1.619,0.847,1.619,2.002v3.168H93.436
		z"/>
	<path d="M101.135,174.395c-1.81,0-2.609-0.925-2.609-2.828v-4.488h1v4.379c0,1.705,0.609,2.09,1.609,2.09
		c0.949,0,1.479-0.539,1.479-2.09v-4.379h1v4.51C103.613,173.48,102.764,174.395,101.135,174.395z"/>
	<path d="M107.716,170.104c-0.17-0.121-0.38-0.309-0.689-0.309c-0.56,0-0.77,0.902-0.89,1.211v3.189h-0.89v-3.905
		c0-0.495-0.08-0.869-0.11-1.122h0.81l0.16,0.881c0.16-0.342,0.56-1.023,1.079-1.023c0.36,0,0.6,0.088,0.85,0.253L107.716,170.104z"
		/>
	<path d="M108.842,174.195v-7.228h0.89v7.228H108.842z"/>
	<path d="M113.978,174.195c0-0.043-0.15-0.494-0.16-0.55c-0.24,0.308-0.699,0.683-1.239,0.683c-1.04,0-1.719-0.473-1.719-1.453
		c0-1.022,0.529-1.781,2.479-1.781h0.409v-0.319c0-0.528-0.14-0.979-0.779-0.979c-0.63,0-1.169,0.209-1.609,0.44l-0.31-0.814
		c0.569-0.231,1.239-0.385,1.949-0.385c0.969,0,1.648,0.506,1.648,1.606v2.014c0,0.396,0.101,0.957,0.16,1.539H113.978z
		 M113.758,171.775h-0.28c-1.26,0-1.679,0.342-1.679,1.057c0,0.494,0.379,0.736,0.919,0.736c0.47,0,0.85-0.253,1.04-0.594V171.775z"
		/>
	<path d="M119.05,174.195l-0.159-0.703c-0.181,0.23-0.53,0.847-1.21,0.847c-1.219,0-1.589-0.847-1.589-2.003v-3.168h0.89v3.18
		c0,0.627,0.08,1.221,0.829,1.221c0.53,0,0.859-0.539,1.05-1.001v-3.399h0.89v3.961c0,0.418,0.08,0.693,0.109,1.066H119.05z"/>
	<path d="M123.095,174.328c-0.561,0-0.95-0.385-1.13-0.683l-0.16,0.55h-0.81c0.07-0.604,0.11-0.902,0.11-1.539v-5.688h0.89v2.904
		c0.239-0.385,0.649-0.836,1.229-0.836c1.359,0,1.858,1.222,1.858,2.618C125.083,173.096,124.453,174.328,123.095,174.328z
		 M123.104,169.795c-0.62,0-0.939,0.627-1.13,1.023v2.014c0.19,0.461,0.57,0.736,1,0.736c0.729,0,1.189-0.561,1.189-1.893
		C124.164,170.235,123.704,169.795,123.104,169.795z"/>
	<path d="M16.795,178.046v-0.968h0.96v0.968H16.795z M16.825,184.195v-5.027h0.899v5.027H16.825z"/>
	<path d="M24.739,184.195v-3.189c0-0.748-0.18-1.211-0.829-1.211c-0.56,0-0.96,0.551-1.13,1.057v3.344h-0.889v-3.189
		c0-0.881-0.271-1.211-0.85-1.211c-0.51,0-0.92,0.616-1.06,0.99v3.41h-0.89v-3.872c0-0.418-0.08-0.781-0.11-1.155h0.81l0.17,0.715
		c0.181-0.285,0.65-0.857,1.229-0.857c0.8,0,1.13,0.33,1.439,0.912c0.26-0.461,0.739-0.912,1.399-0.912
		c1.06,0,1.599,0.615,1.599,1.958v3.212H24.739z"/>
	<path d="M32.008,181.303h-1.18v2.893h-1v-7.117h2.069c1.319,0,2.229,0.517,2.229,2.079
		C34.126,180.697,33.307,181.303,32.008,181.303z M31.878,177.925h-1.05v2.53h1.1c0.709,0,1.179-0.285,1.179-1.298
		C33.106,178.102,32.567,177.925,31.878,177.925z"/>
	<path d="M37.23,184.339c-1.59,0-2.139-1.232-2.139-2.685c0-1.387,0.56-2.629,2.139-2.629c1.589,0,2.129,1.177,2.129,2.629
		S38.81,184.339,37.23,184.339z M37.23,179.795c-0.84,0-1.22,0.627-1.22,1.859c0,1.166,0.32,1.914,1.22,1.914
		c0.869,0,1.209-0.693,1.209-1.914C38.439,180.422,38.12,179.795,37.23,179.795z"/>
	<path d="M43.322,184.195v-3.18c0-0.637-0.079-1.221-0.859-1.221c-0.529,0-0.899,0.539-1.089,1.002v3.398h-0.89v-3.96
		c0-0.418-0.08-0.693-0.11-1.067h0.81l0.16,0.704c0.18-0.231,0.569-0.847,1.249-0.847c1.279,0,1.619,0.847,1.619,2.002v3.168H43.322
		z"/>
	<path d="M49.535,179.719h-0.6c0.21,0.197,0.5,0.67,0.5,1.199c0,0.891-0.45,1.914-1.97,1.914c-0.209,0-0.77-0.088-0.979-0.209
		c-0.119,0.121-0.229,0.23-0.229,0.429c0,0.264,0.22,0.396,1.369,0.495c1.739,0.154,2.129,0.627,2.129,1.408
		c0,1.057-1.1,1.441-2.229,1.441c-1.709,0-2.259-0.562-2.259-1.408c0-0.594,0.56-0.881,0.85-0.99c-0.37-0.176-0.62-0.495-0.62-0.902
		c0-0.363,0.25-0.627,0.49-0.848c-0.13-0.176-0.49-0.594-0.49-1.33c0-0.584,0.28-1.882,1.949-1.882c0.34,0,0.55,0.044,0.77,0.11
		c0.37-0.033,1.09-0.1,1.569-0.121L49.535,179.719z M46.727,184.283c-0.34,0.121-0.529,0.418-0.529,0.672
		c0,0.439,0.529,0.727,1.329,0.727c0.959,0,1.299-0.254,1.299-0.727C48.825,184.625,48.376,184.361,46.727,184.283z M47.466,179.784
		c-0.629,0-1.039,0.396-1.039,1.155c0,0.748,0.38,1.155,1.05,1.155c0.779,0,1.029-0.605,1.029-1.199
		C48.506,180.191,48.176,179.784,47.466,179.784z"/>
	<path d="M53.659,184.195c0-0.043-0.15-0.494-0.16-0.55c-0.24,0.308-0.699,0.683-1.239,0.683c-1.04,0-1.719-0.473-1.719-1.453
		c0-1.022,0.529-1.781,2.479-1.781h0.409v-0.319c0-0.528-0.14-0.979-0.779-0.979c-0.63,0-1.169,0.209-1.609,0.44l-0.31-0.814
		c0.569-0.231,1.239-0.385,1.949-0.385c0.969,0,1.648,0.506,1.648,1.606v2.014c0,0.396,0.101,0.957,0.16,1.539H53.659z
		 M53.439,181.775h-0.28c-1.26,0-1.679,0.342-1.679,1.057c0,0.494,0.379,0.736,0.919,0.736c0.47,0,0.85-0.253,1.04-0.594V181.775z"
		/>
	<path d="M58.731,184.195l-0.159-0.703c-0.181,0.23-0.53,0.847-1.21,0.847c-1.219,0-1.589-0.847-1.589-2.003v-3.168h0.89v3.18
		c0,0.627,0.08,1.221,0.829,1.221c0.53,0,0.859-0.539,1.05-1.001v-3.399h0.89v3.961c0,0.418,0.08,0.693,0.109,1.066H58.731z"/>
	<path d="M67.321,179.719h-0.6c0.21,0.197,0.5,0.67,0.5,1.199c0,0.891-0.45,1.914-1.97,1.914c-0.209,0-0.77-0.088-0.979-0.209
		c-0.12,0.121-0.23,0.23-0.23,0.429c0,0.264,0.22,0.396,1.369,0.495c1.739,0.154,2.129,0.627,2.129,1.408
		c0,1.057-1.1,1.441-2.229,1.441c-1.709,0-2.259-0.562-2.259-1.408c0-0.594,0.56-0.881,0.85-0.99c-0.37-0.176-0.62-0.495-0.62-0.902
		c0-0.363,0.25-0.627,0.49-0.848c-0.13-0.176-0.49-0.594-0.49-1.33c0-0.584,0.28-1.882,1.949-1.882c0.34,0,0.55,0.044,0.77,0.11
		c0.37-0.033,1.09-0.1,1.569-0.121L67.321,179.719z M64.513,184.283c-0.34,0.121-0.529,0.418-0.529,0.672
		c0,0.439,0.529,0.727,1.329,0.727c0.959,0,1.299-0.254,1.299-0.727C66.611,184.625,66.162,184.361,64.513,184.283z M65.252,179.784
		c-0.629,0-1.039,0.396-1.039,1.155c0,0.748,0.38,1.155,1.05,1.155c0.779,0,1.029-0.605,1.029-1.199
		C66.292,180.191,65.962,179.784,65.252,179.784z"/>
	<path d="M69.276,182.062c0.06,0.935,0.42,1.529,1.209,1.529c0.46,0,0.909-0.165,1.39-0.429l0.29,0.77
		c-0.54,0.275-1.16,0.396-1.76,0.396c-1.429,0-2.078-1.199-2.078-2.597c0-1.166,0.43-2.695,2.028-2.695
		c1.619,0,2.059,1.122,2.059,3.025H69.276z M70.365,179.795c-0.539,0-1.049,0.43-1.099,1.529h2.278
		C71.515,180.246,71.095,179.795,70.365,179.795z"/>
	<path d="M75.549,184.328c-0.561,0-0.95-0.385-1.13-0.683l-0.16,0.55h-0.81c0.07-0.604,0.11-0.902,0.11-1.539v-5.688h0.89v2.904
		c0.239-0.385,0.649-0.836,1.229-0.836c1.358,0,1.858,1.222,1.858,2.618C77.537,183.096,76.907,184.328,75.549,184.328z
		 M75.559,179.795c-0.62,0-0.939,0.627-1.13,1.023v2.014c0.19,0.461,0.57,0.736,1,0.736c0.729,0,1.189-0.561,1.189-1.893
		C76.618,180.235,76.158,179.795,75.559,179.795z"/>
	<path d="M81.621,184.195l-0.159-0.703c-0.181,0.23-0.53,0.847-1.21,0.847c-1.219,0-1.589-0.847-1.589-2.003v-3.168h0.89v3.18
		c0,0.627,0.08,1.221,0.829,1.221c0.53,0,0.859-0.539,1.05-1.001v-3.399h0.89v3.961c0,0.418,0.08,0.693,0.109,1.066H81.621z"/>
	<path d="M85.586,184.328c-1.449,0-2.139-1.067-2.139-2.607c0-1.629,0.669-2.685,2.168-2.685c0.41,0,1.17,0.198,1.5,0.341
		l-0.311,0.814c-0.34-0.188-0.859-0.396-1.199-0.396c-0.89,0-1.239,0.639-1.239,1.926c0,1.177,0.39,1.848,1.229,1.848
		c0.31,0,0.85-0.176,1.239-0.396l0.31,0.813C86.795,184.174,85.936,184.328,85.586,184.328z"/>
	<path d="M91.02,184.195v-3.156c0-0.683-0.101-1.244-0.86-1.244c-0.55,0-0.909,0.562-1.089,1.002v3.398h-0.89v-7.228h0.89v2.904
		c0.17-0.297,0.59-0.847,1.229-0.847c1.279,0,1.608,0.88,1.608,1.969v3.201H91.02z"/>
	<path d="M95.272,185.087c-1.05-0.286-1.819-1.013-1.819-2.134v-3.025h-0.739v-0.771h0.739v-1.31h0.899v1.31h1.06v0.771h-1.06v3.047
		c0,0.682,0.48,1.057,1.229,1.221L95.272,185.087z"/>
	<path d="M101.785,184.195v-3.156c0-0.683-0.101-1.244-0.86-1.244c-0.55,0-0.909,0.562-1.089,1.002v3.398h-0.89v-7.228h0.89v2.904
		c0.17-0.297,0.59-0.847,1.229-0.847c1.279,0,1.608,0.88,1.608,1.969v3.201H101.785z"/>
	<path d="M106.918,184.195c0-0.043-0.15-0.494-0.16-0.55c-0.24,0.308-0.699,0.683-1.239,0.683c-1.04,0-1.719-0.473-1.719-1.453
		c0-1.022,0.529-1.781,2.479-1.781h0.409v-0.319c0-0.528-0.14-0.979-0.779-0.979c-0.63,0-1.169,0.209-1.609,0.44l-0.31-0.814
		c0.569-0.231,1.239-0.385,1.949-0.385c0.969,0,1.648,0.506,1.648,1.606v2.014c0,0.396,0.101,0.957,0.16,1.539H106.918z
		 M106.698,181.775h-0.28c-1.26,0-1.679,0.342-1.679,1.057c0,0.494,0.379,0.736,0.919,0.736c0.47,0,0.85-0.253,1.04-0.594V181.775z"
		/>
	<path d="M111.021,184.328c-0.561,0-0.95-0.385-1.13-0.683l-0.16,0.55h-0.81c0.07-0.604,0.11-0.902,0.11-1.539v-5.688h0.89v2.904
		c0.239-0.385,0.649-0.836,1.229-0.836c1.358,0,1.858,1.222,1.858,2.618C113.01,183.096,112.38,184.328,111.021,184.328z
		 M111.031,179.795c-0.62,0-0.939,0.627-1.13,1.023v2.014c0.19,0.461,0.57,0.736,1,0.736c0.729,0,1.189-0.561,1.189-1.893
		C112.091,180.235,111.631,179.795,111.031,179.795z"/>
	<path d="M114.855,182.062c0.06,0.935,0.42,1.529,1.209,1.529c0.46,0,0.91-0.165,1.39-0.429l0.29,0.77
		c-0.54,0.275-1.16,0.396-1.76,0.396c-1.429,0-2.078-1.199-2.078-2.597c0-1.166,0.43-2.695,2.028-2.695
		c1.619,0,2.059,1.122,2.059,3.025H114.855z M115.944,179.795c-0.539,0-1.049,0.43-1.099,1.529h2.278
		C117.094,180.246,116.674,179.795,115.944,179.795z"/>
	<path d="M121.977,184.195v-3.18c0-0.637-0.079-1.221-0.859-1.221c-0.529,0-0.899,0.539-1.089,1.002v3.398h-0.89v-3.96
		c0-0.418-0.08-0.693-0.11-1.067h0.81l0.16,0.704c0.18-0.231,0.569-0.847,1.249-0.847c1.279,0,1.619,0.847,1.619,2.002v3.168
		H121.977z"/>
	<path d="M124.332,184.195v-1.056h0.989v1.056H124.332z"/>
</g>
<g>
	<path d="M20.481,24.296c-2.688,0-3.98-1.361-3.98-4.13v-6.53h1.831v6.37c0,2.321,0.973,2.737,2.149,2.737
		c1.147,0,1.961-0.688,1.961-2.737v-6.37h1.83v6.562C24.272,22.952,22.907,24.296,20.481,24.296z"/>
	<path d="M32.103,23.992l-2.861-4.306h-0.407v4.306h-1.83V13.636h3.516c1.496,0,3.182,0.544,3.182,2.993
		c0,1.393-0.566,2.689-2.324,2.993l2.963,4.37H32.103z M30.592,15.188h-1.758v2.945h1.772c0.843,0,1.235-0.64,1.235-1.504
		C31.842,15.765,31.449,15.188,30.592,15.188z"/>
	<path d="M36.33,23.992V13.636h1.83v8.755h3.908v1.601H36.33z"/>
	<path d="M49.607,23.992l-0.843-2.769h-3.355l-0.886,2.769h-1.947l3.82-10.356h1.686l3.545,10.356H49.607z M47.152,15.877
		l-1.234,3.826H48.3L47.152,15.877z"/>
	<path d="M57.394,24.296c-2.688,0-3.98-1.361-3.98-4.13v-6.53h1.831v6.37c0,2.321,0.973,2.737,2.149,2.737
		c1.147,0,1.961-0.688,1.961-2.737v-6.37h1.83v6.562C61.185,22.952,59.819,24.296,57.394,24.296z"/>
	<path d="M67.723,23.992h-3.807V13.636h3.327c1.757,0,3.166,0.624,3.166,2.849c0,1.088-0.639,1.809-1.496,2.081
		c1.162,0.176,1.933,0.944,1.933,2.401C70.846,23.336,69.378,23.992,67.723,23.992z M67.243,15.188h-1.497v2.705h1.7
		c0.639,0,1.104-0.464,1.104-1.393C68.55,15.813,68.26,15.188,67.243,15.188z M67.476,19.43h-1.729v3.009h1.889
		c0.712,0,1.337-0.336,1.337-1.473C68.972,19.798,68.303,19.43,67.476,19.43z"/>
	<path d="M72.995,23.992V13.636h5.578v1.552h-3.747v2.673h3.442v1.553h-3.442v3.025h3.878v1.553H72.995z"/>
	<path d="M86.533,23.992l-2.861-4.306h-0.406v4.306h-1.831V13.636h3.516c1.496,0,3.182,0.544,3.182,2.993
		c0,1.393-0.567,2.689-2.324,2.993l2.963,4.37H86.533z M85.022,15.188h-1.757v2.945h1.771c0.843,0,1.235-0.64,1.235-1.504
		C86.272,15.765,85.88,15.188,85.022,15.188z"/>
	<path d="M98.488,23.992h-3.806V13.636h3.327c1.758,0,3.166,0.624,3.166,2.849c0,1.088-0.639,1.809-1.496,2.081
		c1.162,0.176,1.933,0.944,1.933,2.401C101.612,23.336,100.145,23.992,98.488,23.992z M98.01,15.188h-1.496v2.705h1.699
		c0.639,0,1.104-0.464,1.104-1.393C99.316,15.813,99.026,15.188,98.01,15.188z M98.242,19.43h-1.729v3.009h1.888
		c0.712,0,1.337-0.336,1.337-1.473C99.738,19.798,99.07,19.43,98.242,19.43z"/>
	<path d="M107.742,24.296c-2.688,0-3.98-1.361-3.98-4.13v-6.53h1.83v6.37c0,2.321,0.974,2.737,2.15,2.737
		c1.147,0,1.961-0.688,1.961-2.737v-6.37h1.83v6.562C111.533,22.952,110.168,24.296,107.742,24.296z"/>
	<path d="M118.085,24.296c-3.166,0-4.328-2.209-4.328-5.474c0-2.881,1.046-5.395,4.387-5.395c0.813,0,1.772,0.16,2.483,0.417
		l-0.566,1.697c-0.609-0.289-1.22-0.561-1.917-0.561c-1.845,0-2.499,1.425-2.499,3.826c0,2.545,0.625,3.938,2.412,3.938
		c0.784,0,1.351-0.304,2.105-0.64l0.567,1.697C119.901,24.12,119.146,24.296,118.085,24.296z"/>
	<path d="M128.108,23.992V19.43h-3.661v4.562h-1.83V13.636h1.83v4.226h3.661v-4.226h1.83v10.356H128.108z"/>
	<path d="M132.669,23.992V13.636h5.578v1.552H134.5v2.673h3.442v1.553H134.5v3.025h3.878v1.553H132.669z"/>
	<path d="M146.193,23.992l-3.342-7.971v7.971h-1.743V13.636h2.717l3.312,7.971v-7.971h1.802v10.356H146.193z"/>
	<path d="M164.496,23.992v-8.211l-2.645,8.211h-1.873l-2.645-8.211v8.211h-1.743V13.636h3.007l2.383,7.651l2.44-7.651h2.876v10.356
		H164.496z"/>
	<path d="M169.027,23.992V13.636h5.578v1.552h-3.748v2.673h3.443v1.553h-3.443v3.025h3.879v1.553H169.027z"/>
	<path d="M177.293,23.992V13.636h1.83v10.356H177.293z"/>
	<path d="M184.062,24.296c-0.813,0-2.02-0.256-2.818-0.496l0.566-1.697c0.697,0.288,1.496,0.64,2.267,0.64
		c1.177,0,2.004-0.24,2.004-1.409c0-1.104-1.133-1.473-2.31-1.969c-1.249-0.528-2.527-1.216-2.527-3.089
		c0-2.049,1.918-2.849,3.646-2.849c0.639,0,1.873,0.16,2.644,0.448l-0.566,1.697c-0.538-0.256-1.221-0.592-2.121-0.592
		c-1.365,0-1.743,0.688-1.743,1.296c0,0.833,0.886,1.137,1.889,1.537c1.351,0.528,2.948,1.217,2.948,3.49
		C187.94,23.8,185.994,24.296,184.062,24.296z"/>
	<path d="M193.679,15.205v8.788h-1.83v-8.788h-2.586v-1.568h7.002v1.568H193.679z"/>
	<path d="M205.328,19.942h-1.627v4.05h-1.83V13.636h3.298c1.917,0,3.326,0.736,3.326,3.105
		C208.495,19.094,207.217,19.942,205.328,19.942z M205.14,15.188h-1.438v3.202h1.512c0.784,0,1.423-0.368,1.423-1.649
		C206.636,15.317,205.881,15.188,205.14,15.188z"/>
	<path d="M210.587,23.992V13.636h5.578v1.552h-3.747v2.673h3.442v1.553h-3.442v3.025h3.878v1.553H210.587z"/>
	<path d="M224.125,23.992l-2.861-4.306h-0.406v4.306h-1.831V13.636h3.516c1.496,0,3.182,0.544,3.182,2.993
		c0,1.393-0.567,2.689-2.324,2.993l2.963,4.37H224.125z M222.614,15.188h-1.757v2.945h1.771c0.843,0,1.235-0.64,1.235-1.504
		C223.864,15.765,223.472,15.188,222.614,15.188z"/>
	<path d="M235.645,15.205v8.788h-1.83v-8.788h-2.586v-1.568h7.002v1.568H235.645z"/>
	<path d="M239.915,23.992V13.636h5.578v1.552h-3.747v2.673h3.442v1.553h-3.442v3.025h3.878v1.553H239.915z"/>
	<path d="M248.354,23.992V13.636h1.831v8.755h3.907v1.601H248.354z"/>
	<path d="M255.545,23.992V13.636h5.578v1.552h-3.748v2.673h3.443v1.553h-3.443v3.025h3.879v1.553H255.545z"/>
	<path d="M265.814,15.205v2.721h3.574v1.537h-3.574v4.53h-1.83V13.636h5.578v1.568H265.814z"/>
	<path d="M275.605,24.296c-3.384,0-4.43-2.337-4.43-5.442c0-3.041,1.162-5.426,4.444-5.426c3.239,0,4.373,2.241,4.373,5.426
		C279.993,21.927,278.874,24.296,275.605,24.296z M275.605,14.98c-1.729,0-2.542,1.152-2.542,3.874c0,2.849,0.8,3.89,2.542,3.89
		c1.802,0,2.499-1.312,2.499-3.89C278.104,16.101,277.306,14.98,275.605,14.98z"/>
	<path d="M287.299,23.992l-3.341-7.971v7.971h-1.743V13.636h2.717l3.312,7.971v-7.971h1.802v10.356H287.299z"/>
	<path d="M19.33,38.216c-2.605,0-3.368-2.031-3.368-4.721s0.877-4.707,3.381-4.707c2.58,0,3.317,2.017,3.317,4.707
		S21.809,38.216,19.33,38.216z M19.33,29.308c-2.187,0-2.758,1.779-2.758,4.188c0,2.354,0.571,4.203,2.758,4.203
		s2.721-1.849,2.721-4.203C22.051,31.086,21.517,29.308,19.33,29.308z"/>
	<path d="M28.012,37.992V34.07c0-1.163-0.204-2.157-1.475-2.157c-0.839,0-1.437,0.854-1.614,1.429v4.65h-0.521v-5.043
		c0-0.532-0.076-0.826-0.102-1.358h0.42l0.165,1.008c0.216-0.308,0.687-1.148,1.729-1.148c1.449,0,1.919,1.037,1.919,2.507v4.034
		H28.012z"/>
	<path d="M30.362,37.992v-9.203h0.521v9.203H30.362z"/>
	<path d="M32.688,29.882v-0.953h0.61v0.953H32.688z M32.739,37.992v-6.401h0.521v6.401H32.739z"/>
	<path d="M38.714,37.992V34.07c0-1.163-0.204-2.157-1.475-2.157c-0.839,0-1.437,0.854-1.614,1.429v4.65h-0.521v-5.043
		c0-0.532-0.076-0.826-0.102-1.358h0.42l0.165,1.008c0.216-0.308,0.687-1.148,1.729-1.148c1.449,0,1.919,1.037,1.919,2.507v4.034
		H38.714z"/>
	<path d="M41.344,34.924c0,1.527,0.42,2.746,1.844,2.746c0.674,0,1.194-0.224,1.792-0.574l0.152,0.518
		c-0.661,0.351-1.36,0.519-2.046,0.519c-1.69,0-2.313-1.499-2.313-3.278c0-1.485,0.521-3.404,2.288-3.404
		c1.881,0,2.287,1.569,2.287,3.474H41.344z M43.061,31.913c-1.119,0-1.652,1.008-1.729,2.549h3.509
		C44.84,32.781,44.331,31.913,43.061,31.913z"/>
	<path d="M46.39,34.742v-0.56h3.241v0.56H46.39z"/>
	<path d="M53.597,37.992h-2.312v-9.063h1.894c1.64,0,2.771,0.364,2.771,2.312c0,0.952-0.546,1.667-1.309,2.003
		c1.017,0.266,1.69,0.98,1.69,2.213C56.33,37.53,55.122,37.992,53.597,37.992z M53.178,29.448h-1.31v3.628h1.487
		c1.08,0,1.983-0.49,1.983-1.821C55.339,29.658,54.602,29.448,53.178,29.448z M53.381,33.58h-1.513v3.895h1.652
		c1.31,0,2.187-0.266,2.187-2.017C55.707,33.846,54.652,33.58,53.381,33.58z"/>
	<path d="M61.732,37.992l-0.166-1.009c-0.216,0.309-0.609,1.149-1.741,1.149c-1.385,0-1.817-1.037-1.817-2.507v-4.034h0.521v3.922
		c0,1.163,0.19,2.157,1.437,2.157c0.839,0,1.385-0.854,1.562-1.429v-4.65h0.521v5.042c0,0.532,0.076,0.827,0.102,1.359H61.732z"/>
	<path d="M66.003,38.132c-1.716,0-2.415-1.331-2.415-3.292c0-2.073,0.687-3.39,2.453-3.39c0.521,0,1.245,0.224,1.665,0.406
		l-0.19,0.504c-0.433-0.238-1.056-0.448-1.487-0.448c-1.449,0-1.882,1.289-1.882,2.927c0,1.499,0.395,2.83,1.869,2.83
		c0.394,0,1.029-0.168,1.525-0.448l0.19,0.504C67.286,37.964,66.447,38.132,66.003,38.132z"/>
	<path d="M72.765,37.992v-3.838c0-1.331-0.255-2.241-1.462-2.241c-0.902,0-1.525,0.952-1.64,1.442v4.637h-0.509v-9.203h0.521v3.81
		c0.267-0.56,0.94-1.148,1.716-1.148c1.487,0,1.894,1.177,1.894,2.395v4.146H72.765z"/>
	<path d="M78.84,37.992l-0.166-1.009c-0.216,0.309-0.609,1.149-1.741,1.149c-1.385,0-1.817-1.037-1.817-2.507v-4.034h0.521v3.922
		c0,1.163,0.19,2.157,1.437,2.157c0.839,0,1.385-0.854,1.562-1.429v-4.65h0.521v5.042c0,0.532,0.076,0.827,0.102,1.359H78.84z"/>
	<path d="M84.598,37.992V34.07c0-1.163-0.204-2.157-1.475-2.157c-0.839,0-1.437,0.854-1.614,1.429v4.65h-0.521v-5.043
		c0-0.532-0.076-0.826-0.102-1.358h0.42l0.165,1.008c0.216-0.308,0.687-1.148,1.729-1.148c1.449,0,1.919,1.037,1.919,2.507v4.034
		H84.598z"/>
	<path d="M89.097,40.751c-1.882,0-2.567-0.672-2.567-1.75c0-0.812,0.775-1.275,1.271-1.401c-0.406-0.182-0.813-0.49-0.813-1.009
		c0-0.462,0.268-0.728,0.509-0.995c-0.19-0.238-0.674-0.728-0.674-1.807c0-0.743,0.394-2.339,2.174-2.339
		c0.432,0,0.763,0.07,0.966,0.182c0.47-0.042,0.979-0.112,1.589-0.14l-0.19,0.504h-0.891c0.344,0.266,0.737,0.938,0.737,1.751
		c0,1.232-0.571,2.437-2.186,2.437c-0.382,0-0.992-0.168-1.195-0.322c-0.178,0.21-0.33,0.42-0.33,0.686
		c0,0.406,0.241,0.616,1.729,0.798c1.932,0.224,2.39,0.883,2.39,1.597C91.613,40.164,90.481,40.751,89.097,40.751z M88.296,37.768
		c-0.813,0.182-1.208,0.742-1.208,1.233c0,0.742,0.509,1.289,2.009,1.289c1.359,0,1.957-0.561,1.957-1.345
		C91.054,38.146,90.215,37.95,88.296,37.768z M89.021,31.913c-1.246,0-1.64,0.994-1.64,1.905c0,1.022,0.457,1.905,1.652,1.905
		c1.194,0,1.614-0.883,1.614-1.947C90.647,32.585,90.062,31.913,89.021,31.913z"/>
	<path d="M93.214,34.924c0,1.527,0.42,2.746,1.844,2.746c0.674,0,1.194-0.224,1.792-0.574l0.152,0.518
		c-0.661,0.351-1.36,0.519-2.046,0.519c-1.69,0-2.313-1.499-2.313-3.278c0-1.485,0.521-3.404,2.288-3.404
		c1.881,0,2.287,1.569,2.287,3.474H93.214z M94.931,31.913c-1.119,0-1.652,1.008-1.729,2.549h3.509
		C96.71,32.781,96.201,31.913,94.931,31.913z"/>
	<path d="M102.404,37.992V34.07c0-1.163-0.204-2.157-1.475-2.157c-0.839,0-1.437,0.854-1.614,1.429v4.65h-0.521v-5.043
		c0-0.532-0.076-0.826-0.102-1.358h0.42l0.165,1.008c0.216-0.308,0.687-1.148,1.729-1.148c1.449,0,1.919,1.037,1.919,2.507v4.034
		H102.404z"/>
	<path d="M111.314,37.992c-0.013-0.154-0.179-0.588-0.204-0.812c-0.292,0.532-0.89,0.953-1.69,0.953
		c-1.017,0-2.033-0.532-2.033-1.821c0-1.303,0.61-2.144,3.076-2.144h0.597V33.58c0-1.05-0.368-1.667-1.334-1.667
		c-0.801,0-1.348,0.252-1.895,0.546l-0.19-0.504c0.623-0.266,1.208-0.504,2.072-0.504c1.144,0,1.868,0.658,1.868,2.059v2.521
		c0,0.504,0.076,1.148,0.152,1.961H111.314z M111.072,34.645h-0.432c-2.06,0-2.695,0.476-2.695,1.653
		c0,0.812,0.509,1.373,1.475,1.373c0.75,0,1.373-0.406,1.652-1.022V34.645z"/>
	<path d="M115.687,38.132c-0.699,0-1.398-0.448-1.716-0.953l-0.165,0.812h-0.42c0.076-0.812,0.102-1.148,0.102-1.961v-7.242h0.521
		v3.81c0.241-0.476,0.877-1.148,1.741-1.148c1.589,0,2.187,1.527,2.187,3.306C117.937,36.591,117.339,38.132,115.687,38.132z
		 M115.712,31.913c-1.119,0-1.614,1.121-1.729,1.442v3.25c0.381,0.687,0.94,1.064,1.576,1.064c1.347,0,1.817-1.19,1.817-2.885
		C117.377,32.768,116.69,31.913,115.712,31.913z"/>
	<path d="M121.622,40.751c-1.882,0-2.567-0.672-2.567-1.75c0-0.812,0.775-1.275,1.271-1.401c-0.406-0.182-0.813-0.49-0.813-1.009
		c0-0.462,0.268-0.728,0.509-0.995c-0.19-0.238-0.674-0.728-0.674-1.807c0-0.743,0.394-2.339,2.174-2.339
		c0.432,0,0.763,0.07,0.966,0.182c0.47-0.042,0.979-0.112,1.589-0.14l-0.19,0.504h-0.891c0.344,0.266,0.737,0.938,0.737,1.751
		c0,1.232-0.571,2.437-2.186,2.437c-0.382,0-0.992-0.168-1.195-0.322c-0.178,0.21-0.33,0.42-0.33,0.686
		c0,0.406,0.241,0.616,1.729,0.798c1.932,0.224,2.39,0.883,2.39,1.597C124.139,40.164,123.007,40.751,121.622,40.751z
		 M120.821,37.768c-0.813,0.182-1.208,0.742-1.208,1.233c0,0.742,0.509,1.289,2.009,1.289c1.359,0,1.957-0.561,1.957-1.345
		C123.579,38.146,122.74,37.95,120.821,37.768z M121.546,31.913c-1.246,0-1.64,0.994-1.64,1.905c0,1.022,0.457,1.905,1.652,1.905
		c1.194,0,1.614-0.883,1.614-1.947C123.173,32.585,122.588,31.913,121.546,31.913z"/>
	<path d="M125.739,34.924c0,1.527,0.42,2.746,1.844,2.746c0.674,0,1.194-0.224,1.792-0.574l0.152,0.518
		c-0.661,0.351-1.36,0.519-2.046,0.519c-1.69,0-2.313-1.499-2.313-3.278c0-1.485,0.521-3.404,2.288-3.404
		c1.881,0,2.287,1.569,2.287,3.474H125.739z M127.456,31.913c-1.119,0-1.652,1.008-1.729,2.549h3.509
		C129.235,32.781,128.727,31.913,127.456,31.913z"/>
	<path d="M132.845,38.132c-0.674,0-1.36-0.112-1.868-0.392l0.19-0.504c0.737,0.35,1.004,0.434,1.729,0.434
		c0.801,0,1.36-0.462,1.36-1.373c0-0.896-0.725-1.135-1.513-1.401c-0.877-0.294-1.779-0.645-1.779-1.709
		c0-1.261,0.928-1.737,2.109-1.737c0.496,0,0.94,0.154,1.64,0.42l-0.19,0.504c-0.56-0.266-0.864-0.462-1.563-0.462
		c-0.763,0-1.437,0.308-1.437,1.232c0,0.714,0.623,0.938,1.335,1.177c0.928,0.308,1.957,0.602,1.957,1.961
		C134.814,37.502,133.938,38.132,132.845,38.132z"/>
	<path d="M138.476,38.132c-1.716,0-2.415-1.331-2.415-3.292c0-2.073,0.687-3.39,2.453-3.39c0.521,0,1.245,0.224,1.665,0.406
		l-0.19,0.504c-0.433-0.238-1.056-0.448-1.487-0.448c-1.449,0-1.882,1.289-1.882,2.927c0,1.499,0.395,2.83,1.869,2.83
		c0.394,0,1.029-0.168,1.525-0.448l0.19,0.504C139.759,37.964,138.92,38.132,138.476,38.132z"/>
	<path d="M145.237,37.992v-3.838c0-1.331-0.255-2.241-1.462-2.241c-0.902,0-1.525,0.952-1.64,1.442v4.637h-0.509v-9.203h0.521v3.81
		c0.267-0.56,0.94-1.148,1.716-1.148c1.487,0,1.894,1.177,1.894,2.395v4.146H145.237z"/>
	<path d="M147.588,37.992v-9.203h0.521v9.203H147.588z"/>
	<path d="M153.575,37.992c-0.013-0.154-0.179-0.588-0.204-0.812c-0.292,0.532-0.89,0.953-1.69,0.953
		c-1.017,0-2.033-0.532-2.033-1.821c0-1.303,0.61-2.144,3.076-2.144h0.597V33.58c0-1.05-0.368-1.667-1.334-1.667
		c-0.801,0-1.348,0.252-1.895,0.546l-0.19-0.504c0.623-0.266,1.208-0.504,2.072-0.504c1.144,0,1.868,0.658,1.868,2.059v2.521
		c0,0.504,0.076,1.148,0.152,1.961H153.575z M153.333,34.645h-0.432c-2.06,0-2.695,0.476-2.695,1.653
		c0,0.812,0.509,1.373,1.475,1.373c0.75,0,1.373-0.406,1.652-1.022V34.645z"/>
	<path d="M157.896,40.751c-1.882,0-2.567-0.672-2.567-1.75c0-0.812,0.775-1.275,1.271-1.401c-0.406-0.182-0.813-0.49-0.813-1.009
		c0-0.462,0.267-0.728,0.509-0.995c-0.19-0.238-0.674-0.728-0.674-1.807c0-0.743,0.394-2.339,2.174-2.339
		c0.432,0,0.763,0.07,0.966,0.182c0.47-0.042,0.979-0.112,1.589-0.14l-0.19,0.504h-0.891c0.344,0.266,0.737,0.938,0.737,1.751
		c0,1.232-0.571,2.437-2.186,2.437c-0.382,0-0.992-0.168-1.195-0.322c-0.178,0.21-0.33,0.42-0.33,0.686
		c0,0.406,0.241,0.616,1.729,0.798c1.932,0.224,2.39,0.883,2.39,1.597C160.413,40.164,159.281,40.751,157.896,40.751z
		 M157.096,37.768c-0.813,0.182-1.208,0.742-1.208,1.233c0,0.742,0.509,1.289,2.009,1.289c1.359,0,1.957-0.561,1.957-1.345
		C159.854,38.146,159.015,37.95,157.096,37.768z M157.82,31.913c-1.246,0-1.64,0.994-1.64,1.905c0,1.022,0.457,1.905,1.652,1.905
		c1.194,0,1.614-0.883,1.614-1.947C159.447,32.585,158.862,31.913,157.82,31.913z"/>
	<path d="M162.014,34.924c0,1.527,0.42,2.746,1.844,2.746c0.674,0,1.194-0.224,1.792-0.574l0.152,0.518
		c-0.661,0.351-1.36,0.519-2.046,0.519c-1.69,0-2.313-1.499-2.313-3.278c0-1.485,0.521-3.404,2.288-3.404
		c1.881,0,2.287,1.569,2.287,3.474H162.014z M163.73,31.913c-1.119,0-1.652,1.008-1.729,2.549h3.509
		C165.51,32.781,165.001,31.913,163.73,31.913z"/>
	<path d="M171.204,37.992V34.07c0-1.163-0.204-2.157-1.475-2.157c-0.839,0-1.437,0.854-1.614,1.429v4.65h-0.521v-5.043
		c0-0.532-0.076-0.826-0.102-1.358h0.42l0.165,1.008c0.216-0.308,0.687-1.148,1.729-1.148c1.449,0,1.919,1.037,1.919,2.507v4.034
		H171.204z"/>
</g>
<rect x="96.771" y="187.627" fill="#ABF4E9" width="167.597" height="6.059"/>
<rect x="134.074" y="187.627" fill="#45E5D3" width="30.972" height="6.059"/>
<rect x="165.046" y="187.627" fill="#0DAF9E" width="43.02" height="6.059"/>
<rect x="206.143" y="187.627" fill="#098274" width="58.221" height="6.059"/>
<g>
	<path d="M240.026,62.056v-6.344l-1.347,1.183l-0.448-1.183l1.842-1.56h1.441v7.904H240.026z"/>
	<path d="M246.128,62.264c-0.721,0-1.665-0.078-2.315-0.312l0.438-1.339c0.531,0.234,1.322,0.429,1.89,0.429
		c1.169,0,1.429-0.754,1.429-1.573c0-1.014-0.473-1.313-1.074-1.313c-0.744,0-1.099,0.299-1.465,0.533l-0.957-0.403v-4.134h4.666
		v1.222h-3.201v1.729c0.308-0.13,0.603-0.195,1.063-0.195c1.429,0,2.433,0.819,2.433,2.587
		C249.033,61.289,247.71,62.264,246.128,62.264z"/>
	<path d="M255.014,58.025c-1.299,0-1.688-0.923-1.688-2.327c0-1.391,0.496-2.236,1.701-2.236c1.299,0,1.712,0.845,1.712,2.236
		S256.325,58.025,255.014,58.025z M255.026,54.216c-0.65,0-0.744,0.637-0.744,1.482c0,1.014,0.082,1.573,0.731,1.573
		c0.639,0,0.769-0.611,0.769-1.573C255.782,54.71,255.664,54.216,255.026,54.216z M256.089,62.042h-1.146l4.275-8.177h1.157
		L256.089,62.042z M260.399,62.211c-1.299,0-1.688-0.923-1.688-2.327c0-1.391,0.496-2.236,1.7-2.236c1.3,0,1.701,0.845,1.701,2.236
		S261.711,62.211,260.399,62.211z M260.411,58.402c-0.649,0-0.744,0.637-0.744,1.482c0,1.014,0.083,1.573,0.732,1.573
		c0.638,0,0.768-0.611,0.768-1.573C261.167,58.896,261.049,58.402,260.411,58.402z"/>
	<path d="M237.549,72.838c-2.752,0-3.602-1.898-3.602-4.42c0-2.47,0.944-4.407,3.613-4.407c2.634,0,3.555,1.82,3.555,4.407
		C241.115,70.914,240.206,72.838,237.549,72.838z M237.549,65.271c-1.405,0-2.066,0.936-2.066,3.146
		c0,2.314,0.649,3.159,2.066,3.159c1.465,0,2.031-1.066,2.031-3.159C239.58,66.182,238.931,65.271,237.549,65.271z"/>
	<path d="M245.94,72.591v-3.809c0-0.585-0.048-1.183-0.839-1.183c-0.555,0-0.933,0.559-1.181,1.118v3.874h-1.335v-4.68
		c0-0.494-0.095-0.845-0.142-1.261h1.229l0.212,0.78c0.225-0.26,0.686-0.962,1.441-0.962c1.582,0,1.948,1.014,1.948,2.379v3.744
		H245.94z"/>
	<path d="M248.829,72.591v-8.542h1.335v8.542H248.829z"/>
	<path d="M251.697,65.454V64.18h1.405v1.274H251.697z M251.732,72.591v-5.941h1.335v5.941H251.732z"/>
	<path d="M257.99,72.591v-3.809c0-0.585-0.048-1.183-0.839-1.183c-0.555,0-0.933,0.559-1.181,1.118v3.874h-1.335v-4.68
		c0-0.494-0.095-0.845-0.142-1.261h1.229l0.213,0.78c0.224-0.26,0.685-0.962,1.44-0.962c1.583,0,1.948,1.014,1.948,2.379v3.744
		H257.99z"/>
	<path d="M262.013,70.186c0.106,0.949,0.556,1.482,1.3,1.482c0.508,0,1.121-0.195,1.688-0.507l0.437,1.131
		c-0.649,0.325-1.476,0.468-2.22,0.468c-1.748,0-2.61-1.43-2.61-3.081c0-1.378,0.567-3.198,2.562-3.198
		c1.878,0,2.552,1.222,2.552,3.705H262.013z M263.158,67.612c-0.437,0-1.098,0.286-1.146,1.521h2.421
		C264.375,68.001,263.855,67.612,263.158,67.612z"/>
</g>
<g>
	<ellipse fill="#78ECDE" cx="169.499" cy="109.898" rx="57.95" ry="59.148"/>
	<g>
		<path fill="#FF5346" d="M238.985,110.318c-0.053-28.129-16.12-52.357-39.382-63.779l-30.277,63.779H238.985z"/>
	</g>
	<path fill="#CF401F" d="M169.405,109.832l-0.01,0.012l81.265,22.932c3.889-14.461,3.883-29.144,0.625-42.838L169.405,109.832z"/>
</g>
<g>
	<path d="M72.823,107.467h-1.582l2.799-6.669h-3.649v-1.209h4.512l0.46,1.04L72.823,107.467z"/>
	<path d="M79.303,107.688c-1.512,0-2.716-0.494-2.716-2.236c0-1.157,0.638-1.872,1.724-2.145c-0.366-0.156-1.476-0.533-1.476-1.768
		c0-1.352,0.838-2.158,2.527-2.158c1.795,0,2.527,0.676,2.527,2.145c0,1.209-1.099,1.703-1.548,1.794
		c1.11,0.312,1.725,0.923,1.725,2.132C82.066,107.193,80.838,107.688,79.303,107.688z M79.338,103.892
		c-0.696,0.26-1.299,0.572-1.299,1.521c0,0.585,0.343,1.066,1.264,1.066c0.934,0,1.312-0.442,1.312-1.066
		C80.614,104.516,80.012,104.139,79.338,103.892z M79.362,100.589c-0.874,0-1.087,0.39-1.087,1.001c0,0.702,0.591,1.001,1.039,1.17
		c0.508-0.182,1.134-0.507,1.134-1.17C80.448,101.019,80.271,100.589,79.362,100.589z"/>
	<path d="M87.894,103.45c-1.299,0-1.688-0.923-1.688-2.327c0-1.391,0.496-2.236,1.701-2.236c1.299,0,1.712,0.845,1.712,2.236
		S89.205,103.45,87.894,103.45z M87.906,99.641c-0.65,0-0.744,0.637-0.744,1.482c0,1.014,0.082,1.573,0.731,1.573
		c0.638,0,0.769-0.611,0.769-1.573C88.662,100.135,88.544,99.641,87.906,99.641z M88.969,107.467h-1.146l4.275-8.177h1.157
		L88.969,107.467z M93.279,107.636c-1.299,0-1.688-0.923-1.688-2.327c0-1.391,0.496-2.236,1.7-2.236c1.3,0,1.701,0.845,1.701,2.236
		S94.591,107.636,93.279,107.636z M93.291,103.827c-0.649,0-0.744,0.637-0.744,1.482c0,1.014,0.083,1.573,0.732,1.573
		c0.638,0,0.768-0.611,0.768-1.573C94.047,104.321,93.929,103.827,93.291,103.827z"/>
	<path d="M68.027,110.878v7.138h-1.488v-7.138h-2.103v-1.274h5.692v1.274H68.027z"/>
	<path d="M71.283,115.609c0.106,0.949,0.556,1.482,1.299,1.482c0.509,0,1.122-0.195,1.689-0.507l0.437,1.132
		c-0.649,0.324-1.476,0.467-2.22,0.467c-1.748,0-2.61-1.43-2.61-3.08c0-1.379,0.567-3.199,2.562-3.199
		c1.878,0,2.552,1.223,2.552,3.705H71.283z M72.429,113.036c-0.437,0-1.098,0.286-1.146,1.521h2.421
		C73.646,113.426,73.126,113.036,72.429,113.036z"/>
	<path d="M76.299,118.016v-8.542h1.335v8.542H76.299z"/>
	<path d="M80.324,115.609c0.106,0.949,0.556,1.482,1.299,1.482c0.509,0,1.122-0.195,1.689-0.507l0.437,1.132
		c-0.649,0.324-1.476,0.467-2.22,0.467c-1.748,0-2.61-1.43-2.61-3.08c0-1.379,0.567-3.199,2.562-3.199
		c1.878,0,2.552,1.223,2.552,3.705H80.324z M81.47,113.036c-0.437,0-1.098,0.286-1.146,1.521h2.421
		C82.687,113.426,82.167,113.036,81.47,113.036z"/>
	<path d="M86.84,111.788v0.286h1.229v1.131H86.84v4.811h-1.334v-4.811H84.69v-1.131h0.815v-0.17c0-1.819,1.559-2.561,2.669-2.664
		l0.33,1.209C87.442,110.566,86.84,110.917,86.84,111.788z"/>
	<path d="M91.68,118.197c-1.948,0-2.669-1.469-2.669-3.186c0-1.65,0.732-3.119,2.669-3.119c1.961,0,2.657,1.391,2.657,3.119
		C94.337,116.715,93.617,118.197,91.68,118.197z M91.68,113.023c-0.851,0-1.299,0.533-1.299,1.988c0,1.34,0.401,2.055,1.299,2.055
		c0.827,0,1.287-0.611,1.287-2.055C92.967,113.557,92.577,113.023,91.68,113.023z"/>
	<path d="M98.975,118.016v-3.81c0-0.585-0.048-1.183-0.839-1.183c-0.555,0-0.933,0.559-1.181,1.117v3.875H95.62v-4.681
		c0-0.494-0.095-0.845-0.142-1.261h1.229l0.213,0.779c0.224-0.26,0.685-0.961,1.44-0.961c1.583,0,1.948,1.014,1.948,2.379v3.744
		H98.975z"/>
</g>
<g>
	<path d="M268.918,105.034h-1.582l2.799-6.669h-3.649v-1.209h4.512l0.46,1.04L268.918,105.034z"/>
	<path d="M277.615,101.017c-1.299,0-1.688-0.923-1.688-2.327c0-1.391,0.496-2.236,1.701-2.236c1.299,0,1.712,0.845,1.712,2.236
		S278.927,101.017,277.615,101.017z M277.628,97.208c-0.65,0-0.744,0.637-0.744,1.482c0,1.014,0.082,1.573,0.731,1.573
		c0.639,0,0.769-0.611,0.769-1.573C278.384,97.701,278.266,97.208,277.628,97.208z M278.69,105.034h-1.146l4.275-8.177h1.157
		L278.69,105.034z M283.001,105.203c-1.299,0-1.688-0.923-1.688-2.327c0-1.391,0.496-2.236,1.7-2.236c1.3,0,1.701,0.845,1.701,2.236
		S284.312,105.203,283.001,105.203z M283.013,101.394c-0.649,0-0.744,0.637-0.744,1.482c0,1.014,0.083,1.573,0.732,1.573
		c0.638,0,0.768-0.611,0.768-1.573C283.769,101.888,283.65,101.394,283.013,101.394z"/>
	<path d="M264.671,115.582l-2.327-3.497h-0.33v3.497h-1.488v-8.411h2.857c1.217,0,2.587,0.442,2.587,2.431
		c0,1.131-0.461,2.185-1.89,2.432l2.409,3.549H264.671z M263.442,108.432h-1.429v2.393h1.44c0.685,0,1.004-0.521,1.004-1.223
		C264.458,108.9,264.139,108.432,263.442,108.432z"/>
	<path d="M268.905,113.177c0.106,0.949,0.556,1.482,1.3,1.482c0.508,0,1.121-0.195,1.688-0.507l0.437,1.131
		c-0.649,0.324-1.476,0.468-2.22,0.468c-1.748,0-2.61-1.431-2.61-3.081c0-1.378,0.567-3.198,2.562-3.198
		c1.878,0,2.552,1.222,2.552,3.705H268.905z M270.051,110.604c-0.437,0-1.098,0.285-1.146,1.521h2.421
		C271.268,110.992,270.748,110.604,270.051,110.604z"/>
	<path d="M273.897,108.445v-1.274h1.405v1.274H273.897z M273.933,115.582v-5.941h1.335v5.941H273.933z"/>
	<path d="M278.572,115.764c-0.626,0-1.477-0.182-2.066-0.416l0.46-1.209c0.603,0.247,1.004,0.494,1.63,0.494
		c0.827,0,0.934-0.312,0.934-0.663c0-0.377-0.484-0.532-1.052-0.715c-0.838-0.272-1.866-0.637-1.866-2.028
		c0-1.43,1.182-1.768,2.292-1.768c0.496,0,1.109,0.117,1.854,0.377l-0.46,1.209c-0.544-0.273-0.851-0.455-1.382-0.455
		c-0.603,0-0.934,0.169-0.934,0.598c0,0.391,0.449,0.547,1.004,0.729c0.839,0.286,1.913,0.65,1.913,2.041
		S279.718,115.764,278.572,115.764z"/>
	<path d="M283.293,113.177c0.106,0.949,0.556,1.482,1.299,1.482c0.509,0,1.122-0.195,1.689-0.507l0.437,1.131
		c-0.649,0.324-1.476,0.468-2.22,0.468c-1.748,0-2.61-1.431-2.61-3.081c0-1.378,0.567-3.198,2.562-3.198
		c1.878,0,2.552,1.222,2.552,3.705H283.293z M284.438,110.604c-0.437,0-1.098,0.285-1.146,1.521h2.421
		C285.655,110.992,285.136,110.604,284.438,110.604z"/>
	<path d="M287.849,113.268v-1.222h3.495v1.222H287.849z"/>
	<path d="M267.195,126.299c-0.674,0-1.099-0.467-1.264-0.767l-0.213,0.599h-1.229c0.083-0.703,0.142-1.066,0.142-1.82v-6.722h1.335
		v3.38c0.307-0.468,0.756-0.949,1.417-0.949c1.618,0,2.232,1.457,2.232,3.107C269.616,124.83,268.812,126.299,267.195,126.299z
		 M267.136,121.151c-0.579,0-0.909,0.585-1.192,1.144v2.041c0.235,0.56,0.578,0.832,1.039,0.832c0.673,0,1.264-0.441,1.264-2.015
		C268.246,121.541,267.738,121.151,267.136,121.151z"/>
	<path d="M274.419,126.131l-0.213-0.78c-0.224,0.26-0.638,0.962-1.394,0.962c-1.5,0-1.913-1.014-1.913-2.379v-3.744h1.335v3.809
		c0,0.572,0.059,1.184,0.803,1.184c0.556,0,0.886-0.56,1.134-1.118v-3.874h1.335v4.68c0,0.494,0.094,0.846,0.142,1.262H274.419z
		 M271.655,119.188v-1.209h1.205v1.209H271.655z M273.533,119.188v-1.209h1.205v1.209H273.533z"/>
	<path d="M280.273,121.502c-0.201-0.169-0.484-0.363-0.779-0.363c-0.626,0-0.969,1.092-1.099,1.442v3.55h-1.335v-4.615
		c0-0.586-0.106-1.027-0.142-1.326h1.229l0.212,1.014c0.189-0.377,0.769-1.195,1.347-1.195c0.449,0,0.709,0.104,1.027,0.285
		L280.273,121.502z"/>
	<path d="M284.062,126.312c-1.948,0-2.669-1.469-2.669-3.186c0-1.65,0.732-3.119,2.669-3.119c1.961,0,2.657,1.391,2.657,3.119
		C286.719,124.83,285.999,126.312,284.062,126.312z M284.062,121.139c-0.851,0-1.299,0.533-1.299,1.988
		c0,1.34,0.401,2.055,1.299,2.055c0.827,0,1.287-0.611,1.287-2.055C285.349,121.672,284.959,121.139,284.062,121.139z"/>
</g>
</svg>
