<?xml version="1.0" encoding="utf-8"?>
<!-- Generator: Adobe Illustrator 16.0.0, SVG Export Plug-In . SVG Version: 6.00 Build 0)  -->
<!DOCTYPE svg PUBLIC "-//W3C//DTD SVG 1.1//EN" "http://www.w3.org/Graphics/SVG/1.1/DTD/svg11.dtd">
<svg version="1.1" id="Layer_1" xmlns="http://www.w3.org/2000/svg" xmlns:xlink="http://www.w3.org/1999/xlink" x="0px" y="0px"
	 width="312px" height="212px" viewBox="0 0 312 212" enable-background="new 0 0 312 212" xml:space="preserve">
<rect fill="#FFFFFF" width="312" height="212"/>
<path fill="#12DDC8" d="M41.162,168.062c-26.131-26.131-26.131-68.496,0-94.627L88.49,26.107c0,0,15.295,15.326,47.298,47.328
	c26.13,26.131,26.13,68.496,0,94.627C109.657,194.195,67.291,194.193,41.162,168.062"/>
<path fill="#0DAF9E" d="M177.387,119.316c-11.82-11.82-11.738-31.066,0.184-42.988l21.592-21.592c0,0,6.92,6.934,21.396,21.409
	c11.82,11.821,11.738,31.066-0.183,42.988C208.453,131.055,189.207,131.137,177.387,119.316"/>
<path fill="#04544A" d="M236.792,139.476c-8.806-8.805-8.729-23.161,0.174-32.063l16.124-16.125c0,0,5.156,5.165,15.941,15.951
	c8.806,8.807,8.728,23.163-0.174,32.063C259.954,148.205,245.598,148.283,236.792,139.476"/>
<path fill="#098274" d="M241.176,81.732c-6.343-6.342-6.344-16.627,0-22.971l11.489-11.488c0,0,3.713,3.719,11.482,11.488
	c6.343,6.344,6.343,16.629,0,22.971C257.804,88.076,247.52,88.076,241.176,81.732"/>
<g>
	<path fill="#FFFFFF" d="M56.664,113.136l-0.696-1.968c2.256-1.873,7.44-5.593,7.44-8.305c0-2.136-1.056-2.832-2.664-2.832
		c-1.152,0-2.137,0.384-3.624,1.152l-0.744-1.992c2.088-0.792,2.976-0.96,4.416-0.96c2.641,0,5.04,1.104,5.04,4.536
		c0,3.241-4.416,6.721-6.72,8.545h7.008v1.824H56.664z"/>
	<path fill="#FFFFFF" d="M69.168,113.136v-2.304h2.376v2.304H69.168z"/>
	<path fill="#FFFFFF" d="M79.56,113.52c-4.392,0-5.208-3.48-5.208-7.776c0-4.176,1.152-7.489,5.232-7.489
		c4.393,0,5.28,3.216,5.28,7.489C84.864,110.039,84,113.52,79.56,113.52z M79.584,100.055c-2.568,0-2.832,2.856-2.832,5.688
		c0,3.384,0.191,5.977,2.808,5.977c2.688,0,2.904-2.761,2.904-5.977C82.464,102.407,82.248,100.055,79.584,100.055z"/>
	<path fill="#FFFFFF" d="M91.896,113.52c-4.392,0-5.208-3.48-5.208-7.776c0-4.176,1.152-7.489,5.232-7.489
		c4.393,0,5.28,3.216,5.28,7.489C97.2,110.039,96.336,113.52,91.896,113.52z M91.92,100.055c-2.568,0-2.832,2.856-2.832,5.688
		c0,3.384,0.191,5.977,2.808,5.977c2.688,0,2.904-2.761,2.904-5.977C94.8,102.407,94.584,100.055,91.92,100.055z"/>
	<path fill="#FFFFFF" d="M104.231,113.52c-4.392,0-5.208-3.48-5.208-7.776c0-4.176,1.152-7.489,5.232-7.489
		c4.393,0,5.28,3.216,5.28,7.489C109.536,110.039,108.672,113.52,104.231,113.52z M104.256,100.055
		c-2.568,0-2.832,2.856-2.832,5.688c0,3.384,0.191,5.977,2.808,5.977c2.688,0,2.904-2.761,2.904-5.977
		C107.136,102.407,106.92,100.055,104.256,100.055z"/>
	<path fill="#FFFFFF" d="M118.247,113.136v-15.77h2.137v15.77H118.247z"/>
	<path fill="#FFFFFF" d="M57.813,125.189v11.946h-2.078v-11.946h-3.885v-1.639h9.848v1.639H57.813z"/>
	<path fill="#FFFFFF" d="M65.837,137.408c-3.339,0-4.494-2.352-4.494-5.123c0-2.645,1.176-5.018,4.494-5.018
		c3.338,0,4.472,2.246,4.472,5.018S69.153,137.408,65.837,137.408z M65.837,128.737c-1.764,0-2.562,1.196-2.562,3.548
		c0,2.227,0.672,3.654,2.562,3.654c1.826,0,2.54-1.323,2.54-3.654C68.377,129.934,67.705,128.737,65.837,128.737z"/>
	<path fill="#FFFFFF" d="M72.642,125.398v-1.848h2.016v1.848H72.642z M72.704,137.136v-9.595h1.891v9.595H72.704z"/>
	<path fill="#FFFFFF" d="M77.472,137.136v-13.794h1.869v13.794H77.472z"/>
	<path fill="#FFFFFF" d="M83.708,133.062c0.126,1.785,0.882,2.918,2.541,2.918c0.965,0,1.91-0.314,2.918-0.818l0.609,1.47
		c-1.135,0.524-2.436,0.756-3.695,0.756c-3.003,0-4.367-2.288-4.367-4.955c0-2.226,0.902-5.144,4.262-5.144
		c3.401,0,4.325,2.141,4.325,5.773H83.708z M85.997,128.737c-1.135,0-2.205,0.819-2.311,2.919h4.787
		C88.411,129.598,87.529,128.737,85.997,128.737z"/>
	<path fill="#FFFFFF" d="M96.937,138.836c-2.204-0.545-3.82-1.932-3.82-4.072v-5.774h-1.555v-1.47h1.555v-2.498h1.889v2.498h2.227
		v1.47h-2.227v5.815c0,1.303,1.008,2.016,2.583,2.331L96.937,138.836z"/>
	<path fill="#FFFFFF" d="M103.489,138.836c-2.205-0.545-3.822-1.932-3.822-4.072v-5.774h-1.553v-1.47h1.553v-2.498h1.891v2.498
		h2.225v1.47h-2.225v5.815c0,1.303,1.008,2.016,2.582,2.331L103.489,138.836z"/>
	<path fill="#FFFFFF" d="M107.332,133.062c0.126,1.785,0.882,2.918,2.54,2.918c0.967,0,1.911-0.314,2.919-0.818l0.608,1.47
		c-1.133,0.524-2.436,0.756-3.695,0.756c-3.002,0-4.367-2.288-4.367-4.955c0-2.226,0.903-5.144,4.263-5.144
		c3.401,0,4.325,2.141,4.325,5.773H107.332z M109.62,128.737c-1.133,0-2.204,0.819-2.309,2.919h4.787
		C112.035,129.598,111.153,128.737,109.62,128.737z"/>
	<path fill="#FFFFFF" d="M122.304,137.136v-6.067c0-1.219-0.168-2.331-1.806-2.331c-1.112,0-1.89,1.028-2.288,1.911v6.487h-1.869
		v-7.559c0-0.798-0.168-1.323-0.23-2.036h1.7l0.336,1.344c0.378-0.441,1.196-1.617,2.624-1.617c2.688,0,3.402,1.617,3.402,3.821
		v6.047H122.304z"/>
</g>
<g>
	<path fill="#FFFFFF" d="M190.98,89.903c-0.672,0-1.397-0.055-2.003-0.253l0.342-0.913c0.494,0.198,1.144,0.341,1.672,0.341
		c1.078,0,1.452-0.638,1.452-1.497c0-0.935-0.484-1.32-1.145-1.32c-0.627,0-1.012,0.242-1.364,0.44l-0.748-0.297v-3.355h4.06v0.825
		h-2.981v1.75c0.309-0.099,0.605-0.209,1.101-0.209c1.331,0,2.156,0.759,2.156,2.189C193.521,89.089,192.433,89.903,190.98,89.903z"
		/>
	<path fill="#FFFFFF" d="M196.986,89.903c-2.002,0-2.409-1.662-2.409-3.29c0-1.76,0.803-3.719,2.794-3.719
		c0.407,0,1.046,0.077,1.497,0.198l-0.342,0.913c-0.352-0.165-0.682-0.286-1.1-0.286c-1.266,0-1.826,1.177-1.826,2.542
		c0.308-0.627,0.979-0.958,1.474-0.958c1.452,0,2.156,0.891,2.156,2.354C199.23,88.946,198.252,89.903,196.986,89.903z
		 M197.009,86.129c-0.814,0-1.155,0.572-1.31,0.968c0,1.584,0.495,1.98,1.298,1.98c0.639,0,1.134-0.484,1.134-1.419
		C198.131,86.966,198.01,86.129,197.009,86.129z"/>
	<path fill="#FFFFFF" d="M202.542,89.903c-2.014,0-2.388-1.596-2.388-3.565c0-1.914,0.528-3.432,2.398-3.432
		c2.014,0,2.42,1.474,2.42,3.432C204.973,88.308,204.577,89.903,202.542,89.903z M202.553,83.731c-1.177,0-1.298,1.31-1.298,2.607
		c0,1.551,0.088,2.74,1.287,2.74c1.231,0,1.331-1.265,1.331-2.74C203.873,84.81,203.773,83.731,202.553,83.731z"/>
	<path fill="#FFFFFF" d="M208.966,89.727v-7.228h0.979v7.228H208.966z"/>
	<path fill="#FFFFFF" d="M182.488,99.727l-3.113-3.344v3.344h-1.101v-7.118h1.101v3.125l2.883-3.125h1.231l-3.102,3.355l3.531,3.763
		H182.488z"/>
	<path fill="#FFFFFF" d="M187.747,99.727c0-0.044-0.165-0.495-0.176-0.55c-0.265,0.308-0.771,0.682-1.364,0.682
		c-1.145,0-1.893-0.473-1.893-1.452c0-1.023,0.583-1.782,2.729-1.782h0.451v-0.319c0-0.528-0.154-0.979-0.858-0.979
		c-0.693,0-1.287,0.209-1.771,0.44l-0.341-0.814c0.627-0.231,1.364-0.385,2.146-0.385c1.067,0,1.815,0.506,1.815,1.606v2.014
		c0,0.396,0.109,0.957,0.176,1.54H187.747z M187.505,97.307h-0.308c-1.387,0-1.849,0.341-1.849,1.056
		c0,0.495,0.418,0.737,1.012,0.737c0.518,0,0.936-0.253,1.145-0.594V97.307z"/>
	<path fill="#FFFFFF" d="M191.211,94.281v0.418h1.145v0.759h-1.145v4.269h-0.979v-4.269h-0.76v-0.759h0.76v-0.341
		c0-1.419,1.364-1.991,2.244-2.058l0.253,0.825C191.706,93.236,191.211,93.61,191.211,94.281z"/>
	<path fill="#FFFFFF" d="M194.609,94.281v0.418h1.145v0.759h-1.145v4.269h-0.979v-4.269h-0.76v-0.759h0.76v-0.341
		c0-1.419,1.364-1.991,2.244-2.058l0.253,0.825C195.104,93.236,194.609,93.61,194.609,94.281z"/>
	<path fill="#FFFFFF" d="M197.667,97.593c0.066,0.935,0.462,1.529,1.331,1.529c0.507,0,1.001-0.165,1.529-0.429l0.319,0.77
		c-0.594,0.275-1.276,0.396-1.937,0.396c-1.573,0-2.288-1.199-2.288-2.596c0-1.166,0.473-2.695,2.233-2.695
		c1.782,0,2.267,1.122,2.267,3.025H197.667z M198.866,95.326c-0.594,0-1.155,0.429-1.21,1.529h2.508
		C200.132,95.777,199.67,95.326,198.866,95.326z"/>
	<path fill="#FFFFFF" d="M203.178,97.593c0.066,0.935,0.462,1.529,1.331,1.529c0.507,0,1.002-0.165,1.529-0.429l0.319,0.77
		c-0.594,0.275-1.276,0.396-1.937,0.396c-1.573,0-2.288-1.199-2.288-2.596c0-1.166,0.473-2.695,2.233-2.695
		c1.782,0,2.267,1.122,2.267,3.025H203.178z M204.377,95.326c-0.594,0-1.155,0.429-1.21,1.529h2.508
		C205.643,95.777,205.181,95.326,204.377,95.326z"/>
	<path fill="#FFFFFF" d="M211.076,99.727c0-0.044-0.165-0.495-0.176-0.55c-0.265,0.308-0.771,0.682-1.364,0.682
		c-1.145,0-1.893-0.473-1.893-1.452c0-1.023,0.583-1.782,2.729-1.782h0.451v-0.319c0-0.528-0.154-0.979-0.858-0.979
		c-0.693,0-1.287,0.209-1.771,0.44l-0.341-0.814c0.627-0.231,1.364-0.385,2.146-0.385c1.067,0,1.815,0.506,1.815,1.606v2.014
		c0,0.396,0.109,0.957,0.176,1.54H211.076z M210.834,97.307h-0.308c-1.387,0-1.849,0.341-1.849,1.056
		c0,0.495,0.418,0.737,1.012,0.737c0.518,0,0.936-0.253,1.145-0.594V97.307z"/>
	<path fill="#FFFFFF" d="M216.664,99.727l-0.177-0.704c-0.197,0.231-0.583,0.847-1.331,0.847c-1.342,0-1.749-0.847-1.749-2.002
		v-3.168h0.979v3.18c0,0.627,0.088,1.221,0.913,1.221c0.583,0,0.946-0.539,1.155-1.001v-3.399h0.979v3.96
		c0,0.418,0.088,0.693,0.121,1.067H216.664z"/>
	<path fill="#FFFFFF" d="M218.489,97.571v-0.836h3.103v0.836H218.489z"/>
	<path fill="#FFFFFF" d="M183.587,110.618c-1.154-0.286-2.002-1.013-2.002-2.134v-3.026h-0.814v-0.77h0.814v-1.31h0.99v1.31h1.166
		v0.77h-1.166v3.047c0,0.682,0.528,1.057,1.354,1.221L183.587,110.618z"/>
	<path fill="#FFFFFF" d="M186.909,109.87c-1.749,0-2.354-1.232-2.354-2.685c0-1.386,0.616-2.629,2.354-2.629
		c1.749,0,2.343,1.177,2.343,2.629S188.647,109.87,186.909,109.87z M186.909,105.326c-0.925,0-1.343,0.627-1.343,1.859
		c0,1.166,0.353,1.914,1.343,1.914c0.957,0,1.331-0.693,1.331-1.914C188.24,105.954,187.888,105.326,186.909,105.326z"/>
	<path fill="#FFFFFF" d="M196.71,109.727v-3.19c0-0.748-0.198-1.21-0.913-1.21c-0.616,0-1.056,0.55-1.243,1.057v3.344h-0.979v-3.19
		c0-0.88-0.297-1.21-0.935-1.21c-0.562,0-1.013,0.616-1.166,0.99v3.41h-0.979v-3.872c0-0.418-0.088-0.781-0.121-1.155h0.892
		l0.187,0.715c0.198-0.286,0.715-0.858,1.354-0.858c0.88,0,1.243,0.33,1.584,0.913c0.286-0.462,0.814-0.913,1.54-0.913
		c1.166,0,1.761,0.616,1.761,1.958v3.212H196.71z"/>
	<path fill="#FFFFFF" d="M202.363,109.727c0-0.043-0.165-0.494-0.176-0.55c-0.265,0.308-0.771,0.683-1.364,0.683
		c-1.145,0-1.893-0.473-1.893-1.453c0-1.022,0.583-1.782,2.729-1.782h0.451v-0.319c0-0.528-0.154-0.979-0.858-0.979
		c-0.693,0-1.287,0.209-1.771,0.44l-0.341-0.814c0.627-0.231,1.364-0.385,2.146-0.385c1.067,0,1.815,0.506,1.815,1.606v2.014
		c0,0.396,0.109,0.957,0.176,1.539H202.363z M202.121,107.307h-0.308c-1.387,0-1.849,0.342-1.849,1.057
		c0,0.494,0.418,0.736,1.012,0.736c0.518,0,0.936-0.253,1.145-0.594V107.307z"/>
	<path fill="#FFFFFF" d="M206.905,110.618c-1.154-0.286-2.002-1.013-2.002-2.134v-3.026h-0.814v-0.77h0.814v-1.31h0.99v1.31h1.166
		v0.77h-1.166v3.047c0,0.682,0.528,1.057,1.354,1.221L206.905,110.618z"/>
	<path fill="#FFFFFF" d="M208.918,107.593c0.066,0.935,0.462,1.529,1.331,1.529c0.507,0,1.002-0.165,1.529-0.429l0.319,0.77
		c-0.594,0.275-1.276,0.396-1.937,0.396c-1.573,0-2.288-1.199-2.288-2.597c0-1.166,0.473-2.695,2.233-2.695
		c1.782,0,2.267,1.122,2.267,3.025H208.918z M210.117,105.326c-0.594,0-1.155,0.429-1.21,1.529h2.508
		C211.383,105.777,210.921,105.326,210.117,105.326z"/>
	<path fill="#FFFFFF" d="M216.761,109.727v-3.179c0-0.638-0.088-1.221-0.945-1.221c-0.583,0-0.99,0.54-1.199,1.001v3.399h-0.979
		v-3.96c0-0.418-0.088-0.693-0.121-1.067h0.892l0.176,0.704c0.198-0.231,0.627-0.847,1.375-0.847c1.408,0,1.782,0.847,1.782,2.002
		v3.168H216.761z"/>
</g>
<g>
	<path fill="#FFFFFF" d="M243.285,120.143l-0.29-0.818c0.939-0.78,3.099-2.33,3.099-3.459c0-0.889-0.44-1.18-1.109-1.18
		c-0.48,0-0.89,0.16-1.51,0.48l-0.31-0.83c0.869-0.33,1.239-0.399,1.839-0.399c1.1,0,2.099,0.46,2.099,1.889
		c0,1.35-1.839,2.799-2.798,3.558h2.918v0.76H243.285z"/>
	<path fill="#FFFFFF" d="M250.344,120.303c-1.819,0-2.188-1.509-2.188-2.988c0-1.6,0.729-3.378,2.538-3.378
		c0.37,0,0.949,0.069,1.359,0.18l-0.31,0.829c-0.32-0.149-0.62-0.26-1-0.26c-1.149,0-1.659,1.07-1.659,2.309
		c0.28-0.568,0.89-0.869,1.34-0.869c1.319,0,1.959,0.811,1.959,2.139C252.383,119.434,251.493,120.303,250.344,120.303z
		 M250.363,116.875c-0.739,0-1.049,0.52-1.189,0.879c0,1.439,0.45,1.799,1.18,1.799c0.58,0,1.029-0.439,1.029-1.289
		C251.383,117.635,251.273,116.875,250.363,116.875z"/>
	<path fill="#FFFFFF" d="M255.394,120.303c-1.829,0-2.169-1.449-2.169-3.238c0-1.738,0.479-3.118,2.179-3.118
		c1.829,0,2.199,1.339,2.199,3.118C257.603,118.854,257.242,120.303,255.394,120.303z M255.403,114.696
		c-1.069,0-1.18,1.188-1.18,2.368c0,1.41,0.08,2.488,1.17,2.488c1.119,0,1.209-1.148,1.209-2.488
		C256.603,115.676,256.513,114.696,255.403,114.696z"/>
	<path fill="#FFFFFF" d="M261.234,120.143v-6.566h0.89v6.566H261.234z"/>
	<path fill="#FFFFFF" d="M236.422,130.143l-2.059-2.788h-0.47v2.788h-1v-6.466h2.22c1.029,0,2.128,0.36,2.128,1.799
		c0,0.909-0.419,1.72-1.719,1.849l2.109,2.818H236.422z M235.163,124.446h-1.27v2.139h1.279c0.76,0,1.05-0.479,1.05-1.109
		C236.223,124.826,235.862,124.446,235.163,124.446z"/>
	<path fill="#FFFFFF" d="M239.474,128.204c0.06,0.85,0.42,1.39,1.209,1.39c0.46,0,0.91-0.15,1.39-0.391l0.29,0.7
		c-0.54,0.249-1.16,0.36-1.76,0.36c-1.429,0-2.078-1.09-2.078-2.359c0-1.06,0.43-2.449,2.028-2.449c1.619,0,2.059,1.02,2.059,2.749
		H239.474z M240.562,126.146c-0.539,0-1.049,0.39-1.099,1.39h2.278C241.712,126.555,241.292,126.146,240.562,126.146z"/>
	<path fill="#FFFFFF" d="M243.743,124.557v-0.88h0.96v0.88H243.743z M243.773,130.143v-4.566h0.899v4.566H243.773z"/>
	<path fill="#FFFFFF" d="M248.882,130.143v-2.888c0-0.58-0.079-1.109-0.859-1.109c-0.529,0-0.899,0.489-1.089,0.909v3.088h-0.89
		v-3.598c0-0.38-0.08-0.629-0.11-0.969h0.81l0.16,0.639c0.18-0.209,0.569-0.77,1.249-0.77c1.279,0,1.619,0.77,1.619,1.819v2.878
		H248.882z"/>
	<path fill="#FFFFFF" d="M251.113,124.557v-0.88h0.96v0.88H251.113z M251.144,130.143v-4.566h0.899v4.566H251.144z"/>
	<path fill="#FFFFFF" d="M257.382,126.075h-0.6c0.21,0.181,0.5,0.61,0.5,1.089c0,0.811-0.45,1.74-1.97,1.74
		c-0.209,0-0.77-0.08-0.979-0.19c-0.119,0.11-0.229,0.21-0.229,0.39c0,0.24,0.22,0.359,1.369,0.449
		c1.739,0.141,2.129,0.57,2.129,1.279c0,0.96-1.1,1.311-2.229,1.311c-1.709,0-2.259-0.51-2.259-1.279c0-0.541,0.56-0.801,0.85-0.9
		c-0.37-0.16-0.62-0.449-0.62-0.819c0-0.329,0.25-0.569,0.49-0.77c-0.13-0.159-0.49-0.54-0.49-1.21c0-0.529,0.28-1.709,1.949-1.709
		c0.34,0,0.55,0.041,0.77,0.101c0.37-0.03,1.09-0.09,1.569-0.11L257.382,126.075z M254.573,130.223
		c-0.34,0.11-0.529,0.381-0.529,0.609c0,0.4,0.529,0.66,1.329,0.66c0.959,0,1.299-0.229,1.299-0.66
		C256.672,130.533,256.223,130.293,254.573,130.223z M255.312,126.135c-0.629,0-1.039,0.36-1.039,1.05c0,0.68,0.38,1.05,1.05,1.05
		c0.779,0,1.029-0.55,1.029-1.09C256.353,126.505,256.022,126.135,255.312,126.135z"/>
	<path fill="#FFFFFF" d="M261.582,130.143l-0.159-0.639c-0.181,0.209-0.53,0.77-1.21,0.77c-1.219,0-1.589-0.77-1.589-1.819v-2.878
		h0.89v2.888c0,0.569,0.08,1.109,0.829,1.109c0.53,0,0.859-0.489,1.05-0.909v-3.088h0.89v3.598c0,0.379,0.08,0.629,0.109,0.969
		H261.582z"/>
	<path fill="#FFFFFF" d="M266.481,130.143v-2.888c0-0.58-0.079-1.109-0.859-1.109c-0.529,0-0.899,0.489-1.089,0.909v3.088h-0.89
		v-3.598c0-0.38-0.08-0.629-0.11-0.969h0.81l0.16,0.639c0.18-0.209,0.569-0.77,1.249-0.77c1.279,0,1.619,0.77,1.619,1.819v2.878
		H266.481z"/>
	<path fill="#FFFFFF" d="M272.701,126.075h-0.6c0.21,0.181,0.5,0.61,0.5,1.089c0,0.811-0.45,1.74-1.97,1.74
		c-0.209,0-0.77-0.08-0.979-0.19c-0.12,0.11-0.23,0.21-0.23,0.39c0,0.24,0.22,0.359,1.369,0.449c1.739,0.141,2.129,0.57,2.129,1.279
		c0,0.96-1.1,1.311-2.229,1.311c-1.709,0-2.259-0.51-2.259-1.279c0-0.541,0.56-0.801,0.85-0.9c-0.37-0.16-0.62-0.449-0.62-0.819
		c0-0.329,0.25-0.569,0.49-0.77c-0.13-0.159-0.49-0.54-0.49-1.21c0-0.529,0.28-1.709,1.949-1.709c0.34,0,0.55,0.041,0.77,0.101
		c0.37-0.03,1.09-0.09,1.569-0.11L272.701,126.075z M269.893,130.223c-0.34,0.11-0.529,0.381-0.529,0.609
		c0,0.4,0.529,0.66,1.329,0.66c0.959,0,1.299-0.229,1.299-0.66C271.991,130.533,271.542,130.293,269.893,130.223z M270.632,126.135
		c-0.629,0-1.039,0.36-1.039,1.05c0,0.68,0.38,1.05,1.05,1.05c0.779,0,1.029-0.55,1.029-1.09
		C271.672,126.505,271.342,126.135,270.632,126.135z"/>
</g>
<g>
	<path fill="#FFFFFF" d="M245.154,68.423v-5.077l-1.149,0.95l-0.311-0.75l1.5-1.2h0.959v6.077H245.154z"/>
	<path fill="#FFFFFF" d="M250.254,68.573c-1.829,0-2.169-1.449-2.169-3.238c0-1.739,0.479-3.119,2.179-3.119
		c1.829,0,2.199,1.339,2.199,3.119C252.463,67.125,252.103,68.573,250.254,68.573z M250.264,62.967c-1.069,0-1.18,1.189-1.18,2.369
		c0,1.409,0.08,2.488,1.17,2.488c1.119,0,1.209-1.149,1.209-2.488C251.463,63.946,251.373,62.967,250.264,62.967z"/>
	<path fill="#FFFFFF" d="M255.394,68.573c-1.829,0-2.169-1.449-2.169-3.238c0-1.739,0.479-3.119,2.179-3.119
		c1.829,0,2.199,1.339,2.199,3.119C257.603,67.125,257.242,68.573,255.394,68.573z M255.403,62.967c-1.069,0-1.18,1.189-1.18,2.369
		c0,1.409,0.08,2.488,1.17,2.488c1.119,0,1.209-1.149,1.209-2.488C256.603,63.946,256.513,62.967,255.403,62.967z"/>
	<path fill="#FFFFFF" d="M261.234,68.414v-6.566h0.89v6.566H261.234z"/>
	<path fill="#FFFFFF" d="M244.344,72.727v1.999h2.589v0.76h-2.589v2.928h-0.999v-6.466h3.707v0.779H244.344z"/>
	<path fill="#FFFFFF" d="M251.163,78.414c0-0.04-0.15-0.45-0.16-0.5c-0.24,0.28-0.699,0.62-1.239,0.62
		c-1.04,0-1.719-0.43-1.719-1.319c0-0.93,0.529-1.619,2.479-1.619h0.409v-0.29c0-0.479-0.14-0.889-0.779-0.889
		c-0.63,0-1.169,0.189-1.609,0.399l-0.31-0.739c0.569-0.21,1.239-0.35,1.949-0.35c0.969,0,1.648,0.46,1.648,1.459v1.829
		c0,0.36,0.101,0.87,0.16,1.399H251.163z M250.943,76.215h-0.28c-1.26,0-1.679,0.31-1.679,0.959c0,0.45,0.379,0.669,0.919,0.669
		c0.47,0,0.85-0.229,1.04-0.54V76.215z"/>
	<path fill="#FFFFFF" d="M257.252,74.346h-0.6c0.21,0.18,0.5,0.61,0.5,1.089c0,0.81-0.45,1.739-1.97,1.739
		c-0.209,0-0.77-0.08-0.979-0.19c-0.12,0.11-0.23,0.21-0.23,0.39c0,0.24,0.22,0.36,1.369,0.45c1.739,0.14,2.129,0.57,2.129,1.279
		c0,0.959-1.1,1.31-2.229,1.31c-1.709,0-2.259-0.51-2.259-1.279c0-0.54,0.56-0.8,0.85-0.899c-0.37-0.16-0.62-0.45-0.62-0.82
		c0-0.33,0.25-0.57,0.49-0.77c-0.13-0.16-0.49-0.54-0.49-1.209c0-0.53,0.28-1.709,1.949-1.709c0.34,0,0.55,0.04,0.77,0.1
		c0.37-0.03,1.09-0.09,1.569-0.11L257.252,74.346z M254.443,78.494c-0.34,0.11-0.529,0.38-0.529,0.609c0,0.4,0.529,0.66,1.329,0.66
		c0.959,0,1.299-0.229,1.299-0.66C256.542,78.803,256.093,78.563,254.443,78.494z M255.183,74.406c-0.629,0-1.039,0.36-1.039,1.049
		c0,0.68,0.38,1.049,1.05,1.049c0.779,0,1.029-0.549,1.029-1.089C256.223,74.775,255.893,74.406,255.183,74.406z"/>
	<path fill="#FFFFFF" d="M260.403,78.543c-1.59,0-2.139-1.119-2.139-2.438c0-1.259,0.56-2.389,2.139-2.389
		c1.589,0,2.129,1.069,2.129,2.389S261.982,78.543,260.403,78.543z M260.403,74.416c-0.84,0-1.22,0.569-1.22,1.689
		c0,1.059,0.32,1.739,1.22,1.739c0.869,0,1.209-0.629,1.209-1.739C261.612,74.985,261.293,74.416,260.403,74.416z"/>
</g>
<g>
	<path d="M159.928,165.32c-1.991,0-2.871-0.925-2.871-2.828v-4.488h1.1v4.379c0,1.705,0.671,2.09,1.771,2.09
		c1.045,0,1.628-0.539,1.628-2.09v-4.379h1.101v4.51C162.656,164.406,161.721,165.32,159.928,165.32z M158.597,157.607v-0.913h0.924
		v0.913H158.597z M160.302,157.607v-0.913h0.924v0.913H160.302z"/>
	<path d="M166.648,165.254c-0.616,0-1.045-0.385-1.243-0.683l-0.176,0.55h-0.892c0.077-0.604,0.121-0.902,0.121-1.539v-5.688h0.979
		v2.904c0.264-0.385,0.715-0.836,1.353-0.836c1.496,0,2.047,1.222,2.047,2.618C168.838,164.021,168.145,165.254,166.648,165.254z
		 M166.659,160.721c-0.682,0-1.034,0.627-1.243,1.023v2.014c0.209,0.461,0.627,0.736,1.101,0.736c0.803,0,1.309-0.561,1.309-1.893
		C167.825,161.161,167.319,160.721,166.659,160.721z"/>
	<path d="M170.872,162.987c0.066,0.935,0.462,1.529,1.331,1.529c0.507,0,1.002-0.165,1.529-0.429l0.319,0.77
		c-0.594,0.275-1.276,0.396-1.937,0.396c-1.573,0-2.288-1.199-2.288-2.597c0-1.166,0.473-2.695,2.233-2.695
		c1.782,0,2.267,1.122,2.267,3.025H170.872z M172.071,160.721c-0.594,0-1.155,0.43-1.21,1.529h2.508
		C173.337,161.172,172.875,160.721,172.071,160.721z"/>
	<path d="M178.309,161.029c-0.188-0.121-0.418-0.309-0.76-0.309c-0.616,0-0.847,0.902-0.979,1.211v3.189h-0.979v-3.905
		c0-0.495-0.088-0.869-0.121-1.122h0.892l0.176,0.881c0.176-0.342,0.616-1.023,1.188-1.023c0.396,0,0.66,0.088,0.935,0.253
		L178.309,161.029z"/>
	<path d="M181.08,165.265c-0.583,0-1.32-0.132-1.837-0.341l0.341-0.814c0.583,0.23,0.924,0.385,1.519,0.385
		c0.748,0,0.957-0.285,0.957-0.726c0-0.451-0.528-0.605-1.134-0.804c-0.759-0.242-1.617-0.539-1.617-1.551
		c0-1.133,1.034-1.463,2.014-1.463c0.484,0,0.979,0.099,1.672,0.33l-0.352,0.824c-0.507-0.23-0.814-0.385-1.343-0.385
		c-0.594,0-0.979,0.176-0.979,0.66c0,0.374,0.429,0.518,0.946,0.682c0.803,0.254,1.804,0.518,1.804,1.695
		C183.071,164.857,182.092,165.265,181.08,165.265z"/>
	<path d="M184.292,158.972v-0.968h1.056v0.968H184.292z M184.324,165.121v-5.027h0.99v5.027H184.324z"/>
	<path d="M188.923,165.254c-1.596,0-2.354-1.067-2.354-2.607c0-1.629,0.737-2.685,2.388-2.685c0.45,0,1.287,0.198,1.649,0.341
		l-0.341,0.814c-0.374-0.188-0.946-0.396-1.32-0.396c-0.979,0-1.364,0.639-1.364,1.926c0,1.177,0.43,1.848,1.354,1.848
		c0.341,0,0.936-0.176,1.364-0.396l0.341,0.813C190.254,165.1,189.308,165.254,188.923,165.254z"/>
	<path d="M194.906,165.121v-3.156c0-0.683-0.109-1.244-0.945-1.244c-0.605,0-1.002,0.562-1.199,1.002v3.398h-0.979v-7.228h0.979
		v2.904c0.187-0.297,0.648-0.847,1.353-0.847c1.408,0,1.771,0.88,1.771,1.969v3.201H194.906z"/>
	<path d="M199.592,166.013c-1.154-0.286-2.002-1.013-2.002-2.134v-3.025h-0.814v-0.771h0.814v-1.31h0.99v1.31h1.166v0.771h-1.166
		v3.047c0,0.682,0.528,1.057,1.354,1.221L199.592,166.013z"/>
	<path d="M206.896,165.121l-0.177-0.703c-0.197,0.23-0.583,0.847-1.331,0.847c-1.342,0-1.749-0.847-1.749-2.003v-3.168h0.979v3.18
		c0,0.627,0.088,1.221,0.913,1.221c0.583,0,0.946-0.539,1.155-1.001v-3.399h0.979v3.961c0,0.418,0.088,0.693,0.121,1.066H206.896z
		 M204.333,159.137v-0.913h0.924v0.913H204.333z M206.038,159.137v-0.913h0.858l0.065,0.913H206.038z"/>
	<path d="M211.352,165.254c-0.616,0-1.045-0.385-1.243-0.683l-0.176,0.55h-0.892c0.077-0.604,0.121-0.902,0.121-1.539v-5.688h0.979
		v2.904c0.264-0.385,0.715-0.836,1.353-0.836c1.496,0,2.047,1.222,2.047,2.618C213.541,164.021,212.848,165.254,211.352,165.254z
		 M211.362,160.721c-0.682,0-1.034,0.627-1.243,1.023v2.014c0.209,0.461,0.627,0.736,1.101,0.736c0.803,0,1.309-0.561,1.309-1.893
		C212.528,161.161,212.022,160.721,211.362,160.721z"/>
	<path d="M215.575,162.987c0.066,0.935,0.462,1.529,1.331,1.529c0.507,0,1.002-0.165,1.529-0.429l0.319,0.77
		c-0.594,0.275-1.276,0.396-1.937,0.396c-1.573,0-2.288-1.199-2.288-2.597c0-1.166,0.473-2.695,2.233-2.695
		c1.782,0,2.267,1.122,2.267,3.025H215.575z M216.774,160.721c-0.594,0-1.155,0.43-1.21,1.529h2.508
		C218.04,161.172,217.578,160.721,216.774,160.721z"/>
	<path d="M223.012,161.029c-0.188-0.121-0.418-0.309-0.76-0.309c-0.616,0-0.847,0.902-0.979,1.211v3.189h-0.979v-3.905
		c0-0.495-0.088-0.869-0.121-1.122h0.892l0.176,0.881c0.176-0.342,0.616-1.023,1.188-1.023c0.396,0,0.66,0.088,0.935,0.253
		L223.012,161.029z"/>
	<path d="M230.437,165.121l-0.176-0.55c-0.231,0.353-0.683,0.683-1.243,0.683c-1.596,0-2.189-1.232-2.189-2.674
		c0-1.408,0.671-2.618,2.068-2.618c0.649,0,1.067,0.451,1.331,0.836v-2.904h0.979v5.688c0,0.637,0.044,0.935,0.121,1.539H230.437z
		 M230.25,161.744c-0.209-0.418-0.562-1.023-1.232-1.023c-0.649,0-1.178,0.463-1.178,1.881c0,1.332,0.418,1.893,1.31,1.893
		c0.473,0,0.825-0.297,1.101-0.736V161.744z"/>
	<path d="M233.494,162.987c0.066,0.935,0.462,1.529,1.331,1.529c0.507,0,1.001-0.165,1.529-0.429l0.319,0.77
		c-0.594,0.275-1.276,0.396-1.937,0.396c-1.573,0-2.288-1.199-2.288-2.597c0-1.166,0.473-2.695,2.233-2.695
		c1.782,0,2.267,1.122,2.267,3.025H233.494z M234.693,160.721c-0.594,0-1.155,0.43-1.21,1.529h2.508
		C235.959,161.172,235.497,160.721,234.693,160.721z"/>
	<path d="M241.338,165.121v-3.18c0-0.637-0.089-1.221-0.946-1.221c-0.583,0-0.99,0.539-1.199,1.002v3.398h-0.979v-3.96
		c0-0.418-0.088-0.693-0.121-1.067h0.892l0.176,0.704c0.198-0.231,0.627-0.847,1.375-0.847c1.408,0,1.782,0.847,1.782,2.002v3.168
		H241.338z"/>
	<path d="M253.801,165.121h-1.331l-1.485-5.313l-1.672,5.313h-1.332l-1.705-7.117h1.155l1.354,5.742l1.617-5.445h1.32l1.441,5.457
		l1.44-5.754h1.057L253.801,165.121z"/>
	<path d="M259.708,165.121c0-0.043-0.165-0.494-0.176-0.55c-0.265,0.308-0.771,0.683-1.364,0.683c-1.145,0-1.893-0.473-1.893-1.453
		c0-1.022,0.583-1.781,2.729-1.781h0.451V161.7c0-0.528-0.154-0.979-0.858-0.979c-0.693,0-1.287,0.209-1.771,0.44l-0.341-0.814
		c0.627-0.231,1.364-0.385,2.146-0.385c1.067,0,1.815,0.506,1.815,1.606v2.014c0,0.396,0.109,0.957,0.176,1.539H259.708z
		 M259.466,162.701h-0.308c-1.387,0-1.849,0.342-1.849,1.057c0,0.494,0.418,0.736,1.012,0.736c0.518,0,0.936-0.253,1.145-0.594
		V162.701z"/>
	<path d="M263.568,165.265c-0.583,0-1.32-0.132-1.837-0.341l0.341-0.814c0.583,0.23,0.924,0.385,1.519,0.385
		c0.748,0,0.957-0.285,0.957-0.726c0-0.451-0.528-0.605-1.134-0.804c-0.759-0.242-1.617-0.539-1.617-1.551
		c0-1.133,1.034-1.463,2.014-1.463c0.484,0,0.979,0.099,1.672,0.33l-0.352,0.824c-0.507-0.23-0.814-0.385-1.343-0.385
		c-0.594,0-0.979,0.176-0.979,0.66c0,0.374,0.429,0.518,0.946,0.682c0.803,0.254,1.804,0.518,1.804,1.695
		C265.56,164.857,264.58,165.265,263.568,165.265z"/>
	<path d="M268.331,165.265c-0.583,0-1.32-0.132-1.837-0.341l0.341-0.814c0.583,0.23,0.924,0.385,1.519,0.385
		c0.748,0,0.957-0.285,0.957-0.726c0-0.451-0.528-0.605-1.134-0.804c-0.759-0.242-1.617-0.539-1.617-1.551
		c0-1.133,1.034-1.463,2.014-1.463c0.484,0,0.979,0.099,1.672,0.33l-0.352,0.824c-0.507-0.23-0.814-0.385-1.343-0.385
		c-0.594,0-0.979,0.176-0.979,0.66c0,0.374,0.429,0.518,0.945,0.682c0.804,0.254,1.805,0.518,1.805,1.695
		C270.322,164.857,269.343,165.265,268.331,165.265z"/>
	<path d="M272.356,162.987c0.066,0.935,0.462,1.529,1.331,1.529c0.507,0,1.002-0.165,1.529-0.429l0.319,0.77
		c-0.594,0.275-1.276,0.396-1.937,0.396c-1.573,0-2.288-1.199-2.288-2.597c0-1.166,0.473-2.695,2.233-2.695
		c1.782,0,2.267,1.122,2.267,3.025H272.356z M273.556,160.721c-0.594,0-1.155,0.43-1.21,1.529h2.508
		C274.821,161.172,274.359,160.721,273.556,160.721z"/>
	<path d="M279.793,161.029c-0.188-0.121-0.418-0.309-0.76-0.309c-0.616,0-0.847,0.902-0.979,1.211v3.189h-0.979v-3.905
		c0-0.495-0.088-0.869-0.121-1.122h0.892l0.176,0.881c0.176-0.342,0.616-1.023,1.188-1.023c0.396,0,0.66,0.088,0.935,0.253
		L279.793,161.029z"/>
	<path d="M280.595,162.965v-0.836h3.103v0.836H280.595z"/>
	<path d="M159.289,175.121h-0.924l-1.947-5.027h1.057l1.386,3.828l1.354-3.828h1.012L159.289,175.121z"/>
	<path d="M163.051,172.987c0.066,0.935,0.462,1.529,1.331,1.529c0.507,0,1.001-0.165,1.529-0.429l0.319,0.77
		c-0.594,0.275-1.276,0.396-1.937,0.396c-1.573,0-2.288-1.199-2.288-2.597c0-1.166,0.473-2.695,2.233-2.695
		c1.782,0,2.267,1.122,2.267,3.025H163.051z M164.25,170.721c-0.594,0-1.155,0.43-1.21,1.529h2.508
		C165.516,171.172,165.054,170.721,164.25,170.721z"/>
	<path d="M170.487,171.029c-0.188-0.121-0.418-0.309-0.76-0.309c-0.616,0-0.847,0.902-0.979,1.211v3.189h-0.979v-3.905
		c0-0.495-0.088-0.869-0.121-1.122h0.892l0.176,0.881c0.176-0.342,0.616-1.023,1.188-1.023c0.396,0,0.66,0.088,0.935,0.253
		L170.487,171.029z"/>
	<path d="M173.919,175.254c-0.616,0-1.045-0.385-1.243-0.683l-0.176,0.55h-0.892c0.077-0.604,0.121-0.902,0.121-1.539v-5.688h0.979
		v2.904c0.264-0.385,0.715-0.836,1.353-0.836c1.497,0,2.047,1.222,2.047,2.618C176.108,174.021,175.415,175.254,173.919,175.254z
		 M173.93,170.721c-0.682,0-1.034,0.627-1.243,1.023v2.014c0.209,0.461,0.627,0.736,1.101,0.736c0.803,0,1.309-0.561,1.309-1.893
		C175.096,171.161,174.59,170.721,173.93,170.721z"/>
	<path d="M180.068,171.029c-0.188-0.121-0.418-0.309-0.76-0.309c-0.616,0-0.847,0.902-0.979,1.211v3.189h-0.979v-3.905
		c0-0.495-0.088-0.869-0.121-1.122h0.892l0.176,0.881c0.176-0.342,0.616-1.023,1.188-1.023c0.396,0,0.66,0.088,0.935,0.253
		L180.068,171.029z"/>
	<path d="M184.49,175.121c0-0.043-0.165-0.494-0.176-0.55c-0.265,0.308-0.771,0.683-1.364,0.683c-1.145,0-1.893-0.473-1.893-1.453
		c0-1.022,0.583-1.781,2.729-1.781h0.451V171.7c0-0.528-0.154-0.979-0.858-0.979c-0.693,0-1.287,0.209-1.771,0.44l-0.341-0.814
		c0.627-0.231,1.364-0.385,2.146-0.385c1.067,0,1.815,0.506,1.815,1.606v2.014c0,0.396,0.109,0.957,0.176,1.539H184.49z
		 M184.248,172.701h-0.308c-1.387,0-1.849,0.342-1.849,1.057c0,0.494,0.418,0.736,1.012,0.736c0.518,0,0.936-0.253,1.145-0.594
		V172.701z"/>
	<path d="M190.078,175.121l-0.177-0.703c-0.197,0.23-0.583,0.847-1.331,0.847c-1.342,0-1.749-0.847-1.749-2.003v-3.168h0.979v3.18
		c0,0.627,0.088,1.221,0.913,1.221c0.583,0,0.946-0.539,1.155-1.001v-3.399h0.979v3.961c0,0.418,0.088,0.693,0.121,1.066H190.078z"
		/>
	<path d="M194.445,175.254c-1.596,0-2.354-1.067-2.354-2.607c0-1.629,0.737-2.685,2.388-2.685c0.45,0,1.287,0.198,1.649,0.341
		l-0.341,0.814c-0.374-0.188-0.946-0.396-1.32-0.396c-0.979,0-1.364,0.639-1.364,1.926c0,1.177,0.43,1.848,1.354,1.848
		c0.341,0,0.936-0.176,1.364-0.396l0.341,0.813C195.776,175.1,194.83,175.254,194.445,175.254z"/>
	<path d="M200.43,175.121v-3.156c0-0.683-0.11-1.244-0.946-1.244c-0.605,0-1.002,0.562-1.199,1.002v3.398h-0.979v-7.228h0.979v2.904
		c0.187-0.297,0.648-0.847,1.353-0.847c1.408,0,1.771,0.88,1.771,1.969v3.201H200.43z"/>
	<path d="M209.086,175.121l-0.176-0.55c-0.231,0.353-0.683,0.683-1.243,0.683c-1.596,0-2.189-1.232-2.189-2.674
		c0-1.408,0.671-2.618,2.068-2.618c0.649,0,1.067,0.451,1.331,0.836v-2.904h0.979v5.688c0,0.637,0.044,0.935,0.121,1.539H209.086z
		 M208.899,171.744c-0.209-0.418-0.562-1.023-1.232-1.023c-0.649,0-1.178,0.463-1.178,1.881c0,1.332,0.418,1.893,1.31,1.893
		c0.473,0,0.825-0.297,1.101-0.736V171.744z"/>
	<path d="M212.144,172.987c0.066,0.935,0.462,1.529,1.331,1.529c0.507,0,1.002-0.165,1.529-0.429l0.319,0.77
		c-0.594,0.275-1.276,0.396-1.937,0.396c-1.573,0-2.288-1.199-2.288-2.597c0-1.166,0.473-2.695,2.233-2.695
		c1.782,0,2.267,1.122,2.267,3.025H212.144z M213.343,170.721c-0.594,0-1.155,0.43-1.21,1.529h2.508
		C214.608,171.172,214.146,170.721,213.343,170.721z"/>
	<path d="M219.58,171.029c-0.188-0.121-0.418-0.309-0.76-0.309c-0.616,0-0.847,0.902-0.979,1.211v3.189h-0.979v-3.905
		c0-0.495-0.088-0.869-0.121-1.122h0.892l0.176,0.881c0.176-0.342,0.616-1.023,1.188-1.023c0.396,0,0.66,0.088,0.935,0.253
		L219.58,171.029z"/>
	<path d="M225.058,168.861v2.201h2.85v0.836h-2.85v3.223h-1.101v-7.117h4.082v0.857H225.058z"/>
	<path d="M233.847,175.121v-3.245h-3.059v3.245h-1.101v-7.117h1.101v3.014h3.059v-3.014h1.1v7.117H233.847z"/>
	<path d="M241.579,175.32c-0.615,0-1.419-0.166-2.023-0.33l0.352-0.936c0.528,0.197,1.101,0.418,1.684,0.418
		c0.869,0,1.683-0.231,1.683-1.178c0-0.803-0.792-1.078-1.65-1.396c-0.989-0.363-2.067-0.781-2.067-2.113
		c0-1.375,1.254-1.914,2.562-1.914c0.484,0,1.255,0.1,1.838,0.297l-0.353,0.936c-0.407-0.176-0.813-0.385-1.496-0.385
		c-1.023,0-1.43,0.439-1.43,1.066c0,0.628,0.638,0.869,1.375,1.134c1.056,0.374,2.343,0.781,2.343,2.354
		C244.396,174.924,243.054,175.32,241.579,175.32z"/>
	<path d="M249.049,175.121c0-0.043-0.165-0.494-0.176-0.55c-0.265,0.308-0.771,0.683-1.364,0.683c-1.145,0-1.893-0.473-1.893-1.453
		c0-1.022,0.583-1.781,2.729-1.781h0.451V171.7c0-0.528-0.154-0.979-0.858-0.979c-0.693,0-1.287,0.209-1.771,0.44l-0.341-0.814
		c0.627-0.231,1.364-0.385,2.146-0.385c1.067,0,1.815,0.506,1.815,1.606v2.014c0,0.396,0.109,0.957,0.176,1.539H249.049z
		 M248.807,172.701h-0.308c-1.387,0-1.849,0.342-1.849,1.057c0,0.494,0.418,0.736,1.012,0.736c0.518,0,0.936-0.253,1.145-0.594
		V172.701z"/>
	<path d="M251.38,175.121v-7.228h0.979v7.228H251.38z"/>
	<path d="M254.569,174.362h2.739v0.759h-3.521l-0.341-0.813l2.904-3.454h-2.596v-0.76h3.355l0.352,0.814L254.569,174.362z"/>
	<path d="M260.741,175.254c-0.616,0-1.045-0.385-1.243-0.683l-0.176,0.55h-0.892c0.077-0.604,0.121-0.902,0.121-1.539v-5.688h0.979
		v2.904c0.264-0.385,0.715-0.836,1.353-0.836c1.497,0,2.047,1.222,2.047,2.618C262.931,174.021,262.237,175.254,260.741,175.254z
		 M260.752,170.721c-0.682,0-1.034,0.627-1.243,1.023v2.014c0.209,0.461,0.627,0.736,1.101,0.736c0.803,0,1.309-0.561,1.309-1.893
		C261.918,171.161,261.412,170.721,260.752,170.721z"/>
	<path d="M267.43,175.121l-0.177-0.703c-0.197,0.23-0.583,0.847-1.331,0.847c-1.342,0-1.749-0.847-1.749-2.003v-3.168h0.979v3.18
		c0,0.627,0.088,1.221,0.913,1.221c0.583,0,0.946-0.539,1.155-1.001v-3.399h0.979v3.961c0,0.418,0.088,0.693,0.121,1.066H267.43z"/>
	<path d="M272.413,171.029c-0.188-0.121-0.418-0.309-0.76-0.309c-0.616,0-0.847,0.902-0.979,1.211v3.189h-0.979v-3.905
		c0-0.495-0.088-0.869-0.121-1.122h0.892l0.176,0.881c0.176-0.342,0.616-1.023,1.188-1.023c0.396,0,0.66,0.088,0.935,0.253
		L272.413,171.029z"/>
	<path d="M278.023,170.645h-0.66c0.23,0.197,0.55,0.67,0.55,1.199c0,0.891-0.495,1.914-2.167,1.914
		c-0.231,0-0.848-0.088-1.078-0.209c-0.133,0.121-0.254,0.23-0.254,0.429c0,0.264,0.242,0.396,1.508,0.495
		c1.914,0.154,2.343,0.627,2.343,1.408c0,1.057-1.21,1.441-2.453,1.441c-1.881,0-2.486-0.562-2.486-1.408
		c0-0.594,0.616-0.881,0.936-0.99c-0.407-0.176-0.683-0.495-0.683-0.902c0-0.363,0.275-0.627,0.539-0.848
		c-0.143-0.176-0.539-0.594-0.539-1.33c0-0.584,0.309-1.882,2.146-1.882c0.374,0,0.605,0.044,0.847,0.11
		c0.407-0.033,1.199-0.1,1.728-0.121L278.023,170.645z M274.932,175.209c-0.374,0.121-0.583,0.418-0.583,0.672
		c0,0.439,0.583,0.727,1.463,0.727c1.057,0,1.431-0.254,1.431-0.727C277.242,175.551,276.747,175.287,274.932,175.209z
		 M275.746,170.71c-0.693,0-1.145,0.396-1.145,1.155c0,0.748,0.418,1.155,1.155,1.155c0.858,0,1.133-0.605,1.133-1.199
		C276.89,171.117,276.526,170.71,275.746,170.71z"/>
	<path d="M159.928,185.121c0-0.043-0.165-0.494-0.176-0.55c-0.265,0.308-0.771,0.683-1.364,0.683c-1.145,0-1.893-0.473-1.893-1.453
		c0-1.022,0.583-1.781,2.729-1.781h0.451V181.7c0-0.528-0.154-0.979-0.858-0.979c-0.693,0-1.287,0.209-1.771,0.44l-0.341-0.814
		c0.627-0.231,1.364-0.385,2.146-0.385c1.067,0,1.815,0.506,1.815,1.606v2.014c0,0.396,0.109,0.957,0.176,1.539H159.928z
		 M159.686,182.701h-0.308c-1.387,0-1.849,0.342-1.849,1.057c0,0.494,0.418,0.736,1.012,0.736c0.518,0,0.936-0.253,1.145-0.594
		V182.701z"/>
	<path d="M168.475,185.121v-3.189c0-0.748-0.198-1.211-0.913-1.211c-0.616,0-1.056,0.551-1.243,1.057v3.344h-0.979v-3.189
		c0-0.881-0.297-1.211-0.935-1.211c-0.562,0-1.013,0.616-1.166,0.99v3.41h-0.979v-3.872c0-0.418-0.088-0.781-0.121-1.155h0.892
		l0.187,0.715c0.198-0.285,0.715-0.857,1.354-0.857c0.88,0,1.243,0.33,1.584,0.912c0.286-0.461,0.814-0.912,1.54-0.912
		c1.166,0,1.761,0.615,1.761,1.958v3.212H168.475z"/>
	<path d="M176.823,185.32c-2.289,0-3.125-1.552-3.125-3.752c0-1.98,0.76-3.697,3.18-3.697c0.616,0,1.266,0.1,1.805,0.275
		l-0.353,0.936c-0.462-0.198-0.924-0.363-1.452-0.363c-1.562,0-2.046,1.188-2.046,2.838c0,1.75,0.483,2.916,1.979,2.916
		c0.572,0,1.023-0.188,1.596-0.418l0.352,0.936C178.132,185.209,177.571,185.32,176.823,185.32z"/>
	<path d="M183.104,185.121c0-0.043-0.165-0.494-0.176-0.55c-0.265,0.308-0.771,0.683-1.364,0.683c-1.145,0-1.893-0.473-1.893-1.453
		c0-1.022,0.583-1.781,2.729-1.781h0.451V181.7c0-0.528-0.154-0.979-0.858-0.979c-0.693,0-1.287,0.209-1.771,0.44l-0.341-0.814
		c0.627-0.231,1.364-0.385,2.146-0.385c1.067,0,1.815,0.506,1.815,1.606v2.014c0,0.396,0.109,0.957,0.176,1.539H183.104z
		 M182.861,182.701h-0.308c-1.387,0-1.849,0.342-1.849,1.057c0,0.494,0.418,0.736,1.012,0.736c0.518,0,0.936-0.253,1.145-0.594
		V182.701z"/>
	<path d="M191.65,185.121v-3.189c0-0.748-0.198-1.211-0.913-1.211c-0.616,0-1.056,0.551-1.243,1.057v3.344h-0.979v-3.189
		c0-0.881-0.297-1.211-0.935-1.211c-0.562,0-1.013,0.616-1.166,0.99v3.41h-0.979v-3.872c0-0.418-0.088-0.781-0.121-1.155h0.892
		l0.187,0.715c0.198-0.285,0.715-0.857,1.354-0.857c0.88,0,1.243,0.33,1.584,0.912c0.286-0.461,0.814-0.912,1.54-0.912
		c1.166,0,1.761,0.615,1.761,1.958v3.212H191.65z"/>
	<path d="M196.456,185.265c-0.561,0-1.078-0.297-1.353-0.683v2.52h-0.979v-5.489c0-0.595-0.044-0.946-0.121-1.519h0.892l0.197,0.704
		c0.231-0.341,0.672-0.847,1.299-0.847c1.562,0,2.112,1.254,2.112,2.684C198.503,184.032,197.876,185.265,196.456,185.265z
		 M196.192,180.721c-0.517,0-0.902,0.506-1.101,0.99v2.047c0.254,0.406,0.584,0.736,1.222,0.736c0.66,0,1.177-0.462,1.177-1.881
		C197.49,181.305,197.084,180.721,196.192,180.721z"/>
	<path d="M203.002,185.121l-0.177-0.703c-0.197,0.23-0.583,0.847-1.331,0.847c-1.342,0-1.749-0.847-1.749-2.003v-3.168h0.979v3.18
		c0,0.627,0.088,1.221,0.913,1.221c0.583,0,0.946-0.539,1.155-1.001v-3.399h0.979v3.961c0,0.418,0.088,0.693,0.121,1.066H203.002z"
		/>
	<path d="M206.797,185.265c-0.583,0-1.32-0.132-1.837-0.341l0.341-0.814c0.583,0.23,0.924,0.385,1.519,0.385
		c0.748,0,0.957-0.285,0.957-0.726c0-0.451-0.528-0.605-1.134-0.804c-0.759-0.242-1.617-0.539-1.617-1.551
		c0-1.133,1.034-1.463,2.014-1.463c0.484,0,0.979,0.099,1.672,0.33l-0.352,0.824c-0.507-0.23-0.814-0.385-1.343-0.385
		c-0.594,0-0.979,0.176-0.979,0.66c0,0.374,0.429,0.518,0.946,0.682c0.803,0.254,1.804,0.518,1.804,1.695
		C208.788,184.857,207.809,185.265,206.797,185.265z"/>
	<path d="M216.037,185.32c-1.991,0-2.871-0.925-2.871-2.828v-4.488h1.1v4.379c0,1.705,0.671,2.09,1.771,2.09
		c1.045,0,1.628-0.539,1.628-2.09v-4.379h1.101v4.51C218.766,184.406,217.83,185.32,216.037,185.32z"/>
	<path d="M223.286,181.029c-0.188-0.121-0.418-0.309-0.76-0.309c-0.616,0-0.847,0.902-0.979,1.211v3.189h-0.979v-3.905
		c0-0.495-0.088-0.869-0.121-1.122h0.892l0.176,0.881c0.176-0.342,0.616-1.023,1.188-1.023c0.396,0,0.66,0.088,0.935,0.253
		L223.286,181.029z"/>
	<path d="M226.058,185.265c-0.583,0-1.32-0.132-1.837-0.341l0.341-0.814c0.583,0.23,0.924,0.385,1.519,0.385
		c0.748,0,0.957-0.285,0.957-0.726c0-0.451-0.528-0.605-1.134-0.804c-0.759-0.242-1.617-0.539-1.617-1.551
		c0-1.133,1.034-1.463,2.014-1.463c0.484,0,0.979,0.099,1.672,0.33l-0.352,0.824c-0.507-0.23-0.814-0.385-1.343-0.385
		c-0.594,0-0.979,0.176-0.979,0.66c0,0.374,0.429,0.518,0.945,0.682c0.804,0.254,1.805,0.518,1.805,1.695
		C228.049,184.857,227.069,185.265,226.058,185.265z"/>
	<path d="M231.502,186.013c-1.154-0.286-2.002-1.013-2.002-2.134v-3.025h-0.814v-0.771h0.814v-1.31h0.99v1.31h1.166v0.771h-1.166
		v3.047c0,0.682,0.528,1.057,1.354,1.221L231.502,186.013z"/>
	<path d="M233.515,182.987c0.066,0.935,0.462,1.529,1.331,1.529c0.507,0,1.002-0.165,1.529-0.429l0.319,0.77
		c-0.594,0.275-1.276,0.396-1.937,0.396c-1.573,0-2.288-1.199-2.288-2.597c0-1.166,0.473-2.695,2.233-2.695
		c1.782,0,2.267,1.122,2.267,3.025H233.515z M234.714,180.721c-0.594,0-1.155,0.43-1.21,1.529h2.508
		C235.979,181.172,235.518,180.721,234.714,180.721z"/>
	<path d="M238.212,178.972v-0.968h1.056v0.968H238.212z M238.244,185.121v-5.027h0.99v5.027H238.244z"/>
	<path d="M243.865,185.121v-3.18c0-0.637-0.088-1.221-0.945-1.221c-0.583,0-0.99,0.539-1.199,1.002v3.398h-0.979v-3.96
		c0-0.418-0.088-0.693-0.121-1.067h0.892l0.176,0.704c0.198-0.231,0.627-0.847,1.375-0.847c1.408,0,1.782,0.847,1.782,2.002v3.168
		H243.865z"/>
	<path d="M255.383,185.121v-3.189c0-0.748-0.198-1.211-0.913-1.211c-0.616,0-1.056,0.551-1.243,1.057v3.344h-0.979v-3.189
		c0-0.881-0.297-1.211-0.935-1.211c-0.562,0-1.013,0.616-1.166,0.99v3.41h-0.979v-3.872c0-0.418-0.088-0.781-0.121-1.155h0.892
		l0.187,0.715c0.198-0.285,0.715-0.857,1.354-0.857c0.88,0,1.243,0.33,1.584,0.912c0.286-0.461,0.814-0.912,1.54-0.912
		c1.166,0,1.761,0.615,1.761,1.958v3.212H255.383z"/>
	<path d="M257.835,178.972v-0.968h1.056v0.968H257.835z M257.867,185.121v-5.027h0.99v5.027H257.867z"/>
	<path d="M262.575,186.013c-1.154-0.286-2.002-1.013-2.002-2.134v-3.025h-0.814v-0.771h0.814v-1.31h0.99v1.31h1.166v0.771h-1.166
		v3.047c0,0.682,0.528,1.057,1.354,1.221L262.575,186.013z"/>
	<path d="M269.979,185.121l-0.176-0.55c-0.231,0.353-0.683,0.683-1.243,0.683c-1.596,0-2.189-1.232-2.189-2.674
		c0-1.408,0.671-2.618,2.068-2.618c0.649,0,1.067,0.451,1.331,0.836v-2.904h0.979v5.688c0,0.637,0.044,0.935,0.121,1.539H269.979z
		 M269.792,181.744c-0.209-0.418-0.562-1.023-1.232-1.023c-0.649,0-1.178,0.463-1.178,1.881c0,1.332,0.418,1.893,1.31,1.893
		c0.473,0,0.825-0.297,1.101-0.736V181.744z"/>
	<path d="M273.036,182.987c0.066,0.935,0.462,1.529,1.331,1.529c0.507,0,1.002-0.165,1.529-0.429l0.319,0.77
		c-0.594,0.275-1.276,0.396-1.937,0.396c-1.573,0-2.288-1.199-2.288-2.597c0-1.166,0.473-2.695,2.233-2.695
		c1.782,0,2.267,1.122,2.267,3.025H273.036z M274.235,180.721c-0.594,0-1.155,0.43-1.21,1.529h2.508
		C275.501,181.172,275.039,180.721,274.235,180.721z"/>
	<path d="M280.879,185.121v-3.18c0-0.637-0.088-1.221-0.945-1.221c-0.583,0-0.99,0.539-1.199,1.002v3.398h-0.979v-3.96
		c0-0.418-0.088-0.693-0.121-1.067h0.892l0.176,0.704c0.198-0.231,0.627-0.847,1.375-0.847c1.408,0,1.782,0.847,1.782,2.002v3.168
		H280.879z"/>
	<path d="M159.289,195.121h-0.924l-1.947-5.027h1.057l1.386,3.828l1.354-3.828h1.012L159.289,195.121z"/>
	<path d="M162.369,188.972v-0.968h1.056v0.968H162.369z M162.401,195.121v-5.027h0.99v5.027H162.401z"/>
	<path d="M165.69,192.987c0.066,0.935,0.462,1.529,1.331,1.529c0.507,0,1.002-0.165,1.529-0.429l0.319,0.77
		c-0.594,0.275-1.276,0.396-1.937,0.396c-1.573,0-2.288-1.199-2.288-2.597c0-1.166,0.473-2.695,2.233-2.695
		c1.782,0,2.267,1.122,2.267,3.025H165.69z M166.89,190.721c-0.594,0-1.155,0.43-1.21,1.529h2.508
		C168.155,191.172,167.693,190.721,166.89,190.721z"/>
	<path d="M173.127,191.029c-0.188-0.121-0.418-0.309-0.76-0.309c-0.616,0-0.847,0.902-0.979,1.211v3.189h-0.979v-3.905
		c0-0.495-0.088-0.869-0.121-1.122h0.892l0.176,0.881c0.176-0.342,0.616-1.023,1.188-1.023c0.396,0,0.66,0.088,0.935,0.253
		L173.127,191.029z"/>
	<path d="M181.564,190.645h-0.66c0.23,0.197,0.55,0.67,0.55,1.199c0,0.891-0.495,1.914-2.167,1.914
		c-0.231,0-0.848-0.088-1.078-0.209c-0.133,0.121-0.254,0.23-0.254,0.429c0,0.264,0.242,0.396,1.508,0.495
		c1.914,0.154,2.343,0.627,2.343,1.408c0,1.057-1.21,1.441-2.453,1.441c-1.881,0-2.486-0.562-2.486-1.408
		c0-0.594,0.616-0.881,0.936-0.99c-0.407-0.176-0.683-0.495-0.683-0.902c0-0.363,0.275-0.627,0.539-0.848
		c-0.143-0.176-0.539-0.594-0.539-1.33c0-0.584,0.309-1.882,2.146-1.882c0.374,0,0.605,0.044,0.847,0.11
		c0.407-0.033,1.199-0.1,1.728-0.121L181.564,190.645z M178.473,195.209c-0.374,0.121-0.583,0.418-0.583,0.672
		c0,0.439,0.583,0.727,1.463,0.727c1.057,0,1.431-0.254,1.431-0.727C180.783,195.551,180.288,195.287,178.473,195.209z
		 M179.287,190.71c-0.693,0-1.145,0.396-1.145,1.155c0,0.748,0.418,1.155,1.155,1.155c0.858,0,1.133-0.605,1.133-1.199
		C180.431,191.117,180.067,190.71,179.287,190.71z"/>
	<path d="M185.646,191.029c-0.188-0.121-0.418-0.309-0.76-0.309c-0.616,0-0.847,0.902-0.979,1.211v3.189h-0.979v-3.905
		c0-0.495-0.088-0.869-0.121-1.122h0.892l0.176,0.881c0.176-0.342,0.616-1.023,1.188-1.023c0.396,0,0.66,0.088,0.935,0.253
		L185.646,191.029z"/>
	<path d="M188.989,195.265c-1.749,0-2.354-1.232-2.354-2.685c0-1.387,0.616-2.629,2.354-2.629c1.749,0,2.343,1.177,2.343,2.629
		S190.728,195.265,188.989,195.265z M188.989,190.721c-0.925,0-1.343,0.627-1.343,1.859c0,1.166,0.353,1.914,1.343,1.914
		c0.957,0,1.331-0.693,1.331-1.914C190.32,191.348,189.968,190.721,188.989,190.721z M187.669,189.137v-0.913h0.924v0.913H187.669z
		 M189.374,189.137v-0.913h0.924v0.913H189.374z"/>
	<path d="M194.049,195.969l0.33-0.848c0.979,0,1.605-0.527,1.605-1.474c0-1.31-1.21-1.661-1.826-1.837v-0.781
		c0.342-0.221,1.155-0.705,1.155-1.519c0-0.604-0.473-0.858-0.902-0.858c-0.539,0-0.857,0.242-0.857,1.166v5.303h-0.979v-5.182
		c0-1.386,0.616-2.046,1.837-2.046c0.925,0,1.903,0.386,1.903,1.65c0,1.122-1.078,1.617-1.353,1.804
		c0.583,0.242,2.024,0.617,2.024,2.322C196.986,195.463,195.445,195.969,194.049,195.969z"/>
	<path d="M200.461,196.013c-1.154-0.286-2.002-1.013-2.002-2.134v-3.025h-0.814v-0.771h0.814v-1.31h0.99v1.31h1.166v0.771h-1.166
		v3.047c0,0.682,0.528,1.057,1.354,1.221L200.461,196.013z"/>
	<path d="M202.474,192.987c0.066,0.935,0.462,1.529,1.331,1.529c0.507,0,1.002-0.165,1.529-0.429l0.319,0.77
		c-0.594,0.275-1.276,0.396-1.937,0.396c-1.573,0-2.288-1.199-2.288-2.597c0-1.166,0.473-2.695,2.233-2.695
		c1.782,0,2.267,1.122,2.267,3.025H202.474z M203.673,190.721c-0.594,0-1.155,0.43-1.21,1.529h2.508
		C204.938,191.172,204.477,190.721,203.673,190.721z"/>
	<path d="M210.316,195.121v-3.18c0-0.637-0.088-1.221-0.945-1.221c-0.583,0-0.99,0.539-1.199,1.002v3.398h-0.979v-3.96
		c0-0.418-0.088-0.693-0.121-1.067h0.892l0.176,0.704c0.198-0.231,0.627-0.847,1.375-0.847c1.408,0,1.782,0.847,1.782,2.002v3.168
		H210.316z"/>
	<path d="M218.875,195.121h-1.001l-2.685-7.117h1.21l2.002,5.721l1.903-5.721h1.155L218.875,195.121z"/>
	<path d="M222.746,192.987c0.066,0.935,0.462,1.529,1.331,1.529c0.507,0,1.001-0.165,1.529-0.429l0.319,0.77
		c-0.594,0.275-1.276,0.396-1.937,0.396c-1.573,0-2.288-1.199-2.288-2.597c0-1.166,0.473-2.695,2.233-2.695
		c1.782,0,2.267,1.122,2.267,3.025H222.746z M223.945,190.721c-0.594,0-1.155,0.43-1.21,1.529h2.508
		C225.211,191.172,224.749,190.721,223.945,190.721z"/>
	<path d="M230.183,191.029c-0.188-0.121-0.418-0.309-0.76-0.309c-0.616,0-0.847,0.902-0.979,1.211v3.189h-0.979v-3.905
		c0-0.495-0.088-0.869-0.121-1.122h0.892l0.176,0.881c0.176-0.342,0.616-1.023,1.188-1.023c0.396,0,0.66,0.088,0.935,0.253
		L230.183,191.029z"/>
	<path d="M233.614,195.254c-0.616,0-1.045-0.385-1.243-0.683l-0.176,0.55h-0.892c0.077-0.604,0.121-0.902,0.121-1.539v-5.688h0.979
		v2.904c0.264-0.385,0.715-0.836,1.353-0.836c1.497,0,2.047,1.222,2.047,2.618C235.804,194.021,235.11,195.254,233.614,195.254z
		 M233.625,190.721c-0.682,0-1.034,0.627-1.243,1.023v2.014c0.209,0.461,0.627,0.736,1.101,0.736c0.803,0,1.309-0.561,1.309-1.893
		C234.791,191.161,234.285,190.721,233.625,190.721z"/>
	<path d="M239.764,191.029c-0.188-0.121-0.418-0.309-0.76-0.309c-0.616,0-0.847,0.902-0.979,1.211v3.189h-0.979v-3.905
		c0-0.495-0.088-0.869-0.121-1.122h0.892l0.176,0.881c0.176-0.342,0.616-1.023,1.188-1.023c0.396,0,0.66,0.088,0.935,0.253
		L239.764,191.029z"/>
	<path d="M244.186,195.121c0-0.043-0.165-0.494-0.176-0.55c-0.265,0.308-0.771,0.683-1.364,0.683c-1.145,0-1.893-0.473-1.893-1.453
		c0-1.022,0.583-1.781,2.729-1.781h0.451V191.7c0-0.528-0.154-0.979-0.858-0.979c-0.693,0-1.287,0.209-1.771,0.44l-0.341-0.814
		c0.627-0.231,1.364-0.385,2.146-0.385c1.067,0,1.815,0.506,1.815,1.606v2.014c0,0.396,0.109,0.957,0.176,1.539H244.186z
		 M243.943,192.701h-0.308c-1.387,0-1.849,0.342-1.849,1.057c0,0.494,0.418,0.736,1.012,0.736c0.518,0,0.936-0.253,1.145-0.594
		V192.701z"/>
	<path d="M249.773,195.121l-0.177-0.703c-0.197,0.23-0.583,0.847-1.331,0.847c-1.342,0-1.749-0.847-1.749-2.003v-3.168h0.979v3.18
		c0,0.627,0.088,1.221,0.913,1.221c0.583,0,0.946-0.539,1.155-1.001v-3.399h0.979v3.961c0,0.418,0.088,0.693,0.121,1.066H249.773z"
		/>
	<path d="M254.141,195.254c-1.596,0-2.354-1.067-2.354-2.607c0-1.629,0.737-2.685,2.388-2.685c0.45,0,1.287,0.198,1.649,0.341
		l-0.341,0.814c-0.374-0.188-0.946-0.396-1.32-0.396c-0.979,0-1.364,0.639-1.364,1.926c0,1.177,0.43,1.848,1.354,1.848
		c0.341,0,0.936-0.176,1.364-0.396l0.341,0.813C255.472,195.1,254.525,195.254,254.141,195.254z"/>
	<path d="M260.125,195.121v-3.156c0-0.683-0.11-1.244-0.946-1.244c-0.605,0-1.002,0.562-1.199,1.002v3.398H257v-7.228h0.979v2.904
		c0.187-0.297,0.648-0.847,1.353-0.847c1.408,0,1.771,0.88,1.771,1.969v3.201H260.125z"/>
	<path d="M263.391,192.987c0.066,0.935,0.462,1.529,1.331,1.529c0.507,0,1.001-0.165,1.529-0.429l0.319,0.77
		c-0.594,0.275-1.276,0.396-1.937,0.396c-1.573,0-2.288-1.199-2.288-2.597c0-1.166,0.473-2.695,2.233-2.695
		c1.782,0,2.267,1.122,2.267,3.025H263.391z M264.59,190.721c-0.594,0-1.155,0.43-1.21,1.529h2.508
		C265.855,191.172,265.394,190.721,264.59,190.721z"/>
	<path d="M270.827,191.029c-0.188-0.121-0.418-0.309-0.76-0.309c-0.616,0-0.847,0.902-0.979,1.211v3.189h-0.979v-3.905
		c0-0.495-0.088-0.869-0.121-1.122h0.892l0.176,0.881c0.176-0.342,0.616-1.023,1.188-1.023c0.396,0,0.66,0.088,0.935,0.253
		L270.827,191.029z"/>
	<path d="M275.193,195.121v-3.18c0-0.637-0.088-1.221-0.945-1.221c-0.583,0-0.99,0.539-1.199,1.002v3.398h-0.979v-3.96
		c0-0.418-0.088-0.693-0.121-1.067h0.892l0.176,0.704c0.198-0.231,0.627-0.847,1.375-0.847c1.408,0,1.782,0.847,1.782,2.002v3.168
		H275.193z"/>
	<path d="M277.789,195.121v-1.056h1.089v1.056H277.789z"/>
</g>
<g>
	<path d="M144.688,24.169h-2.497l-2.018-7.235l-2.368,7.235h-2.497l-2.354-10.356h2.129l1.729,7.907l2.273-7.475h2.497l1.889,7.475
		l1.904-7.907h1.969L144.688,24.169z"/>
	<path d="M154.717,24.169l-0.928-2.769h-3.697l-0.977,2.769h-2.146l4.21-10.356h1.856l3.906,10.356H154.717z M152.012,16.054
		l-1.36,3.826h2.625L152.012,16.054z"/>
	<path d="M161.531,24.473c-0.896,0-2.226-0.256-3.105-0.496l0.624-1.697c0.769,0.288,1.648,0.64,2.497,0.64
		c1.297,0,2.209-0.24,2.209-1.409c0-1.104-1.248-1.473-2.545-1.969c-1.377-0.528-2.785-1.216-2.785-3.089
		c0-2.049,2.113-2.849,4.018-2.849c0.704,0,2.064,0.16,2.913,0.448l-0.624,1.697c-0.593-0.256-1.345-0.592-2.337-0.592
		c-1.505,0-1.921,0.688-1.921,1.296c0,0.833,0.977,1.137,2.081,1.537c1.488,0.528,3.249,1.217,3.249,3.49
		C165.805,23.977,163.66,24.473,161.531,24.473z"/>
	<path d="M171.035,24.473c-0.896,0-2.226-0.256-3.105-0.496l0.624-1.697c0.769,0.288,1.648,0.64,2.497,0.64
		c1.297,0,2.209-0.24,2.209-1.409c0-1.104-1.248-1.473-2.545-1.969c-1.377-0.528-2.785-1.216-2.785-3.089
		c0-2.049,2.113-2.849,4.018-2.849c0.704,0,2.064,0.16,2.913,0.448l-0.624,1.697c-0.593-0.256-1.345-0.592-2.337-0.592
		c-1.505,0-1.921,0.688-1.921,1.296c0,0.833,0.977,1.137,2.081,1.537c1.488,0.528,3.249,1.217,3.249,3.49
		C175.309,23.977,173.164,24.473,171.035,24.473z"/>
	<path d="M177.914,24.169V13.813h6.146v1.552h-4.13v2.673h3.794v1.553h-3.794v3.025h4.273v1.553H177.914z"/>
	<path d="M192.828,24.169l-3.153-4.306h-0.448v4.306h-2.017V13.813h3.873c1.648,0,3.506,0.544,3.506,2.993
		c0,1.393-0.624,2.689-2.562,2.993l3.266,4.37H192.828z M191.163,15.365h-1.937v2.945h1.953c0.928,0,1.36-0.64,1.36-1.504
		C192.54,15.941,192.107,15.365,191.163,15.365z"/>
	<path d="M202.188,24.169h-1.857l-3.905-10.356h2.225l2.657,7.875l2.513-7.875h2.146L202.188,24.169z"/>
	<path d="M207.914,24.169V13.813h6.146v1.552h-4.13v2.673h3.794v1.553h-3.794v3.025h4.273v1.553H207.914z"/>
	<path d="M222.828,24.169l-3.153-4.306h-0.448v4.306h-2.017V13.813h3.873c1.648,0,3.506,0.544,3.506,2.993
		c0,1.393-0.624,2.689-2.562,2.993l3.266,4.37H222.828z M221.163,15.365h-1.937v2.945h1.953c0.928,0,1.36-0.64,1.36-1.504
		C222.54,15.941,222.107,15.365,221.163,15.365z"/>
	<path d="M231.676,24.169h-4.193V13.813h3.665c1.937,0,3.489,0.624,3.489,2.849c0,1.088-0.704,1.809-1.648,2.081
		c1.28,0.176,2.129,0.944,2.129,2.401C235.117,23.513,233.501,24.169,231.676,24.169z M231.147,15.365h-1.648v2.705h1.873
		c0.704,0,1.216-0.464,1.216-1.393C232.588,15.99,232.269,15.365,231.147,15.365z M231.403,19.607h-1.904v3.009h2.081
		c0.784,0,1.473-0.336,1.473-1.473C233.053,19.975,232.316,19.607,231.403,19.607z"/>
	<path d="M243.101,24.169l-3.153-4.306h-0.448v4.306h-2.017V13.813h3.873c1.648,0,3.506,0.544,3.506,2.993
		c0,1.393-0.624,2.689-2.562,2.993l3.266,4.37H243.101z M241.436,15.365h-1.937v2.945h1.953c0.928,0,1.36-0.64,1.36-1.504
		C242.812,15.941,242.38,15.365,241.436,15.365z"/>
	<path d="M254.46,24.169l-0.928-2.769h-3.698l-0.976,2.769h-2.146l4.21-10.356h1.856l3.906,10.356H254.46z M251.755,16.054
		l-1.36,3.826h2.625L251.755,16.054z"/>
	<path d="M263.036,24.473c-2.962,0-4.386-1.361-4.386-4.13v-6.53h2.017v6.37c0,2.321,1.072,2.737,2.369,2.737
		c1.265,0,2.16-0.688,2.16-2.737v-6.37h2.018v6.562C267.214,23.128,265.709,24.473,263.036,24.473z"/>
	<path d="M274.428,24.473c-3.489,0-4.77-2.209-4.77-5.474c0-2.881,1.152-5.395,4.834-5.395c0.896,0,1.953,0.16,2.737,0.417
		l-0.624,1.697c-0.673-0.289-1.345-0.561-2.113-0.561c-2.033,0-2.753,1.425-2.753,3.826c0,2.545,0.688,3.938,2.657,3.938
		c0.864,0,1.488-0.304,2.32-0.64l0.625,1.697C276.429,24.297,275.597,24.473,274.428,24.473z"/>
	<path d="M285.469,24.169v-4.562h-4.033v4.562h-2.017V13.813h2.017v4.226h4.033v-4.226h2.018v10.356H285.469z"/>
	<path d="M137.649,38.169l-0.183-0.812c-0.35,0.504-1.093,0.953-1.863,0.953c0,0-0.014,0-0.027,0
		c-1.835-0.028-2.479-1.541-2.479-3.376c0-1.807,0.84-3.306,2.451-3.306c0.994,0,1.611,0.672,1.877,1.148v-3.81h0.574v7.242
		c0,0.812,0.028,1.148,0.112,1.961H137.649z M137.453,33.532c-0.141-0.378-0.645-1.442-1.85-1.442c-1.134,0-1.891,0.91-1.891,2.872
		c0,1.695,0.519,2.885,2.003,2.885c0.7,0,1.316-0.378,1.737-1.064V33.532z"/>
	<path d="M140.32,35.101c0,1.527,0.463,2.746,2.031,2.746c0.742,0,1.316-0.224,1.976-0.574l0.168,0.518
		c-0.729,0.351-1.499,0.519-2.256,0.519c-1.862,0-2.549-1.499-2.549-3.278c0-1.485,0.574-3.404,2.521-3.404
		c2.073,0,2.521,1.569,2.521,3.474H140.32z M142.212,32.09c-1.233,0-1.821,1.008-1.905,2.549h3.866
		C144.173,32.958,143.612,32.09,142.212,32.09z"/>
	<path d="M149.548,32.44c-0.378-0.28-0.728-0.35-1.036-0.35c-0.826,0-1.261,1.176-1.471,1.597v4.482h-0.574v-4.973
		c0-0.63-0.084-1.106-0.112-1.429h0.462l0.183,1.205c0.266-0.504,0.729-1.345,1.61-1.345c0.393,0,0.743,0.07,1.149,0.308
		L149.548,32.44z"/>
	<path d="M155.202,29.638v3.642h4.007v0.504h-4.007v4.384h-0.645v-9.063h4.819v0.532H155.202z"/>
	<path d="M166.881,38.169v-4.413h-4.65v4.413h-0.645v-9.063h0.645v4.118h4.65v-4.118h0.645v9.063H166.881z"/>
	<path d="M175.419,38.393c-0.784,0-1.526-0.182-2.297-0.392l0.252-0.588c0.673,0.252,1.317,0.462,2.06,0.462
		c1.051,0,2.381-0.393,2.381-1.989c0-1.331-1.106-1.751-2.269-2.157c-1.205-0.42-2.424-0.911-2.424-2.479
		c0-1.667,1.316-2.283,2.983-2.283c0.616,0,1.359,0.14,2.102,0.393l-0.252,0.588c-0.519-0.224-1.064-0.462-1.934-0.462
		c-1.219,0-2.227,0.42-2.227,1.765c0,1.079,0.952,1.471,2.003,1.835c1.288,0.448,2.689,0.967,2.689,2.774
		C178.487,37.791,177.086,38.393,175.419,38.393z"/>
	<path d="M184.521,38.169c-0.014-0.154-0.196-0.588-0.224-0.812c-0.322,0.532-0.98,0.953-1.863,0.953
		c-1.121,0-2.241-0.532-2.241-1.821c0-1.303,0.672-2.144,3.39-2.144h0.658v-0.588c0-1.05-0.406-1.667-1.471-1.667
		c-0.883,0-1.484,0.252-2.087,0.546l-0.21-0.504c0.687-0.266,1.33-0.504,2.283-0.504c1.261,0,2.059,0.658,2.059,2.059v2.521
		c0,0.504,0.084,1.148,0.168,1.961H184.521z M184.255,34.821h-0.477c-2.27,0-2.97,0.476-2.97,1.653c0,0.812,0.561,1.373,1.625,1.373
		c0.826,0,1.513-0.406,1.821-1.022V34.821z"/>
	<path d="M186.912,38.169v-9.203h0.574v9.203H186.912z"/>
	<path d="M189.712,37.707h3.544v0.462h-3.964l-0.211-0.504l3.698-5.435h-3.418v-0.462h3.824l0.21,0.504L189.712,37.707z"/>
	<path d="M197.413,38.309c-0.771,0-1.541-0.448-1.891-0.953l-0.183,0.812h-0.462c0.084-0.812,0.112-1.148,0.112-1.961v-7.242h0.574
		v3.81c0.266-0.476,0.967-1.148,1.919-1.148c1.751,0,2.409,1.527,2.409,3.306C199.893,36.768,199.234,38.309,197.413,38.309z
		 M197.441,32.09c-1.232,0-1.779,1.121-1.905,1.442v3.25c0.42,0.687,1.037,1.064,1.737,1.064c1.484,0,2.003-1.19,2.003-2.885
		C199.276,32.944,198.52,32.09,197.441,32.09z"/>
	<path d="M205.688,38.169l-0.182-1.009c-0.238,0.309-0.672,1.149-1.919,1.149c-1.527,0-2.003-1.037-2.003-2.507v-4.034h0.574v3.922
		c0,1.163,0.21,2.157,1.583,2.157c0.924,0,1.526-0.854,1.723-1.429v-4.65h0.574v5.042c0,0.532,0.084,0.827,0.112,1.359H205.688z"/>
	<path d="M211.133,32.44c-0.378-0.28-0.729-0.35-1.036-0.35c-0.826,0-1.261,1.176-1.471,1.597v4.482h-0.574v-4.973
		c0-0.63-0.084-1.106-0.112-1.429h0.462l0.183,1.205c0.266-0.504,0.729-1.345,1.61-1.345c0.393,0,0.743,0.07,1.149,0.308
		L211.133,32.44z"/>
	<path d="M214.898,40.928c-2.073,0-2.83-0.672-2.83-1.75c0-0.812,0.854-1.275,1.401-1.401c-0.448-0.182-0.896-0.49-0.896-1.009
		c0-0.462,0.294-0.728,0.561-0.995c-0.211-0.238-0.743-0.728-0.743-1.807c0-0.743,0.435-2.339,2.396-2.339
		c0.477,0,0.841,0.07,1.064,0.182c0.519-0.042,1.079-0.112,1.751-0.14l-0.21,0.504h-0.98c0.378,0.266,0.812,0.938,0.812,1.751
		c0,1.232-0.631,2.437-2.409,2.437c-0.421,0-1.093-0.168-1.317-0.322c-0.195,0.21-0.363,0.42-0.363,0.686
		c0,0.406,0.266,0.616,1.904,0.798c2.13,0.224,2.634,0.883,2.634,1.597C217.672,40.34,216.425,40.928,214.898,40.928z
		 M214.016,37.945c-0.896,0.182-1.33,0.742-1.33,1.233c0,0.742,0.56,1.289,2.213,1.289c1.499,0,2.157-0.561,2.157-1.345
		C217.056,38.323,216.131,38.127,214.016,37.945z M214.814,32.09c-1.373,0-1.808,0.994-1.808,1.905c0,1.022,0.505,1.905,1.821,1.905
		s1.779-0.883,1.779-1.947C216.607,32.762,215.963,32.09,214.814,32.09z"/>
	<path d="M224.838,38.309c-0.938,0-1.583-0.462-1.919-0.924v3.306h-0.574v-7.032c0-0.659-0.028-1.233-0.112-1.891h0.462l0.21,1.022
		c0.322-0.532,0.953-1.163,1.892-1.163c1.863,0,2.451,1.569,2.451,3.376C227.247,36.796,226.448,38.309,224.838,38.309z
		 M224.684,32.09c-0.883,0-1.583,0.798-1.779,1.442v3.278c0.309,0.35,0.715,1.037,1.85,1.037c1.106,0,1.877-0.91,1.877-2.872
		C226.631,33.351,226.169,32.09,224.684,32.09z"/>
	<path d="M232.02,32.44c-0.378-0.28-0.729-0.35-1.036-0.35c-0.826,0-1.261,1.176-1.471,1.597v4.482h-0.574v-4.973
		c0-0.63-0.084-1.106-0.112-1.429h0.462l0.183,1.205c0.266-0.504,0.729-1.345,1.61-1.345c0.393,0,0.743,0.07,1.149,0.308
		L232.02,32.44z"/>
	<path d="M235.757,38.309c-2.045,0-2.661-1.513-2.661-3.376c0-1.765,0.616-3.306,2.661-3.306s2.647,1.471,2.647,3.306
		C238.404,36.796,237.802,38.309,235.757,38.309z M235.757,32.09c-1.526,0-2.045,1.274-2.045,2.843s0.406,2.914,2.045,2.914
		c1.695,0,2.031-1.345,2.031-2.914S237.382,32.09,235.757,32.09z"/>
	<path d="M246.117,29.638v8.531h-0.645v-8.531h-2.773v-0.532h6.191v0.532H246.117z"/>
	<path d="M253.089,38.169c-0.014-0.154-0.196-0.588-0.224-0.812c-0.322,0.532-0.98,0.953-1.863,0.953
		c-1.121,0-2.241-0.532-2.241-1.821c0-1.303,0.672-2.144,3.39-2.144h0.658v-0.588c0-1.05-0.406-1.667-1.471-1.667
		c-0.883,0-1.484,0.252-2.087,0.546l-0.21-0.504c0.687-0.266,1.33-0.504,2.283-0.504c1.261,0,2.059,0.658,2.059,2.059v2.521
		c0,0.504,0.084,1.148,0.168,1.961H253.089z M252.823,34.821h-0.477c-2.27,0-2.97,0.476-2.97,1.653c0,0.812,0.561,1.373,1.625,1.373
		c0.826,0,1.513-0.406,1.821-1.022V34.821z"/>
	<path d="M257.848,40.928c-2.073,0-2.83-0.672-2.83-1.75c0-0.812,0.854-1.275,1.401-1.401c-0.448-0.182-0.896-0.49-0.896-1.009
		c0-0.462,0.294-0.728,0.561-0.995c-0.211-0.238-0.743-0.728-0.743-1.807c0-0.743,0.435-2.339,2.396-2.339
		c0.477,0,0.841,0.07,1.064,0.182c0.519-0.042,1.079-0.112,1.751-0.14l-0.21,0.504h-0.98c0.378,0.266,0.812,0.938,0.812,1.751
		c0,1.232-0.631,2.437-2.409,2.437c-0.421,0-1.093-0.168-1.317-0.322c-0.195,0.21-0.363,0.42-0.363,0.686
		c0,0.406,0.266,0.616,1.904,0.798c2.13,0.224,2.634,0.883,2.634,1.597C260.621,40.34,259.374,40.928,257.848,40.928z
		 M256.965,37.945c-0.896,0.182-1.33,0.742-1.33,1.233c0,0.742,0.56,1.289,2.213,1.289c1.499,0,2.157-0.561,2.157-1.345
		C260.005,38.323,259.08,38.127,256.965,37.945z M257.764,32.09c-1.373,0-1.808,0.994-1.808,1.905c0,1.022,0.505,1.905,1.821,1.905
		s1.779-0.883,1.779-1.947C259.557,32.762,258.912,32.09,257.764,32.09z"/>
</g>
</svg>
