<?xml version="1.0" encoding="utf-8"?>
<!-- Generator: Adobe Illustrator 16.0.0, SVG Export Plug-In . SVG Version: 6.00 Build 0)  -->
<!DOCTYPE svg PUBLIC "-//W3C//DTD SVG 1.1//EN" "http://www.w3.org/Graphics/SVG/1.1/DTD/svg11.dtd">
<svg version="1.1" id="Layer_1" xmlns="http://www.w3.org/2000/svg" xmlns:xlink="http://www.w3.org/1999/xlink" x="0px" y="0px"
	 width="312px" height="212px" viewBox="0 0 312 212" enable-background="new 0 0 312 212" xml:space="preserve">
<rect fill="#FFFFFF" width="312" height="212"/>
<g>
	<path fill="#12DDC8" d="M41.162,168.062c-26.131-26.131-26.131-68.496,0-94.627L88.49,26.107c0,0,15.295,15.326,47.298,47.328
		c26.13,26.131,26.13,68.496,0,94.627C109.657,194.195,67.291,194.193,41.162,168.062"/>
	<path fill="#0DAF9E" d="M177.387,119.316c-11.82-11.82-11.738-31.066,0.184-42.988l21.592-21.592c0,0,6.92,6.934,21.396,21.409
		c11.82,11.821,11.738,31.066-0.183,42.988C208.453,131.055,189.207,131.137,177.387,119.316"/>
	<path fill="#04544A" d="M236.792,139.476c-8.806-8.805-8.729-23.161,0.174-32.063l16.124-16.125c0,0,5.156,5.165,15.941,15.951
		c8.806,8.807,8.728,23.163-0.174,32.063C259.954,148.205,245.598,148.283,236.792,139.476"/>
	<path fill="#098274" d="M241.176,81.732c-6.343-6.342-6.344-16.627,0-22.971l11.489-11.488c0,0,3.713,3.719,11.482,11.488
		c6.343,6.344,6.343,16.629,0,22.971C257.804,88.076,247.52,88.076,241.176,81.732"/>
	<rect x="30.646" y="97.367" fill="none" width="115.658" height="43.654"/>
	<text transform="matrix(1 0 0 1 54.9355 113.1357)"><tspan x="0" y="0" fill="#FFFFFF" font-family="'Colaborate-Regular'" font-size="24">2.000 l</tspan><tspan x="-4.491" y="24" fill="#FFFFFF" font-family="'Colaborate-Regular'" font-size="21">Toiletten</tspan></text>
	<rect x="172.74" y="82.5" fill="none" width="53.638" height="37.844"/>
	<text transform="matrix(1 0 0 1 188.4277 89.7271)"><tspan x="0" y="0" fill="#FFFFFF" font-family="'Colaborate-Regular'" font-size="11">560 l </tspan><tspan x="-11.341" y="10" fill="#FFFFFF" font-family="'Colaborate-Regular'" font-size="11">Kaffeeau</tspan><tspan x="29.886" y="10" fill="#FFFFFF" font-family="'Colaborate-Regular'" font-size="11">-</tspan><tspan x="-7.8" y="20" fill="#FFFFFF" font-family="'Colaborate-Regular'" font-size="11">tomaten</tspan></text>
	<rect x="231.935" y="113.573" fill="none" width="41.501" height="20.405"/>
	<text transform="matrix(1 0 0 1 242.5654 120.1426)"><tspan x="0" y="0" fill="#FFFFFF" font-family="'Colaborate-Regular'" font-size="10">260 l </tspan><tspan x="-10.545" y="10" fill="#FFFFFF" font-family="'Colaborate-Regular'" font-size="10">Reinigung</tspan></text>
	<rect x="241.466" y="61.844" fill="none" width="22.438" height="19.656"/>
	<text transform="matrix(1 0 0 1 242.5654 68.4136)"><tspan x="0" y="0" fill="#FFFFFF" font-family="'Colaborate-Regular'" font-size="10">100 l</tspan><tspan x="-0.181" y="10" fill="#FFFFFF" font-family="'Colaborate-Regular'" font-size="10">Fago</tspan></text>
</g>
<rect x="156" y="157.895" fill="none" width="132" height="45.605"/>
<text transform="matrix(1 0 0 1 156 165.1211)"><tspan x="0" y="0" font-family="'Colaborate-Regular'" font-size="11">Übersicht über den Wasser- </tspan><tspan x="0" y="10" font-family="'Colaborate-Regular'" font-size="11">verbrauch der FH Salzburg </tspan><tspan x="0" y="20" font-family="'Colaborate-Regular'" font-size="11">am Campus Urstein mit den </tspan><tspan x="0" y="30" font-family="'Colaborate-Regular'" font-size="11">vier größten Verbrauchern.</tspan></text>
<rect x="132.41" y="13.657" fill="none" width="159.026" height="25.282"/>
<text transform="matrix(1 0 0 1 132.4102 24.1689)"><tspan x="0" y="0" font-family="'Colaborate-Medium'" font-size="16">WASSERVERBRAUCH</tspan><tspan x="0" y="14" font-family="'Colaborate-Thin'" font-size="14">der FH Salzburg pro Tag</tspan></text>
</svg>
