<?xml version="1.0" encoding="utf-8"?>
<!-- Generator: Adobe Illustrator 16.0.0, SVG Export Plug-In . SVG Version: 6.00 Build 0)  -->
<!DOCTYPE svg PUBLIC "-//W3C//DTD SVG 1.1//EN" "http://www.w3.org/Graphics/SVG/1.1/DTD/svg11.dtd">
<svg version="1.1" id="Layer_1" xmlns="http://www.w3.org/2000/svg" xmlns:xlink="http://www.w3.org/1999/xlink" x="0px" y="0px"
	 width="312px" height="212px" viewBox="0 0 312 212" enable-background="new 0 0 312 212" xml:space="preserve">
<rect fill="#FFFFFF" width="312" height="212"/>
<g>
	<path d="M22.669,188.395h-2.035v-7.117h2.035c2.376,0,3.399,0.945,3.399,3.531C26.068,187.404,25.045,188.395,22.669,188.395z
		 M22.669,182.124h-0.936v5.424h1.034c1.386,0,2.167-0.66,2.167-2.729C24.935,182.586,24.132,182.124,22.669,182.124z"/>
	<path d="M27.465,182.245v-0.968h1.056v0.968H27.465z M27.497,188.395v-5.027h0.99v5.027H27.497z"/>
	<path d="M30.786,186.261c0.066,0.935,0.462,1.529,1.331,1.529c0.507,0,1.001-0.165,1.529-0.429l0.319,0.77
		c-0.594,0.275-1.276,0.396-1.937,0.396c-1.573,0-2.288-1.199-2.288-2.597c0-1.166,0.473-2.695,2.233-2.695
		c1.782,0,2.267,1.122,2.267,3.025H30.786z M31.985,183.994c-0.594,0-1.155,0.43-1.21,1.529h2.508
		C33.251,184.445,32.789,183.994,31.985,183.994z"/>
	<path d="M41.512,188.395c0-0.043-0.165-0.494-0.176-0.55c-0.265,0.308-0.771,0.683-1.364,0.683c-1.145,0-1.893-0.473-1.893-1.453
		c0-1.022,0.583-1.781,2.729-1.781h0.451v-0.319c0-0.528-0.154-0.979-0.858-0.979c-0.693,0-1.287,0.209-1.771,0.44l-0.341-0.814
		c0.627-0.231,1.364-0.385,2.146-0.385c1.067,0,1.815,0.506,1.815,1.606v2.014c0,0.396,0.109,0.957,0.176,1.539H41.512z
		 M41.27,185.975h-0.308c-1.387,0-1.849,0.342-1.849,1.057c0,0.494,0.418,0.736,1.012,0.736c0.518,0,0.936-0.253,1.145-0.594
		V185.975z"/>
	<path d="M46.901,188.395l-2.079-2.574v2.574h-0.979v-7.228h0.979v4.225l1.892-2.024h1.067l-2.046,2.178l2.311,2.85H46.901z"/>
	<path d="M51.157,189.286c-1.154-0.286-2.002-1.013-2.002-2.134v-3.025h-0.814v-0.771h0.814v-1.31h0.99v1.31h1.166v0.771h-1.166
		v3.047c0,0.682,0.528,1.057,1.354,1.221L51.157,189.286z"/>
	<path d="M55.635,188.395l-0.177-0.703c-0.197,0.23-0.583,0.847-1.331,0.847c-1.342,0-1.749-0.847-1.749-2.003v-3.168h0.979v3.18
		c0,0.627,0.088,1.221,0.913,1.221c0.583,0,0.946-0.539,1.155-1.001v-3.399h0.979v3.961c0,0.418,0.088,0.693,0.121,1.066H55.635z"/>
	<path d="M58.692,186.261c0.066,0.935,0.462,1.529,1.331,1.529c0.507,0,1.001-0.165,1.529-0.429l0.319,0.77
		c-0.594,0.275-1.276,0.396-1.937,0.396c-1.573,0-2.288-1.199-2.288-2.597c0-1.166,0.473-2.695,2.233-2.695
		c1.782,0,2.267,1.122,2.267,3.025H58.692z M59.892,183.994c-0.594,0-1.155,0.43-1.21,1.529h2.508
		C61.157,184.445,60.695,183.994,59.892,183.994z"/>
	<path d="M63.411,188.395v-7.228h0.979v7.228H63.411z"/>
	<path d="M65.886,188.395v-7.228h0.979v7.228H65.886z"/>
	<path d="M69.152,186.261c0.066,0.935,0.462,1.529,1.331,1.529c0.507,0,1.002-0.165,1.529-0.429l0.319,0.77
		c-0.594,0.275-1.276,0.396-1.937,0.396c-1.573,0-2.288-1.199-2.288-2.597c0-1.166,0.473-2.695,2.233-2.695
		c1.782,0,2.267,1.122,2.267,3.025H69.152z M70.352,183.994c-0.594,0-1.155,0.43-1.21,1.529h2.508
		C71.617,184.445,71.155,183.994,70.352,183.994z"/>
	<path d="M76.995,188.395v-3.18c0-0.637-0.088-1.221-0.945-1.221c-0.583,0-0.99,0.539-1.199,1.002v3.398h-0.979v-3.96
		c0-0.418-0.088-0.693-0.121-1.067h0.892l0.176,0.704c0.198-0.231,0.627-0.847,1.375-0.847c1.408,0,1.782,0.847,1.782,2.002v3.168
		H76.995z"/>
	<path d="M87.226,188.395l-0.704-2.013h-2.729l-0.748,2.013H81.89l2.894-7.117h0.968l2.685,7.117H87.226z M85.212,182.553
		l-1.11,3.004h2.145L85.212,182.553z"/>
	<path d="M92.241,184.303c-0.188-0.121-0.418-0.309-0.76-0.309c-0.616,0-0.847,0.902-0.979,1.211v3.189h-0.979v-3.905
		c0-0.495-0.088-0.869-0.121-1.122h0.892l0.176,0.881c0.176-0.342,0.616-1.023,1.188-1.023c0.396,0,0.66,0.088,0.935,0.253
		L92.241,184.303z"/>
	<path d="M95.673,188.527c-0.616,0-1.045-0.385-1.243-0.683l-0.176,0.55h-0.892c0.077-0.604,0.121-0.902,0.121-1.539v-5.688h0.979
		v2.904c0.264-0.385,0.715-0.836,1.353-0.836c1.496,0,2.047,1.222,2.047,2.618C97.862,187.295,97.169,188.527,95.673,188.527z
		 M95.684,183.994c-0.682,0-1.034,0.627-1.243,1.023v2.014c0.209,0.461,0.627,0.736,1.101,0.736c0.803,0,1.309-0.561,1.309-1.893
		C96.85,184.435,96.344,183.994,95.684,183.994z"/>
	<path d="M99.896,186.261c0.066,0.935,0.462,1.529,1.331,1.529c0.507,0,1.002-0.165,1.529-0.429l0.319,0.77
		c-0.594,0.275-1.276,0.396-1.937,0.396c-1.573,0-2.288-1.199-2.288-2.597c0-1.166,0.473-2.695,2.233-2.695
		c1.782,0,2.267,1.122,2.267,3.025H99.896z M101.096,183.994c-0.594,0-1.155,0.43-1.21,1.529h2.508
		C102.361,184.445,101.899,183.994,101.096,183.994z"/>
	<path d="M104.594,182.245v-0.968h1.056v0.968H104.594z M104.626,188.395v-5.027h0.99v5.027H104.626z"/>
	<path d="M109.334,189.286c-1.154-0.286-2.002-1.013-2.002-2.134v-3.025h-0.814v-0.771h0.814v-1.31h0.99v1.31h1.166v0.771h-1.166
		v3.047c0,0.682,0.528,1.057,1.354,1.221L109.334,189.286z"/>
	<path d="M112.084,188.538c-0.583,0-1.32-0.132-1.837-0.341l0.341-0.814c0.583,0.23,0.924,0.385,1.519,0.385
		c0.748,0,0.957-0.285,0.957-0.726c0-0.451-0.528-0.605-1.134-0.804c-0.759-0.242-1.617-0.539-1.617-1.551
		c0-1.133,1.034-1.463,2.014-1.463c0.484,0,0.979,0.099,1.672,0.33l-0.352,0.824c-0.507-0.23-0.814-0.385-1.343-0.385
		c-0.594,0-0.979,0.176-0.979,0.66c0,0.374,0.429,0.518,0.945,0.682c0.804,0.254,1.805,0.518,1.805,1.695
		C114.075,188.131,113.096,188.538,112.084,188.538z"/>
	<path d="M115.317,188.395v-7.228h0.979v7.228H115.317z"/>
	<path d="M119.894,188.538c-1.749,0-2.354-1.232-2.354-2.685c0-1.387,0.616-2.629,2.354-2.629c1.749,0,2.343,1.177,2.343,2.629
		S121.632,188.538,119.894,188.538z M119.894,183.994c-0.925,0-1.343,0.627-1.343,1.859c0,1.166,0.353,1.914,1.343,1.914
		c0.957,0,1.331-0.693,1.331-1.914C121.225,184.621,120.872,183.994,119.894,183.994z"/>
	<path d="M125.008,188.538c-0.583,0-1.32-0.132-1.837-0.341l0.341-0.814c0.583,0.23,0.924,0.385,1.519,0.385
		c0.748,0,0.957-0.285,0.957-0.726c0-0.451-0.528-0.605-1.134-0.804c-0.759-0.242-1.617-0.539-1.617-1.551
		c0-1.133,1.034-1.463,2.014-1.463c0.484,0,0.979,0.099,1.672,0.33l-0.352,0.824c-0.507-0.23-0.814-0.385-1.343-0.385
		c-0.594,0-0.979,0.176-0.979,0.66c0,0.374,0.429,0.518,0.945,0.682c0.804,0.254,1.805,0.518,1.805,1.695
		C126.999,188.131,126.02,188.538,125.008,188.538z"/>
	<path d="M129.033,186.261c0.066,0.935,0.462,1.529,1.331,1.529c0.507,0,1.002-0.165,1.529-0.429l0.319,0.77
		c-0.594,0.275-1.276,0.396-1.937,0.396c-1.573,0-2.288-1.199-2.288-2.597c0-1.166,0.473-2.695,2.233-2.695
		c1.782,0,2.267,1.122,2.267,3.025H129.033z M130.232,183.994c-0.594,0-1.155,0.43-1.21,1.529h2.508
		C131.498,184.445,131.036,183.994,130.232,183.994z"/>
	<path d="M136.876,188.395v-3.18c0-0.637-0.088-1.221-0.945-1.221c-0.583,0-0.99,0.539-1.199,1.002v3.398h-0.979v-3.96
		c0-0.418-0.088-0.693-0.121-1.067h0.892l0.176,0.704c0.198-0.231,0.627-0.847,1.375-0.847c1.408,0,1.782,0.847,1.782,2.002v3.168
		H136.876z"/>
	<path d="M140.065,187.636h2.739v0.759h-3.521l-0.341-0.813l2.904-3.454h-2.596v-0.76h3.355l0.352,0.814L140.065,187.636z"/>
	<path d="M147.228,188.395c0-0.043-0.165-0.494-0.176-0.55c-0.265,0.308-0.771,0.683-1.364,0.683c-1.145,0-1.893-0.473-1.893-1.453
		c0-1.022,0.583-1.781,2.729-1.781h0.451v-0.319c0-0.528-0.154-0.979-0.858-0.979c-0.693,0-1.287,0.209-1.771,0.44l-0.341-0.814
		c0.627-0.231,1.364-0.385,2.146-0.385c1.067,0,1.815,0.506,1.815,1.606v2.014c0,0.396,0.109,0.957,0.176,1.539H147.228z
		 M146.985,185.975h-0.308c-1.387,0-1.849,0.342-1.849,1.057c0,0.494,0.418,0.736,1.012,0.736c0.518,0,0.936-0.253,1.145-0.594
		V185.975z"/>
	<path d="M152.683,188.395v-3.156c0-0.683-0.109-1.244-0.945-1.244c-0.605,0-1.002,0.562-1.199,1.002v3.398h-0.979v-7.228h0.979
		v2.904c0.187-0.297,0.648-0.847,1.353-0.847c1.408,0,1.771,0.88,1.771,1.969v3.201H152.683z"/>
	<path d="M155.157,188.395v-7.228h0.979v7.228H155.157z"/>
	<path d="M158.424,186.261c0.066,0.935,0.462,1.529,1.331,1.529c0.507,0,1.002-0.165,1.529-0.429l0.319,0.77
		c-0.594,0.275-1.276,0.396-1.937,0.396c-1.573,0-2.288-1.199-2.288-2.597c0-1.166,0.473-2.695,2.233-2.695
		c1.782,0,2.267,1.122,2.267,3.025H158.424z M159.623,183.994c-0.594,0-1.155,0.43-1.21,1.529h2.508
		C160.889,184.445,160.427,183.994,159.623,183.994z"/>
	<path d="M166.267,188.395v-3.18c0-0.637-0.088-1.221-0.945-1.221c-0.583,0-0.99,0.539-1.199,1.002v3.398h-0.979v-3.96
		c0-0.418-0.088-0.693-0.121-1.067h0.892l0.176,0.704c0.198-0.231,0.627-0.847,1.375-0.847c1.408,0,1.782,0.847,1.782,2.002v3.168
		H166.267z"/>
	<path d="M173.098,188.538c-0.583,0-1.32-0.132-1.837-0.341l0.341-0.814c0.583,0.23,0.924,0.385,1.519,0.385
		c0.748,0,0.957-0.285,0.957-0.726c0-0.451-0.528-0.605-1.134-0.804c-0.759-0.242-1.617-0.539-1.617-1.551
		c0-1.133,1.034-1.463,2.014-1.463c0.484,0,0.979,0.099,1.672,0.33l-0.352,0.824c-0.507-0.23-0.814-0.385-1.343-0.385
		c-0.594,0-0.979,0.176-0.979,0.66c0,0.374,0.429,0.518,0.945,0.682c0.804,0.254,1.805,0.518,1.805,1.695
		C175.089,188.131,174.109,188.538,173.098,188.538z"/>
	<path d="M176.31,182.245v-0.968h1.056v0.968H176.31z M176.342,188.395v-5.027h0.99v5.027H176.342z"/>
	<path d="M181.964,188.395v-3.18c0-0.637-0.089-1.221-0.946-1.221c-0.583,0-0.99,0.539-1.199,1.002v3.398h-0.979v-3.96
		c0-0.418-0.088-0.693-0.121-1.067h0.892l0.176,0.704c0.198-0.231,0.627-0.847,1.375-0.847c1.408,0,1.782,0.847,1.782,2.002v3.168
		H181.964z"/>
	<path d="M187.793,188.395l-0.176-0.55c-0.231,0.353-0.683,0.683-1.243,0.683c-1.596,0-2.189-1.232-2.189-2.674
		c0-1.408,0.671-2.618,2.068-2.618c0.649,0,1.067,0.451,1.331,0.836v-2.904h0.979v5.688c0,0.637,0.044,0.935,0.121,1.539H187.793z
		 M187.606,185.018c-0.209-0.418-0.562-1.023-1.232-1.023c-0.649,0-1.178,0.463-1.178,1.881c0,1.332,0.418,1.893,1.31,1.893
		c0.473,0,0.825-0.297,1.101-0.736V185.018z"/>
	<path d="M192.864,182.245v-0.968h1.056v0.968H192.864z M192.896,188.395v-5.027h0.99v5.027H192.896z"/>
	<path d="M198.519,188.395v-3.18c0-0.637-0.089-1.221-0.946-1.221c-0.583,0-0.99,0.539-1.199,1.002v3.398h-0.979v-3.96
		c0-0.418-0.088-0.693-0.121-1.067h0.892l0.176,0.704c0.198-0.231,0.627-0.847,1.375-0.847c1.408,0,1.782,0.847,1.782,2.002v3.168
		H198.519z"/>
	<path d="M206.999,188.395c0-0.043-0.165-0.494-0.176-0.55c-0.265,0.308-0.771,0.683-1.364,0.683c-1.145,0-1.893-0.473-1.893-1.453
		c0-1.022,0.583-1.781,2.729-1.781h0.451v-0.319c0-0.528-0.154-0.979-0.858-0.979c-0.693,0-1.287,0.209-1.771,0.44l-0.341-0.814
		c0.627-0.231,1.364-0.385,2.146-0.385c1.067,0,1.815,0.506,1.815,1.606v2.014c0,0.396,0.109,0.957,0.176,1.539H206.999z
		 M206.757,185.975h-0.308c-1.387,0-1.849,0.342-1.849,1.057c0,0.494,0.418,0.736,1.012,0.736c0.518,0,0.936-0.253,1.145-0.594
		V185.975z"/>
	<path d="M211.52,188.527c-0.616,0-1.045-0.385-1.243-0.683l-0.176,0.55h-0.892c0.077-0.604,0.121-0.902,0.121-1.539v-5.688h0.979
		v2.904c0.264-0.385,0.715-0.836,1.353-0.836c1.497,0,2.047,1.222,2.047,2.618C213.709,187.295,213.016,188.527,211.52,188.527z
		 M211.53,183.994c-0.682,0-1.034,0.627-1.243,1.023v2.014c0.209,0.461,0.627,0.736,1.101,0.736c0.803,0,1.309-0.561,1.309-1.893
		C212.696,184.435,212.19,183.994,211.53,183.994z"/>
	<path d="M216.48,188.538c-0.583,0-1.32-0.132-1.837-0.341l0.341-0.814c0.583,0.23,0.924,0.385,1.519,0.385
		c0.748,0,0.957-0.285,0.957-0.726c0-0.451-0.528-0.605-1.134-0.804c-0.759-0.242-1.617-0.539-1.617-1.551
		c0-1.133,1.034-1.463,2.014-1.463c0.484,0,0.979,0.099,1.672,0.33l-0.352,0.824c-0.507-0.23-0.814-0.385-1.343-0.385
		c-0.594,0-0.979,0.176-0.979,0.66c0,0.374,0.429,0.518,0.945,0.682c0.804,0.254,1.805,0.518,1.805,1.695
		C218.472,188.131,217.492,188.538,216.48,188.538z"/>
	<path d="M221.815,188.538c-1.749,0-2.354-1.232-2.354-2.685c0-1.387,0.616-2.629,2.354-2.629c1.749,0,2.343,1.177,2.343,2.629
		S223.554,188.538,221.815,188.538z M221.815,183.994c-0.925,0-1.343,0.627-1.343,1.859c0,1.166,0.353,1.914,1.343,1.914
		c0.957,0,1.331-0.693,1.331-1.914C223.146,184.621,222.794,183.994,221.815,183.994z"/>
	<path d="M225.4,188.395v-7.228h0.979v7.228H225.4z"/>
	<path d="M231.132,188.395l-0.177-0.703c-0.197,0.23-0.583,0.847-1.331,0.847c-1.342,0-1.749-0.847-1.749-2.003v-3.168h0.979v3.18
		c0,0.627,0.088,1.221,0.913,1.221c0.583,0,0.946-0.539,1.155-1.001v-3.399h0.979v3.961c0,0.418,0.088,0.693,0.121,1.066H231.132z"
		/>
	<path d="M235.608,189.286c-1.154-0.286-2.002-1.013-2.002-2.134v-3.025h-0.814v-0.771h0.814v-1.31h0.99v1.31h1.166v0.771h-1.166
		v3.047c0,0.682,0.528,1.057,1.354,1.221L235.608,189.286z"/>
	<path d="M237.621,186.261c0.066,0.935,0.462,1.529,1.331,1.529c0.507,0,1.002-0.165,1.529-0.429l0.319,0.77
		c-0.594,0.275-1.276,0.396-1.937,0.396c-1.573,0-2.288-1.199-2.288-2.597c0-1.166,0.473-2.695,2.233-2.695
		c1.782,0,2.267,1.122,2.267,3.025H237.621z M238.82,183.994c-0.594,0-1.155,0.43-1.21,1.529h2.508
		C240.086,184.445,239.624,183.994,238.82,183.994z"/>
	<path d="M245.464,188.395v-3.18c0-0.637-0.088-1.221-0.945-1.221c-0.583,0-0.99,0.539-1.199,1.002v3.398h-0.979v-3.96
		c0-0.418-0.088-0.693-0.121-1.067h0.892l0.176,0.704c0.198-0.231,0.627-0.847,1.375-0.847c1.408,0,1.782,0.847,1.782,2.002v3.168
		H245.464z"/>
	<path d="M251.689,187.537h3.807v0.857h-4.687l-0.308-0.902l3.895-5.357h-3.487v-0.857h4.367l0.308,0.902L251.689,187.537z"/>
	<path d="M259.995,188.395c0-0.043-0.165-0.494-0.176-0.55c-0.265,0.308-0.771,0.683-1.364,0.683c-1.145,0-1.893-0.473-1.893-1.453
		c0-1.022,0.583-1.781,2.729-1.781h0.451v-0.319c0-0.528-0.154-0.979-0.858-0.979c-0.693,0-1.287,0.209-1.771,0.44l-0.341-0.814
		c0.627-0.231,1.364-0.385,2.146-0.385c1.067,0,1.815,0.506,1.815,1.606v2.014c0,0.396,0.109,0.957,0.176,1.539H259.995z
		 M259.753,185.975h-0.308c-1.387,0-1.849,0.342-1.849,1.057c0,0.494,0.418,0.736,1.012,0.736c0.518,0,0.936-0.253,1.145-0.594
		V185.975z"/>
	<path d="M265.45,188.395v-3.156c0-0.683-0.109-1.244-0.945-1.244c-0.605,0-1.002,0.562-1.199,1.002v3.398h-0.979v-7.228h0.979
		v2.904c0.187-0.297,0.648-0.847,1.353-0.847c1.408,0,1.771,0.88,1.771,1.969v3.201H265.45z"/>
	<path d="M267.925,188.395v-7.228h0.979v7.228H267.925z"/>
	<path d="M271.191,186.261c0.066,0.935,0.462,1.529,1.331,1.529c0.507,0,1.002-0.165,1.529-0.429l0.319,0.77
		c-0.594,0.275-1.276,0.396-1.937,0.396c-1.573,0-2.288-1.199-2.288-2.597c0-1.166,0.473-2.695,2.233-2.695
		c1.782,0,2.267,1.122,2.267,3.025H271.191z M272.391,183.994c-0.594,0-1.155,0.43-1.21,1.529h2.508
		C273.656,184.445,273.194,183.994,272.391,183.994z"/>
	<path d="M279.034,188.395v-3.18c0-0.637-0.088-1.221-0.945-1.221c-0.583,0-0.99,0.539-1.199,1.002v3.398h-0.979v-3.96
		c0-0.418-0.088-0.693-0.121-1.067h0.892l0.176,0.704c0.198-0.231,0.627-0.847,1.375-0.847c1.408,0,1.782,0.847,1.782,2.002v3.168
		H279.034z"/>
	<path d="M23.505,198.395c0-0.043-0.165-0.494-0.176-0.55c-0.265,0.308-0.771,0.683-1.364,0.683c-1.145,0-1.893-0.473-1.893-1.453
		c0-1.022,0.583-1.781,2.729-1.781h0.451v-0.319c0-0.528-0.154-0.979-0.858-0.979c-0.693,0-1.287,0.209-1.771,0.44l-0.341-0.814
		c0.627-0.231,1.364-0.385,2.146-0.385c1.067,0,1.815,0.506,1.815,1.606v2.014c0,0.396,0.109,0.957,0.176,1.539H23.505z
		 M23.263,195.975h-0.308c-1.387,0-1.849,0.342-1.849,1.057c0,0.494,0.418,0.736,1.012,0.736c0.518,0,0.936-0.253,1.145-0.594
		V195.975z"/>
	<path d="M29.093,198.395l-0.177-0.703c-0.197,0.23-0.583,0.847-1.331,0.847c-1.342,0-1.749-0.847-1.749-2.003v-3.168h0.979v3.18
		c0,0.627,0.088,1.221,0.913,1.221c0.583,0,0.946-0.539,1.155-1.001v-3.399h0.979v3.961c0,0.418,0.088,0.693,0.121,1.066H29.093z"/>
	<path d="M32.491,192.949v0.418h1.145v0.76h-1.145v4.268h-0.979v-4.268h-0.76v-0.76h0.76v-0.341c0-1.419,1.364-1.991,2.244-2.058
		l0.253,0.825C32.986,191.904,32.491,192.278,32.491,192.949z"/>
	<path d="M39.125,193.918h-0.66c0.23,0.197,0.55,0.67,0.55,1.199c0,0.891-0.495,1.914-2.167,1.914c-0.231,0-0.848-0.088-1.079-0.209
		c-0.132,0.121-0.253,0.23-0.253,0.429c0,0.264,0.242,0.396,1.508,0.495c1.914,0.154,2.343,0.627,2.343,1.408
		c0,1.057-1.21,1.441-2.453,1.441c-1.881,0-2.486-0.562-2.486-1.408c0-0.594,0.616-0.881,0.936-0.99
		c-0.407-0.176-0.683-0.495-0.683-0.902c0-0.363,0.275-0.627,0.539-0.848c-0.143-0.176-0.539-0.594-0.539-1.33
		c0-0.584,0.309-1.882,2.146-1.882c0.374,0,0.605,0.044,0.847,0.11c0.407-0.033,1.199-0.1,1.728-0.121L39.125,193.918z
		 M36.033,198.482c-0.374,0.121-0.583,0.418-0.583,0.672c0,0.439,0.583,0.727,1.463,0.727c1.057,0,1.431-0.254,1.431-0.727
		C38.344,198.824,37.849,198.561,36.033,198.482z M36.848,193.983c-0.693,0-1.145,0.396-1.145,1.155
		c0,0.748,0.418,1.155,1.155,1.155c0.858,0,1.133-0.605,1.133-1.199C37.991,194.391,37.628,193.983,36.848,193.983z"/>
	<path d="M41.279,196.261c0.066,0.935,0.462,1.529,1.331,1.529c0.507,0,1.002-0.165,1.529-0.429l0.319,0.77
		c-0.594,0.275-1.276,0.396-1.937,0.396c-1.573,0-2.288-1.199-2.288-2.597c0-1.166,0.473-2.695,2.233-2.695
		c1.782,0,2.267,1.122,2.267,3.025H41.279z M42.479,193.994c-0.594,0-1.155,0.43-1.21,1.529h2.508
		C43.744,194.445,43.282,193.994,42.479,193.994z"/>
	<path d="M47.131,192.949v0.418h1.145v0.76h-1.145v4.268h-0.979v-4.268h-0.76v-0.76h0.76v-0.341c0-1.419,1.364-1.991,2.244-2.058
		l0.253,0.825C47.626,191.904,47.131,192.278,47.131,192.949z"/>
	<path d="M52.653,198.395l-0.177-0.703c-0.197,0.23-0.583,0.847-1.331,0.847c-1.342,0-1.749-0.847-1.749-2.003v-3.168h0.979v3.18
		c0,0.627,0.088,1.221,0.913,1.221c0.583,0,0.946-0.539,1.155-1.001v-3.399h0.979v3.961c0,0.418,0.088,0.693,0.121,1.066H52.653z
		 M50.09,192.41v-0.913h0.924v0.913H50.09z M51.795,192.41v-0.913h0.858l0.065,0.913H51.795z"/>
	<path d="M58.044,198.395v-3.156c0-0.683-0.11-1.244-0.946-1.244c-0.605,0-1.002,0.562-1.199,1.002v3.398h-0.979v-7.228h0.979v2.904
		c0.187-0.297,0.648-0.847,1.353-0.847c1.408,0,1.771,0.88,1.771,1.969v3.201H58.044z"/>
	<path d="M63.235,194.303c-0.188-0.121-0.418-0.309-0.76-0.309c-0.616,0-0.847,0.902-0.979,1.211v3.189h-0.979v-3.905
		c0-0.495-0.088-0.869-0.121-1.122h0.892l0.176,0.881c0.176-0.342,0.616-1.023,1.188-1.023c0.396,0,0.66,0.088,0.935,0.253
		L63.235,194.303z"/>
	<path d="M66.688,199.286c-1.154-0.286-2.002-1.013-2.002-2.134v-3.025h-0.814v-0.771h0.814v-1.31h0.99v1.31h1.166v0.771h-1.166
		v3.047c0,0.682,0.528,1.057,1.354,1.221L66.688,199.286z"/>
	<path d="M68.03,198.395v-1.056h1.089v1.056H68.03z"/>
</g>
<g>
	<path d="M214.057,87.651v-7.118h4.081v0.847h-2.981v2.167h2.75v0.847h-2.75v2.409h3.08v0.847H214.057z"/>
	<path d="M219.875,81.501v-0.968h1.056v0.968H219.875z M219.907,87.651v-5.028h0.99v5.028H219.907z"/>
	<path d="M225.529,87.651v-3.18c0-0.638-0.089-1.221-0.946-1.221c-0.583,0-0.99,0.54-1.199,1.001v3.399h-0.979v-3.96
		c0-0.418-0.088-0.693-0.121-1.067h0.892l0.176,0.704c0.198-0.231,0.627-0.847,1.375-0.847c1.408,0,1.782,0.847,1.782,2.002v3.168
		H225.529z"/>
	<path d="M228.795,85.517c0.066,0.935,0.462,1.529,1.331,1.529c0.507,0,1.001-0.165,1.529-0.429l0.319,0.77
		c-0.594,0.275-1.276,0.396-1.937,0.396c-1.573,0-2.288-1.199-2.288-2.596c0-1.166,0.473-2.695,2.233-2.695
		c1.782,0,2.267,1.122,2.267,3.025H228.795z M229.994,83.25c-0.594,0-1.155,0.429-1.21,1.529h2.508
		C231.26,83.701,230.798,83.25,229.994,83.25z"/>
	<path d="M239.521,87.849c-1.991,0-2.872-0.924-2.872-2.828v-4.489h1.101v4.379c0,1.705,0.671,2.09,1.771,2.09
		c1.045,0,1.628-0.539,1.628-2.09v-4.379h1.101v4.511C242.249,86.936,241.313,87.849,239.521,87.849z M238.189,80.137v-0.913h0.924
		v0.913H238.189z M239.895,80.137v-0.913h0.924v0.913H239.895z"/>
	<path d="M246.241,87.783c-0.616,0-1.045-0.385-1.243-0.682l-0.176,0.55h-0.892c0.077-0.605,0.121-0.902,0.121-1.54v-5.688h0.979
		v2.904c0.264-0.385,0.715-0.836,1.353-0.836c1.497,0,2.047,1.221,2.047,2.618C248.431,86.551,247.737,87.783,246.241,87.783z
		 M246.252,83.25c-0.682,0-1.034,0.627-1.243,1.023v2.013c0.209,0.462,0.627,0.737,1.101,0.737c0.803,0,1.309-0.561,1.309-1.893
		C247.418,83.69,246.912,83.25,246.252,83.25z"/>
	<path d="M250.465,85.517c0.066,0.935,0.462,1.529,1.331,1.529c0.507,0,1.001-0.165,1.529-0.429l0.319,0.77
		c-0.594,0.275-1.276,0.396-1.937,0.396c-1.573,0-2.288-1.199-2.288-2.596c0-1.166,0.473-2.695,2.233-2.695
		c1.782,0,2.267,1.122,2.267,3.025H250.465z M251.664,83.25c-0.594,0-1.155,0.429-1.21,1.529h2.508
		C252.93,83.701,252.468,83.25,251.664,83.25z"/>
	<path d="M257.901,83.558c-0.188-0.121-0.418-0.308-0.76-0.308c-0.616,0-0.847,0.902-0.979,1.21v3.19h-0.979v-3.906
		c0-0.495-0.088-0.869-0.121-1.122h0.892l0.176,0.88c0.176-0.341,0.616-1.023,1.188-1.023c0.396,0,0.66,0.088,0.935,0.253
		L257.901,83.558z"/>
	<path d="M260.673,87.794c-0.583,0-1.32-0.132-1.837-0.341l0.341-0.814c0.583,0.231,0.924,0.385,1.519,0.385
		c0.748,0,0.957-0.286,0.957-0.726c0-0.451-0.528-0.605-1.134-0.803c-0.759-0.242-1.617-0.539-1.617-1.551
		c0-1.133,1.034-1.463,2.014-1.463c0.484,0,0.979,0.099,1.672,0.33l-0.352,0.825c-0.507-0.231-0.814-0.385-1.343-0.385
		c-0.594,0-0.979,0.176-0.979,0.66c0,0.374,0.429,0.517,0.945,0.682c0.804,0.253,1.805,0.517,1.805,1.694
		C262.664,87.387,261.685,87.794,260.673,87.794z"/>
	<path d="M263.885,81.501v-0.968h1.056v0.968H263.885z M263.917,87.651v-5.028h0.99v5.028H263.917z"/>
	<path d="M268.516,87.783c-1.596,0-2.354-1.067-2.354-2.607c0-1.628,0.737-2.684,2.388-2.684c0.45,0,1.287,0.198,1.649,0.341
		l-0.341,0.814c-0.374-0.187-0.946-0.396-1.32-0.396c-0.979,0-1.364,0.638-1.364,1.925c0,1.177,0.43,1.849,1.354,1.849
		c0.341,0,0.936-0.176,1.364-0.396l0.341,0.814C269.847,87.629,268.9,87.783,268.516,87.783z"/>
	<path d="M274.5,87.651v-3.157c0-0.682-0.11-1.244-0.946-1.244c-0.605,0-1.002,0.562-1.199,1.001v3.399h-0.979v-7.228h0.979v2.904
		c0.187-0.297,0.648-0.847,1.353-0.847c1.408,0,1.771,0.88,1.771,1.969v3.202H274.5z"/>
	<path d="M279.185,88.542c-1.154-0.286-2.002-1.012-2.002-2.134v-3.025h-0.814v-0.77h0.814v-1.31h0.99v1.31h1.166v0.77h-1.166v3.047
		c0,0.682,0.528,1.056,1.354,1.221L279.185,88.542z"/>
	<path d="M286.588,87.651l-0.176-0.55c-0.231,0.352-0.683,0.682-1.243,0.682c-1.596,0-2.189-1.232-2.189-2.673
		c0-1.408,0.671-2.618,2.068-2.618c0.649,0,1.067,0.451,1.331,0.836v-2.904h0.979v5.688c0,0.638,0.044,0.935,0.121,1.54H286.588z
		 M286.401,84.273c-0.209-0.418-0.562-1.023-1.232-1.023c-0.649,0-1.178,0.462-1.178,1.881c0,1.332,0.418,1.893,1.31,1.893
		c0.473,0,0.825-0.297,1.101-0.737V84.273z"/>
	<path d="M289.646,85.517c0.066,0.935,0.462,1.529,1.331,1.529c0.507,0,1.002-0.165,1.529-0.429l0.319,0.77
		c-0.594,0.275-1.276,0.396-1.937,0.396c-1.573,0-2.288-1.199-2.288-2.596c0-1.166,0.473-2.695,2.233-2.695
		c1.782,0,2.267,1.122,2.267,3.025H289.646z M290.845,83.25c-0.594,0-1.155,0.429-1.21,1.529h2.508
		C292.11,83.701,291.648,83.25,290.845,83.25z"/>
	<path d="M297.082,83.558c-0.188-0.121-0.418-0.308-0.76-0.308c-0.616,0-0.847,0.902-0.979,1.21v3.19h-0.979v-3.906
		c0-0.495-0.088-0.869-0.121-1.122h0.892l0.176,0.88c0.176-0.341,0.616-1.023,1.188-1.023c0.396,0,0.66,0.088,0.935,0.253
		L297.082,83.558z"/>
	<path d="M218.677,97.651l-0.704-2.013h-2.729l-0.748,2.013h-1.155l2.894-7.118h0.968l2.685,7.118H218.677z M216.663,91.809
		l-1.11,3.003h2.145L216.663,91.809z"/>
	<path d="M223.692,93.558c-0.188-0.121-0.418-0.308-0.76-0.308c-0.616,0-0.847,0.902-0.979,1.21v3.19h-0.979v-3.906
		c0-0.495-0.088-0.869-0.121-1.122h0.892l0.176,0.88c0.176-0.341,0.616-1.023,1.188-1.023c0.396,0,0.66,0.088,0.935,0.253
		L223.692,93.558z"/>
	<path d="M227.124,97.783c-0.616,0-1.045-0.385-1.243-0.682l-0.176,0.55h-0.892c0.077-0.605,0.121-0.902,0.121-1.54v-5.688h0.979
		v2.904c0.264-0.385,0.715-0.836,1.353-0.836c1.497,0,2.047,1.221,2.047,2.618C229.313,96.551,228.62,97.783,227.124,97.783z
		 M227.135,93.25c-0.682,0-1.034,0.627-1.243,1.023v2.013c0.209,0.462,0.627,0.737,1.101,0.737c0.803,0,1.309-0.561,1.309-1.893
		C228.301,93.69,227.795,93.25,227.135,93.25z"/>
	<path d="M231.348,95.517c0.066,0.935,0.462,1.529,1.331,1.529c0.507,0,1.001-0.165,1.529-0.429l0.319,0.77
		c-0.594,0.275-1.276,0.396-1.937,0.396c-1.573,0-2.288-1.199-2.288-2.596c0-1.166,0.473-2.695,2.233-2.695
		c1.782,0,2.267,1.122,2.267,3.025H231.348z M232.547,93.25c-0.594,0-1.155,0.429-1.21,1.529h2.508
		C233.812,93.701,233.351,93.25,232.547,93.25z"/>
	<path d="M236.045,91.501v-0.968h1.056v0.968H236.045z M236.077,97.651v-5.028h0.99v5.028H236.077z"/>
	<path d="M240.785,98.542c-1.154-0.286-2.002-1.012-2.002-2.134v-3.025h-0.814v-0.77h0.814v-1.31h0.99v1.31h1.166v0.77h-1.166v3.047
		c0,0.682,0.528,1.056,1.354,1.221L240.785,98.542z"/>
	<path d="M243.535,97.794c-0.583,0-1.32-0.132-1.837-0.341l0.341-0.814c0.583,0.231,0.924,0.385,1.519,0.385
		c0.748,0,0.957-0.286,0.957-0.726c0-0.451-0.528-0.605-1.134-0.803c-0.759-0.242-1.617-0.539-1.617-1.551
		c0-1.133,1.034-1.463,2.014-1.463c0.484,0,0.979,0.099,1.672,0.33l-0.352,0.825c-0.507-0.231-0.814-0.385-1.343-0.385
		c-0.594,0-0.979,0.176-0.979,0.66c0,0.374,0.429,0.517,0.946,0.682c0.803,0.253,1.804,0.517,1.804,1.694
		C245.526,97.387,244.547,97.794,243.535,97.794z"/>
	<path d="M246.769,97.651v-7.228h0.979v7.228H246.769z"/>
	<path d="M251.345,97.794c-1.749,0-2.354-1.232-2.354-2.685c0-1.386,0.616-2.629,2.354-2.629c1.749,0,2.343,1.177,2.343,2.629
		S253.083,97.794,251.345,97.794z M251.345,93.25c-0.925,0-1.343,0.627-1.343,1.859c0,1.167,0.353,1.915,1.343,1.915
		c0.957,0,1.331-0.693,1.331-1.915C252.676,93.877,252.323,93.25,251.345,93.25z"/>
	<path d="M256.459,97.794c-0.583,0-1.32-0.132-1.837-0.341l0.341-0.814c0.583,0.231,0.924,0.385,1.519,0.385
		c0.748,0,0.957-0.286,0.957-0.726c0-0.451-0.528-0.605-1.134-0.803c-0.759-0.242-1.617-0.539-1.617-1.551
		c0-1.133,1.034-1.463,2.014-1.463c0.484,0,0.979,0.099,1.672,0.33l-0.352,0.825c-0.507-0.231-0.814-0.385-1.343-0.385
		c-0.594,0-0.979,0.176-0.979,0.66c0,0.374,0.429,0.517,0.946,0.682c0.803,0.253,1.804,0.517,1.804,1.694
		C258.45,97.387,257.471,97.794,256.459,97.794z"/>
	<path d="M260.484,95.517c0.066,0.935,0.462,1.529,1.331,1.529c0.507,0,1.001-0.165,1.529-0.429l0.319,0.77
		c-0.594,0.275-1.276,0.396-1.937,0.396c-1.573,0-2.288-1.199-2.288-2.596c0-1.166,0.473-2.695,2.233-2.695
		c1.782,0,2.267,1.122,2.267,3.025H260.484z M261.684,93.25c-0.594,0-1.155,0.429-1.21,1.529h2.508
		C262.949,93.701,262.487,93.25,261.684,93.25z"/>
	<path d="M268.328,97.651v-3.18c0-0.638-0.089-1.221-0.946-1.221c-0.583,0-0.99,0.54-1.199,1.001v3.399h-0.979v-3.96
		c0-0.418-0.088-0.693-0.121-1.067h0.892l0.176,0.704c0.198-0.231,0.627-0.847,1.375-0.847c1.408,0,1.782,0.847,1.782,2.002v3.168
		H268.328z"/>
	<path d="M271.517,96.892h2.739v0.759h-3.521l-0.341-0.814l2.904-3.455h-2.596v-0.759h3.355l0.352,0.814L271.517,96.892z"/>
	<path d="M278.679,97.651c0-0.044-0.165-0.495-0.176-0.55c-0.265,0.308-0.771,0.682-1.364,0.682c-1.145,0-1.893-0.473-1.893-1.452
		c0-1.023,0.583-1.782,2.729-1.782h0.451v-0.319c0-0.528-0.154-0.979-0.858-0.979c-0.693,0-1.287,0.209-1.771,0.44l-0.341-0.814
		c0.627-0.231,1.364-0.385,2.146-0.385c1.067,0,1.815,0.506,1.815,1.606v2.014c0,0.396,0.109,0.957,0.176,1.54H278.679z
		 M278.437,95.23h-0.308c-1.387,0-1.849,0.341-1.849,1.056c0,0.495,0.418,0.737,1.012,0.737c0.518,0,0.936-0.253,1.145-0.594V95.23z
		"/>
	<path d="M284.135,97.651v-3.157c0-0.682-0.11-1.244-0.946-1.244c-0.605,0-1.002,0.562-1.199,1.001v3.399h-0.979v-7.228h0.979v2.904
		c0.187-0.297,0.648-0.847,1.353-0.847c1.408,0,1.771,0.88,1.771,1.969v3.202H284.135z"/>
	<path d="M286.608,97.651v-7.228h0.979v7.228H286.608z"/>
	<path d="M289.875,95.517c0.066,0.935,0.462,1.529,1.331,1.529c0.507,0,1.001-0.165,1.529-0.429l0.319,0.77
		c-0.594,0.275-1.276,0.396-1.937,0.396c-1.573,0-2.288-1.199-2.288-2.596c0-1.166,0.473-2.695,2.233-2.695
		c1.782,0,2.267,1.122,2.267,3.025H289.875z M291.074,93.25c-0.594,0-1.155,0.429-1.21,1.529h2.508
		C292.34,93.701,291.878,93.25,291.074,93.25z"/>
	<path d="M297.719,97.651v-3.18c0-0.638-0.089-1.221-0.946-1.221c-0.583,0-0.99,0.54-1.199,1.001v3.399h-0.979v-3.96
		c0-0.418-0.088-0.693-0.121-1.067h0.892l0.176,0.704c0.198-0.231,0.627-0.847,1.375-0.847c1.408,0,1.782,0.847,1.782,2.002v3.168
		H297.719z"/>
	<path d="M214.881,102.205v0.418h1.145v0.759h-1.145v4.268h-0.979v-4.268h-0.76v-0.759h0.76v-0.341c0-1.419,1.364-1.991,2.244-2.058
		l0.253,0.825C215.376,101.16,214.881,101.534,214.881,102.205z"/>
	<path d="M220.403,107.65l-0.177-0.704c-0.197,0.231-0.583,0.847-1.331,0.847c-1.342,0-1.749-0.847-1.749-2.002v-3.168h0.979v3.18
		c0,0.627,0.088,1.221,0.913,1.221c0.583,0,0.946-0.539,1.155-1.001v-3.399h0.979v3.96c0,0.418,0.088,0.694,0.121,1.067H220.403z
		 M217.84,101.666v-0.913h0.924v0.913H217.84z M219.545,101.666v-0.913h0.858l0.065,0.913H219.545z"/>
	<path d="M225.387,103.558c-0.188-0.121-0.418-0.308-0.76-0.308c-0.616,0-0.847,0.902-0.979,1.21v3.19h-0.979v-3.905
		c0-0.495-0.088-0.869-0.121-1.122h0.892l0.176,0.88c0.176-0.341,0.616-1.023,1.188-1.023c0.396,0,0.66,0.088,0.935,0.253
		L225.387,103.558z"/>
	<path d="M232.812,107.65l-0.176-0.55c-0.231,0.353-0.683,0.683-1.243,0.683c-1.596,0-2.189-1.232-2.189-2.674
		c0-1.408,0.671-2.618,2.068-2.618c0.649,0,1.067,0.451,1.331,0.836v-2.904h0.979v5.688c0,0.638,0.044,0.935,0.121,1.54H232.812z
		 M232.625,104.273c-0.209-0.418-0.562-1.023-1.232-1.023c-0.649,0-1.178,0.462-1.178,1.881c0,1.332,0.418,1.892,1.31,1.892
		c0.473,0,0.825-0.297,1.101-0.737V104.273z"/>
	<path d="M238.257,107.65c0-0.043-0.165-0.494-0.176-0.55c-0.265,0.308-0.771,0.683-1.364,0.683c-1.145,0-1.893-0.473-1.893-1.453
		c0-1.023,0.583-1.782,2.729-1.782h0.451v-0.319c0-0.528-0.154-0.979-0.858-0.979c-0.693,0-1.287,0.209-1.771,0.44l-0.341-0.814
		c0.627-0.231,1.364-0.385,2.146-0.385c1.067,0,1.815,0.506,1.815,1.606v2.014c0,0.396,0.109,0.958,0.176,1.54H238.257z
		 M238.015,105.23h-0.308c-1.387,0-1.849,0.341-1.849,1.056c0,0.495,0.418,0.737,1.012,0.737c0.518,0,0.936-0.253,1.145-0.594
		V105.23z"/>
	<path d="M242.117,107.794c-0.583,0-1.32-0.132-1.837-0.341l0.341-0.814c0.583,0.231,0.924,0.385,1.519,0.385
		c0.748,0,0.957-0.286,0.957-0.726c0-0.451-0.528-0.605-1.134-0.803c-0.759-0.242-1.617-0.539-1.617-1.551
		c0-1.133,1.034-1.463,2.014-1.463c0.484,0,0.979,0.099,1.672,0.33l-0.352,0.825c-0.507-0.231-0.814-0.385-1.343-0.385
		c-0.594,0-0.979,0.176-0.979,0.66c0,0.374,0.429,0.517,0.946,0.682c0.803,0.253,1.804,0.517,1.804,1.694
		C244.108,107.387,243.129,107.794,242.117,107.794z"/>
	<path d="M248.486,107.65v-7.118h1.1v6.238h3.103v0.88H248.486z"/>
	<path d="M256.692,107.65c0-0.043-0.165-0.494-0.176-0.55c-0.265,0.308-0.771,0.683-1.364,0.683c-1.145,0-1.893-0.473-1.893-1.453
		c0-1.023,0.583-1.782,2.729-1.782h0.451v-0.319c0-0.528-0.154-0.979-0.858-0.979c-0.693,0-1.287,0.209-1.771,0.44l-0.341-0.814
		c0.627-0.231,1.364-0.385,2.146-0.385c1.067,0,1.815,0.506,1.815,1.606v2.014c0,0.396,0.109,0.958,0.176,1.54H256.692z
		 M256.45,105.23h-0.308c-1.387,0-1.849,0.341-1.849,1.056c0,0.495,0.418,0.737,1.012,0.737c0.518,0,0.936-0.253,1.145-0.594V105.23
		z"/>
	<path d="M262.148,107.65v-3.179c0-0.638-0.089-1.221-0.946-1.221c-0.583,0-0.99,0.54-1.199,1.001v3.399h-0.979v-3.96
		c0-0.418-0.088-0.693-0.121-1.067h0.892l0.176,0.704c0.198-0.231,0.627-0.847,1.375-0.847c1.408,0,1.782,0.847,1.782,2.002v3.168
		H262.148z"/>
	<path d="M267.978,107.65l-0.176-0.55c-0.231,0.353-0.683,0.683-1.243,0.683c-1.596,0-2.189-1.232-2.189-2.674
		c0-1.408,0.671-2.618,2.068-2.618c0.649,0,1.067,0.451,1.331,0.836v-2.904h0.979v5.688c0,0.638,0.044,0.935,0.121,1.54H267.978z
		 M267.791,104.273c-0.209-0.418-0.562-1.023-1.232-1.023c-0.649,0-1.178,0.462-1.178,1.881c0,1.332,0.418,1.892,1.31,1.892
		c0.473,0,0.825-0.297,1.101-0.737V104.273z"/>
	<path d="M215.75,117.85c-0.615,0-1.419-0.166-2.023-0.33l0.352-0.936c0.528,0.197,1.101,0.418,1.684,0.418
		c0.869,0,1.683-0.231,1.683-1.178c0-0.803-0.792-1.078-1.65-1.396c-0.989-0.363-2.067-0.781-2.067-2.113
		c0-1.375,1.254-1.914,2.562-1.914c0.484,0,1.255,0.1,1.838,0.297l-0.353,0.936c-0.407-0.176-0.813-0.385-1.496-0.385
		c-1.023,0-1.43,0.439-1.43,1.066c0,0.628,0.638,0.869,1.375,1.134c1.056,0.374,2.343,0.781,2.343,2.354
		C218.566,117.453,217.225,117.85,215.75,117.85z"/>
	<path d="M223.22,117.65c0-0.043-0.165-0.494-0.176-0.55c-0.265,0.308-0.771,0.683-1.364,0.683c-1.145,0-1.893-0.473-1.893-1.453
		c0-1.022,0.583-1.781,2.729-1.781h0.451v-0.319c0-0.528-0.154-0.979-0.858-0.979c-0.693,0-1.287,0.209-1.771,0.44l-0.341-0.814
		c0.627-0.231,1.364-0.385,2.146-0.385c1.067,0,1.815,0.506,1.815,1.606v2.014c0,0.396,0.109,0.957,0.176,1.539H223.22z
		 M222.978,115.23h-0.308c-1.387,0-1.849,0.342-1.849,1.057c0,0.494,0.418,0.736,1.012,0.736c0.518,0,0.936-0.253,1.145-0.594
		V115.23z"/>
	<path d="M225.551,117.65v-7.228h0.979v7.228H225.551z"/>
	<path d="M228.74,116.892h2.739v0.759h-3.521l-0.341-0.813l2.904-3.454h-2.596v-0.76h3.355l0.352,0.814L228.74,116.892z"/>
	<path d="M234.912,117.783c-0.616,0-1.045-0.385-1.243-0.683l-0.176,0.55h-0.892c0.077-0.604,0.121-0.902,0.121-1.539v-5.688h0.979
		v2.904c0.264-0.385,0.715-0.836,1.353-0.836c1.496,0,2.047,1.222,2.047,2.618C237.102,116.551,236.408,117.783,234.912,117.783z
		 M234.923,113.25c-0.682,0-1.034,0.627-1.243,1.023v2.014c0.209,0.461,0.627,0.736,1.101,0.736c0.803,0,1.309-0.561,1.309-1.893
		C236.089,113.69,235.583,113.25,234.923,113.25z"/>
	<path d="M241.601,117.65l-0.177-0.703c-0.197,0.23-0.583,0.847-1.331,0.847c-1.342,0-1.749-0.847-1.749-2.003v-3.168h0.979v3.18
		c0,0.627,0.088,1.221,0.913,1.221c0.583,0,0.946-0.539,1.155-1.001v-3.399h0.979v3.961c0,0.418,0.088,0.693,0.121,1.066H241.601z"
		/>
	<path d="M246.584,113.559c-0.188-0.121-0.418-0.309-0.76-0.309c-0.616,0-0.847,0.902-0.979,1.211v3.189h-0.979v-3.905
		c0-0.495-0.088-0.869-0.121-1.122h0.892l0.176,0.881c0.176-0.342,0.616-1.023,1.188-1.023c0.396,0,0.66,0.088,0.935,0.253
		L246.584,113.559z"/>
	<path d="M252.194,113.174h-0.66c0.23,0.197,0.55,0.67,0.55,1.199c0,0.891-0.495,1.914-2.167,1.914
		c-0.231,0-0.848-0.088-1.079-0.209c-0.132,0.121-0.253,0.23-0.253,0.429c0,0.264,0.242,0.396,1.508,0.495
		c1.914,0.154,2.343,0.627,2.343,1.408c0,1.057-1.21,1.441-2.453,1.441c-1.881,0-2.486-0.562-2.486-1.408
		c0-0.594,0.616-0.881,0.936-0.99c-0.407-0.176-0.683-0.495-0.683-0.902c0-0.363,0.275-0.627,0.539-0.848
		c-0.143-0.176-0.539-0.594-0.539-1.33c0-0.584,0.309-1.882,2.146-1.882c0.374,0,0.605,0.044,0.847,0.11
		c0.407-0.033,1.199-0.1,1.728-0.121L252.194,113.174z M249.103,117.738c-0.374,0.121-0.583,0.418-0.583,0.672
		c0,0.439,0.583,0.727,1.463,0.727c1.057,0,1.431-0.254,1.431-0.727C251.413,118.08,250.918,117.816,249.103,117.738z
		 M249.917,113.239c-0.693,0-1.145,0.396-1.145,1.155c0,0.748,0.418,1.155,1.155,1.155c0.858,0,1.133-0.605,1.133-1.199
		C251.061,113.646,250.697,113.239,249.917,113.239z"/>
	<path d="M253.876,118.784h-0.76l0.562-1.958h1.089L253.876,118.784z"/>
	<path d="M262.336,117.65v-3.18c0-0.637-0.089-1.221-0.946-1.221c-0.583,0-0.99,0.539-1.199,1.002v3.398h-0.979v-3.96
		c0-0.418-0.088-0.693-0.121-1.067h0.892l0.176,0.704c0.198-0.231,0.627-0.847,1.375-0.847c1.408,0,1.782,0.847,1.782,2.002v3.168
		H262.336z"/>
	<path d="M267.989,117.65c0-0.043-0.165-0.494-0.176-0.55c-0.265,0.308-0.771,0.683-1.364,0.683c-1.145,0-1.893-0.473-1.893-1.453
		c0-1.022,0.583-1.781,2.729-1.781h0.451v-0.319c0-0.528-0.154-0.979-0.858-0.979c-0.693,0-1.287,0.209-1.771,0.44l-0.341-0.814
		c0.627-0.231,1.364-0.385,2.146-0.385c1.067,0,1.815,0.506,1.815,1.606v2.014c0,0.396,0.109,0.957,0.176,1.539H267.989z
		 M267.747,115.23h-0.308c-1.387,0-1.849,0.342-1.849,1.057c0,0.494,0.418,0.736,1.012,0.736c0.518,0,0.936-0.253,1.145-0.594
		V115.23z"/>
	<path d="M272.422,117.783c-1.596,0-2.354-1.067-2.354-2.607c0-1.629,0.737-2.685,2.388-2.685c0.45,0,1.287,0.198,1.649,0.341
		l-0.341,0.814c-0.374-0.188-0.946-0.396-1.32-0.396c-0.979,0-1.364,0.639-1.364,1.926c0,1.177,0.43,1.848,1.354,1.848
		c0.341,0,0.936-0.176,1.364-0.396l0.341,0.813C273.753,117.629,272.807,117.783,272.422,117.783z"/>
	<path d="M278.406,117.65v-3.156c0-0.683-0.11-1.244-0.946-1.244c-0.605,0-1.002,0.562-1.199,1.002v3.398h-0.979v-7.228h0.979v2.904
		c0.187-0.297,0.648-0.847,1.353-0.847c1.408,0,1.771,0.88,1.771,1.969v3.201H278.406z"/>
	<path d="M216.652,127.65h-2.596v-7.117h2.232c1.364,0,2.398,0.385,2.398,1.914c0,0.748-0.483,1.266-1.133,1.475
		c0.88,0.153,1.463,0.692,1.463,1.683C219.018,127.232,217.929,127.65,216.652,127.65z M216.289,121.38h-1.133v2.189h1.287
		c0.627,0,1.122-0.341,1.122-1.111C217.565,121.732,217.214,121.38,216.289,121.38z M216.466,124.405h-1.31v2.398h1.431
		c0.736,0,1.298-0.22,1.298-1.199C217.885,124.647,217.247,124.405,216.466,124.405z"/>
	<path d="M221.173,125.517c0.066,0.935,0.462,1.529,1.331,1.529c0.507,0,1.002-0.165,1.529-0.429l0.319,0.77
		c-0.594,0.275-1.276,0.396-1.937,0.396c-1.573,0-2.288-1.199-2.288-2.597c0-1.166,0.473-2.695,2.233-2.695
		c1.782,0,2.267,1.122,2.267,3.025H221.173z M222.372,123.25c-0.594,0-1.155,0.43-1.21,1.529h2.508
		C223.638,123.701,223.176,123.25,222.372,123.25z"/>
	<path d="M226.606,126.892h2.739v0.759h-3.521l-0.341-0.813l2.904-3.454h-2.596v-0.76h3.355l0.352,0.814L226.606,126.892z"/>
	<path d="M230.567,121.501v-0.968h1.056v0.968H230.567z M230.6,127.65v-5.027h0.99v5.027H230.6z"/>
	<path d="M235.814,123.559c-0.188-0.121-0.418-0.309-0.76-0.309c-0.616,0-0.847,0.902-0.979,1.211v3.189h-0.979v-3.905
		c0-0.495-0.088-0.869-0.121-1.122h0.892l0.176,0.881c0.176-0.342,0.616-1.023,1.188-1.023c0.396,0,0.66,0.088,0.935,0.253
		L235.814,123.559z"/>
	<path d="M240.115,127.65l-2.079-2.574v2.574h-0.979v-7.228h0.979v4.225l1.892-2.024h1.067l-2.046,2.178l2.311,2.85H240.115z"/>
	<path d="M242.952,125.517c0.066,0.935,0.462,1.529,1.331,1.529c0.507,0,1.002-0.165,1.529-0.429l0.319,0.77
		c-0.594,0.275-1.276,0.396-1.937,0.396c-1.573,0-2.288-1.199-2.288-2.597c0-1.166,0.473-2.695,2.233-2.695
		c1.782,0,2.267,1.122,2.267,3.025H242.952z M244.151,123.25c-0.594,0-1.155,0.43-1.21,1.529h2.508
		C245.417,123.701,244.955,123.25,244.151,123.25z"/>
	<path d="M250.795,127.65v-3.18c0-0.637-0.088-1.221-0.945-1.221c-0.583,0-0.99,0.539-1.199,1.002v3.398h-0.979v-3.96
		c0-0.418-0.088-0.693-0.121-1.067h0.892l0.176,0.704c0.198-0.231,0.627-0.847,1.375-0.847c1.408,0,1.782,0.847,1.782,2.002v3.168
		H250.795z"/>
	<path d="M260.465,123.174h-0.66c0.23,0.197,0.55,0.67,0.55,1.199c0,0.891-0.495,1.914-2.167,1.914
		c-0.231,0-0.848-0.088-1.078-0.209c-0.133,0.121-0.254,0.23-0.254,0.429c0,0.264,0.242,0.396,1.508,0.495
		c1.914,0.154,2.343,0.627,2.343,1.408c0,1.057-1.21,1.441-2.453,1.441c-1.881,0-2.486-0.562-2.486-1.408
		c0-0.594,0.616-0.881,0.936-0.99c-0.407-0.176-0.683-0.495-0.683-0.902c0-0.363,0.275-0.627,0.539-0.848
		c-0.143-0.176-0.539-0.594-0.539-1.33c0-0.584,0.309-1.882,2.146-1.882c0.374,0,0.605,0.044,0.847,0.11
		c0.407-0.033,1.199-0.1,1.728-0.121L260.465,123.174z M257.373,127.738c-0.374,0.121-0.583,0.418-0.583,0.672
		c0,0.439,0.583,0.727,1.463,0.727c1.057,0,1.431-0.254,1.431-0.727C259.684,128.08,259.188,127.816,257.373,127.738z
		 M258.188,123.239c-0.693,0-1.145,0.396-1.145,1.155c0,0.748,0.418,1.155,1.155,1.155c0.858,0,1.133-0.605,1.133-1.199
		C259.331,123.646,258.968,123.239,258.188,123.239z"/>
	<path d="M262.62,125.517c0.066,0.935,0.462,1.529,1.331,1.529c0.507,0,1.002-0.165,1.529-0.429l0.319,0.77
		c-0.594,0.275-1.276,0.396-1.937,0.396c-1.573,0-2.288-1.199-2.288-2.597c0-1.166,0.473-2.695,2.233-2.695
		c1.782,0,2.267,1.122,2.267,3.025H262.62z M263.819,123.25c-0.594,0-1.155,0.43-1.21,1.529h2.508
		C265.085,123.701,264.623,123.25,263.819,123.25z"/>
	<path d="M269.44,127.794c-1.749,0-2.354-1.232-2.354-2.685c0-1.387,0.616-2.629,2.354-2.629c1.749,0,2.343,1.177,2.343,2.629
		S271.179,127.794,269.44,127.794z M269.44,123.25c-0.925,0-1.343,0.627-1.343,1.859c0,1.166,0.353,1.914,1.343,1.914
		c0.957,0,1.331-0.693,1.331-1.914C270.771,123.877,270.419,123.25,269.44,123.25z"/>
	<path d="M275.743,123.559c-0.188-0.121-0.418-0.309-0.76-0.309c-0.616,0-0.847,0.902-0.979,1.211v3.189h-0.979v-3.905
		c0-0.495-0.088-0.869-0.121-1.122h0.892l0.176,0.881c0.176-0.342,0.616-1.023,1.188-1.023c0.396,0,0.66,0.088,0.935,0.253
		L275.743,123.559z"/>
	<path d="M280.341,127.65l-0.176-0.55c-0.231,0.353-0.683,0.683-1.243,0.683c-1.596,0-2.189-1.232-2.189-2.674
		c0-1.408,0.671-2.618,2.068-2.618c0.649,0,1.067,0.451,1.331,0.836v-2.904h0.979v5.688c0,0.637,0.044,0.935,0.121,1.539H280.341z
		 M280.154,124.273c-0.209-0.418-0.562-1.023-1.232-1.023c-0.649,0-1.178,0.463-1.178,1.881c0,1.332,0.418,1.893,1.31,1.893
		c0.473,0,0.825-0.297,1.101-0.736V124.273z"/>
	<path d="M285.73,127.65v-3.18c0-0.637-0.088-1.221-0.945-1.221c-0.583,0-0.99,0.539-1.199,1.002v3.398h-0.979v-3.96
		c0-0.418-0.088-0.693-0.121-1.067h0.892l0.176,0.704c0.198-0.231,0.627-0.847,1.375-0.847c1.408,0,1.782,0.847,1.782,2.002v3.168
		H285.73z"/>
	<path d="M288.997,125.517c0.066,0.935,0.462,1.529,1.331,1.529c0.507,0,1.002-0.165,1.529-0.429l0.319,0.77
		c-0.594,0.275-1.276,0.396-1.937,0.396c-1.573,0-2.288-1.199-2.288-2.597c0-1.166,0.473-2.695,2.233-2.695
		c1.782,0,2.267,1.122,2.267,3.025H288.997z M290.196,123.25c-0.594,0-1.155,0.43-1.21,1.529h2.508
		C291.462,123.701,291,123.25,290.196,123.25z"/>
	<path d="M295.927,128.542c-1.154-0.286-2.002-1.013-2.002-2.134v-3.025h-0.814v-0.771h0.814v-1.31h0.99v1.31h1.166v0.771h-1.166
		v3.047c0,0.682,0.528,1.057,1.354,1.221L295.927,128.542z"/>
	<path d="M297.269,127.65v-1.056h1.089v1.056H297.269z"/>
</g>
<g>
	<path d="M28.72,24.398l-0.928-2.769h-3.697l-0.977,2.769h-2.146l4.21-10.356h1.856l3.906,10.356H28.72z M26.015,16.283l-1.36,3.826
		h2.625L26.015,16.283z"/>
	<path d="M38.528,24.398l-3.153-4.306h-0.448v4.306H32.91V14.042h3.873c1.648,0,3.506,0.544,3.506,2.993
		c0,1.393-0.624,2.689-2.562,2.993l3.266,4.37H38.528z M36.863,15.595h-1.937v2.945h1.953c0.928,0,1.36-0.64,1.36-1.504
		C38.24,16.171,37.808,15.595,36.863,15.595z"/>
	<path d="M47.375,24.398h-4.193V14.042h3.665c1.937,0,3.489,0.624,3.489,2.849c0,1.088-0.704,1.809-1.648,2.081
		c1.28,0.176,2.129,0.944,2.129,2.401C50.816,23.742,49.2,24.398,47.375,24.398z M46.847,15.595h-1.648V18.3h1.873
		c0.704,0,1.216-0.464,1.216-1.393C48.287,16.219,47.968,15.595,46.847,15.595z M47.103,19.836h-1.904v3.009h2.081
		c0.784,0,1.473-0.336,1.473-1.473C48.752,20.205,48.016,19.836,47.103,19.836z"/>
	<path d="M53.182,24.398V14.042h6.146v1.552h-4.13v2.673h3.794v1.553h-3.794v3.025h4.273v1.553H53.182z"/>
	<path d="M62.285,24.398V14.042h2.017v10.356H62.285z"/>
	<path d="M70.83,15.611v8.788h-2.017v-8.788h-2.849v-1.568h7.715v1.568H70.83z"/>
	<path d="M78.158,24.703c-0.896,0-2.226-0.256-3.105-0.496l0.624-1.697c0.769,0.288,1.648,0.64,2.497,0.64
		c1.297,0,2.209-0.24,2.209-1.409c0-1.104-1.248-1.473-2.545-1.969c-1.377-0.528-2.785-1.216-2.785-3.089
		c0-2.049,2.113-2.849,4.018-2.849c0.704,0,2.064,0.16,2.913,0.448l-0.624,1.697c-0.593-0.256-1.345-0.592-2.337-0.592
		c-1.505,0-1.921,0.688-1.921,1.296c0,0.833,0.977,1.137,2.081,1.537c1.488,0.528,3.249,1.217,3.249,3.49
		C82.432,24.207,80.287,24.703,78.158,24.703z"/>
	<path d="M85.037,24.398V14.042h2.017v8.755h4.306v1.601H85.037z"/>
	<path d="M96.958,24.703c-3.729,0-4.882-2.337-4.882-5.442c0-3.041,1.28-5.426,4.898-5.426c3.569,0,4.817,2.241,4.817,5.426
		C101.792,22.333,100.56,24.703,96.958,24.703z M96.958,15.387c-1.904,0-2.801,1.152-2.801,3.874c0,2.849,0.88,3.89,2.801,3.89
		c1.985,0,2.753-1.312,2.753-3.89C99.711,16.507,98.831,15.387,96.958,15.387z"/>
	<path d="M106.861,24.703c-0.896,0-2.226-0.256-3.105-0.496l0.624-1.697c0.769,0.288,1.648,0.64,2.497,0.64
		c1.297,0,2.209-0.24,2.209-1.409c0-1.104-1.248-1.473-2.545-1.969c-1.377-0.528-2.785-1.216-2.785-3.089
		c0-2.049,2.113-2.849,4.018-2.849c0.704,0,2.064,0.16,2.913,0.448l-0.624,1.697c-0.593-0.256-1.345-0.592-2.337-0.592
		c-1.505,0-1.921,0.688-1.921,1.296c0,0.833,0.977,1.137,2.081,1.537c1.488,0.528,3.249,1.217,3.249,3.49
		C111.135,24.207,108.99,24.703,106.861,24.703z"/>
	<path d="M113.548,24.398V14.042h2.017v10.356H113.548z"/>
	<path d="M122.59,24.703c-3.81,0-4.77-2.689-4.77-5.49c0-3.186,1.44-5.378,4.914-5.378c0.721,0,1.873,0.224,2.609,0.417
		l-0.625,1.697c-0.624-0.272-1.264-0.561-1.969-0.561c-1.681,0-2.849,0.816-2.849,3.826c0,2.497,0.608,3.938,2.737,3.938
		c0.736,0,1.152-0.112,1.648-0.4v-2.337h-2.289V18.86h4.082v4.914C125.007,24.398,124.143,24.703,122.59,24.703z"/>
	<path d="M134.733,24.398l-4.193-4.722v4.722h-2.017V14.042h2.017v4.37l3.825-4.37h2.273l-4.226,4.866l4.93,5.49H134.733z"/>
	<path d="M139.068,24.398V14.042h6.146v1.552h-4.13v2.673h3.794v1.553h-3.794v3.025h4.273v1.553H139.068z"/>
	<path d="M148.171,24.398V14.042h2.017v10.356H148.171z"/>
	<path d="M156.717,15.611v8.788H154.7v-8.788h-2.849v-1.568h7.715v1.568H156.717z"/>
	<path d="M21.489,30.288v-0.953h0.673v0.953H21.489z M21.545,38.398v-6.401h0.575v6.401H21.545z"/>
	<path d="M32.063,38.398v-4.062c0-0.953-0.196-2.017-1.653-2.017c-0.84,0-1.526,0.84-1.765,1.499v4.581h-0.574v-4.062
		c0-1.219-0.532-2.017-1.597-2.017c-0.841,0-1.527,0.784-1.751,1.429v4.65h-0.574v-4.931c0-0.532-0.07-0.995-0.112-1.471h0.462
		l0.196,1.008c0.294-0.434,0.841-1.148,1.863-1.148c1.148,0,1.694,0.687,1.919,1.415c0.364-0.588,0.938-1.415,1.989-1.415
		c1.415,0,2.171,0.742,2.171,2.451v4.09H32.063z"/>
	<path d="M40.138,38.623c-0.784,0-1.526-0.182-2.297-0.392l0.252-0.588c0.673,0.252,1.317,0.462,2.06,0.462
		c1.051,0,2.381-0.393,2.381-1.989c0-1.331-1.106-1.751-2.269-2.157c-1.205-0.42-2.424-0.911-2.424-2.479
		c0-1.667,1.316-2.283,2.983-2.283c0.616,0,1.359,0.14,2.102,0.393l-0.252,0.588c-0.519-0.224-1.064-0.462-1.934-0.462
		c-1.219,0-2.227,0.42-2.227,1.765c0,1.079,0.952,1.471,2.003,1.835c1.288,0.448,2.689,0.967,2.689,2.774
		C43.206,38.02,41.805,38.623,40.138,38.623z"/>
	<path d="M49.239,38.398c-0.014-0.154-0.196-0.588-0.224-0.812c-0.322,0.532-0.981,0.953-1.863,0.953
		c-1.121,0-2.241-0.532-2.241-1.821c0-1.303,0.672-2.144,3.39-2.144h0.658v-0.588c0-1.05-0.406-1.667-1.471-1.667
		c-0.883,0-1.484,0.252-2.087,0.546l-0.21-0.504c0.687-0.266,1.33-0.504,2.283-0.504c1.261,0,2.059,0.658,2.059,2.059v2.521
		c0,0.504,0.084,1.148,0.168,1.961H49.239z M48.974,35.051h-0.477c-2.27,0-2.97,0.476-2.97,1.653c0,0.812,0.561,1.373,1.625,1.373
		c0.826,0,1.513-0.406,1.821-1.022V35.051z"/>
	<path d="M51.631,38.398v-9.203h0.574v9.203H51.631z"/>
	<path d="M54.431,37.936h3.544v0.462h-3.964L53.8,37.894l3.698-5.435H54.08v-0.462h3.824l0.21,0.504L54.431,37.936z"/>
	<path d="M62.132,38.539c-0.771,0-1.541-0.448-1.891-0.953l-0.183,0.812h-0.462c0.084-0.812,0.112-1.148,0.112-1.961v-7.242h0.574
		v3.81c0.266-0.476,0.967-1.148,1.919-1.148c1.751,0,2.409,1.527,2.409,3.306C64.611,36.998,63.953,38.539,62.132,38.539z
		 M62.16,32.319c-1.232,0-1.779,1.121-1.905,1.442v3.25c0.42,0.687,1.037,1.064,1.737,1.064c1.484,0,2.003-1.19,2.003-2.885
		C63.995,33.174,63.238,32.319,62.16,32.319z"/>
	<path d="M70.406,38.398l-0.182-1.009c-0.238,0.309-0.673,1.149-1.919,1.149c-1.527,0-2.003-1.037-2.003-2.507v-4.034h0.574v3.922
		c0,1.163,0.21,2.157,1.583,2.157c0.924,0,1.526-0.854,1.723-1.429v-4.65h0.574v5.042c0,0.532,0.084,0.827,0.112,1.359H70.406z"/>
	<path d="M75.852,32.669c-0.378-0.28-0.728-0.35-1.036-0.35c-0.826,0-1.261,1.176-1.471,1.597v4.482h-0.574v-4.973
		c0-0.63-0.084-1.106-0.112-1.429h0.462l0.183,1.205c0.266-0.504,0.729-1.345,1.61-1.345c0.393,0,0.743,0.07,1.149,0.308
		L75.852,32.669z"/>
	<path d="M79.617,41.158c-2.073,0-2.83-0.672-2.83-1.75c0-0.812,0.854-1.275,1.401-1.401c-0.448-0.182-0.896-0.49-0.896-1.009
		c0-0.462,0.294-0.728,0.561-0.995c-0.211-0.238-0.743-0.728-0.743-1.807c0-0.743,0.435-2.339,2.396-2.339
		c0.477,0,0.841,0.07,1.064,0.182c0.519-0.042,1.079-0.112,1.751-0.14l-0.21,0.504h-0.98c0.378,0.266,0.812,0.938,0.812,1.751
		c0,1.232-0.631,2.437-2.409,2.437c-0.421,0-1.093-0.168-1.317-0.322c-0.195,0.21-0.363,0.42-0.363,0.686
		c0,0.406,0.266,0.616,1.904,0.798c2.13,0.224,2.634,0.883,2.634,1.597C82.391,40.57,81.144,41.158,79.617,41.158z M78.734,38.174
		c-0.896,0.182-1.33,0.742-1.33,1.233c0,0.742,0.56,1.289,2.213,1.289c1.499,0,2.157-0.561,2.157-1.345
		C81.774,38.553,80.85,38.356,78.734,38.174z M79.533,32.319c-1.373,0-1.808,0.994-1.808,1.905c0,1.022,0.505,1.905,1.821,1.905
		s1.779-0.883,1.779-1.947C81.326,32.992,80.682,32.319,79.533,32.319z"/>
	<path d="M84.151,35.331c0,1.527,0.463,2.746,2.031,2.746c0.742,0,1.316-0.224,1.976-0.574l0.168,0.518
		c-0.729,0.351-1.499,0.519-2.256,0.519c-1.862,0-2.549-1.499-2.549-3.278c0-1.485,0.574-3.404,2.521-3.404
		c2.073,0,2.521,1.569,2.521,3.474H84.151z M86.043,32.319c-1.233,0-1.821,1.008-1.905,2.549h3.866
		C88.004,33.188,87.443,32.319,86.043,32.319z"/>
	<path d="M93.379,32.669c-0.378-0.28-0.728-0.35-1.036-0.35c-0.826,0-1.261,1.176-1.471,1.597v4.482h-0.574v-4.973
		c0-0.63-0.084-1.106-0.112-1.429h0.462l0.183,1.205c0.266-0.504,0.729-1.345,1.61-1.345c0.393,0,0.743,0.07,1.149,0.308
		L93.379,32.669z"/>
	<path d="M98.389,38.398v-9.063h0.645v8.502h4.328v0.561H98.389z"/>
	<path d="M108.499,38.398c-0.014-0.154-0.196-0.588-0.224-0.812c-0.322,0.532-0.981,0.953-1.863,0.953
		c-1.121,0-2.241-0.532-2.241-1.821c0-1.303,0.672-2.144,3.39-2.144h0.658v-0.588c0-1.05-0.406-1.667-1.471-1.667
		c-0.883,0-1.484,0.252-2.087,0.546l-0.21-0.504c0.687-0.266,1.33-0.504,2.283-0.504c1.261,0,2.059,0.658,2.059,2.059v2.521
		c0,0.504,0.084,1.148,0.168,1.961H108.499z M108.233,35.051h-0.477c-2.27,0-2.97,0.476-2.97,1.653c0,0.812,0.561,1.373,1.625,1.373
		c0.826,0,1.513-0.406,1.821-1.022V35.051z"/>
	<path d="M114.868,38.398v-3.922c0-1.163-0.224-2.157-1.625-2.157c-0.924,0-1.582,0.854-1.778,1.429v4.65h-0.574v-5.043
		c0-0.532-0.084-0.826-0.112-1.358h0.462l0.183,1.008c0.238-0.308,0.756-1.148,1.905-1.148c1.597,0,2.114,1.037,2.114,2.507v4.034
		H114.868z"/>
	<path d="M121.688,38.398l-0.183-0.812c-0.35,0.504-1.093,0.953-1.863,0.953c0,0-0.014,0-0.027,0
		c-1.835-0.028-2.479-1.541-2.479-3.376c0-1.807,0.84-3.306,2.451-3.306c0.994,0,1.611,0.672,1.877,1.148v-3.81h0.574v7.242
		c0,0.812,0.028,1.148,0.112,1.961H121.688z M121.491,33.762c-0.141-0.378-0.645-1.442-1.85-1.442c-1.134,0-1.891,0.91-1.891,2.872
		c0,1.695,0.519,2.885,2.003,2.885c0.7,0,1.316-0.378,1.737-1.064V33.762z"/>
</g>
<line fill="none" stroke="#000000" stroke-miterlimit="10" x1="22.594" y1="173.625" x2="22.594" y2="60.625"/>
<g>
	<path d="M35.468,100.913l-0.162-0.36c0.811-0.855,2.8-2.458,2.8-3.646c0-0.864-0.405-1.242-1.242-1.242
		c-0.504,0-0.837,0.18-1.296,0.396l-0.162-0.378c0.54-0.252,1.035-0.342,1.477-0.342c0.99,0,1.656,0.468,1.656,1.531
		c0,1.35-1.873,2.809-2.729,3.691h2.854v0.351H35.468z"/>
	<path d="M43.425,100.922v-4.933l-1.045,0.918l-0.162-0.378l1.242-1.081h0.379v5.474H43.425z"/>
	<path d="M45.817,100.913l-0.162-0.36c0.811-0.855,2.8-2.458,2.8-3.646c0-0.864-0.405-1.242-1.242-1.242
		c-0.504,0-0.837,0.18-1.296,0.396l-0.162-0.378c0.54-0.252,1.035-0.342,1.477-0.342c0.99,0,1.656,0.468,1.656,1.531
		c0,1.35-1.873,2.809-2.729,3.691h2.854v0.351H45.817z"/>
	<path d="M50.983,100.913h-0.486l2.224-5.123H49.85v-0.342h3.078l0.162,0.378L50.983,100.913z"/>
</g>
<g>
	<path d="M63.249,117.652v-4.934l-1.111,0.918l-0.173-0.377l1.322-1.081h0.402v5.474H63.249z"/>
	<path d="M69.794,117.77c-1.562,0-1.849-1.342-1.849-2.674c0-1.44,0.689-3.025,2.185-3.025c0.354,0,0.719,0.045,1.111,0.145
		l-0.173,0.379c-0.315-0.109-0.526-0.199-0.891-0.199c-1.083,0-1.83,1.062-1.83,2.719c0.268-0.549,0.757-1.025,1.446-1.025
		c1.121,0,1.706,0.747,1.706,1.791C71.5,116.842,70.896,117.77,69.794,117.77z M69.813,114.412c-0.853,0-1.246,0.693-1.38,1.017
		c0,1.495,0.45,2.017,1.37,2.017c0.757,0,1.236-0.63,1.236-1.566C71.04,114.988,70.686,114.412,69.813,114.412z"/>
	<path d="M73.676,117.77c-0.652,0-0.882-0.027-1.438-0.207l0.172-0.378c0.451,0.144,0.662,0.261,1.294,0.261
		c0.681,0,1.438-0.252,1.438-1.18c0-1.098-0.814-1.341-1.84-1.341v-0.306c0.93,0,1.696-0.217,1.696-1.162
		c0-0.863-0.547-1.062-1.198-1.062c-0.46,0-0.853,0.189-1.284,0.388l-0.172-0.378c0.422-0.198,0.978-0.334,1.456-0.334
		c0.978,0,1.658,0.414,1.658,1.369c0,0.864-0.585,1.242-1.265,1.323c0.67,0.099,1.408,0.468,1.408,1.513
		C75.602,117.392,74.691,117.77,73.676,117.77z"/>
	<path d="M78.515,117.77c-1.753,0-1.83-1.611-1.83-2.898c0-1.216,0.211-2.791,1.84-2.791c1.754,0,1.859,1.477,1.859,2.791
		S80.288,117.77,78.515,117.77z M78.524,112.404c-1.227,0-1.38,1.404-1.38,2.467c0,1.27,0.096,2.574,1.37,2.574
		c1.399,0,1.409-1.368,1.409-2.574C79.924,113.619,79.847,112.404,78.524,112.404z"/>
</g>
<g>
	<path d="M88.407,80.261l-0.162-0.36c0.811-0.855,2.8-2.458,2.8-3.646c0-0.864-0.405-1.242-1.242-1.242
		c-0.504,0-0.837,0.18-1.296,0.396l-0.162-0.378c0.54-0.252,1.035-0.342,1.477-0.342c0.99,0,1.656,0.468,1.656,1.531
		c0,1.35-1.873,2.809-2.729,3.691h2.854v0.351H88.407z"/>
	<path d="M96.301,80.387c-1.468,0-1.737-1.341-1.737-2.674c0-1.44,0.648-3.025,2.053-3.025c0.333,0,0.675,0.045,1.044,0.144
		l-0.162,0.378c-0.297-0.108-0.495-0.198-0.837-0.198c-1.018,0-1.72,1.062-1.72,2.719c0.252-0.549,0.711-1.026,1.359-1.026
		c1.054,0,1.603,0.748,1.603,1.792C97.903,79.459,97.336,80.387,96.301,80.387z M96.319,77.029c-0.802,0-1.171,0.693-1.297,1.017
		c0,1.495,0.423,2.017,1.287,2.017c0.712,0,1.162-0.63,1.162-1.566C97.472,77.605,97.138,77.029,96.319,77.029z"/>
	<path d="M98.757,80.261l-0.162-0.36c0.811-0.855,2.8-2.458,2.8-3.646c0-0.864-0.405-1.242-1.242-1.242
		c-0.504,0-0.837,0.18-1.296,0.396l-0.162-0.378c0.54-0.252,1.035-0.342,1.477-0.342c0.99,0,1.656,0.468,1.656,1.531
		c0,1.35-1.873,2.809-2.729,3.691h2.854v0.351H98.757z"/>
	<path d="M104.481,80.387c-0.685,0-1.72-0.243-1.72-1.431c0-0.801,0.549-1.314,1.323-1.576c-0.234-0.117-1.135-0.459-1.135-1.314
		c0-0.936,0.648-1.377,1.576-1.377c0.927,0,1.593,0.351,1.593,1.369c0,0.837-0.891,1.26-1.206,1.332
		c0.864,0.297,1.342,0.801,1.342,1.567C106.255,80.198,105.184,80.387,104.481,80.387z M104.508,77.551
		c-0.566,0.162-1.332,0.504-1.332,1.405c0,0.774,0.567,1.116,1.306,1.116c0.711,0,1.359-0.297,1.359-1.116
		C105.841,78.091,105.066,77.722,104.508,77.551z M104.526,75.003c-0.666,0-1.171,0.271-1.171,1.062c0,0.63,0.702,1.044,1.135,1.17
		c0.468-0.09,1.225-0.54,1.225-1.179C105.715,75.246,105.22,75.003,104.526,75.003z"/>
</g>
<g>
	<path d="M115.868,63.539c-0.612,0-0.828-0.027-1.351-0.207l0.162-0.378c0.423,0.144,0.621,0.261,1.216,0.261
		c0.639,0,1.35-0.252,1.35-1.179c0-1.098-0.765-1.341-1.729-1.341v-0.306c0.874,0,1.594-0.216,1.594-1.161
		c0-0.864-0.513-1.062-1.125-1.062c-0.433,0-0.802,0.189-1.206,0.387l-0.162-0.378c0.396-0.198,0.918-0.333,1.368-0.333
		c0.918,0,1.558,0.414,1.558,1.369c0,0.864-0.55,1.242-1.188,1.323c0.63,0.099,1.323,0.468,1.323,1.513
		C117.678,63.161,116.822,63.539,115.868,63.539z"/>
	<path d="M122.321,63.539c-0.549,0-0.883-0.027-1.378-0.189l0.162-0.378c0.405,0.162,0.793,0.243,1.225,0.243
		c0.873,0,1.387-0.531,1.387-1.512c0-0.9-0.45-1.432-1.161-1.432c-0.405,0-0.819,0.189-1.126,0.342l-0.378-0.162v-2.503h2.854v0.324
		h-2.439v1.899c0.297-0.063,0.576-0.225,1.08-0.225c1.09,0,1.585,0.72,1.585,1.773C124.131,62.864,123.474,63.539,122.321,63.539z"
		/>
	<path d="M126.614,63.539c-0.685,0-1.72-0.243-1.72-1.431c0-0.801,0.549-1.314,1.323-1.576c-0.234-0.117-1.135-0.459-1.135-1.314
		c0-0.936,0.648-1.377,1.576-1.377c0.927,0,1.593,0.351,1.593,1.369c0,0.837-0.891,1.26-1.206,1.332
		c0.864,0.297,1.342,0.801,1.342,1.567C128.388,63.35,127.316,63.539,126.614,63.539z M126.641,60.703
		c-0.566,0.162-1.332,0.504-1.332,1.405c0,0.774,0.567,1.116,1.306,1.116c0.711,0,1.359-0.297,1.359-1.116
		C127.974,61.244,127.199,60.875,126.641,60.703z M126.659,58.155c-0.666,0-1.171,0.271-1.171,1.062c0,0.63,0.702,1.044,1.135,1.17
		c0.468-0.09,1.225-0.54,1.225-1.179C127.848,58.398,127.353,58.155,126.659,58.155z"/>
	<path d="M130.394,63.539c-0.333,0-0.676-0.045-1.044-0.144l0.161-0.378c0.298,0.108,0.496,0.198,0.838,0.198
		c1.018,0,1.72-1.062,1.72-2.719c-0.253,0.549-0.712,1.026-1.359,1.026c-1.054,0-1.603-0.747-1.603-1.792
		c0-0.963,0.566-1.891,1.603-1.891c1.467,0,1.737,1.341,1.737,2.674C132.446,61.955,131.798,63.539,130.394,63.539z M130.699,58.165
		c-0.711,0-1.161,0.63-1.161,1.566c0,0.891,0.333,1.467,1.152,1.467c0.802,0,1.171-0.693,1.297-1.017
		C131.987,58.687,131.563,58.165,130.699,58.165z"/>
</g>
<g>
	<path d="M142.238,73.289c-0.612,0-0.828-0.027-1.351-0.207l0.162-0.378c0.423,0.144,0.621,0.261,1.216,0.261
		c0.639,0,1.35-0.252,1.35-1.179c0-1.098-0.765-1.341-1.729-1.341v-0.306c0.874,0,1.594-0.216,1.594-1.161
		c0-0.864-0.513-1.062-1.125-1.062c-0.433,0-0.802,0.189-1.206,0.387l-0.162-0.378c0.396-0.198,0.918-0.333,1.368-0.333
		c0.918,0,1.558,0.414,1.558,1.369c0,0.864-0.55,1.242-1.188,1.323c0.63,0.099,1.323,0.468,1.323,1.513
		C144.048,72.911,143.192,73.289,142.238,73.289z"/>
	<path d="M147.26,73.163l-0.162-0.36c0.811-0.855,2.8-2.458,2.8-3.646c0-0.864-0.405-1.242-1.242-1.242
		c-0.504,0-0.837,0.18-1.296,0.396l-0.162-0.378c0.54-0.252,1.035-0.342,1.477-0.342c0.99,0,1.656,0.468,1.656,1.531
		c0,1.35-1.873,2.809-2.729,3.691h2.854v0.351H147.26z"/>
	<path d="M152.984,73.289c-0.685,0-1.72-0.243-1.72-1.431c0-0.801,0.549-1.314,1.323-1.576c-0.234-0.117-1.135-0.459-1.135-1.314
		c0-0.936,0.648-1.377,1.576-1.377c0.927,0,1.593,0.351,1.593,1.369c0,0.837-0.891,1.26-1.206,1.332
		c0.864,0.297,1.342,0.801,1.342,1.567C154.758,73.1,153.687,73.289,152.984,73.289z M153.011,70.453
		c-0.566,0.162-1.332,0.504-1.332,1.405c0,0.774,0.567,1.116,1.306,1.116c0.711,0,1.359-0.297,1.359-1.116
		C154.344,70.994,153.569,70.625,153.011,70.453z M153.029,67.905c-0.666,0-1.171,0.271-1.171,1.062c0,0.63,0.702,1.044,1.135,1.17
		c0.468-0.09,1.225-0.54,1.225-1.179C154.218,68.148,153.723,67.905,153.029,67.905z"/>
	<path d="M157.223,73.289c-1.468,0-1.737-1.341-1.737-2.674c0-1.44,0.648-3.025,2.053-3.025c0.333,0,0.675,0.045,1.044,0.144
		l-0.162,0.378c-0.297-0.108-0.495-0.198-0.837-0.198c-1.018,0-1.72,1.062-1.72,2.719c0.252-0.549,0.711-1.026,1.359-1.026
		c1.054,0,1.603,0.748,1.603,1.792C158.825,72.362,158.258,73.289,157.223,73.289z M157.24,69.931c-0.801,0-1.17,0.693-1.296,1.017
		c0,1.495,0.423,2.017,1.287,2.017c0.712,0,1.161-0.63,1.161-1.566C158.393,70.507,158.06,69.931,157.24,69.931z"/>
</g>
<g>
	<path d="M167.58,100.913l-0.162-0.36c0.811-0.855,2.8-2.458,2.8-3.646c0-0.864-0.405-1.242-1.242-1.242
		c-0.504,0-0.837,0.18-1.296,0.396l-0.162-0.378c0.54-0.252,1.035-0.342,1.477-0.342c0.99,0,1.656,0.468,1.656,1.531
		c0,1.35-1.873,2.809-2.729,3.691h2.854v0.351H167.58z"/>
	<path d="M175.384,101.039c-1.647,0-1.72-1.611-1.72-2.899c0-1.215,0.198-2.791,1.729-2.791c1.647,0,1.747,1.476,1.747,2.791
		S177.049,101.039,175.384,101.039z M175.393,95.673c-1.152,0-1.296,1.405-1.296,2.467c0,1.27,0.09,2.575,1.287,2.575
		c1.314,0,1.323-1.368,1.323-2.575C176.707,96.889,176.635,95.673,175.393,95.673z"/>
	<path d="M179.515,101.039c-0.685,0-1.72-0.243-1.72-1.431c0-0.801,0.549-1.314,1.323-1.576c-0.234-0.117-1.135-0.459-1.135-1.314
		c0-0.936,0.648-1.377,1.576-1.377c0.927,0,1.593,0.351,1.593,1.369c0,0.837-0.891,1.26-1.206,1.332
		c0.864,0.297,1.342,0.801,1.342,1.567C181.288,100.85,180.217,101.039,179.515,101.039z M179.541,98.203
		c-0.566,0.162-1.332,0.504-1.332,1.405c0,0.774,0.567,1.116,1.306,1.116c0.711,0,1.359-0.297,1.359-1.116
		C180.874,98.744,180.1,98.375,179.541,98.203z M179.56,95.655c-0.666,0-1.171,0.271-1.171,1.062c0,0.63,0.702,1.044,1.135,1.17
		c0.468-0.09,1.225-0.54,1.225-1.179C180.748,95.898,180.253,95.655,179.56,95.655z"/>
	<path d="M183.294,101.039c-0.333,0-0.675-0.045-1.044-0.144l0.161-0.378c0.298,0.108,0.495,0.198,0.838,0.198
		c1.018,0,1.72-1.062,1.72-2.719c-0.253,0.549-0.712,1.026-1.359,1.026c-1.054,0-1.603-0.747-1.603-1.792
		c0-0.963,0.566-1.891,1.603-1.891c1.467,0,1.737,1.341,1.737,2.674C185.347,99.455,184.698,101.039,183.294,101.039z M183.6,95.665
		c-0.711,0-1.161,0.63-1.161,1.566c0,0.891,0.333,1.467,1.152,1.467c0.802,0,1.171-0.693,1.297-1.017
		C184.888,96.187,184.464,95.665,183.6,95.665z"/>
</g>
<rect x="33.963" y="103.941" fill="#FF9691" width="20.61" height="70.16"/>
<rect x="60.398" y="120.824" fill="#FF756B" width="20.61" height="53.301"/>
<rect x="86.826" y="83.449" fill="#FF5346" width="20.61" height="90.652"/>
<rect x="113.258" y="66.232" fill="#E74A32" width="20.609" height="107.869"/>
<rect x="139.689" y="75.693" fill="#CF401F" width="20.609" height="98.408"/>
<rect x="166.121" y="103.941" fill="#B7370B" width="20.609" height="70.16"/>
<line fill="none" stroke="#000000" stroke-miterlimit="10" x1="22.094" y1="174.125" x2="209.094" y2="174.125"/>
<g>
	<path d="M128.543,166.439c0,0.661-0.195,1.523-0.39,2.173l-1.105-0.378c0.234-0.567,0.494-1.182,0.494-1.808
		c0-0.933-0.273-1.807-1.391-1.807c-0.949,0-1.274,0.851-1.651,1.771c-0.429,1.063-0.923,2.221-2.496,2.221
		c-1.625,0-2.262-1.347-2.262-2.752c0-0.52,0.117-1.347,0.351-1.973l1.105,0.378c-0.208,0.438-0.455,0.874-0.455,1.606
		c0,1.099,0.52,1.535,1.261,1.535c0.741,0,1.027-0.685,1.339-1.476c0.442-1.134,0.923-2.516,2.782-2.516
		C128.076,163.416,128.543,164.856,128.543,166.439z"/>
	<path d="M129.363,159.464c-0.338,1.24-1.196,2.149-2.522,2.149h-3.575v0.874h-0.91v-0.874h-1.547v-1.063h1.547v-1.252h0.91v1.252
		h3.601c0.806,0,1.248-0.566,1.443-1.452L129.363,159.464z"/>
	<path d="M128.31,154.742c-0.052,0-0.585,0.177-0.65,0.188c0.364,0.283,0.806,0.827,0.806,1.465c0,1.228-0.559,2.031-1.716,2.031
		c-1.209,0-2.106-0.626-2.106-2.929v-0.484h-0.377c-0.624,0-1.157,0.165-1.157,0.921c0,0.744,0.247,1.382,0.52,1.901l-0.962,0.366
		c-0.273-0.673-0.455-1.465-0.455-2.303c0-1.146,0.598-1.949,1.898-1.949h2.379c0.468,0,1.131-0.118,1.82-0.188V154.742z
		 M125.449,155.002v0.33c0,1.488,0.403,1.984,1.248,1.984c0.585,0,0.871-0.449,0.871-1.087c0-0.555-0.299-1.004-0.702-1.228H125.449
		z"/>
	<path d="M128.31,148.64l-0.65,0.189c0.416,0.247,0.806,0.731,0.806,1.334c0,1.713-1.456,2.351-3.159,2.351
		c-1.664,0-3.094-0.721-3.094-2.221c0-0.696,0.533-1.146,0.988-1.429h-3.432v-1.052h6.721c0.754,0,1.105-0.047,1.82-0.13V148.64z
		 M124.318,148.841c-0.494,0.224-1.209,0.602-1.209,1.322c0,0.697,0.546,1.264,2.223,1.264c1.573,0,2.236-0.448,2.236-1.405
		c0-0.508-0.351-0.886-0.871-1.181H124.318z"/>
	<path d="M129.363,143.837c-0.338,1.24-1.196,2.149-2.522,2.149h-3.575v0.874h-0.91v-0.874h-1.547v-1.063h1.547v-1.252h0.91v1.252
		h3.601c0.806,0,1.248-0.566,1.443-1.452L129.363,143.837z"/>
	<path d="M128.543,137.346c0,0.661-0.195,1.523-0.39,2.173l-1.105-0.378c0.234-0.567,0.494-1.182,0.494-1.808
		c0-0.933-0.273-1.807-1.391-1.807c-0.949,0-1.274,0.851-1.651,1.771c-0.429,1.063-0.923,2.221-2.496,2.221
		c-1.625,0-2.262-1.347-2.262-2.752c0-0.52,0.117-1.347,0.351-1.973l1.105,0.378c-0.208,0.438-0.455,0.874-0.455,1.606
		c0,1.099,0.52,1.535,1.261,1.535c0.741,0,1.027-0.685,1.339-1.476c0.442-1.134,0.923-2.516,2.782-2.516
		C128.076,134.322,128.543,135.763,128.543,137.346z"/>
	<path d="M128.31,129.331c-0.052,0-0.585,0.177-0.65,0.188c0.364,0.283,0.806,0.827,0.806,1.465c0,1.228-0.559,2.031-1.716,2.031
		c-1.209,0-2.106-0.626-2.106-2.929v-0.484h-0.377c-0.624,0-1.157,0.165-1.157,0.921c0,0.744,0.247,1.382,0.52,1.901l-0.962,0.366
		c-0.273-0.673-0.455-1.465-0.455-2.303c0-1.146,0.598-1.949,1.898-1.949h2.379c0.468,0,1.131-0.118,1.82-0.188V129.331z
		 M125.449,129.591v0.33c0,1.488,0.403,1.984,1.248,1.984c0.585,0,0.871-0.449,0.871-1.087c0-0.555-0.299-1.004-0.702-1.228H125.449
		z"/>
	<path d="M128.31,126.831h-8.542v-1.052h8.542V126.831z"/>
	<path d="M127.413,123.408v-2.941h0.897v3.779l-0.962,0.366l-4.082-3.118v2.787h-0.897v-3.602l0.962-0.378L127.413,123.408z"/>
	<path d="M128.466,116.785c0,0.661-0.455,1.122-0.806,1.335l0.65,0.188v0.957c-0.715-0.083-1.066-0.13-1.82-0.13h-6.721v-1.052
		h3.432c-0.455-0.283-0.988-0.768-0.988-1.452c0-1.606,1.443-2.197,3.094-2.197C127.01,114.435,128.466,115.179,128.466,116.785z
		 M123.109,116.773c0,0.732,0.741,1.11,1.209,1.334h2.379c0.546-0.224,0.871-0.673,0.871-1.181c0-0.862-0.663-1.405-2.236-1.405
		C123.629,115.521,123.109,116.064,123.109,116.773z"/>
	<path d="M128.31,109.608l-0.832,0.188c0.273,0.213,1.001,0.626,1.001,1.43c0,1.44-1.001,1.878-2.366,1.878h-3.744v-1.052h3.757
		c0.741,0,1.443-0.094,1.443-0.98c0-0.625-0.637-1.016-1.183-1.239h-4.018v-1.052h4.68c0.494,0,0.819-0.094,1.261-0.13V109.608z"/>
	<path d="M123.474,104.262c-0.143,0.201-0.364,0.449-0.364,0.815c0,0.661,1.066,0.909,1.43,1.051h3.77v1.052h-4.615
		c-0.585,0-1.027,0.094-1.326,0.13v-0.957l1.04-0.188c-0.403-0.189-1.209-0.662-1.209-1.276c0-0.425,0.104-0.708,0.299-1.004
		L123.474,104.262z"/>
	<path d="M123.019,98.241v0.709c0.234-0.248,0.793-0.591,1.417-0.591c1.053,0,2.262,0.532,2.262,2.327
		c0,0.248-0.104,0.909-0.247,1.157c0.143,0.142,0.273,0.271,0.507,0.271c0.312,0,0.468-0.26,0.585-1.618
		c0.182-2.055,0.741-2.516,1.664-2.516c1.248,0,1.703,1.3,1.703,2.634c0,2.02-0.663,2.669-1.664,2.669
		c-0.702,0-1.04-0.661-1.17-1.004c-0.208,0.438-0.585,0.732-1.066,0.732c-0.429,0-0.741-0.295-1.001-0.578
		c-0.208,0.153-0.702,0.578-1.573,0.578c-0.689,0-2.223-0.33-2.223-2.303c0-0.401,0.052-0.649,0.13-0.909
		c-0.039-0.438-0.117-1.287-0.143-1.854L123.019,98.241z M123.096,100.687c0,0.744,0.468,1.229,1.365,1.229
		c0.884,0,1.365-0.449,1.365-1.24c0-0.922-0.715-1.217-1.417-1.217C123.577,99.458,123.096,99.848,123.096,100.687z
		 M128.414,101.561c0.143,0.401,0.494,0.626,0.793,0.626c0.52,0,0.858-0.626,0.858-1.571c0-1.134-0.299-1.535-0.858-1.535
		C128.816,99.08,128.504,99.611,128.414,101.561z"/>
</g>
<g>
	<path d="M94.913,165.753h7.397v1.169h-7.397v2.186h-1.014v-5.539h1.014V165.753z"/>
	<path d="M99.789,162.65c1.105-0.071,1.807-0.496,1.807-1.429c0-0.544-0.195-1.075-0.507-1.642l0.91-0.343
		c0.325,0.638,0.468,1.37,0.468,2.078c0,1.689-1.417,2.457-3.068,2.457c-1.378,0-3.185-0.508-3.185-2.397
		c0-1.913,1.326-2.434,3.575-2.434V162.65z M97.11,161.363c0,0.638,0.507,1.24,1.807,1.299v-2.692
		C97.644,160.005,97.11,160.501,97.11,161.363z"/>
	<path d="M102.311,154.233h-3.757c-0.754,0-1.443,0.095-1.443,1.016c0,0.626,0.637,1.063,1.183,1.287h4.017v1.052h-4.68
		c-0.494,0-0.819,0.094-1.261,0.13v-0.957l0.832-0.188c-0.273-0.213-1.001-0.674-1.001-1.477c0-1.512,1.001-1.913,2.366-1.913h3.744
		V154.233z"/>
	<path d="M102.311,148.226h-3.757c-0.754,0-1.443,0.095-1.443,1.016c0,0.626,0.637,1.063,1.183,1.287h4.017v1.052h-4.68
		c-0.494,0-0.819,0.094-1.261,0.13v-0.957l0.832-0.188c-0.273-0.213-1.001-0.674-1.001-1.477c0-1.512,1.001-1.913,2.366-1.913h3.744
		V148.226z"/>
	<path d="M99.789,144.722c1.105-0.071,1.807-0.496,1.807-1.429c0-0.544-0.195-1.075-0.507-1.643l0.91-0.342
		c0.325,0.638,0.468,1.37,0.468,2.078c0,1.689-1.417,2.457-3.068,2.457c-1.378,0-3.185-0.508-3.185-2.397
		c0-1.913,1.326-2.434,3.575-2.434V144.722z M97.11,143.435c0,0.638,0.507,1.239,1.807,1.299v-2.692
		C97.644,142.076,97.11,142.572,97.11,143.435z"/>
	<path d="M102.311,136.305h-3.757c-0.754,0-1.443,0.095-1.443,1.016c0,0.626,0.637,1.062,1.183,1.287h4.017v1.052h-4.68
		c-0.494,0-0.819,0.094-1.261,0.13v-0.957l0.832-0.188c-0.273-0.213-1.001-0.674-1.001-1.477c0-1.512,1.001-1.913,2.366-1.913h3.744
		V136.305z"/>
	<path d="M97.02,128.962v0.709c0.234-0.248,0.793-0.591,1.417-0.591c1.053,0,2.262,0.532,2.262,2.327
		c0,0.248-0.104,0.909-0.247,1.157c0.143,0.142,0.273,0.271,0.507,0.271c0.312,0,0.468-0.26,0.585-1.618
		c0.182-2.055,0.741-2.516,1.664-2.516c1.248,0,1.703,1.3,1.703,2.634c0,2.02-0.663,2.669-1.664,2.669
		c-0.702,0-1.04-0.661-1.17-1.004c-0.208,0.438-0.585,0.732-1.066,0.732c-0.429,0-0.741-0.295-1.001-0.578
		c-0.208,0.153-0.702,0.578-1.573,0.578c-0.689,0-2.223-0.33-2.223-2.303c0-0.401,0.052-0.649,0.13-0.909
		c-0.039-0.438-0.117-1.287-0.143-1.854L97.02,128.962z M97.097,131.407c0,0.744,0.468,1.229,1.365,1.229
		c0.884,0,1.365-0.449,1.365-1.24c0-0.922-0.715-1.217-1.417-1.217C97.578,130.179,97.097,130.568,97.097,131.407z M102.415,132.281
		c0.143,0.401,0.494,0.626,0.793,0.626c0.52,0,0.858-0.626,0.858-1.571c0-1.134-0.299-1.535-0.858-1.535
		C102.817,129.801,102.505,130.332,102.415,132.281z"/>
	<path d="M102.311,124.089c-0.052,0-0.585,0.177-0.65,0.188c0.364,0.283,0.806,0.827,0.806,1.465c0,1.228-0.559,2.031-1.716,2.031
		c-1.209,0-2.106-0.626-2.106-2.929v-0.484h-0.377c-0.624,0-1.157,0.165-1.157,0.921c0,0.744,0.247,1.382,0.52,1.901l-0.962,0.366
		c-0.273-0.673-0.455-1.465-0.455-2.303c0-1.146,0.598-1.949,1.898-1.949h2.379c0.468,0,1.131-0.118,1.82-0.188V124.089z
		 M99.45,124.349v0.33c0,1.488,0.403,1.984,1.248,1.984c0.585,0,0.871-0.449,0.871-1.087c0-0.555-0.299-1.004-0.702-1.228H99.45z"/>
	<path d="M102.311,118.093l-0.832,0.188c0.273,0.213,1.001,0.626,1.001,1.43c0,1.44-1.001,1.878-2.366,1.878h-3.744v-1.052h3.757
		c0.741,0,1.443-0.094,1.443-0.98c0-0.625-0.637-1.016-1.183-1.239h-4.018v-1.052h4.68c0.494,0,0.819-0.094,1.261-0.13V118.093z"/>
</g>
<g>
	<path d="M68.483,167.075h2.6v-3.06h0.988v3.06h3.809v1.181h-8.411v-4.382h1.014V167.075z"/>
	<path d="M75.88,162.438h-8.542v-1.052h8.542V162.438z"/>
	<path d="M75.88,156.369c-0.052,0-0.585,0.177-0.65,0.188c0.364,0.283,0.806,0.827,0.806,1.465c0,1.228-0.559,2.031-1.716,2.031
		c-1.209,0-2.106-0.626-2.106-2.929v-0.484h-0.377c-0.624,0-1.157,0.165-1.157,0.921c0,0.744,0.247,1.382,0.52,1.901l-0.962,0.366
		c-0.273-0.673-0.455-1.465-0.455-2.303c0-1.146,0.598-1.949,1.898-1.949h2.379c0.468,0,1.131-0.118,1.82-0.188V156.369z
		 M73.021,156.629v0.33c0,1.488,0.403,1.984,1.248,1.984c0.585,0,0.871-0.449,0.871-1.087c0-0.555-0.299-1.004-0.702-1.228H73.021z"
		/>
	<path d="M76.036,151.613c0,1.712-1.261,2.527-3.081,2.527c-1.924,0-3.172-0.791-3.172-2.563c0-0.483,0.234-1.382,0.403-1.771
		l0.962,0.366c-0.221,0.401-0.468,1.016-0.468,1.418c0,1.051,0.754,1.464,2.275,1.464c1.391,0,2.184-0.46,2.184-1.452
		c0-0.366-0.208-1.004-0.468-1.465l0.962-0.366C75.854,150.184,76.036,151.199,76.036,151.613z"/>
	<path d="M75.88,145.191h-3.731c-0.806,0-1.469,0.118-1.469,1.016c0,0.649,0.663,1.075,1.183,1.287h4.017v1.052h-8.542v-1.052h3.432
		c-0.351-0.2-1.001-0.696-1.001-1.452c0-1.512,1.04-1.901,2.327-1.901h3.783V145.191z"/>
	<path d="M70.589,137.849v0.709c0.234-0.248,0.793-0.591,1.417-0.591c1.053,0,2.262,0.532,2.262,2.327
		c0,0.248-0.104,0.909-0.247,1.157c0.143,0.142,0.273,0.271,0.507,0.271c0.312,0,0.468-0.26,0.585-1.618
		c0.182-2.055,0.741-2.516,1.664-2.516c1.248,0,1.703,1.3,1.703,2.634c0,2.02-0.663,2.669-1.664,2.669
		c-0.702,0-1.04-0.661-1.17-1.004c-0.208,0.438-0.585,0.732-1.066,0.732c-0.429,0-0.741-0.295-1.001-0.578
		c-0.208,0.153-0.702,0.578-1.573,0.578c-0.689,0-2.223-0.33-2.223-2.303c0-0.401,0.052-0.649,0.13-0.909
		c-0.039-0.438-0.117-1.287-0.143-1.854L70.589,137.849z M70.667,140.294c0,0.744,0.468,1.229,1.365,1.229
		c0.884,0,1.365-0.449,1.365-1.24c0-0.922-0.715-1.217-1.417-1.217C71.148,139.065,70.667,139.455,70.667,140.294z M75.984,141.168
		c0.143,0.401,0.494,0.626,0.793,0.626c0.52,0,0.858-0.626,0.858-1.571c0-1.134-0.299-1.535-0.858-1.535
		C76.387,138.688,76.075,139.219,75.984,141.168z"/>
	<path d="M75.88,132.976c-0.052,0-0.585,0.177-0.65,0.188c0.364,0.283,0.806,0.827,0.806,1.465c0,1.228-0.559,2.031-1.716,2.031
		c-1.209,0-2.106-0.626-2.106-2.929v-0.484h-0.377c-0.624,0-1.157,0.165-1.157,0.921c0,0.744,0.247,1.382,0.52,1.901l-0.962,0.366
		c-0.273-0.673-0.455-1.465-0.455-2.303c0-1.146,0.598-1.949,1.898-1.949h2.379c0.468,0,1.131-0.118,1.82-0.188V132.976z
		 M73.021,133.235v0.33c0,1.488,0.403,1.984,1.248,1.984c0.585,0,0.871-0.449,0.871-1.087c0-0.555-0.299-1.004-0.702-1.228H73.021z"
		/>
	<path d="M75.88,126.979l-0.832,0.188c0.273,0.213,1.001,0.626,1.001,1.43c0,1.44-1.001,1.878-2.366,1.878h-3.744v-1.052h3.757
		c0.741,0,1.443-0.094,1.443-0.98c0-0.625-0.637-1.016-1.183-1.239h-4.017v-1.052h4.68c0.494,0,0.819-0.094,1.261-0.13V126.979z"/>
</g>
<g>
	<path d="M46.029,165.682v1.394h3.419v1.181h-8.411v-2.444c0-1.56,0.611-2.634,2.457-2.634
		C45.313,163.178,46.029,164.146,46.029,165.682z M42.038,165.835v1.24h2.99v-1.3c0-0.838-0.338-1.394-1.534-1.394
		C42.246,164.382,42.038,165.02,42.038,165.835z"/>
	<path d="M49.617,159.509c0,1.878-1.456,2.527-3.172,2.527c-1.638,0-3.107-0.661-3.107-2.527c0-1.878,1.391-2.516,3.107-2.516
		C48.161,156.993,49.617,157.643,49.617,159.509z M44.248,159.509c0,0.992,0.741,1.44,2.197,1.44c1.378,0,2.262-0.378,2.262-1.44
		c0-1.027-0.819-1.43-2.262-1.43C44.989,158.079,44.248,158.457,44.248,159.509z"/>
	<path d="M49.448,152.309H45.69c-0.754,0-1.443,0.095-1.443,1.016c0,0.626,0.637,1.062,1.183,1.287h4.017v1.052h-4.68
		c-0.494,0-0.819,0.094-1.261,0.13v-0.957l0.832-0.188c-0.273-0.213-1.001-0.674-1.001-1.477c0-1.512,1.001-1.913,2.366-1.913h3.744
		V152.309z"/>
	<path d="M44.157,144.966v0.709c0.234-0.248,0.793-0.591,1.417-0.591c1.053,0,2.262,0.532,2.262,2.327
		c0,0.248-0.104,0.909-0.247,1.157c0.143,0.142,0.273,0.271,0.507,0.271c0.312,0,0.468-0.26,0.585-1.618
		c0.182-2.055,0.741-2.516,1.664-2.516c1.248,0,1.703,1.3,1.703,2.634c0,2.02-0.663,2.669-1.664,2.669
		c-0.702,0-1.04-0.661-1.17-1.004c-0.208,0.438-0.585,0.732-1.066,0.732c-0.429,0-0.741-0.295-1.001-0.578
		c-0.208,0.153-0.702,0.578-1.573,0.578c-0.689,0-2.223-0.33-2.223-2.303c0-0.401,0.052-0.649,0.13-0.909
		c-0.039-0.438-0.117-1.287-0.143-1.854L44.157,144.966z M44.234,147.411c0,0.744,0.468,1.229,1.365,1.229
		c0.884,0,1.365-0.449,1.365-1.24c0-0.922-0.715-1.217-1.417-1.217C44.716,146.183,44.234,146.572,44.234,147.411z M49.552,148.285
		c0.143,0.401,0.494,0.626,0.793,0.626c0.52,0,0.858-0.626,0.858-1.571c0-1.134-0.299-1.535-0.858-1.535
		C49.955,145.805,49.643,146.336,49.552,148.285z"/>
	<path d="M49.448,140.093c-0.052,0-0.585,0.177-0.65,0.188c0.364,0.283,0.806,0.827,0.806,1.465c0,1.228-0.559,2.031-1.716,2.031
		c-1.209,0-2.106-0.626-2.106-2.929v-0.484h-0.377c-0.624,0-1.157,0.165-1.157,0.921c0,0.744,0.247,1.382,0.52,1.901l-0.962,0.366
		c-0.273-0.673-0.455-1.465-0.455-2.303c0-1.146,0.598-1.949,1.898-1.949h2.379c0.468,0,1.131-0.118,1.82-0.188V140.093z
		 M46.588,140.353v0.33c0,1.488,0.403,1.984,1.248,1.984c0.585,0,0.871-0.449,0.871-1.087c0-0.555-0.299-1.004-0.702-1.228H46.588z"
		/>
	<path d="M49.448,134.097l-0.832,0.188c0.273,0.213,1.001,0.626,1.001,1.43c0,1.44-1.001,1.878-2.366,1.878h-3.744v-1.052h3.757
		c0.741,0,1.443-0.094,1.443-0.98c0-0.625-0.637-1.016-1.183-1.239h-4.017v-1.052h4.68c0.494,0,0.819-0.094,1.261-0.13V134.097z"/>
</g>
<g>
	<path d="M155.044,168.256h-8.411v-1.181h7.371v-3.331h1.04V168.256z"/>
	<path d="M155.044,159.366l-0.832,0.188c0.273,0.213,1.001,0.626,1.001,1.43c0,1.44-1.001,1.878-2.366,1.878h-3.744v-1.052h3.757
		c0.741,0,1.443-0.094,1.443-0.98c0-0.625-0.637-1.016-1.183-1.239h-4.017v-1.052h4.68c0.494,0,0.819-0.094,1.261-0.13V159.366z"/>
	<path d="M155.044,153.583h-3.757c-0.754,0-1.443,0.095-1.443,1.016c0,0.626,0.637,1.063,1.183,1.287h4.017v1.052h-4.68
		c-0.494,0-0.819,0.094-1.261,0.13v-0.957l0.832-0.188c-0.273-0.213-1.001-0.674-1.001-1.477c0-1.512,1.001-1.913,2.366-1.913h3.744
		V153.583z"/>
	<path d="M149.753,146.24v0.709c0.234-0.248,0.793-0.591,1.417-0.591c1.053,0,2.262,0.532,2.262,2.327
		c0,0.248-0.104,0.909-0.247,1.157c0.143,0.142,0.273,0.271,0.507,0.271c0.312,0,0.468-0.26,0.585-1.618
		c0.182-2.055,0.741-2.516,1.664-2.516c1.248,0,1.703,1.3,1.703,2.634c0,2.02-0.663,2.669-1.664,2.669
		c-0.702,0-1.04-0.661-1.17-1.004c-0.208,0.438-0.585,0.732-1.066,0.732c-0.429,0-0.741-0.295-1.001-0.578
		c-0.208,0.153-0.702,0.578-1.573,0.578c-0.689,0-2.223-0.33-2.223-2.303c0-0.401,0.052-0.649,0.13-0.909
		c-0.039-0.438-0.117-1.287-0.143-1.854L149.753,146.24z M149.831,148.686c0,0.744,0.468,1.229,1.365,1.229
		c0.884,0,1.365-0.449,1.365-1.24c0-0.922-0.715-1.217-1.417-1.217C150.312,147.457,149.831,147.847,149.831,148.686z
		 M155.148,149.56c0.143,0.401,0.494,0.626,0.793,0.626c0.52,0,0.858-0.626,0.858-1.571c0-1.134-0.299-1.535-0.858-1.535
		C155.551,147.079,155.239,147.61,155.148,149.56z"/>
	<path d="M155.044,141.367c-0.052,0-0.585,0.177-0.65,0.188c0.364,0.283,0.806,0.827,0.806,1.465c0,1.228-0.559,2.031-1.716,2.031
		c-1.209,0-2.106-0.626-2.106-2.929v-0.484h-0.377c-0.624,0-1.157,0.165-1.157,0.921c0,0.744,0.247,1.382,0.52,1.901l-0.962,0.366
		c-0.273-0.673-0.455-1.465-0.455-2.303c0-1.146,0.598-1.949,1.898-1.949h2.379c0.468,0,1.131-0.118,1.82-0.188V141.367z
		 M152.185,141.627v0.33c0,1.488,0.403,1.984,1.248,1.984c0.585,0,0.871-0.449,0.871-1.087c0-0.555-0.299-1.004-0.702-1.228H152.185
		z"/>
	<path d="M155.044,135.371l-0.832,0.188c0.273,0.213,1.001,0.626,1.001,1.43c0,1.44-1.001,1.878-2.366,1.878h-3.744v-1.052h3.757
		c0.741,0,1.443-0.094,1.443-0.979c0-0.626-0.637-1.017-1.183-1.24h-4.017v-1.052h4.68c0.494,0,0.819-0.094,1.261-0.13V135.371z"/>
</g>
<g>
	<path d="M177.961,165.682v1.394h3.42v1.181h-8.412v-2.444c0-1.56,0.611-2.634,2.457-2.634
		C177.246,163.178,177.961,164.146,177.961,165.682z M173.971,165.835v1.24h2.989v-1.3c0-0.838-0.338-1.394-1.534-1.394
		C174.178,164.382,173.971,165.02,173.971,165.835z"/>
	<path d="M174.113,161.788h-1.145v-1.134h1.145V161.788z M181.381,161.753h-5.941v-1.063h5.941V161.753z"/>
	<path d="M181.381,155.719h-3.758c-0.754,0-1.443,0.095-1.443,1.016c0,0.626,0.638,1.062,1.184,1.287h4.018v1.052H176.7
		c-0.494,0-0.819,0.094-1.261,0.13v-0.957l0.832-0.188c-0.273-0.213-1.002-0.674-1.002-1.477c0-1.512,1.002-1.913,2.367-1.913h3.744
		V155.719z"/>
	<path d="M180.483,152.298v-2.941h0.897v3.779l-0.963,0.366l-4.082-3.118v2.787h-0.896v-3.602l0.962-0.378L180.483,152.298z"/>
	<path d="M176.09,143.336v0.709c0.233-0.248,0.793-0.591,1.416-0.591c1.053,0,2.263,0.532,2.263,2.327
		c0,0.248-0.104,0.909-0.247,1.157c0.143,0.142,0.273,0.271,0.507,0.271c0.312,0,0.468-0.26,0.585-1.618
		c0.182-2.055,0.741-2.516,1.664-2.516c1.248,0,1.703,1.3,1.703,2.634c0,2.02-0.663,2.669-1.664,2.669
		c-0.702,0-1.04-0.661-1.17-1.004c-0.208,0.438-0.585,0.732-1.066,0.732c-0.429,0-0.74-0.295-1.001-0.578
		c-0.208,0.153-0.702,0.578-1.573,0.578c-0.688,0-2.223-0.33-2.223-2.303c0-0.401,0.052-0.649,0.13-0.909
		c-0.039-0.438-0.117-1.287-0.144-1.854L176.09,143.336z M176.167,145.781c0,0.744,0.468,1.229,1.365,1.229
		c0.884,0,1.365-0.449,1.365-1.24c0-0.922-0.716-1.217-1.417-1.217C176.648,144.553,176.167,144.942,176.167,145.781z
		 M181.484,146.655c0.143,0.401,0.494,0.626,0.793,0.626c0.52,0,0.857-0.626,0.857-1.571c0-1.134-0.299-1.535-0.857-1.535
		C181.887,144.175,181.575,144.706,181.484,146.655z"/>
	<path d="M181.381,138.463c-0.053,0-0.586,0.177-0.65,0.188c0.363,0.283,0.806,0.827,0.806,1.465c0,1.228-0.559,2.031-1.716,2.031
		c-1.209,0-2.105-0.626-2.105-2.929v-0.484h-0.377c-0.625,0-1.158,0.165-1.158,0.921c0,0.744,0.248,1.382,0.521,1.901l-0.962,0.366
		c-0.273-0.673-0.455-1.465-0.455-2.303c0-1.146,0.598-1.949,1.898-1.949h2.379c0.468,0,1.131-0.118,1.82-0.188V138.463z
		 M178.521,138.723v0.33c0,1.488,0.403,1.984,1.248,1.984c0.585,0,0.87-0.449,0.87-1.087c0-0.555-0.299-1.004-0.701-1.228H178.521z"
		/>
	<path d="M181.381,132.467l-0.832,0.188c0.272,0.213,1,0.626,1,1.43c0,1.44-1,1.878-2.365,1.878h-3.744v-1.052h3.757
		c0.741,0,1.442-0.094,1.442-0.979c0-0.626-0.637-1.017-1.183-1.24h-4.017v-1.052h4.68c0.494,0,0.819-0.094,1.262-0.13V132.467z"/>
</g>
</svg>
