<?xml version="1.0" encoding="utf-8"?>
<!-- Generator: Adobe Illustrator 16.0.0, SVG Export Plug-In . SVG Version: 6.00 Build 0)  -->
<!DOCTYPE svg PUBLIC "-//W3C//DTD SVG 1.1//EN" "http://www.w3.org/Graphics/SVG/1.1/DTD/svg11.dtd">
<svg version="1.1" id="Layer_1" xmlns="http://www.w3.org/2000/svg" xmlns:xlink="http://www.w3.org/1999/xlink" x="0px" y="0px"
	 width="312px" height="212px" viewBox="0 0 312 212" enable-background="new 0 0 312 212" xml:space="preserve">
<rect fill="#FFFFFF" width="312" height="212"/>
<rect x="16.136" y="156.969" fill="none" width="115.531" height="32.658"/>
<text transform="matrix(0.9079 0 0 1 16.1357 164.1953)"><tspan x="0" y="0" font-family="'Colaborate-Regular'" font-size="11">Vereinfachte Statistik dazu, </tspan><tspan x="0" y="10" font-family="'Colaborate-Regular'" font-size="11">wie Touristen ihren Urlaub </tspan><tspan x="0" y="20" font-family="'Colaborate-Regular'" font-size="11">im Pongau gebucht haben.</tspan></text>
<rect x="15.136" y="13.48" fill="none" width="276.335" height="29.332"/>
<text transform="matrix(0.9079 0 0 1 15.1357 23.9922)"><tspan x="0" y="0" font-family="'Colaborate-Medium'" font-size="16">URLAUBER BUCHEN MEIST PER TELEFON </tspan><tspan x="0" y="14" font-family="'Colaborate-Thin'" font-size="14">Online-Buchungen abgeschlagen</tspan></text>
<rect x="96.771" y="187.627" fill="#ABF4E9" width="167.597" height="6.059"/>
<rect x="134.074" y="187.627" fill="#45E5D3" width="30.972" height="6.059"/>
<rect x="165.046" y="187.627" fill="#0DAF9E" width="43.02" height="6.059"/>
<rect x="206.143" y="187.627" fill="#098274" width="58.221" height="6.059"/>
<polygon fill="none" points="267.38,79.524 232.12,76.208 232.12,42.953 267.38,46.27 "/>
<text transform="matrix(0.9079 0 0 1 236.8848 62.0425)"><tspan x="0" y="0" font-family="'Colaborate-Medium'" font-size="13">15 %</tspan><tspan x="-4.003" y="10.548" font-family="'Colaborate-Medium'" font-size="13">Online</tspan></text>
<g>
	<ellipse fill="#78ECDE" cx="169.499" cy="109.898" rx="57.95" ry="59.148"/>
	<g>
		<path fill="#FF5346" d="M238.985,110.318c-0.053-28.129-16.12-52.357-39.382-63.779l-30.277,63.779H238.985z"/>
	</g>
	<path fill="#CF401F" d="M169.405,109.832l-0.01,0.012l81.265,22.932c3.889-14.461,3.883-29.144,0.625-42.838L169.405,109.832z"/>
</g>
<rect x="60.654" y="98.926" fill="none" width="43.952" height="21.216"/>
<text transform="matrix(0.9079 0 0 1 69.7646 107.4668)"><tspan x="0" y="0" font-family="'Colaborate-Medium'" font-size="13">78 %</tspan><tspan x="-6.714" y="10.549" font-family="'Colaborate-Medium'" font-size="13">Telefon</tspan></text>
<polygon fill="none" points="292.68,135.104 258.396,130.723 258.396,86.785 292.68,91.166 "/>
<text transform="matrix(0.9079 0 0 1 261.3896 94.4854)"><tspan x="0" y="0" font-family="'Colaborate-Medium'" font-size="11.7203"> </tspan><tspan x="4.923" y="10.548" font-family="'Colaborate-Medium'" font-size="13">7 %</tspan><tspan x="-2.175" y="21.097" font-family="'Colaborate-Medium'" font-size="13">Reise</tspan><tspan x="28.791" y="21.097" font-family="'Colaborate-Medium'" font-size="13">-</tspan><tspan x="2.713" y="31.646" font-family="'Colaborate-Medium'" font-size="13">büro</tspan></text>
</svg>
