<svg xmlns="http://www.w3.org/2000/svg" xmlns:xlink="http://www.w3.org/1999/xlink" version="1.1" x="0px" y="0px" viewBox="0 0 100 125" style="enable-background:new 0 0 100 100;" xml:space="preserve"><g><polygon points="18,19 14,19 14,82 87,82 87,78 18,78  "/><path d="M79,20c-4.4,0-8,3.6-8,8c0,1.6,0.5,3.1,1.3,4.4L60.8,44.9C59.6,44.3,58.4,44,57,44c-4.4,0-8,3.6-8,8c0,0.6,0.1,1.2,0.2,1.8   l-13.3,6.9C34.5,59,32.4,58,30,58c-4.4,0-8,3.6-8,8s3.6,8,8,8c4.4,0,8-3.6,8-8c0-0.6-0.1-1.2-0.2-1.8l13.3-6.9   C52.5,59,54.6,60,57,60c4.4,0,8-3.6,8-8c0-1.6-0.5-3.1-1.3-4.4l11.5-12.6c1.1,0.6,2.4,0.9,3.8,0.9c4.4,0,8-3.6,8-8S83.4,20,79,20z    M30,70c-2.2,0-4-1.8-4-4c0-2.2,1.8-4,4-4c2.2,0,4,1.8,4,4C34,68.2,32.2,70,30,70z M57,56c-2.2,0-4-1.8-4-4c0-2.2,1.8-4,4-4   c2.2,0,4,1.8,4,4C61,54.2,59.2,56,57,56z M79,32c-2.2,0-4-1.8-4-4c0-2.2,1.8-4,4-4c2.2,0,4,1.8,4,4C83,30.2,81.2,32,79,32z"/></g><text x="0" y="115" fill="#000000" font-size="5px" font-weight="bold" font-family="'Helvetica Neue', Helvetica, Arial-Unicode, Arial, Sans-serif">Created by Paweł Wypych</text><text x="0" y="120" fill="#000000" font-size="5px" font-weight="bold" font-family="'Helvetica Neue', Helvetica, Arial-Unicode, Arial, Sans-serif">from the Noun Project</text></svg>