<svg xmlns="http://www.w3.org/2000/svg" xmlns:xlink="http://www.w3.org/1999/xlink" version="1.1" x="0px" y="0px" viewBox="0 0 100 125" enable-background="new 0 0 100 100" xml:space="preserve"><g><g><path d="M95,97H4.5C3.671,97,3,96.328,3,95.5V5c0-0.829,0.671-1.5,1.5-1.5S6,4.171,6,5v89h89c0.828,0,1.5,0.672,1.5,1.5    S95.828,97,95,97z"/></g><g><path d="M23.5,82.5c-3.584,0-6.5-2.916-6.5-6.5s2.916-6.5,6.5-6.5S30,72.416,30,76S27.084,82.5,23.5,82.5z M23.5,71.5    c-2.481,0-4.5,2.019-4.5,4.5s2.019,4.5,4.5,4.5S28,78.481,28,76S25.981,71.5,23.5,71.5z"/></g><g><path d="M28.5,61.5c-3.584,0-6.5-2.916-6.5-6.5s2.916-6.5,6.5-6.5S35,51.416,35,55S32.084,61.5,28.5,61.5z M28.5,50.5    c-2.481,0-4.5,2.019-4.5,4.5s2.019,4.5,4.5,4.5S33,57.481,33,55S30.981,50.5,28.5,50.5z"/></g><g><path d="M50.5,61.5c-3.584,0-6.5-2.916-6.5-6.5s2.916-6.5,6.5-6.5S57,51.416,57,55S54.084,61.5,50.5,61.5z M50.5,50.5    c-2.481,0-4.5,2.019-4.5,4.5s2.019,4.5,4.5,4.5S55,57.481,55,55S52.981,50.5,50.5,50.5z"/></g><g><path d="M62.5,44.5c-3.584,0-6.5-2.916-6.5-6.5s2.916-6.5,6.5-6.5S69,34.416,69,38S66.084,44.5,62.5,44.5z M62.5,33.5    c-2.481,0-4.5,2.019-4.5,4.5s2.019,4.5,4.5,4.5S67,40.481,67,38S64.981,33.5,62.5,33.5z"/></g><g><path d="M81.5,25.5c-3.584,0-6.5-2.916-6.5-6.5s2.916-6.5,6.5-6.5S88,15.416,88,19S85.084,25.5,81.5,25.5z M81.5,14.5    c-2.481,0-4.5,2.019-4.5,4.5s2.019,4.5,4.5,4.5S86,21.481,86,19S83.981,14.5,81.5,14.5z"/></g></g><text x="0" y="115" fill="#000000" font-size="5px" font-weight="bold" font-family="'Helvetica Neue', Helvetica, Arial-Unicode, Arial, Sans-serif">Created by Agus Purwanto</text><text x="0" y="120" fill="#000000" font-size="5px" font-weight="bold" font-family="'Helvetica Neue', Helvetica, Arial-Unicode, Arial, Sans-serif">from the Noun Project</text></svg>